<?xml version="1.0" encoding="UTF-8"?>
<svg xmlns="http://www.w3.org/2000/svg"
     width="12.847518345726183" height="30.0"
     viewBox="-6.4237591728630905 -30.0 12.847518345726183 30.0">
<line x1="0.0" y1="0.0" x2="6.123233995736766E-17" y2="-1.0" stroke="black" stroke-width="0.1" stroke-linecap="round" />
<line x1="6.123233995736766E-17" y1="-1.0" x2="1.2246467991473532E-16" y2="-2.0" stroke="black" stroke-width="0.1" stroke-linecap="round" />
<line x1="1.2246467991473532E-16" y1="-2.0" x2="1.8369701987210297E-16" y2="-3.0" stroke="black" stroke-width="0.1" stroke-linecap="round" />
<line x1="1.8369701987210297E-16" y1="-3.0" x2="2.4492935982947064E-16" y2="-4.0" stroke="black" stroke-width="0.1" stroke-linecap="round" />
<line x1="2.4492935982947064E-16" y1="-4.0" x2="3.061616997868383E-16" y2="-5.0" stroke="black" stroke-width="0.1" stroke-linecap="round" />
<line x1="3.061616997868383E-16" y1="-5.0" x2="3.67394039744206E-16" y2="-6.0" stroke="black" stroke-width="0.1" stroke-linecap="round" />
<line x1="3.67394039744206E-16" y1="-6.0" x2="4.2862637970157366E-16" y2="-7.0" stroke="black" stroke-width="0.1" stroke-linecap="round" />
<line x1="4.2862637970157366E-16" y1="-7.0" x2="4.898587196589413E-16" y2="-8.0" stroke="black" stroke-width="0.1" stroke-linecap="round" />
<line x1="4.898587196589413E-16" y1="-8.0" x2="0.43365908458754493" y2="-8.901077021322092" stroke="black" stroke-width="0.1" stroke-linecap="round" />
<line x1="0.43365908458754493" y1="-8.901077021322092" x2="0.8673181691750893" y2="-9.802154042644183" stroke="black" stroke-width="0.1" stroke-linecap="round" />
<line x1="0.8673181691750893" y1="-9.802154042644183" x2="1.3009772537626336" y2="-10.703231063966275" stroke="black" stroke-width="0.1" stroke-linecap="round" />
<line x1="1.3009772537626336" y1="-10.703231063966275" x2="1.7346363383501782" y2="-11.604308085288366" stroke="black" stroke-width="0.1" stroke-linecap="round" />
<line x1="1.7346363383501782" y1="-11.604308085288366" x2="2.516156810768997" y2="-12.228187681997753" stroke="black" stroke-width="0.1" stroke-linecap="round" />
<line x1="2.516156810768997" y1="-12.228187681997753" x2="3.2976772831878156" y2="-12.852067278707139" stroke="black" stroke-width="0.1" stroke-linecap="round" />
<line x1="3.2976772831878156" y1="-12.852067278707139" x2="4.272438477379037" y2="-13.075317394718091" stroke="black" stroke-width="0.1" stroke-linecap="round" />
<line x1="4.272438477379037" y1="-13.075317394718091" x2="5.247199671570259" y2="-13.298567510729043" stroke="black" stroke-width="0.1" stroke-linecap="round" />
<line x1="3.2976772831878156" y1="-12.852067278707139" x2="3.73133636777536" y2="-13.75314430002923" stroke="black" stroke-width="0.1" stroke-linecap="round" />
<line x1="3.73133636777536" y1="-13.75314430002923" x2="4.164995452362905" y2="-14.654221321351322" stroke="black" stroke-width="0.1" stroke-linecap="round" />
<line x1="3.2976772831878156" y1="-12.852067278707139" x2="4.079197755606635" y2="-13.475946875416525" stroke="black" stroke-width="0.1" stroke-linecap="round" />
<line x1="4.079197755606635" y1="-13.475946875416525" x2="4.860718228025454" y2="-14.099826472125912" stroke="black" stroke-width="0.1" stroke-linecap="round" />
<line x1="4.860718228025454" y1="-14.099826472125912" x2="5.642238700444273" y2="-14.723706068835298" stroke="black" stroke-width="0.1" stroke-linecap="round" />
<line x1="5.642238700444273" y1="-14.723706068835298" x2="6.423759172863092" y2="-15.347585665544685" stroke="black" stroke-width="0.1" stroke-linecap="round" />
<line x1="1.7346363383501782" y1="-11.604308085288366" x2="1.7346363383501782" y2="-12.604308085288366" stroke="black" stroke-width="0.1" stroke-linecap="round" />
<line x1="1.7346363383501782" y1="-12.604308085288366" x2="1.7346363383501782" y2="-13.604308085288366" stroke="black" stroke-width="0.1" stroke-linecap="round" />
<line x1="1.7346363383501782" y1="-13.604308085288366" x2="2.1682954229377227" y2="-14.505385106610458" stroke="black" stroke-width="0.1" stroke-linecap="round" />
<line x1="2.1682954229377227" y1="-14.505385106610458" x2="2.6019545075252672" y2="-15.40646212793255" stroke="black" stroke-width="0.1" stroke-linecap="round" />
<line x1="1.7346363383501782" y1="-13.604308085288366" x2="1.3009772537626338" y2="-14.505385106610458" stroke="black" stroke-width="0.1" stroke-linecap="round" />
<line x1="1.3009772537626338" y1="-14.505385106610458" x2="0.8673181691750895" y2="-15.40646212793255" stroke="black" stroke-width="0.1" stroke-linecap="round" />
<line x1="1.7346363383501782" y1="-13.604308085288366" x2="1.7346363383501782" y2="-14.604308085288366" stroke="black" stroke-width="0.1" stroke-linecap="round" />
<line x1="1.7346363383501782" y1="-14.604308085288366" x2="1.7346363383501782" y2="-15.604308085288366" stroke="black" stroke-width="0.1" stroke-linecap="round" />
<line x1="1.7346363383501782" y1="-15.604308085288366" x2="1.7346363383501782" y2="-16.604308085288366" stroke="black" stroke-width="0.1" stroke-linecap="round" />
<line x1="1.7346363383501782" y1="-16.604308085288366" x2="1.7346363383501782" y2="-17.604308085288366" stroke="black" stroke-width="0.1" stroke-linecap="round" />
<line x1="1.7346363383501782" y1="-11.604308085288366" x2="2.1682954229377227" y2="-12.505385106610458" stroke="black" stroke-width="0.1" stroke-linecap="round" />
<line x1="2.1682954229377227" y1="-12.505385106610458" x2="2.6019545075252672" y2="-13.40646212793255" stroke="black" stroke-width="0.1" stroke-linecap="round" />
<line x1="2.6019545075252672" y1="-13.40646212793255" x2="3.035613592112812" y2="-14.30753914925464" stroke="black" stroke-width="0.1" stroke-linecap="round" />
<line x1="3.035613592112812" y1="-14.30753914925464" x2="3.4692726767003563" y2="-15.208616170576732" stroke="black" stroke-width="0.1" stroke-linecap="round" />
<line x1="3.4692726767003563" y1="-15.208616170576732" x2="3.902931761287901" y2="-16.109693191898824" stroke="black" stroke-width="0.1" stroke-linecap="round" />
<line x1="3.902931761287901" y1="-16.109693191898824" x2="4.336590845875445" y2="-17.010770213220916" stroke="black" stroke-width="0.1" stroke-linecap="round" />
<line x1="4.336590845875445" y1="-17.010770213220916" x2="5.118111318294265" y2="-17.634649809930302" stroke="black" stroke-width="0.1" stroke-linecap="round" />
<line x1="5.118111318294265" y1="-17.634649809930302" x2="5.899631790713084" y2="-18.25852940663969" stroke="black" stroke-width="0.1" stroke-linecap="round" />
<line x1="4.336590845875445" y1="-17.010770213220916" x2="4.336590845875445" y2="-18.010770213220916" stroke="black" stroke-width="0.1" stroke-linecap="round" />
<line x1="4.336590845875445" y1="-18.010770213220916" x2="4.336590845875445" y2="-19.010770213220916" stroke="black" stroke-width="0.1" stroke-linecap="round" />
<line x1="4.336590845875445" y1="-17.010770213220916" x2="4.77024993046299" y2="-17.911847234543007" stroke="black" stroke-width="0.1" stroke-linecap="round" />
<line x1="4.77024993046299" y1="-17.911847234543007" x2="5.2039090150505345" y2="-18.8129242558651" stroke="black" stroke-width="0.1" stroke-linecap="round" />
<line x1="5.2039090150505345" y1="-18.8129242558651" x2="5.637568099638079" y2="-19.71400127718719" stroke="black" stroke-width="0.1" stroke-linecap="round" />
<line x1="5.637568099638079" y1="-19.71400127718719" x2="6.071227184225624" y2="-20.61507829850928" stroke="black" stroke-width="0.1" stroke-linecap="round" />
<line x1="4.898587196589413E-16" y1="-8.0" x2="-0.4336590845875438" y2="-8.901077021322092" stroke="black" stroke-width="0.1" stroke-linecap="round" />
<line x1="-0.4336590845875438" y1="-8.901077021322092" x2="-0.8673181691750882" y2="-9.802154042644183" stroke="black" stroke-width="0.1" stroke-linecap="round" />
<line x1="-0.8673181691750882" y1="-9.802154042644183" x2="-1.3009772537626325" y2="-10.703231063966275" stroke="black" stroke-width="0.1" stroke-linecap="round" />
<line x1="-1.3009772537626325" y1="-10.703231063966275" x2="-1.7346363383501768" y2="-11.604308085288366" stroke="black" stroke-width="0.1" stroke-linecap="round" />
<line x1="-1.7346363383501768" y1="-11.604308085288366" x2="-1.7346363383501768" y2="-12.604308085288366" stroke="black" stroke-width="0.1" stroke-linecap="round" />
<line x1="-1.7346363383501768" y1="-12.604308085288366" x2="-1.7346363383501768" y2="-13.604308085288366" stroke="black" stroke-width="0.1" stroke-linecap="round" />
<line x1="-1.7346363383501768" y1="-13.604308085288366" x2="-1.3009772537626323" y2="-14.505385106610458" stroke="black" stroke-width="0.1" stroke-linecap="round" />
<line x1="-1.3009772537626323" y1="-14.505385106610458" x2="-0.8673181691750879" y2="-15.40646212793255" stroke="black" stroke-width="0.1" stroke-linecap="round" />
<line x1="-1.7346363383501768" y1="-13.604308085288366" x2="-2.168295422937721" y2="-14.505385106610458" stroke="black" stroke-width="0.1" stroke-linecap="round" />
<line x1="-2.168295422937721" y1="-14.505385106610458" x2="-2.6019545075252655" y2="-15.40646212793255" stroke="black" stroke-width="0.1" stroke-linecap="round" />
<line x1="-1.7346363383501768" y1="-13.604308085288366" x2="-1.7346363383501768" y2="-14.604308085288366" stroke="black" stroke-width="0.1" stroke-linecap="round" />
<line x1="-1.7346363383501768" y1="-14.604308085288366" x2="-1.7346363383501768" y2="-15.604308085288366" stroke="black" stroke-width="0.1" stroke-linecap="round" />
<line x1="-1.7346363383501768" y1="-15.604308085288366" x2="-1.7346363383501768" y2="-16.604308085288366" stroke="black" stroke-width="0.1" stroke-linecap="round" />
<line x1="-1.7346363383501768" y1="-16.604308085288366" x2="-1.7346363383501768" y2="-17.604308085288366" stroke="black" stroke-width="0.1" stroke-linecap="round" />
<line x1="-1.7346363383501768" y1="-11.604308085288366" x2="-2.5161568107689956" y2="-12.228187681997753" stroke="black" stroke-width="0.1" stroke-linecap="round" />
<line x1="-2.5161568107689956" y1="-12.228187681997753" x2="-3.2976772831878143" y2="-12.852067278707139" stroke="black" stroke-width="0.1" stroke-linecap="round" />
<line x1="-3.2976772831878143" y1="-12.852067278707139" x2="-3.7313363677753584" y2="-13.75314430002923" stroke="black" stroke-width="0.1" stroke-linecap="round" />
<line x1="-3.7313363677753584" y1="-13.75314430002923" x2="-4.164995452362903" y2="-14.654221321351322" stroke="black" stroke-width="0.1" stroke-linecap="round" />
<line x1="-3.2976772831878143" y1="-12.852067278707139" x2="-4.272438477379036" y2="-13.075317394718091" stroke="black" stroke-width="0.1" stroke-linecap="round" />
<line x1="-4.272438477379036" y1="-13.075317394718091" x2="-5.247199671570257" y2="-13.298567510729043" stroke="black" stroke-width="0.1" stroke-linecap="round" />
<line x1="-3.2976772831878143" y1="-12.852067278707139" x2="-4.079197755606633" y2="-13.475946875416525" stroke="black" stroke-width="0.1" stroke-linecap="round" />
<line x1="-4.079197755606633" y1="-13.475946875416525" x2="-4.860718228025452" y2="-14.099826472125912" stroke="black" stroke-width="0.1" stroke-linecap="round" />
<line x1="-4.860718228025452" y1="-14.099826472125912" x2="-5.642238700444271" y2="-14.723706068835298" stroke="black" stroke-width="0.1" stroke-linecap="round" />
<line x1="-5.642238700444271" y1="-14.723706068835298" x2="-6.4237591728630905" y2="-15.347585665544685" stroke="black" stroke-width="0.1" stroke-linecap="round" />
<line x1="-1.7346363383501768" y1="-11.604308085288366" x2="-2.168295422937721" y2="-12.505385106610458" stroke="black" stroke-width="0.1" stroke-linecap="round" />
<line x1="-2.168295422937721" y1="-12.505385106610458" x2="-2.6019545075252655" y2="-13.40646212793255" stroke="black" stroke-width="0.1" stroke-linecap="round" />
<line x1="-2.6019545075252655" y1="-13.40646212793255" x2="-3.03561359211281" y2="-14.30753914925464" stroke="black" stroke-width="0.1" stroke-linecap="round" />
<line x1="-3.03561359211281" y1="-14.30753914925464" x2="-3.4692726767003546" y2="-15.208616170576732" stroke="black" stroke-width="0.1" stroke-linecap="round" />
<line x1="-3.4692726767003546" y1="-15.208616170576732" x2="-3.902931761287899" y2="-16.109693191898824" stroke="black" stroke-width="0.1" stroke-linecap="round" />
<line x1="-3.902931761287899" y1="-16.109693191898824" x2="-4.336590845875444" y2="-17.010770213220916" stroke="black" stroke-width="0.1" stroke-linecap="round" />
<line x1="-4.336590845875444" y1="-17.010770213220916" x2="-4.336590845875444" y2="-18.010770213220916" stroke="black" stroke-width="0.1" stroke-linecap="round" />
<line x1="-4.336590845875444" y1="-18.010770213220916" x2="-4.336590845875444" y2="-19.010770213220916" stroke="black" stroke-width="0.1" stroke-linecap="round" />
<line x1="-4.336590845875444" y1="-17.010770213220916" x2="-5.118111318294263" y2="-17.634649809930302" stroke="black" stroke-width="0.1" stroke-linecap="round" />
<line x1="-5.118111318294263" y1="-17.634649809930302" x2="-5.899631790713082" y2="-18.25852940663969" stroke="black" stroke-width="0.1" stroke-linecap="round" />
<line x1="-4.336590845875444" y1="-17.010770213220916" x2="-4.770249930462988" y2="-17.911847234543007" stroke="black" stroke-width="0.1" stroke-linecap="round" />
<line x1="-4.770249930462988" y1="-17.911847234543007" x2="-5.203909015050533" y2="-18.8129242558651" stroke="black" stroke-width="0.1" stroke-linecap="round" />
<line x1="-5.203909015050533" y1="-18.8129242558651" x2="-5.637568099638077" y2="-19.71400127718719" stroke="black" stroke-width="0.1" stroke-linecap="round" />
<line x1="-5.637568099638077" y1="-19.71400127718719" x2="-6.071227184225622" y2="-20.61507829850928" stroke="black" stroke-width="0.1" stroke-linecap="round" />
<line x1="4.898587196589413E-16" y1="-8.0" x2="5.51091059616309E-16" y2="-9.0" stroke="black" stroke-width="0.1" stroke-linecap="round" />
<line x1="5.51091059616309E-16" y1="-9.0" x2="6.123233995736766E-16" y2="-10.0" stroke="black" stroke-width="0.1" stroke-linecap="round" />
<line x1="6.123233995736766E-16" y1="-10.0" x2="6.735557395310443E-16" y2="-11.0" stroke="black" stroke-width="0.1" stroke-linecap="round" />
<line x1="6.735557395310443E-16" y1="-11.0" x2="7.34788079488412E-16" y2="-12.0" stroke="black" stroke-width="0.1" stroke-linecap="round" />
<line x1="7.34788079488412E-16" y1="-12.0" x2="7.960204194457796E-16" y2="-13.0" stroke="black" stroke-width="0.1" stroke-linecap="round" />
<line x1="7.960204194457796E-16" y1="-13.0" x2="8.572527594031473E-16" y2="-14.0" stroke="black" stroke-width="0.1" stroke-linecap="round" />
<line x1="8.572527594031473E-16" y1="-14.0" x2="9.18485099360515E-16" y2="-15.0" stroke="black" stroke-width="0.1" stroke-linecap="round" />
<line x1="9.18485099360515E-16" y1="-15.0" x2="9.797174393178826E-16" y2="-16.0" stroke="black" stroke-width="0.1" stroke-linecap="round" />
<line x1="9.797174393178826E-16" y1="-16.0" x2="1.0409497792752501E-15" y2="-17.0" stroke="black" stroke-width="0.1" stroke-linecap="round" />
<line x1="1.0409497792752501E-15" y1="-17.0" x2="1.1021821192326177E-15" y2="-18.0" stroke="black" stroke-width="0.1" stroke-linecap="round" />
<line x1="1.1021821192326177E-15" y1="-18.0" x2="1.1634144591899853E-15" y2="-19.0" stroke="black" stroke-width="0.1" stroke-linecap="round" />
<line x1="1.1634144591899853E-15" y1="-19.0" x2="1.2246467991473529E-15" y2="-20.0" stroke="black" stroke-width="0.1" stroke-linecap="round" />
<line x1="1.2246467991473529E-15" y1="-20.0" x2="0.43365908458754565" y2="-20.90107702132209" stroke="black" stroke-width="0.1" stroke-linecap="round" />
<line x1="0.43365908458754565" y1="-20.90107702132209" x2="0.8673181691750901" y2="-21.802154042644183" stroke="black" stroke-width="0.1" stroke-linecap="round" />
<line x1="0.8673181691750901" y1="-21.802154042644183" x2="1.648838641593909" y2="-22.42603363935357" stroke="black" stroke-width="0.1" stroke-linecap="round" />
<line x1="1.648838641593909" y1="-22.42603363935357" x2="2.430359114012728" y2="-23.049913236062956" stroke="black" stroke-width="0.1" stroke-linecap="round" />
<line x1="0.8673181691750901" y1="-21.802154042644183" x2="0.8673181691750902" y2="-22.802154042644183" stroke="black" stroke-width="0.1" stroke-linecap="round" />
<line x1="0.8673181691750902" y1="-22.802154042644183" x2="0.8673181691750903" y2="-23.802154042644183" stroke="black" stroke-width="0.1" stroke-linecap="round" />
<line x1="0.8673181691750901" y1="-21.802154042644183" x2="1.3009772537626345" y2="-22.703231063966275" stroke="black" stroke-width="0.1" stroke-linecap="round" />
<line x1="1.3009772537626345" y1="-22.703231063966275" x2="1.734636338350179" y2="-23.604308085288366" stroke="black" stroke-width="0.1" stroke-linecap="round" />
<line x1="1.734636338350179" y1="-23.604308085288366" x2="2.1682954229377236" y2="-24.505385106610458" stroke="black" stroke-width="0.1" stroke-linecap="round" />
<line x1="2.1682954229377236" y1="-24.505385106610458" x2="2.601954507525268" y2="-25.40646212793255" stroke="black" stroke-width="0.1" stroke-linecap="round" />
<line x1="1.2246467991473529E-15" y1="-20.0" x2="-0.4336590845875431" y2="-20.90107702132209" stroke="black" stroke-width="0.1" stroke-linecap="round" />
<line x1="-0.4336590845875431" y1="-20.90107702132209" x2="-0.8673181691750874" y2="-21.802154042644183" stroke="black" stroke-width="0.1" stroke-linecap="round" />
<line x1="-0.8673181691750874" y1="-21.802154042644183" x2="-0.8673181691750873" y2="-22.802154042644183" stroke="black" stroke-width="0.1" stroke-linecap="round" />
<line x1="-0.8673181691750873" y1="-22.802154042644183" x2="-0.8673181691750872" y2="-23.802154042644183" stroke="black" stroke-width="0.1" stroke-linecap="round" />
<line x1="-0.8673181691750874" y1="-21.802154042644183" x2="-1.6488386415939063" y2="-22.42603363935357" stroke="black" stroke-width="0.1" stroke-linecap="round" />
<line x1="-1.6488386415939063" y1="-22.42603363935357" x2="-2.430359114012725" y2="-23.049913236062956" stroke="black" stroke-width="0.1" stroke-linecap="round" />
<line x1="-0.8673181691750874" y1="-21.802154042644183" x2="-1.3009772537626318" y2="-22.703231063966275" stroke="black" stroke-width="0.1" stroke-linecap="round" />
<line x1="-1.3009772537626318" y1="-22.703231063966275" x2="-1.7346363383501762" y2="-23.604308085288366" stroke="black" stroke-width="0.1" stroke-linecap="round" />
<line x1="-1.7346363383501762" y1="-23.604308085288366" x2="-2.1682954229377205" y2="-24.505385106610458" stroke="black" stroke-width="0.1" stroke-linecap="round" />
<line x1="-2.1682954229377205" y1="-24.505385106610458" x2="-2.6019545075252646" y2="-25.40646212793255" stroke="black" stroke-width="0.1" stroke-linecap="round" />
<line x1="1.2246467991473529E-15" y1="-20.0" x2="1.2858791391047204E-15" y2="-21.0" stroke="black" stroke-width="0.1" stroke-linecap="round" />
<line x1="1.2858791391047204E-15" y1="-21.0" x2="1.347111479062088E-15" y2="-22.0" stroke="black" stroke-width="0.1" stroke-linecap="round" />
<line x1="1.347111479062088E-15" y1="-22.0" x2="1.4083438190194556E-15" y2="-23.0" stroke="black" stroke-width="0.1" stroke-linecap="round" />
<line x1="1.4083438190194556E-15" y1="-23.0" x2="1.4695761589768232E-15" y2="-24.0" stroke="black" stroke-width="0.1" stroke-linecap="round" />
<line x1="1.4695761589768232E-15" y1="-24.0" x2="1.5308084989341907E-15" y2="-25.0" stroke="black" stroke-width="0.1" stroke-linecap="round" />
<line x1="1.5308084989341907E-15" y1="-25.0" x2="1.5920408388915583E-15" y2="-26.0" stroke="black" stroke-width="0.1" stroke-linecap="round" />
<line x1="1.5920408388915583E-15" y1="-26.0" x2="0.43365908458754604" y2="-26.90107702132209" stroke="black" stroke-width="0.1" stroke-linecap="round" />
<line x1="0.43365908458754604" y1="-26.90107702132209" x2="0.8673181691750904" y2="-27.802154042644183" stroke="black" stroke-width="0.1" stroke-linecap="round" />
<line x1="1.5920408388915583E-15" y1="-26.0" x2="-0.4336590845875427" y2="-26.90107702132209" stroke="black" stroke-width="0.1" stroke-linecap="round" />
<line x1="-0.4336590845875427" y1="-26.90107702132209" x2="-0.8673181691750871" y2="-27.802154042644183" stroke="black" stroke-width="0.1" stroke-linecap="round" />
<line x1="1.5920408388915583E-15" y1="-26.0" x2="1.6532731788489259E-15" y2="-27.0" stroke="black" stroke-width="0.1" stroke-linecap="round" />
<line x1="1.6532731788489259E-15" y1="-27.0" x2="1.7145055188062935E-15" y2="-28.0" stroke="black" stroke-width="0.1" stroke-linecap="round" />
<line x1="1.7145055188062935E-15" y1="-28.0" x2="1.775737858763661E-15" y2="-29.0" stroke="black" stroke-width="0.1" stroke-linecap="round" />
<line x1="1.775737858763661E-15" y1="-29.0" x2="1.8369701987210288E-15" y2="-30.0" stroke="black" stroke-width="0.1" stroke-linecap="round" />
</svg>