<svg viewBox="-77.08511007435709 -330.0 154.1702201487142 360.0" xmlns="http://www.w3.org/2000/svg"><path d="M 0.0 0.0 L 6.123233995736766E-16 -10.0 M 6.123233995736766E-16 -10.0 L 1.2246467991473533E-15 -20.0 M 1.2246467991473533E-15 -20.0 L 1.83697019872103E-15 -30.0 M 1.83697019872103E-15 -30.0 L 2.4492935982947065E-15 -40.0 M 2.4492935982947065E-15 -40.0 L 3.061616997868383E-15 -50.0 M 3.061616997868383E-15 -50.0 L 3.67394039744206E-15 -60.0 M 3.67394039744206E-15 -60.0 L 4.2862637970157365E-15 -70.0 M 4.2862637970157365E-15 -70.0 L 4.898587196589413E-15 -80.0 M 4.898587196589413E-15 -80.0 L 4.33659084587545 -89.01077021322092 M 4.33659084587545 -89.01077021322092 L 8.673181691750894 -98.02154042644185 M 8.673181691750894 -98.02154042644185 L 13.00977253762634 -107.03231063966277 M 13.00977253762634 -107.03231063966277 L 17.346363383501785 -116.04308085288369 M 17.346363383501785 -116.04308085288369 L 25.161568107689973 -122.28187681997755 M 25.161568107689973 -122.28187681997755 L 32.976772831878165 -128.52067278707142 M 32.976772831878165 -128.52067278707142 L 42.72438477379038 -130.75317394718093 M 42.72438477379038 -130.75317394718093 L 52.4719967157026 -132.98567510729043 M 32.976772831878165 -128.52067278707142 L 37.31336367775361 -137.53144300029234 M 37.31336367775361 -137.53144300029234 L 41.64995452362905 -146.54221321351326 M 32.976772831878165 -128.52067278707142 L 40.79197755606636 -134.75946875416528 M 40.79197755606636 -134.75946875416528 L 48.60718228025455 -140.99826472125915 M 48.60718228025455 -140.99826472125915 L 56.42238700444274 -147.237060688353 M 56.42238700444274 -147.237060688353 L 64.23759172863093 -153.47585665544688 M 17.346363383501785 -116.04308085288369 L 17.346363383501785 -126.04308085288369 M 17.346363383501785 -126.04308085288369 L 17.346363383501785 -136.0430808528837 M 17.346363383501785 -136.0430808528837 L 21.68295422937723 -145.0538510661046 M 21.68295422937723 -145.0538510661046 L 26.019545075252676 -154.06462127932554 M 17.346363383501785 -136.0430808528837 L 13.009772537626342 -145.0538510661046 M 13.009772537626342 -145.0538510661046 L 8.673181691750898 -154.06462127932554 M 17.346363383501785 -136.0430808528837 L 17.346363383501785 -146.0430808528837 M 17.346363383501785 -146.0430808528837 L 17.346363383501785 -156.0430808528837 M 17.346363383501785 -156.0430808528837 L 17.346363383501785 -166.0430808528837 M 17.346363383501785 -166.0430808528837 L 17.346363383501785 -176.0430808528837 M 17.346363383501785 -116.04308085288369 L 21.68295422937723 -125.05385106610461 M 21.68295422937723 -125.05385106610461 L 26.019545075252676 -134.06462127932554 M 26.019545075252676 -134.06462127932554 L 30.35613592112812 -143.07539149254646 M 30.35613592112812 -143.07539149254646 L 34.69272676700356 -152.08616170576738 M 34.69272676700356 -152.08616170576738 L 39.029317612879005 -161.0969319189883 M 39.029317612879005 -161.0969319189883 L 43.36590845875445 -170.10770213220923 M 43.36590845875445 -170.10770213220923 L 51.18111318294264 -176.3464980993031 M 51.18111318294264 -176.3464980993031 L 58.99631790713083 -182.58529406639695 M 43.36590845875445 -170.10770213220923 L 43.36590845875445 -180.10770213220923 M 43.36590845875445 -180.10770213220923 L 43.36590845875445 -190.10770213220923 M 43.36590845875445 -170.10770213220923 L 47.70249930462989 -179.11847234543015 M 47.70249930462989 -179.11847234543015 L 52.03909015050533 -188.12924255865107 M 52.03909015050533 -188.12924255865107 L 56.37568099638077 -197.140012771872 M 56.37568099638077 -197.140012771872 L 60.712271842256214 -206.15078298509292 M 4.898587196589413E-15 -80.0 L -4.336590845875438 -89.01077021322092 M -4.336590845875438 -89.01077021322092 L -8.673181691750882 -98.02154042644185 M -8.673181691750882 -98.02154042644185 L -13.009772537626326 -107.03231063966277 M -13.009772537626326 -107.03231063966277 L -17.346363383501767 -116.04308085288369 M -17.346363383501767 -116.04308085288369 L -17.346363383501767 -126.04308085288369 M -17.346363383501767 -126.04308085288369 L -17.346363383501767 -136.0430808528837 M -17.346363383501767 -136.0430808528837 L -13.009772537626322 -145.0538510661046 M -13.009772537626322 -145.0538510661046 L -8.673181691750877 -154.06462127932554 M -17.346363383501767 -136.0430808528837 L -21.68295422937721 -145.0538510661046 M -21.68295422937721 -145.0538510661046 L -26.01954507525265 -154.06462127932554 M -17.346363383501767 -136.0430808528837 L -17.346363383501767 -146.0430808528837 M -17.346363383501767 -146.0430808528837 L -17.346363383501767 -156.0430808528837 M -17.346363383501767 -156.0430808528837 L -17.346363383501767 -166.0430808528837 M -17.346363383501767 -166.0430808528837 L -17.346363383501767 -176.0430808528837 M -17.346363383501767 -116.04308085288369 L -25.161568107689956 -122.28187681997755 M -25.161568107689956 -122.28187681997755 L -32.976772831878144 -128.52067278707142 M -32.976772831878144 -128.52067278707142 L -37.313363677753586 -137.53144300029234 M -37.313363677753586 -137.53144300029234 L -41.64995452362903 -146.54221321351326 M -32.976772831878144 -128.52067278707142 L -42.72438477379036 -130.75317394718093 M -42.72438477379036 -130.75317394718093 L -52.47199671570258 -132.98567510729043 M -32.976772831878144 -128.52067278707142 L -40.79197755606633 -134.75946875416528 M -40.79197755606633 -134.75946875416528 L -48.60718228025452 -140.99826472125915 M -48.60718228025452 -140.99826472125915 L -56.42238700444271 -147.237060688353 M -56.42238700444271 -147.237060688353 L -64.2375917286309 -153.47585665544688 M -17.346363383501767 -116.04308085288369 L -21.68295422937721 -125.05385106610461 M -21.68295422937721 -125.05385106610461 L -26.01954507525265 -134.06462127932554 M -26.01954507525265 -134.06462127932554 L -30.356135921128093 -143.07539149254646 M -30.356135921128093 -143.07539149254646 L -34.692726767003535 -152.08616170576738 M -34.692726767003535 -152.08616170576738 L -39.02931761287898 -161.0969319189883 M -39.02931761287898 -161.0969319189883 L -43.36590845875442 -170.10770213220923 M -43.36590845875442 -170.10770213220923 L -43.36590845875442 -180.10770213220923 M -43.36590845875442 -180.10770213220923 L -43.36590845875442 -190.10770213220923 M -43.36590845875442 -170.10770213220923 L -51.18111318294261 -176.3464980993031 M -51.18111318294261 -176.3464980993031 L -58.9963179071308 -182.58529406639695 M -43.36590845875442 -170.10770213220923 L -47.70249930462986 -179.11847234543015 M -47.70249930462986 -179.11847234543015 L -52.0390901505053 -188.12924255865107 M -52.0390901505053 -188.12924255865107 L -56.375680996380744 -197.140012771872 M -56.375680996380744 -197.140012771872 L -60.712271842256186 -206.15078298509292 M 4.898587196589413E-15 -80.0 L 5.5109105961630896E-15 -90.0 M 5.5109105961630896E-15 -90.0 L 6.123233995736766E-15 -100.0 M 6.123233995736766E-15 -100.0 L 6.735557395310443E-15 -110.0 M 6.735557395310443E-15 -110.0 L 7.34788079488412E-15 -120.0 M 7.34788079488412E-15 -120.0 L 7.960204194457797E-15 -130.0 M 7.960204194457797E-15 -130.0 L 8.572527594031475E-15 -140.0 M 8.572527594031475E-15 -140.0 L 9.184850993605152E-15 -150.0 M 9.184850993605152E-15 -150.0 L 9.797174393178829E-15 -160.0 M 9.797174393178829E-15 -160.0 L 1.0409497792752507E-14 -170.0 M 1.0409497792752507E-14 -170.0 L 1.1021821192326184E-14 -180.0 M 1.1021821192326184E-14 -180.0 L 1.1634144591899861E-14 -190.0 M 1.1634144591899861E-14 -190.0 L 1.2246467991473538E-14 -200.0 M 1.2246467991473538E-14 -200.0 L 4.336590845875457 -209.01077021322092 M 4.336590845875457 -209.01077021322092 L 8.673181691750901 -218.02154042644185 M 8.673181691750901 -218.02154042644185 L 16.48838641593909 -224.2603363935357 M 16.48838641593909 -224.2603363935357 L 24.303591140127278 -230.49913236062957 M 8.673181691750901 -218.02154042644185 L 8.673181691750901 -228.02154042644185 M 8.673181691750901 -228.02154042644185 L 8.673181691750901 -238.02154042644185 M 8.673181691750901 -218.02154042644185 L 13.009772537626347 -227.03231063966277 M 13.009772537626347 -227.03231063966277 L 17.346363383501792 -236.0430808528837 M 17.346363383501792 -236.0430808528837 L 21.682954229377238 -245.0538510661046 M 21.682954229377238 -245.0538510661046 L 26.019545075252683 -254.06462127932554 M 1.2246467991473538E-14 -200.0 L -4.336590845875431 -209.01077021322092 M -4.336590845875431 -209.01077021322092 L -8.673181691750875 -218.02154042644185 M -8.673181691750875 -218.02154042644185 L -8.673181691750875 -228.02154042644185 M -8.673181691750875 -228.02154042644185 L -8.673181691750875 -238.02154042644185 M -8.673181691750875 -218.02154042644185 L -16.48838641593906 -224.2603363935357 M -16.48838641593906 -224.2603363935357 L -24.30359114012725 -230.49913236062957 M -8.673181691750875 -218.02154042644185 L -13.009772537626318 -227.03231063966277 M -13.009772537626318 -227.03231063966277 L -17.34636338350176 -236.0430808528837 M -17.34636338350176 -236.0430808528837 L -21.682954229377202 -245.0538510661046 M -21.682954229377202 -245.0538510661046 L -26.019545075252644 -254.06462127932554 M 1.2246467991473538E-14 -200.0 L 1.2858791391047216E-14 -210.0 M 1.2858791391047216E-14 -210.0 L 1.3471114790620893E-14 -220.0 M 1.3471114790620893E-14 -220.0 L 1.408343819019457E-14 -230.0 M 1.408343819019457E-14 -230.0 L 1.4695761589768246E-14 -240.0 M 1.4695761589768246E-14 -240.0 L 1.5308084989341922E-14 -250.0 M 1.5308084989341922E-14 -250.0 L 1.5920408388915598E-14 -260.0 M 1.5920408388915598E-14 -260.0 L 4.3365908458754605 -269.0107702132209 M 4.3365908458754605 -269.0107702132209 L 8.673181691750905 -278.0215404264418 M 1.5920408388915598E-14 -260.0 L -4.336590845875428 -269.0107702132209 M -4.336590845875428 -269.0107702132209 L -8.673181691750871 -278.0215404264418 M 1.5920408388915598E-14 -260.0 L 1.6532731788489273E-14 -270.0 M 1.6532731788489273E-14 -270.0 L 1.714505518806295E-14 -280.0 M 1.714505518806295E-14 -280.0 L 1.7757378587636625E-14 -290.0 M 1.7757378587636625E-14 -290.0 L 1.83697019872103E-14 -300.0 " fill="none" stroke="black" stroke-width="1" stroke-linecap="round"/>
</svg>