<svg viewBox="-12.99038105676658 -176.0 155.88457268119893 192.0" xmlns="http://www.w3.org/2000/svg"><path d="M 0.0 0.0 L 6.123233995736766E-16 -10.0 M 6.123233995736766E-16 -10.0 L 8.660254037844387 -15.0 M 8.660254037844387 -15.0 L 17.320508075688775 -10.0 M 17.320508075688775 -10.0 L 25.98076211353316 -15.0 M 25.98076211353316 -15.0 L 25.98076211353316 -25.0 M 25.98076211353316 -25.0 L 17.32050807568877 -30.0 M 17.32050807568877 -30.0 L 8.660254037844386 -25.0 M 8.660254037844386 -25.0 L -1.7763568394002505E-15 -30.0 M -1.7763568394002505E-15 -30.0 L -1.164033439826574E-15 -40.0 M -1.164033439826574E-15 -40.0 L 8.660254037844386 -45.0 M 8.660254037844386 -45.0 L 8.660254037844386 -55.0 M 8.660254037844386 -55.0 L -1.7763568394002505E-15 -60.0 M -1.7763568394002505E-15 -60.0 L -1.164033439826574E-15 -70.0 M -1.164033439826574E-15 -70.0 L 8.660254037844386 -75.0 M 8.660254037844386 -75.0 L 17.32050807568877 -70.0 M 17.32050807568877 -70.0 L 17.32050807568877 -60.0 M 17.32050807568877 -60.0 L 25.98076211353316 -55.0 M 25.98076211353316 -55.0 L 34.64101615137755 -60.0 M 34.64101615137755 -60.0 L 43.30127018922194 -55.0 M 43.30127018922194 -55.0 L 43.30127018922194 -45.0 M 43.30127018922194 -45.0 L 34.64101615137755 -40.0 M 34.64101615137755 -40.0 L 34.64101615137755 -30.0 M 34.64101615137755 -30.0 L 43.30127018922194 -25.0 M 43.30127018922194 -25.0 L 51.96152422706633 -30.0 M 51.96152422706633 -30.0 L 51.96152422706633 -40.0 M 51.96152422706633 -40.0 L 60.621778264910716 -45.0 M 60.621778264910716 -45.0 L 69.2820323027551 -40.0 M 69.2820323027551 -40.0 L 77.94228634059948 -45.0 M 77.94228634059948 -45.0 L 77.94228634059948 -55.0 M 77.94228634059948 -55.0 L 69.2820323027551 -60.0 M 69.2820323027551 -60.0 L 69.2820323027551 -70.0 M 69.2820323027551 -70.0 L 77.94228634059948 -75.0 M 77.94228634059948 -75.0 L 86.60254037844386 -70.0 M 86.60254037844386 -70.0 L 86.60254037844386 -60.0 M 86.60254037844386 -60.0 L 95.26279441628824 -55.0 M 95.26279441628824 -55.0 L 103.92304845413263 -60.0 M 103.92304845413263 -60.0 L 103.92304845413263 -70.0 M 103.92304845413263 -70.0 L 112.58330249197701 -75.0 M 112.58330249197701 -75.0 L 121.24355652982139 -70.0 M 121.24355652982139 -70.0 L 129.90381056766577 -75.0 M 129.90381056766577 -75.0 L 129.90381056766577 -85.0 M 129.90381056766577 -85.0 L 121.24355652982139 -90.0 M 121.24355652982139 -90.0 L 112.58330249197701 -85.0 M 112.58330249197701 -85.0 L 103.92304845413263 -90.0 M 103.92304845413263 -90.0 L 103.92304845413263 -100.0 M 103.92304845413263 -100.0 L 95.26279441628824 -105.0 M 95.26279441628824 -105.0 L 86.60254037844386 -100.0 M 86.60254037844386 -100.0 L 86.60254037844386 -90.0 M 86.60254037844386 -90.0 L 77.94228634059948 -85.0 M 77.94228634059948 -85.0 L 69.2820323027551 -90.0 M 69.2820323027551 -90.0 L 69.2820323027551 -100.0 M 69.2820323027551 -100.0 L 77.94228634059948 -105.0 M 77.94228634059948 -105.0 L 77.94228634059948 -115.0 M 77.94228634059948 -115.0 L 69.2820323027551 -120.0 M 69.2820323027551 -120.0 L 60.621778264910716 -115.0 M 60.621778264910716 -115.0 L 51.96152422706633 -120.0 M 51.96152422706633 -120.0 L 51.96152422706633 -130.0 M 51.96152422706633 -130.0 L 43.30127018922194 -135.0 M 43.30127018922194 -135.0 L 34.641016151377556 -130.0 M 34.641016151377556 -130.0 L 34.641016151377556 -120.0 M 34.641016151377556 -120.0 L 43.30127018922194 -115.0 M 43.30127018922194 -115.0 L 43.30127018922194 -105.0 M 43.30127018922194 -105.0 L 34.641016151377556 -100.0 M 34.641016151377556 -100.0 L 25.980762113533167 -105.0 M 25.980762113533167 -105.0 L 17.32050807568878 -100.0 M 17.32050807568878 -100.0 L 17.320508075688778 -90.0 M 17.320508075688778 -90.0 L 8.660254037844393 -85.0 M 8.660254037844393 -85.0 L 5.329070518200751E-15 -90.0 M 5.329070518200751E-15 -90.0 L 5.941393917774428E-15 -100.0 M 5.941393917774428E-15 -100.0 L 8.660254037844393 -105.0 M 8.660254037844393 -105.0 L 8.660254037844393 -115.0 M 8.660254037844393 -115.0 L 5.329070518200751E-15 -120.0 M 5.329070518200751E-15 -120.0 L 5.941393917774428E-15 -130.0 M 5.941393917774428E-15 -130.0 L 8.660254037844393 -135.0 M 8.660254037844393 -135.0 L 17.320508075688778 -130.0 M 17.320508075688778 -130.0 L 25.980762113533167 -135.0 M 25.980762113533167 -135.0 L 25.980762113533167 -145.0 M 25.980762113533167 -145.0 L 17.320508075688778 -150.0 M 17.320508075688778 -150.0 L 8.660254037844393 -145.0 M 8.660254037844393 -145.0 L 5.329070518200751E-15 -150.0 M 5.329070518200751E-15 -150.0 L 5.941393917774428E-15 -160.0 " fill="none" stroke="black" stroke-width="1" stroke-linecap="round"/>
</svg>