<?xml version="1.0" encoding="UTF-8"?>
<svg xmlns="http://www.w3.org/2000/svg"
     width="12.990381056766584" height="16.0"
     viewBox="0.0 -16.0 12.990381056766584 16.0">
<line x1="0.0" y1="0.0" x2="6.123233995736766E-17" y2="-1.0" stroke="black" stroke-width="0.1" stroke-linecap="round" />
<line x1="6.123233995736766E-17" y1="-1.0" x2="0.8660254037844388" y2="-1.5" stroke="black" stroke-width="0.1" stroke-linecap="round" />
<line x1="0.8660254037844388" y1="-1.5" x2="1.7320508075688776" y2="-1.0" stroke="black" stroke-width="0.1" stroke-linecap="round" />
<line x1="1.7320508075688776" y1="-1.0" x2="2.5980762113533165" y2="-1.5" stroke="black" stroke-width="0.1" stroke-linecap="round" />
<line x1="2.5980762113533165" y1="-1.5" x2="2.5980762113533165" y2="-2.5" stroke="black" stroke-width="0.1" stroke-linecap="round" />
<line x1="2.5980762113533165" y1="-2.5" x2="1.7320508075688776" y2="-3.0" stroke="black" stroke-width="0.1" stroke-linecap="round" />
<line x1="1.7320508075688776" y1="-3.0" x2="0.866025403784439" y2="-2.5" stroke="black" stroke-width="0.1" stroke-linecap="round" />
<line x1="0.866025403784439" y1="-2.5" x2="3.3306690738754696E-16" y2="-3.0" stroke="black" stroke-width="0.1" stroke-linecap="round" />
<line x1="3.3306690738754696E-16" y1="-3.0" x2="3.9429924734491463E-16" y2="-4.0" stroke="black" stroke-width="0.1" stroke-linecap="round" />
<line x1="3.9429924734491463E-16" y1="-4.0" x2="0.8660254037844392" y2="-4.5" stroke="black" stroke-width="0.1" stroke-linecap="round" />
<line x1="0.8660254037844392" y1="-4.5" x2="0.8660254037844393" y2="-5.5" stroke="black" stroke-width="0.1" stroke-linecap="round" />
<line x1="0.8660254037844393" y1="-5.5" x2="5.551115123125783E-16" y2="-6.0" stroke="black" stroke-width="0.1" stroke-linecap="round" />
<line x1="5.551115123125783E-16" y1="-6.0" x2="6.163438522699459E-16" y2="-7.0" stroke="black" stroke-width="0.1" stroke-linecap="round" />
<line x1="6.163438522699459E-16" y1="-7.0" x2="0.8660254037844394" y2="-7.5" stroke="black" stroke-width="0.1" stroke-linecap="round" />
<line x1="0.8660254037844394" y1="-7.5" x2="1.732050807568878" y2="-7.0" stroke="black" stroke-width="0.1" stroke-linecap="round" />
<line x1="1.732050807568878" y1="-7.0" x2="1.732050807568878" y2="-6.0" stroke="black" stroke-width="0.1" stroke-linecap="round" />
<line x1="1.732050807568878" y1="-6.0" x2="2.598076211353317" y2="-5.5" stroke="black" stroke-width="0.1" stroke-linecap="round" />
<line x1="2.598076211353317" y1="-5.5" x2="3.4641016151377557" y2="-6.0" stroke="black" stroke-width="0.1" stroke-linecap="round" />
<line x1="3.4641016151377557" y1="-6.0" x2="4.3301270189221945" y2="-5.5" stroke="black" stroke-width="0.1" stroke-linecap="round" />
<line x1="4.3301270189221945" y1="-5.5" x2="4.3301270189221945" y2="-4.5" stroke="black" stroke-width="0.1" stroke-linecap="round" />
<line x1="4.3301270189221945" y1="-4.5" x2="3.4641016151377557" y2="-4.0" stroke="black" stroke-width="0.1" stroke-linecap="round" />
<line x1="3.4641016151377557" y1="-4.0" x2="3.4641016151377557" y2="-3.0" stroke="black" stroke-width="0.1" stroke-linecap="round" />
<line x1="3.4641016151377557" y1="-3.0" x2="4.3301270189221945" y2="-2.5" stroke="black" stroke-width="0.1" stroke-linecap="round" />
<line x1="4.3301270189221945" y1="-2.5" x2="5.196152422706633" y2="-3.0" stroke="black" stroke-width="0.1" stroke-linecap="round" />
<line x1="5.196152422706633" y1="-3.0" x2="5.196152422706633" y2="-4.0" stroke="black" stroke-width="0.1" stroke-linecap="round" />
<line x1="5.196152422706633" y1="-4.0" x2="6.062177826491071" y2="-4.5" stroke="black" stroke-width="0.1" stroke-linecap="round" />
<line x1="6.062177826491071" y1="-4.5" x2="6.92820323027551" y2="-4.0" stroke="black" stroke-width="0.1" stroke-linecap="round" />
<line x1="6.92820323027551" y1="-4.0" x2="7.794228634059948" y2="-4.5" stroke="black" stroke-width="0.1" stroke-linecap="round" />
<line x1="7.794228634059948" y1="-4.5" x2="7.794228634059948" y2="-5.5" stroke="black" stroke-width="0.1" stroke-linecap="round" />
<line x1="7.794228634059948" y1="-5.5" x2="6.92820323027551" y2="-6.0" stroke="black" stroke-width="0.1" stroke-linecap="round" />
<line x1="6.92820323027551" y1="-6.0" x2="6.92820323027551" y2="-7.0" stroke="black" stroke-width="0.1" stroke-linecap="round" />
<line x1="6.92820323027551" y1="-7.0" x2="7.794228634059948" y2="-7.5" stroke="black" stroke-width="0.1" stroke-linecap="round" />
<line x1="7.794228634059948" y1="-7.5" x2="8.660254037844387" y2="-7.0" stroke="black" stroke-width="0.1" stroke-linecap="round" />
<line x1="8.660254037844387" y1="-7.0" x2="8.660254037844387" y2="-6.0" stroke="black" stroke-width="0.1" stroke-linecap="round" />
<line x1="8.660254037844387" y1="-6.0" x2="9.526279441628827" y2="-5.5" stroke="black" stroke-width="0.1" stroke-linecap="round" />
<line x1="9.526279441628827" y1="-5.5" x2="10.392304845413266" y2="-6.0" stroke="black" stroke-width="0.1" stroke-linecap="round" />
<line x1="10.392304845413266" y1="-6.0" x2="10.392304845413266" y2="-7.0" stroke="black" stroke-width="0.1" stroke-linecap="round" />
<line x1="10.392304845413266" y1="-7.0" x2="11.258330249197705" y2="-7.5" stroke="black" stroke-width="0.1" stroke-linecap="round" />
<line x1="11.258330249197705" y1="-7.5" x2="12.124355652982144" y2="-7.0" stroke="black" stroke-width="0.1" stroke-linecap="round" />
<line x1="12.124355652982144" y1="-7.0" x2="12.990381056766584" y2="-7.5" stroke="black" stroke-width="0.1" stroke-linecap="round" />
<line x1="12.990381056766584" y1="-7.5" x2="12.990381056766584" y2="-8.5" stroke="black" stroke-width="0.1" stroke-linecap="round" />
<line x1="12.990381056766584" y1="-8.5" x2="12.124355652982144" y2="-9.0" stroke="black" stroke-width="0.1" stroke-linecap="round" />
<line x1="12.124355652982144" y1="-9.0" x2="11.258330249197705" y2="-8.5" stroke="black" stroke-width="0.1" stroke-linecap="round" />
<line x1="11.258330249197705" y1="-8.5" x2="10.392304845413266" y2="-9.0" stroke="black" stroke-width="0.1" stroke-linecap="round" />
<line x1="10.392304845413266" y1="-9.0" x2="10.392304845413266" y2="-10.0" stroke="black" stroke-width="0.1" stroke-linecap="round" />
<line x1="10.392304845413266" y1="-10.0" x2="9.526279441628827" y2="-10.5" stroke="black" stroke-width="0.1" stroke-linecap="round" />
<line x1="9.526279441628827" y1="-10.5" x2="8.660254037844387" y2="-10.0" stroke="black" stroke-width="0.1" stroke-linecap="round" />
<line x1="8.660254037844387" y1="-10.0" x2="8.660254037844387" y2="-9.0" stroke="black" stroke-width="0.1" stroke-linecap="round" />
<line x1="8.660254037844387" y1="-9.0" x2="7.794228634059949" y2="-8.5" stroke="black" stroke-width="0.1" stroke-linecap="round" />
<line x1="7.794228634059949" y1="-8.5" x2="6.9282032302755105" y2="-9.0" stroke="black" stroke-width="0.1" stroke-linecap="round" />
<line x1="6.9282032302755105" y1="-9.0" x2="6.9282032302755105" y2="-10.0" stroke="black" stroke-width="0.1" stroke-linecap="round" />
<line x1="6.9282032302755105" y1="-10.0" x2="7.794228634059949" y2="-10.5" stroke="black" stroke-width="0.1" stroke-linecap="round" />
<line x1="7.794228634059949" y1="-10.5" x2="7.794228634059949" y2="-11.5" stroke="black" stroke-width="0.1" stroke-linecap="round" />
<line x1="7.794228634059949" y1="-11.5" x2="6.9282032302755105" y2="-12.0" stroke="black" stroke-width="0.1" stroke-linecap="round" />
<line x1="6.9282032302755105" y1="-12.0" x2="6.062177826491072" y2="-11.5" stroke="black" stroke-width="0.1" stroke-linecap="round" />
<line x1="6.062177826491072" y1="-11.5" x2="5.196152422706634" y2="-12.0" stroke="black" stroke-width="0.1" stroke-linecap="round" />
<line x1="5.196152422706634" y1="-12.0" x2="5.196152422706634" y2="-13.0" stroke="black" stroke-width="0.1" stroke-linecap="round" />
<line x1="5.196152422706634" y1="-13.0" x2="4.330127018922195" y2="-13.5" stroke="black" stroke-width="0.1" stroke-linecap="round" />
<line x1="4.330127018922195" y1="-13.5" x2="3.464101615137757" y2="-13.0" stroke="black" stroke-width="0.1" stroke-linecap="round" />
<line x1="3.464101615137757" y1="-13.0" x2="3.464101615137757" y2="-12.0" stroke="black" stroke-width="0.1" stroke-linecap="round" />
<line x1="3.464101615137757" y1="-12.0" x2="4.330127018922195" y2="-11.5" stroke="black" stroke-width="0.1" stroke-linecap="round" />
<line x1="4.330127018922195" y1="-11.5" x2="4.330127018922195" y2="-10.5" stroke="black" stroke-width="0.1" stroke-linecap="round" />
<line x1="4.330127018922195" y1="-10.5" x2="3.464101615137757" y2="-10.0" stroke="black" stroke-width="0.1" stroke-linecap="round" />
<line x1="3.464101615137757" y1="-10.0" x2="2.5980762113533182" y2="-10.5" stroke="black" stroke-width="0.1" stroke-linecap="round" />
<line x1="2.5980762113533182" y1="-10.5" x2="1.7320508075688796" y2="-10.0" stroke="black" stroke-width="0.1" stroke-linecap="round" />
<line x1="1.7320508075688796" y1="-10.0" x2="1.7320508075688794" y2="-9.0" stroke="black" stroke-width="0.1" stroke-linecap="round" />
<line x1="1.7320508075688794" y1="-9.0" x2="0.8660254037844408" y2="-8.5" stroke="black" stroke-width="0.1" stroke-linecap="round" />
<line x1="0.8660254037844408" y1="-8.5" x2="2.1094237467877974E-15" y2="-9.0" stroke="black" stroke-width="0.1" stroke-linecap="round" />
<line x1="2.1094237467877974E-15" y1="-9.0" x2="2.170656086745165E-15" y2="-10.0" stroke="black" stroke-width="0.1" stroke-linecap="round" />
<line x1="2.170656086745165E-15" y1="-10.0" x2="0.8660254037844409" y2="-10.5" stroke="black" stroke-width="0.1" stroke-linecap="round" />
<line x1="0.8660254037844409" y1="-10.5" x2="0.866025403784441" y2="-11.5" stroke="black" stroke-width="0.1" stroke-linecap="round" />
<line x1="0.866025403784441" y1="-11.5" x2="2.3314683517128287E-15" y2="-12.0" stroke="black" stroke-width="0.1" stroke-linecap="round" />
<line x1="2.3314683517128287E-15" y1="-12.0" x2="2.3927006916701963E-15" y2="-13.0" stroke="black" stroke-width="0.1" stroke-linecap="round" />
<line x1="2.3927006916701963E-15" y1="-13.0" x2="0.8660254037844412" y2="-13.5" stroke="black" stroke-width="0.1" stroke-linecap="round" />
<line x1="0.8660254037844412" y1="-13.5" x2="1.7320508075688799" y2="-13.0" stroke="black" stroke-width="0.1" stroke-linecap="round" />
<line x1="1.7320508075688799" y1="-13.0" x2="2.5980762113533187" y2="-13.5" stroke="black" stroke-width="0.1" stroke-linecap="round" />
<line x1="2.5980762113533187" y1="-13.5" x2="2.5980762113533187" y2="-14.5" stroke="black" stroke-width="0.1" stroke-linecap="round" />
<line x1="2.5980762113533187" y1="-14.5" x2="1.7320508075688799" y2="-15.0" stroke="black" stroke-width="0.1" stroke-linecap="round" />
<line x1="1.7320508075688799" y1="-15.0" x2="0.8660254037844413" y2="-14.5" stroke="black" stroke-width="0.1" stroke-linecap="round" />
<line x1="0.8660254037844413" y1="-14.5" x2="2.55351295663786E-15" y2="-15.0" stroke="black" stroke-width="0.1" stroke-linecap="round" />
<line x1="2.55351295663786E-15" y1="-15.0" x2="2.6147452965952276E-15" y2="-16.0" stroke="black" stroke-width="0.1" stroke-linecap="round" />
</svg>