<svg viewBox="-65.20907433445902 -478.39517044534966 267.391875961818 521.885640485836" xmlns="http://www.w3.org/2000/svg"><path d="M 0.0000 0.0000 L 0.0000 -10.0000 M 0.0000 -10.0000 L 0.0000 -20.0000 M 0.0000 -20.0000 L 0.0000 -30.0000 M 0.0000 -30.0000 L 0.0000 -40.0000 M 0.0000 -40.0000 L 0.0000 -50.0000 M 0.0000 -50.0000 L 0.0000 -60.0000 M 0.0000 -60.0000 L 0.0000 -70.0000 M 0.0000 -70.0000 L 0.0000 -80.0000 M 0.0000 -80.0000 L 6.4279 -87.6604 M 6.4279 -87.6604 L 12.8558 -95.3209 M 12.8558 -95.3209 L 19.2836 -102.9813 M 19.2836 -102.9813 L 25.7115 -110.6418 M 25.7115 -110.6418 L 35.5596 -112.3783 M 35.5596 -112.3783 L 45.4077 -114.1147 M 45.4077 -114.1147 L 54.0679 -109.1147 M 54.0679 -109.1147 L 61.1390 -102.0437 M 61.1390 -102.0437 L 70.5359 -98.6235 M 45.4077 -114.1147 L 55.3696 -113.2432 M 55.3696 -113.2432 L 64.7665 -109.8230 M 64.7665 -109.8230 L 74.7285 -110.6945 M 45.4077 -114.1147 L 55.3696 -113.2432 M 55.3696 -113.2432 L 65.3316 -112.3716 M 65.3316 -112.3716 L 74.7285 -115.7918 M 74.7285 -115.7918 L 84.1254 -119.2120 M 84.1254 -119.2120 L 93.5223 -122.6322 M 93.5223 -122.6322 L 103.4843 -123.5038 M 103.4843 -123.5038 L 112.1445 -128.5038 M 65.3316 -112.3716 L 72.4026 -105.3006 M 72.4026 -105.3006 L 77.4026 -96.6403 M 77.4026 -96.6403 L 85.5941 -90.9045 M 25.7115 -110.6418 L 33.9030 -116.3775 M 33.9030 -116.3775 L 42.0945 -122.1133 M 42.0945 -122.1133 L 52.0565 -121.2417 M 52.0565 -121.2417 L 61.4534 -117.8215 M 61.4534 -117.8215 L 71.4154 -118.6931 M 42.0945 -122.1133 L 51.4915 -125.5335 M 51.4915 -125.5335 L 61.4534 -126.4051 M 61.4534 -126.4051 L 70.1137 -131.4051 M 42.0945 -122.1133 L 51.4915 -125.5335 M 51.4915 -125.5335 L 60.8884 -128.9537 M 60.8884 -128.9537 L 67.9595 -136.0248 M 67.9595 -136.0248 L 75.0305 -143.0958 M 75.0305 -143.0958 L 82.1016 -150.1669 M 82.1016 -150.1669 L 90.7619 -155.1669 M 90.7619 -155.1669 L 96.4976 -163.3584 M 60.8884 -128.9537 L 70.2853 -125.5335 M 70.2853 -125.5335 L 78.4768 -119.7977 M 78.4768 -119.7977 L 88.3249 -118.0613 M 25.7115 -110.6418 L 33.9030 -116.3775 M 33.9030 -116.3775 L 42.0945 -122.1133 M 42.0945 -122.1133 L 50.2861 -127.8491 M 50.2861 -127.8491 L 58.4776 -133.5848 M 58.4776 -133.5848 L 63.4776 -142.2451 M 63.4776 -142.2451 L 68.4776 -150.9053 M 68.4776 -150.9053 L 73.4776 -159.5656 M 73.4776 -159.5656 L 78.4776 -168.2259 M 78.4776 -168.2259 L 83.4776 -176.8861 M 83.4776 -176.8861 L 88.4776 -185.5464 M 88.4776 -185.5464 L 97.8745 -188.9666 M 97.8745 -188.9666 L 107.8365 -189.8381 M 107.8365 -189.8381 L 116.4967 -194.8381 M 88.4776 -185.5464 L 95.5487 -192.6174 M 95.5487 -192.6174 L 104.2089 -197.6174 M 104.2089 -197.6174 L 109.9447 -205.8089 M 88.4776 -185.5464 L 95.5487 -192.6174 M 95.5487 -192.6174 L 102.6197 -199.6885 M 102.6197 -199.6885 L 106.0399 -209.0854 M 106.0399 -209.0854 L 109.4601 -218.4823 M 109.4601 -218.4823 L 112.8803 -227.8793 M 112.8803 -227.8793 L 118.6161 -236.0708 M 118.6161 -236.0708 L 120.3526 -245.9189 M 102.6197 -199.6885 L 112.5817 -200.5601 M 112.5817 -200.5601 L 122.4297 -198.8236 M 122.4297 -198.8236 L 132.0890 -201.4118 M 58.4776 -133.5848 L 68.4395 -132.7133 M 68.4395 -132.7133 L 78.4015 -131.8417 M 78.4015 -131.8417 L 85.4725 -124.7707 M 85.4725 -124.7707 L 90.4725 -116.1104 M 90.4725 -116.1104 L 98.6641 -110.3746 M 78.4015 -131.8417 L 87.7984 -128.4215 M 87.7984 -128.4215 L 95.9899 -122.6858 M 95.9899 -122.6858 L 105.8380 -120.9493 M 78.4015 -131.8417 L 87.7984 -128.4215 M 87.7984 -128.4215 L 97.1953 -125.0013 M 97.1953 -125.0013 L 107.1573 -125.8729 M 107.1573 -125.8729 L 117.1192 -126.7444 M 117.1192 -126.7444 L 127.0812 -127.6160 M 127.0812 -127.6160 L 136.9293 -125.8795 M 136.9293 -125.8795 L 146.5885 -128.4677 M 97.1953 -125.0013 L 102.1953 -116.3411 M 102.1953 -116.3411 L 104.7835 -106.6818 M 104.7835 -106.6818 L 111.2114 -99.0214 M 0.0000 -80.0000 L 2.5882 -89.6593 M 2.5882 -89.6593 L 5.1764 -99.3185 M 5.1764 -99.3185 L 7.7646 -108.9778 M 7.7646 -108.9778 L 10.3528 -118.6370 M 10.3528 -118.6370 L 18.5443 -124.3728 M 18.5443 -124.3728 L 26.7358 -130.1086 M 26.7358 -130.1086 L 36.6977 -129.2370 M 36.6977 -129.2370 L 46.0947 -125.8168 M 46.0947 -125.8168 L 56.0566 -126.6884 M 26.7358 -130.1086 L 36.1327 -133.5288 M 36.1327 -133.5288 L 46.0947 -134.4003 M 46.0947 -134.4003 L 54.7549 -139.4003 M 26.7358 -130.1086 L 36.1327 -133.5288 M 36.1327 -133.5288 L 45.5297 -136.9490 M 45.5297 -136.9490 L 52.6007 -144.0200 M 52.6007 -144.0200 L 59.6718 -151.0911 M 59.6718 -151.0911 L 66.7429 -158.1622 M 66.7429 -158.1622 L 75.4031 -163.1622 M 75.4031 -163.1622 L 81.1389 -171.3537 M 45.5297 -136.9490 L 54.9266 -133.5288 M 54.9266 -133.5288 L 63.1181 -127.7930 M 63.1181 -127.7930 L 72.9662 -126.0565 M 10.3528 -118.6370 L 15.3528 -127.2973 M 15.3528 -127.2973 L 20.3528 -135.9575 M 20.3528 -135.9575 L 29.7497 -139.3777 M 29.7497 -139.3777 L 39.7116 -140.2493 M 39.7116 -140.2493 L 48.3719 -145.2493 M 20.3528 -135.9575 L 27.4238 -143.0286 M 27.4238 -143.0286 L 36.0841 -148.0286 M 36.0841 -148.0286 L 41.8198 -156.2201 M 20.3528 -135.9575 L 27.4238 -143.0286 M 27.4238 -143.0286 L 34.4949 -150.0997 M 34.4949 -150.0997 L 37.9151 -159.4966 M 37.9151 -159.4966 L 41.3353 -168.8935 M 41.3353 -168.8935 L 44.7555 -178.2905 M 44.7555 -178.2905 L 50.4913 -186.4820 M 50.4913 -186.4820 L 52.2277 -196.3301 M 34.4949 -150.0997 L 44.4568 -150.9712 M 44.4568 -150.9712 L 54.3049 -149.2348 M 54.3049 -149.2348 L 63.9642 -151.8229 M 10.3528 -118.6370 L 15.3528 -127.2973 M 15.3528 -127.2973 L 20.3528 -135.9575 M 20.3528 -135.9575 L 25.3528 -144.6178 M 25.3528 -144.6178 L 30.3528 -153.2780 M 30.3528 -153.2780 L 31.2243 -163.2400 M 31.2243 -163.2400 L 32.0959 -173.2019 M 32.0959 -173.2019 L 32.9674 -183.1639 M 32.9674 -183.1639 L 33.8390 -193.1258 M 33.8390 -193.1258 L 34.7105 -203.0878 M 34.7105 -203.0878 L 35.5821 -213.0497 M 35.5821 -213.0497 L 42.6532 -220.1208 M 42.6532 -220.1208 L 51.3134 -225.1208 M 51.3134 -225.1208 L 57.0492 -233.3123 M 35.5821 -213.0497 L 39.0023 -222.4467 M 39.0023 -222.4467 L 44.7381 -230.6382 M 44.7381 -230.6382 L 46.4746 -240.4863 M 35.5821 -213.0497 L 39.0023 -222.4467 M 39.0023 -222.4467 L 42.4225 -231.8436 M 42.4225 -231.8436 L 41.5510 -241.8055 M 41.5510 -241.8055 L 40.6794 -251.7675 M 40.6794 -251.7675 L 39.8078 -261.7294 M 39.8078 -261.7294 L 41.5443 -271.5775 M 41.5443 -271.5775 L 38.9561 -281.2368 M 42.4225 -231.8436 L 51.0828 -236.8436 M 51.0828 -236.8436 L 60.7420 -239.4318 M 60.7420 -239.4318 L 68.4025 -245.8597 M 30.3528 -153.2780 L 39.7497 -156.6983 M 39.7497 -156.6983 L 49.1466 -160.1185 M 49.1466 -160.1185 L 58.5435 -156.6983 M 58.5435 -156.6983 L 66.7351 -150.9625 M 66.7351 -150.9625 L 76.5831 -149.2260 M 49.1466 -160.1185 L 59.1086 -160.9900 M 59.1086 -160.9900 L 68.9566 -159.2535 M 68.9566 -159.2535 L 78.6159 -161.8417 M 49.1466 -160.1185 L 59.1086 -160.9900 M 59.1086 -160.9900 L 69.0705 -161.8616 M 69.0705 -161.8616 L 77.7308 -166.8616 M 77.7308 -166.8616 L 86.3910 -171.8616 M 86.3910 -171.8616 L 95.0513 -176.8616 M 95.0513 -176.8616 L 104.7105 -179.4498 M 104.7105 -179.4498 L 112.3710 -185.8776 M 69.0705 -161.8616 L 77.2620 -156.1258 M 77.2620 -156.1258 L 83.6899 -148.4654 M 83.6899 -148.4654 L 92.7530 -144.2392 M 0.0000 -80.0000 L 2.5882 -89.6593 M 2.5882 -89.6593 L 5.1764 -99.3185 M 5.1764 -99.3185 L 7.7646 -108.9778 M 7.7646 -108.9778 L 10.3528 -118.6370 M 10.3528 -118.6370 L 12.9410 -128.2963 M 12.9410 -128.2963 L 15.5291 -137.9555 M 15.5291 -137.9555 L 18.1173 -147.6148 M 18.1173 -147.6148 L 20.7055 -157.2741 M 20.7055 -157.2741 L 18.9690 -167.1221 M 18.9690 -167.1221 L 17.2326 -176.9702 M 17.2326 -176.9702 L 15.4961 -186.8183 M 15.4961 -186.8183 L 13.7596 -196.6664 M 13.7596 -196.6664 L 12.0231 -206.5145 M 12.0231 -206.5145 L 10.2866 -216.3625 M 10.2866 -216.3625 L 8.5502 -226.2106 M 8.5502 -226.2106 L 6.8137 -236.0587 M 6.8137 -236.0587 L 5.0772 -245.9068 M 5.0772 -245.9068 L 3.3407 -255.7548 M 3.3407 -255.7548 L 1.6042 -265.6029 M 1.6042 -265.6029 L -0.1323 -275.4510 M -0.1323 -275.4510 L 4.8677 -284.1113 M 4.8677 -284.1113 L 9.8677 -292.7715 M 9.8677 -292.7715 L 19.2647 -296.1917 M 19.2647 -296.1917 L 29.2266 -297.0633 M 29.2266 -297.0633 L 37.8869 -302.0633 M 9.8677 -292.7715 L 16.9388 -299.8426 M 16.9388 -299.8426 L 25.5991 -304.8426 M 25.5991 -304.8426 L 31.3348 -313.0341 M 9.8677 -292.7715 L 16.9388 -299.8426 M 16.9388 -299.8426 L 24.0099 -306.9136 M 24.0099 -306.9136 L 27.4301 -316.3106 M 27.4301 -316.3106 L 30.8503 -325.7075 M 30.8503 -325.7075 L 34.2705 -335.1044 M 34.2705 -335.1044 L 40.0062 -343.2959 M 40.0062 -343.2959 L 41.7427 -353.1440 M 24.0099 -306.9136 L 33.9718 -307.7852 M 33.9718 -307.7852 L 43.8199 -306.0487 M 43.8199 -306.0487 L 53.4792 -308.6369 M -0.1323 -275.4510 L 0.7393 -285.4129 M 0.7393 -285.4129 L 1.6109 -295.3749 M 1.6109 -295.3749 L 8.6819 -302.4460 M 8.6819 -302.4460 L 17.3422 -307.4460 M 17.3422 -307.4460 L 23.0779 -315.6375 M 1.6109 -295.3749 L 5.0311 -304.7718 M 5.0311 -304.7718 L 10.7668 -312.9633 M 10.7668 -312.9633 L 12.5033 -322.8114 M 1.6109 -295.3749 L 5.0311 -304.7718 M 5.0311 -304.7718 L 8.4513 -314.1687 M 8.4513 -314.1687 L 7.5797 -324.1307 M 7.5797 -324.1307 L 6.7081 -334.0926 M 6.7081 -334.0926 L 5.8366 -344.0546 M 5.8366 -344.0546 L 7.5731 -353.9027 M 7.5731 -353.9027 L 4.9849 -363.5619 M 8.4513 -314.1687 L 17.1115 -319.1687 M 17.1115 -319.1687 L 26.7708 -321.7569 M 26.7708 -321.7569 L 34.4312 -328.1848 M -0.1323 -275.4510 L 0.7393 -285.4129 M 0.7393 -285.4129 L 1.6109 -295.3749 M 1.6109 -295.3749 L 2.4824 -305.3368 M 2.4824 -305.3368 L 3.3540 -315.2988 M 3.3540 -315.2988 L -0.0662 -324.6957 M -0.0662 -324.6957 L -3.4864 -334.0926 M -3.4864 -334.0926 L -6.9066 -343.4896 M -6.9066 -343.4896 L -10.3268 -352.8865 M -10.3268 -352.8865 L -13.7470 -362.2834 M -13.7470 -362.2834 L -17.1672 -371.6803 M -17.1672 -371.6803 L -13.7470 -381.0773 M -13.7470 -381.0773 L -8.0113 -389.2688 M -8.0113 -389.2688 L -6.2748 -399.1169 M -17.1672 -371.6803 L -18.0388 -381.6423 M -18.0388 -381.6423 L -16.3023 -391.4904 M -16.3023 -391.4904 L -18.8905 -401.1496 M -17.1672 -371.6803 L -18.0388 -381.6423 M -18.0388 -381.6423 L -18.9104 -391.6042 M -18.9104 -391.6042 L -23.9104 -400.2645 M -23.9104 -400.2645 L -28.9104 -408.9247 M -28.9104 -408.9247 L -33.9104 -417.5850 M -33.9104 -417.5850 L -36.4985 -427.2443 M -36.4985 -427.2443 L -42.9264 -434.9047 M -18.9104 -391.6042 L -13.1746 -399.7958 M -13.1746 -399.7958 L -5.5141 -406.2236 M -5.5141 -406.2236 L -1.2880 -415.2867 M 3.3540 -315.2988 L 10.4250 -322.3699 M 10.4250 -322.3699 L 17.4961 -329.4409 M 17.4961 -329.4409 L 27.4581 -330.3125 M 27.4581 -330.3125 L 37.3061 -328.5760 M 37.3061 -328.5760 L 46.9654 -331.1642 M 17.4961 -329.4409 L 26.1564 -334.4409 M 26.1564 -334.4409 L 35.8156 -337.0291 M 35.8156 -337.0291 L 43.4761 -343.4570 M 17.4961 -329.4409 L 26.1564 -334.4409 M 26.1564 -334.4409 L 34.8166 -339.4409 M 34.8166 -339.4409 L 40.5524 -347.6324 M 40.5524 -347.6324 L 46.2881 -355.8240 M 46.2881 -355.8240 L 52.0239 -364.0155 M 52.0239 -364.0155 L 59.6844 -370.4434 M 59.6844 -370.4434 L 63.9105 -379.5064 M 34.8166 -339.4409 L 44.6647 -337.7044 M 44.6647 -337.7044 L 53.7278 -333.4783 M 53.7278 -333.4783 L 63.7278 -333.4783 M 20.7055 -157.2741 L 28.8970 -163.0098 M 28.8970 -163.0098 L 37.0886 -168.7456 M 37.0886 -168.7456 L 45.2801 -174.4814 M 45.2801 -174.4814 L 53.4716 -180.2171 M 53.4716 -180.2171 L 63.4336 -179.3456 M 63.4336 -179.3456 L 73.3955 -178.4740 M 73.3955 -178.4740 L 80.4666 -171.4029 M 80.4666 -171.4029 L 85.4666 -162.7427 M 85.4666 -162.7427 L 93.6581 -157.0069 M 73.3955 -178.4740 L 82.7924 -175.0538 M 82.7924 -175.0538 L 90.9839 -169.3180 M 90.9839 -169.3180 L 100.8320 -167.5816 M 73.3955 -178.4740 L 82.7924 -175.0538 M 82.7924 -175.0538 L 92.1894 -171.6336 M 92.1894 -171.6336 L 102.1513 -172.5052 M 102.1513 -172.5052 L 112.1132 -173.3767 M 112.1132 -173.3767 L 122.0752 -174.2483 M 122.0752 -174.2483 L 131.9233 -172.5118 M 131.9233 -172.5118 L 141.5825 -175.1000 M 92.1894 -171.6336 L 97.1894 -162.9734 M 97.1894 -162.9734 L 99.7775 -153.3141 M 99.7775 -153.3141 L 106.2054 -145.6536 M 53.4716 -180.2171 L 62.8685 -183.6373 M 62.8685 -183.6373 L 72.2655 -187.0575 M 72.2655 -187.0575 L 81.6624 -183.6373 M 81.6624 -183.6373 L 89.8539 -177.9016 M 89.8539 -177.9016 L 99.7020 -176.1651 M 72.2655 -187.0575 L 82.2274 -187.9291 M 82.2274 -187.9291 L 92.0755 -186.1926 M 92.0755 -186.1926 L 101.7347 -188.7808 M 72.2655 -187.0575 L 82.2274 -187.9291 M 82.2274 -187.9291 L 92.1894 -188.8006 M 92.1894 -188.8006 L 100.8496 -193.8006 M 100.8496 -193.8006 L 109.5099 -198.8006 M 109.5099 -198.8006 L 118.1701 -203.8006 M 118.1701 -203.8006 L 127.8294 -206.3888 M 127.8294 -206.3888 L 135.4898 -212.8167 M 92.1894 -188.8006 L 100.3809 -183.0649 M 100.3809 -183.0649 L 106.8087 -175.4044 M 106.8087 -175.4044 L 115.8718 -171.1782 M 53.4716 -180.2171 L 62.8685 -183.6373 M 62.8685 -183.6373 L 72.2655 -187.0575 M 72.2655 -187.0575 L 81.6624 -190.4777 M 81.6624 -190.4777 L 91.0593 -193.8979 M 91.0593 -193.8979 L 98.1304 -200.9690 M 98.1304 -200.9690 L 105.2014 -208.0401 M 105.2014 -208.0401 L 112.2725 -215.1111 M 112.2725 -215.1111 L 119.3436 -222.1822 M 119.3436 -222.1822 L 126.4146 -229.2533 M 126.4146 -229.2533 L 133.4857 -236.3243 M 133.4857 -236.3243 L 143.4477 -237.1959 M 143.4477 -237.1959 L 153.2957 -235.4594 M 153.2957 -235.4594 L 162.9550 -238.0476 M 133.4857 -236.3243 L 142.1460 -241.3243 M 142.1460 -241.3243 L 151.8052 -243.9125 M 151.8052 -243.9125 L 159.4657 -250.3404 M 133.4857 -236.3243 L 142.1460 -241.3243 M 142.1460 -241.3243 L 150.8062 -246.3243 M 150.8062 -246.3243 L 156.5420 -254.5159 M 156.5420 -254.5159 L 162.2778 -262.7074 M 162.2778 -262.7074 L 168.0135 -270.8989 M 168.0135 -270.8989 L 175.6740 -277.3268 M 175.6740 -277.3268 L 179.9001 -286.3899 M 150.8062 -246.3243 L 160.6543 -244.5879 M 160.6543 -244.5879 L 169.7174 -240.3617 M 169.7174 -240.3617 L 179.7174 -240.3617 M 91.0593 -193.8979 L 100.4562 -190.4777 M 100.4562 -190.4777 L 109.8532 -187.0575 M 109.8532 -187.0575 L 114.8532 -178.3973 M 114.8532 -178.3973 L 117.4414 -168.7380 M 117.4414 -168.7380 L 123.8692 -161.0776 M 109.8532 -187.0575 L 118.0447 -181.3218 M 118.0447 -181.3218 L 124.4726 -173.6613 M 124.4726 -173.6613 L 133.5356 -169.4351 M 109.8532 -187.0575 L 118.0447 -181.3218 M 118.0447 -181.3218 L 126.2362 -175.5860 M 126.2362 -175.5860 L 136.0843 -173.8495 M 136.0843 -173.8495 L 145.9324 -172.1130 M 145.9324 -172.1130 L 155.7804 -170.3766 M 155.7804 -170.3766 L 164.8435 -166.1504 M 164.8435 -166.1504 L 174.8435 -166.1504 M 126.2362 -175.5860 L 128.8244 -165.9267 M 128.8244 -165.9267 L 128.8244 -155.9267 M 128.8244 -155.9267 L 133.0506 -146.8637 " stroke-width="1" stroke="black" fill="none"/><circle cx="54.0679" cy="-109.1147" r="4" fill="black"/><rect x="50.0679" y="-113.1147" width="8" height="8" fill="black" transform="rotate(70.0 54.06791348555013 -109.11474127809771)"/><circle cx="70.5359" cy="-98.6235" r="4" fill="black"/><rect x="57.1390" y="-106.0437" width="8" height="8" fill="black" transform="rotate(85.0 61.138981297415604 -102.04367346623224)"/><circle cx="61.1390" cy="-102.0437" r="4" fill="black"/><rect x="41.4077" y="-118.1147" width="8" height="8" fill="black" transform="rotate(30.0 45.40765944770574 -114.11474127809771)"/><circle cx="55.3696" cy="-113.2432" r="4" fill="black"/><rect x="51.3696" y="-117.2432" width="8" height="8" fill="black" transform="rotate(45.0 55.36960642862319 -113.24318385062112)"/><circle cx="74.7285" cy="-110.6945" r="4" fill="black"/><rect x="60.7665" y="-113.8230" width="8" height="8" fill="black" transform="rotate(60.0 64.76653263648228 -109.82298241736443)"/><circle cx="93.5223" cy="-122.6322" r="4" fill="black"/><rect x="89.5223" y="-126.6322" width="8" height="8" fill="black" transform="rotate(20.0 93.52233203311789 -122.63223072291461)"/><circle cx="112.1445" cy="-128.5038" r="4" fill="black"/><rect x="99.4843" y="-127.5038" width="8" height="8" fill="black" transform="rotate(35.0 103.48427901403535 -123.5037881503912)"/><circle cx="103.4843" cy="-123.5038" r="4" fill="black"/><circle cx="72.4026" cy="-105.3006" r="4" fill="black"/><rect x="68.4026" y="-109.3006" width="8" height="8" fill="black" transform="rotate(85.0 72.40262122140612 -105.30055861127906)"/><circle cx="85.5941" cy="-90.9045" r="4" fill="black"/><rect x="73.4026" y="-100.6403" width="8" height="8" fill="black" transform="rotate(100.0 77.40262122140612 -96.64030457343468)"/><rect x="73.4026" y="-100.6403" width="8" height="8" fill="black" transform="rotate(100.0 77.40262122140612 -96.64030457343468)"/><circle cx="77.4026" cy="-96.6403" r="4" fill="black"/><rect x="21.7115" y="-114.6418" width="8" height="8" fill="black" transform="rotate(-10.0 25.711504387461577 -110.6417777247591)"/><circle cx="52.0565" cy="-121.2417" r="4" fill="black"/><rect x="48.0565" y="-125.2417" width="8" height="8" fill="black" transform="rotate(45.0 52.05649225415887 -121.24174902430342)"/><circle cx="71.4154" cy="-118.6931" r="4" fill="black"/><rect x="57.4534" y="-121.8215" width="8" height="8" fill="black" transform="rotate(60.0 61.45341846201795 -117.82154759104672)"/><circle cx="61.4534" cy="-117.8215" r="4" fill="black"/><rect x="38.0945" y="-126.1133" width="8" height="8" fill="black" transform="rotate(5.0 42.094545273241415 -122.11330645178)"/><circle cx="51.4915" cy="-125.5335" r="4" fill="black"/><rect x="47.4915" y="-129.5335" width="8" height="8" fill="black" transform="rotate(20.0 51.491471481100504 -125.5335078850367)"/><circle cx="70.1137" cy="-131.4051" r="4" fill="black"/><rect x="57.4534" y="-130.4051" width="8" height="8" fill="black" transform="rotate(35.0 61.45341846201796 -126.40506531251329)"/><circle cx="82.1016" cy="-150.1669" r="4" fill="black"/><rect x="78.1016" y="-154.1669" width="8" height="8" fill="black" transform="rotate(-5.0 82.10160112455601 -150.16691275388982)"/><circle cx="96.4976" cy="-163.3584" r="4" fill="black"/><rect x="86.7619" y="-159.1669" width="8" height="8" fill="black" transform="rotate(10.0 90.7618551624004 -155.16691275388982)"/><circle cx="90.7619" cy="-155.1669" r="4" fill="black"/><circle cx="70.2853" cy="-125.5335" r="4" fill="black"/><rect x="66.2853" y="-129.5335" width="8" height="8" fill="black" transform="rotate(60.0 70.28532389681867 -125.5335078850367)"/><circle cx="88.3249" cy="-118.0613" r="4" fill="black"/><rect x="74.4768" y="-123.7977" width="8" height="8" fill="black" transform="rotate(75.0 78.47684433970858 -119.79774352152624)"/><rect x="74.4768" y="-123.7977" width="8" height="8" fill="black" transform="rotate(75.0 78.47684433970858 -119.79774352152624)"/><circle cx="97.8745" cy="-188.9666" r="4" fill="black"/><rect x="93.8745" y="-192.9666" width="8" height="8" fill="black" transform="rotate(20.0 97.87451236688034 -188.96656083912399)"/><circle cx="116.4967" cy="-194.8381" r="4" fill="black"/><rect x="103.8365" y="-193.8381" width="8" height="8" fill="black" transform="rotate(35.0 107.8364593477978 -189.83811826660056)"/><circle cx="107.8365" cy="-189.8381" r="4" fill="black"/><rect x="84.4776" y="-189.5464" width="8" height="8" fill="black" transform="rotate(-20.0 88.47758615902126 -185.5463594058673)"/><circle cx="95.5487" cy="-192.6174" r="4" fill="black"/><rect x="91.5487" y="-196.6174" width="8" height="8" fill="black" transform="rotate(-5.0 95.54865397088673 -192.61742721773277)"/><circle cx="109.9447" cy="-205.8089" r="4" fill="black"/><rect x="100.2089" y="-201.6174" width="8" height="8" fill="black" transform="rotate(10.0 104.20890800873111 -197.61742721773277)"/><circle cx="112.8803" cy="-227.8793" r="4" fill="black"/><rect x="108.8803" y="-231.8793" width="8" height="8" fill="black" transform="rotate(-30.0 112.88032608252229 -227.8792736531755)"/><circle cx="120.3526" cy="-245.9189" r="4" fill="black"/><rect x="114.6161" y="-240.0708" width="8" height="8" fill="black" transform="rotate(-15.0 118.61609044603274 -236.0707940960654)"/><circle cx="118.6161" cy="-236.0708" r="4" fill="black"/><circle cx="112.5817" cy="-200.5601" r="4" fill="black"/><rect x="108.5817" y="-204.5601" width="8" height="8" fill="black" transform="rotate(35.0 112.58166876366967 -200.56005245707482)"/><circle cx="132.0890" cy="-201.4118" r="4" fill="black"/><rect x="118.4297" y="-202.8236" width="8" height="8" fill="black" transform="rotate(50.0 122.42974629379175 -198.8235706804055)"/><rect x="118.4297" y="-202.8236" width="8" height="8" fill="black" transform="rotate(50.0 122.42974629379175 -198.8235706804055)"/><circle cx="122.4297" cy="-198.8236" r="4" fill="black"/><circle cx="85.4725" cy="-124.7707" r="4" fill="black"/><rect x="81.4725" y="-128.7707" width="8" height="8" fill="black" transform="rotate(85.0 85.47254793272164 -124.77065251198229)"/><circle cx="98.6641" cy="-110.3746" r="4" fill="black"/><rect x="86.4725" y="-120.1104" width="8" height="8" fill="black" transform="rotate(100.0 90.47254793272164 -116.11039847413791)"/><circle cx="90.4725" cy="-116.1104" r="4" fill="black"/><rect x="74.4015" y="-135.8417" width="8" height="8" fill="black" transform="rotate(45.0 78.40148012085616 -131.84172032384777)"/><circle cx="87.7984" cy="-128.4215" r="4" fill="black"/><rect x="83.7984" y="-132.4215" width="8" height="8" fill="black" transform="rotate(60.0 87.79840632871525 -128.42151889059107)"/><circle cx="105.8380" cy="-120.9493" r="4" fill="black"/><rect x="91.9899" y="-126.6858" width="8" height="8" fill="black" transform="rotate(75.0 95.98992677160516 -122.68575452708062)"/><circle cx="127.0812" cy="-127.6160" r="4" fill="black"/><rect x="123.0812" y="-131.6160" width="8" height="8" fill="black" transform="rotate(35.0 127.08117347932671 -127.61598973976415)"/><circle cx="146.5885" cy="-128.4677" r="4" fill="black"/><rect x="132.9293" y="-129.8795" width="8" height="8" fill="black" transform="rotate(50.0 136.9292510094488 -125.87950796309484)"/><circle cx="136.9293" cy="-125.8795" r="4" fill="black"/><circle cx="102.1953" cy="-116.3411" r="4" fill="black"/><rect x="98.1953" y="-120.3411" width="8" height="8" fill="black" transform="rotate(100.0 102.19533253657433 -116.34106341949)"/><circle cx="111.2114" cy="-99.0214" r="4" fill="black"/><rect x="100.7835" y="-110.6818" width="8" height="8" fill="black" transform="rotate(115.0 104.78352298759954 -106.68180515659931)"/><rect x="100.7835" y="-110.6818" width="8" height="8" fill="black" transform="rotate(115.0 104.78352298759954 -106.68180515659931)"/><rect x="100.7835" y="-110.6818" width="8" height="8" fill="black" transform="rotate(115.0 104.78352298759954 -106.68180515659931)"/><circle cx="104.7835" cy="-106.6818" r="4" fill="black"/><rect x="-4.0000" y="-84.0000" width="8" height="8" fill="black" transform="rotate(-50.0 4.898587196589413E-15 -80.0)"/><circle cx="36.6977" cy="-129.2370" r="4" fill="black"/><rect x="32.6977" y="-133.2370" width="8" height="8" fill="black" transform="rotate(45.0 36.697749670798125 -129.2370043511071)"/><circle cx="56.0566" cy="-126.6884" r="4" fill="black"/><rect x="42.0947" y="-129.8168" width="8" height="8" fill="black" transform="rotate(60.0 46.09467587865721 -125.8168029178504)"/><circle cx="46.0947" cy="-125.8168" r="4" fill="black"/><rect x="22.7358" y="-134.1086" width="8" height="8" fill="black" transform="rotate(5.0 26.73580268988067 -130.10856177858366)"/><circle cx="36.1327" cy="-133.5288" r="4" fill="black"/><rect x="32.1327" y="-137.5288" width="8" height="8" fill="black" transform="rotate(20.0 36.13272889773975 -133.52876321184036)"/><circle cx="54.7549" cy="-139.4003" r="4" fill="black"/><rect x="42.0947" y="-138.4003" width="8" height="8" fill="black" transform="rotate(35.0 46.094675878657206 -134.40032063931693)"/><circle cx="66.7429" cy="-158.1622" r="4" fill="black"/><rect x="62.7429" y="-162.1622" width="8" height="8" fill="black" transform="rotate(-5.0 66.74285854119526 -158.16216808069348)"/><circle cx="81.1389" cy="-171.3537" r="4" fill="black"/><rect x="71.4031" y="-167.1622" width="8" height="8" fill="black" transform="rotate(10.0 75.40311257903964 -163.16216808069348)"/><circle cx="75.4031" cy="-163.1622" r="4" fill="black"/><circle cx="54.9266" cy="-133.5288" r="4" fill="black"/><rect x="50.9266" y="-137.5288" width="8" height="8" fill="black" transform="rotate(60.0 54.926581313457916 -133.52876321184036)"/><circle cx="72.9662" cy="-126.0565" r="4" fill="black"/><rect x="59.1181" y="-131.7930" width="8" height="8" fill="black" transform="rotate(75.0 63.11810175634783 -127.7929988483299)"/><rect x="59.1181" y="-131.7930" width="8" height="8" fill="black" transform="rotate(75.0 63.11810175634783 -127.7929988483299)"/><circle cx="63.1181" cy="-127.7930" r="4" fill="black"/><rect x="6.3528" y="-122.6370" width="8" height="8" fill="black" transform="rotate(-35.0 10.352761804100835 -118.63703305156275)"/><circle cx="29.7497" cy="-139.3777" r="4" fill="black"/><rect x="25.7497" y="-143.3777" width="8" height="8" fill="black" transform="rotate(20.0 29.749688011959922 -139.3777425605082)"/><circle cx="48.3719" cy="-145.2493" r="4" fill="black"/><rect x="35.7116" y="-144.2493" width="8" height="8" fill="black" transform="rotate(35.0 39.71163499287738 -140.24929998798478)"/><circle cx="39.7116" cy="-140.2493" r="4" fill="black"/><rect x="16.3528" y="-139.9575" width="8" height="8" fill="black" transform="rotate(-20.0 20.352761804100837 -135.95754112725152)"/><circle cx="27.4238" cy="-143.0286" r="4" fill="black"/><rect x="23.4238" y="-147.0286" width="8" height="8" fill="black" transform="rotate(-5.0 27.423829615966312 -143.028608939117)"/><circle cx="41.8198" cy="-156.2201" r="4" fill="black"/><rect x="32.0841" y="-152.0286" width="8" height="8" fill="black" transform="rotate(10.0 36.0840836538107 -148.028608939117)"/><circle cx="44.7555" cy="-178.2905" r="4" fill="black"/><rect x="40.7555" y="-182.2905" width="8" height="8" fill="black" transform="rotate(-30.0 44.755501727601846 -178.2904553745597)"/><circle cx="52.2277" cy="-196.3301" r="4" fill="black"/><rect x="46.4913" y="-190.4820" width="8" height="8" fill="black" transform="rotate(-15.0 50.49126609111231 -186.48197581744964)"/><circle cx="50.4913" cy="-186.4820" r="4" fill="black"/><circle cx="44.4568" cy="-150.9712" r="4" fill="black"/><rect x="40.4568" y="-154.9712" width="8" height="8" fill="black" transform="rotate(35.0 44.45684440874924 -150.97123417845904)"/><circle cx="63.9642" cy="-151.8229" r="4" fill="black"/><rect x="50.3049" y="-153.2348" width="8" height="8" fill="black" transform="rotate(50.0 54.30492193887132 -149.23475240178973)"/><rect x="50.3049" y="-153.2348" width="8" height="8" fill="black" transform="rotate(50.0 54.30492193887132 -149.23475240178973)"/><circle cx="42.6532" cy="-220.1208" r="4" fill="black"/><rect x="38.6532" y="-224.1208" width="8" height="8" fill="black" transform="rotate(-5.0 42.6531741808258 -220.12079890031046)"/><circle cx="57.0492" cy="-233.3123" r="4" fill="black"/><rect x="47.3134" y="-229.1208" width="8" height="8" fill="black" transform="rotate(10.0 51.31342821867019 -225.12079890031046)"/><circle cx="51.3134" cy="-225.1208" r="4" fill="black"/><rect x="31.5821" y="-217.0497" width="8" height="8" fill="black" transform="rotate(-45.0 35.582106368960325 -213.049731088445)"/><circle cx="39.0023" cy="-222.4467" r="4" fill="black"/><rect x="35.0023" y="-226.4467" width="8" height="8" fill="black" transform="rotate(-30.0 39.00230780221701 -222.44665729630407)"/><circle cx="46.4746" cy="-240.4863" r="4" fill="black"/><rect x="40.7381" y="-234.6382" width="8" height="8" fill="black" transform="rotate(-15.0 44.73807216572747 -230.638177739194)"/><circle cx="39.8078" cy="-261.7294" r="4" fill="black"/><rect x="35.8078" y="-265.7294" width="8" height="8" fill="black" transform="rotate(-55.0 39.80783695304395 -261.7294244469155)"/><circle cx="38.9561" cy="-281.2368" r="4" fill="black"/><rect x="37.5443" y="-275.5775" width="8" height="8" fill="black" transform="rotate(-40.0 41.544318729713254 -271.57750197703757)"/><circle cx="41.5443" cy="-271.5775" r="4" fill="black"/><circle cx="51.0828" cy="-236.8436" r="4" fill="black"/><rect x="47.0828" y="-240.8436" width="8" height="8" fill="black" transform="rotate(10.0 51.082763273318086 -236.84358350416315)"/><circle cx="68.4025" cy="-245.8597" r="4" fill="black"/><rect x="56.7420" y="-243.4318" width="8" height="8" fill="black" transform="rotate(25.0 60.74202153620877 -239.43177395518836)"/><rect x="56.7420" y="-243.4318" width="8" height="8" fill="black" transform="rotate(25.0 60.74202153620877 -239.43177395518836)"/><circle cx="60.7420" cy="-239.4318" r="4" fill="black"/><circle cx="58.5435" cy="-156.6983" r="4" fill="black"/><rect x="54.5435" y="-160.6983" width="8" height="8" fill="black" transform="rotate(60.0 58.54354042767808 -156.698250636197)"/><circle cx="76.5831" cy="-149.2260" r="4" fill="black"/><rect x="62.7351" y="-154.9625" width="8" height="8" fill="black" transform="rotate(75.0 66.73506087056799 -150.96248627268653)"/><circle cx="66.7351" cy="-150.9625" r="4" fill="black"/><rect x="45.1466" y="-164.1185" width="8" height="8" fill="black" transform="rotate(20.0 49.146614219819 -160.1184520694537)"/><circle cx="59.1086" cy="-160.9900" r="4" fill="black"/><rect x="55.1086" y="-164.9900" width="8" height="8" fill="black" transform="rotate(35.0 59.10856120073645 -160.99000949693027)"/><circle cx="78.6159" cy="-161.8417" r="4" fill="black"/><rect x="64.9566" y="-163.2535" width="8" height="8" fill="black" transform="rotate(50.0 68.95663873085853 -159.25352772026096)"/><circle cx="95.0513" cy="-176.8616" r="4" fill="black"/><rect x="91.0513" y="-180.8616" width="8" height="8" fill="black" transform="rotate(10.0 95.05127029518705 -176.86156692440684)"/><circle cx="112.3710" cy="-185.8776" r="4" fill="black"/><rect x="100.7105" y="-183.4498" width="8" height="8" fill="black" transform="rotate(25.0 104.71052855807774 -179.44975737543206)"/><circle cx="104.7105" cy="-179.4498" r="4" fill="black"/><circle cx="77.2620" cy="-156.1258" r="4" fill="black"/><rect x="73.2620" y="-160.1258" width="8" height="8" fill="black" transform="rotate(75.0 77.26202862454383 -156.12580256089637)"/><circle cx="92.7530" cy="-144.2392" r="4" fill="black"/><rect x="79.6899" y="-152.4654" width="8" height="8" fill="black" transform="rotate(90.0 83.68990472140922 -148.4653581297066)"/><rect x="79.6899" y="-152.4654" width="8" height="8" fill="black" transform="rotate(90.0 83.68990472140922 -148.4653581297066)"/><rect x="79.6899" y="-152.4654" width="8" height="8" fill="black" transform="rotate(90.0 83.68990472140922 -148.4653581297066)"/><circle cx="19.2647" cy="-296.1917" r="4" fill="black"/><rect x="15.2647" y="-300.1917" width="8" height="8" fill="black" transform="rotate(20.0 19.264668496029117 -296.1917059735359)"/><circle cx="37.8869" cy="-302.0633" r="4" fill="black"/><rect x="25.2266" y="-301.0633" width="8" height="8" fill="black" transform="rotate(35.0 29.22661547694657 -297.0632634010125)"/><circle cx="29.2266" cy="-297.0633" r="4" fill="black"/><rect x="5.8677" y="-296.7715" width="8" height="8" fill="black" transform="rotate(-20.0 9.867742288170032 -292.7715045402792)"/><circle cx="16.9388" cy="-299.8426" r="4" fill="black"/><rect x="12.9388" y="-303.8426" width="8" height="8" fill="black" transform="rotate(-5.0 16.938810100035507 -299.84257235214466)"/><circle cx="31.3348" cy="-313.0341" r="4" fill="black"/><rect x="21.5991" y="-308.8426" width="8" height="8" fill="black" transform="rotate(10.0 25.599064137879893 -304.84257235214466)"/><circle cx="34.2705" cy="-335.1044" r="4" fill="black"/><rect x="30.2705" y="-339.1044" width="8" height="8" fill="black" transform="rotate(-30.0 34.27048221167105 -335.10441878758746)"/><circle cx="41.7427" cy="-353.1440" r="4" fill="black"/><rect x="36.0062" y="-347.2959" width="8" height="8" fill="black" transform="rotate(-15.0 40.006246575181514 -343.29593923047736)"/><circle cx="40.0062" cy="-343.2959" r="4" fill="black"/><circle cx="33.9718" cy="-307.7852" r="4" fill="black"/><rect x="29.9718" y="-311.7852" width="8" height="8" fill="black" transform="rotate(35.0 33.97182489281844 -307.78519759148674)"/><circle cx="53.4792" cy="-308.6369" r="4" fill="black"/><rect x="39.8199" y="-310.0487" width="8" height="8" fill="black" transform="rotate(50.0 43.819902422940515 -306.04871581481746)"/><rect x="39.8199" y="-310.0487" width="8" height="8" fill="black" transform="rotate(50.0 43.819902422940515 -306.04871581481746)"/><circle cx="43.8199" cy="-306.0487" r="4" fill="black"/><rect x="-4.1323" y="-279.4510" width="8" height="8" fill="black" transform="rotate(-60.0 -0.1322577118299697 -275.45099646459045)"/><circle cx="8.6819" cy="-302.4460" r="4" fill="black"/><rect x="4.6819" y="-306.4460" width="8" height="8" fill="black" transform="rotate(-5.0 8.681924954988668 -302.4459582382908)"/><circle cx="23.0779" cy="-315.6375" r="4" fill="black"/><rect x="13.3422" y="-311.4460" width="8" height="8" fill="black" transform="rotate(10.0 17.342178992833055 -307.4459582382908)"/><circle cx="17.3422" cy="-307.4460" r="4" fill="black"/><rect x="-2.3891" y="-299.3749" width="8" height="8" fill="black" transform="rotate(-45.0 1.610857143123193 -295.37489042642534)"/><circle cx="5.0311" cy="-304.7718" r="4" fill="black"/><rect x="1.0311" y="-308.7718" width="8" height="8" fill="black" transform="rotate(-30.0 5.031058576379881 -304.77181663428445)"/><circle cx="12.5033" cy="-322.8114" r="4" fill="black"/><rect x="6.7668" y="-316.9633" width="8" height="8" fill="black" transform="rotate(-15.0 10.766822939890343 -312.96333707717434)"/><circle cx="5.8366" cy="-344.0546" r="4" fill="black"/><rect x="1.8366" y="-348.0546" width="8" height="8" fill="black" transform="rotate(-55.0 5.836587727206823 -344.0545837848959)"/><circle cx="4.9849" cy="-363.5619" r="4" fill="black"/><rect x="3.5731" y="-357.9027" width="8" height="8" fill="black" transform="rotate(-40.0 7.573069503876128 -353.90266131501795)"/><circle cx="7.5731" cy="-353.9027" r="4" fill="black"/><circle cx="17.1115" cy="-319.1687" r="4" fill="black"/><rect x="13.1115" y="-323.1687" width="8" height="8" fill="black" transform="rotate(10.0 17.11151404748096 -319.16874284214356)"/><circle cx="34.4312" cy="-328.1848" r="4" fill="black"/><rect x="22.7708" y="-325.7569" width="8" height="8" fill="black" transform="rotate(25.0 26.77077231037164 -321.75693329316874)"/><rect x="22.7708" y="-325.7569" width="8" height="8" fill="black" transform="rotate(25.0 26.77077231037164 -321.75693329316874)"/><circle cx="-13.7470" cy="-381.0773" r="4" fill="black"/><rect x="-17.7470" y="-385.0773" width="8" height="8" fill="black" transform="rotate(-30.0 -13.747035168207075 -381.077267843274)"/><circle cx="-6.2748" cy="-399.1169" r="4" fill="black"/><rect x="-12.0113" y="-393.2688" width="8" height="8" fill="black" transform="rotate(-15.0 -8.011270804696615 -389.2687882861639)"/><circle cx="-8.0113" cy="-389.2688" r="4" fill="black"/><rect x="-21.1672" y="-375.6803" width="8" height="8" fill="black" transform="rotate(-70.0 -17.167236601463763 -371.6803416354149)"/><circle cx="-18.0388" cy="-381.6423" r="4" fill="black"/><rect x="-22.0388" y="-385.6423" width="8" height="8" fill="black" transform="rotate(-55.0 -18.038794028940345 -381.64228861633234)"/><circle cx="-18.8905" cy="-401.1496" r="4" fill="black"/><rect x="-20.3023" y="-395.4904" width="8" height="8" fill="black" transform="rotate(-40.0 -16.30231225227104 -391.4903661464544)"/><circle cx="-33.9104" cy="-417.5850" r="4" fill="black"/><rect x="-37.9104" y="-421.5850" width="8" height="8" fill="black" transform="rotate(-80.0 -33.910351456416926 -417.5849977107829)"/><circle cx="-42.9264" cy="-434.9047" r="4" fill="black"/><rect x="-40.4985" y="-431.2443" width="8" height="8" fill="black" transform="rotate(-65.0 -36.49854190744213 -427.24425597367355)"/><circle cx="-36.4985" cy="-427.2443" r="4" fill="black"/><circle cx="-13.1746" cy="-399.7958" r="4" fill="black"/><rect x="-17.1746" y="-403.7958" width="8" height="8" fill="black" transform="rotate(-15.0 -13.174587092906464 -399.7957560401397)"/><circle cx="-1.2880" cy="-415.2867" r="4" fill="black"/><rect x="-9.5141" y="-410.2236" width="8" height="8" fill="black" transform="rotate(0.0 -5.514142661716684 -406.2236321370051)"/><rect x="-9.5141" y="-410.2236" width="8" height="8" fill="black" transform="rotate(0.0 -5.514142661716684 -406.2236321370051)"/><circle cx="-5.5141" cy="-406.2236" r="4" fill="black"/><circle cx="27.4581" cy="-330.3125" r="4" fill="black"/><rect x="23.4581" y="-334.3125" width="8" height="8" fill="black" transform="rotate(35.0 27.458054602724758 -330.3124774394678)"/><circle cx="46.9654" cy="-331.1642" r="4" fill="black"/><rect x="33.3061" y="-332.5760" width="8" height="8" fill="black" transform="rotate(50.0 37.30613213284684 -328.5759956627985)"/><circle cx="37.3061" cy="-328.5760" r="4" fill="black"/><rect x="13.4961" y="-333.4409" width="8" height="8" fill="black" transform="rotate(-5.0 17.496107621807305 -329.4409200119912)"/><circle cx="26.1564" cy="-334.4409" r="4" fill="black"/><rect x="22.1564" y="-338.4409" width="8" height="8" fill="black" transform="rotate(10.0 26.156361659651694 -334.4409200119912)"/><circle cx="43.4761" cy="-343.4570" r="4" fill="black"/><rect x="31.8156" y="-341.0291" width="8" height="8" fill="black" transform="rotate(25.0 35.815619922542375 -337.02911046301637)"/><circle cx="52.0239" cy="-364.0155" r="4" fill="black"/><rect x="48.0239" y="-368.0155" width="8" height="8" fill="black" transform="rotate(-15.0 52.02390878802747 -364.01548134066087)"/><circle cx="63.9105" cy="-379.5064" r="4" fill="black"/><rect x="55.6844" y="-374.4434" width="8" height="8" fill="black" transform="rotate(0.0 59.68435321921725 -370.4433574375263)"/><circle cx="59.6844" cy="-370.4434" r="4" fill="black"/><circle cx="44.6647" cy="-337.7044" r="4" fill="black"/><rect x="40.6647" y="-341.7044" width="8" height="8" fill="black" transform="rotate(50.0 44.66469322761816 -337.7044382353219)"/><circle cx="63.7278" cy="-333.4783" r="4" fill="black"/><rect x="49.7278" y="-337.4783" width="8" height="8" fill="black" transform="rotate(65.0 53.72777109798466 -333.4782556179149)"/><rect x="49.7278" y="-337.4783" width="8" height="8" fill="black" transform="rotate(65.0 53.72777109798466 -333.4782556179149)"/><rect x="49.7278" y="-337.4783" width="8" height="8" fill="black" transform="rotate(65.0 53.72777109798466 -333.4782556179149)"/><circle cx="53.7278" cy="-333.4783" r="4" fill="black"/><circle cx="80.4666" cy="-171.4029" r="4" fill="black"/><rect x="76.4666" y="-175.4029" width="8" height="8" fill="black" transform="rotate(85.0 80.46656715346172 -171.40294089034876)"/><circle cx="93.6581" cy="-157.0069" r="4" fill="black"/><rect x="81.4666" y="-166.7427" width="8" height="8" fill="black" transform="rotate(100.0 85.46656715346172 -162.74268685250436)"/><circle cx="85.4666" cy="-162.7427" r="4" fill="black"/><rect x="69.3955" y="-182.4740" width="8" height="8" fill="black" transform="rotate(45.0 73.39549934159625 -178.47400870221423)"/><circle cx="82.7924" cy="-175.0538" r="4" fill="black"/><rect x="78.7924" y="-179.0538" width="8" height="8" fill="black" transform="rotate(60.0 82.79242554945533 -175.05380726895754)"/><circle cx="100.8320" cy="-167.5816" r="4" fill="black"/><rect x="86.9839" y="-173.3180" width="8" height="8" fill="black" transform="rotate(75.0 90.98394599234524 -169.31804290544707)"/><circle cx="122.0752" cy="-174.2483" r="4" fill="black"/><rect x="118.0752" y="-178.2483" width="8" height="8" fill="black" transform="rotate(35.0 122.0751927000668 -174.24827811813057)"/><circle cx="141.5825" cy="-175.1000" r="4" fill="black"/><rect x="127.9233" y="-176.5118" width="8" height="8" fill="black" transform="rotate(50.0 131.92327023018888 -172.51179634146126)"/><circle cx="131.9233" cy="-172.5118" r="4" fill="black"/><circle cx="97.1894" cy="-162.9734" r="4" fill="black"/><rect x="93.1894" y="-166.9734" width="8" height="8" fill="black" transform="rotate(100.0 97.18935175731441 -162.97335179785645)"/><circle cx="106.2054" cy="-145.6536" r="4" fill="black"/><rect x="95.7775" y="-157.3141" width="8" height="8" fill="black" transform="rotate(115.0 99.77754220833963 -153.31409353496576)"/><rect x="95.7775" y="-157.3141" width="8" height="8" fill="black" transform="rotate(115.0 99.77754220833963 -153.31409353496576)"/><circle cx="99.7775" cy="-153.3141" r="4" fill="black"/><rect x="49.4716" y="-184.2171" width="8" height="8" fill="black" transform="rotate(5.0 53.471605379761336 -180.21712355716738)"/><circle cx="81.6624" cy="-183.6373" r="4" fill="black"/><rect x="77.6624" y="-187.6373" width="8" height="8" fill="black" transform="rotate(60.0 81.66238400333859 -183.63732499042408)"/><circle cx="99.7020" cy="-176.1651" r="4" fill="black"/><rect x="85.8539" y="-181.9016" width="8" height="8" fill="black" transform="rotate(75.0 89.85390444622851 -177.9015606269136)"/><circle cx="89.8539" cy="-177.9016" r="4" fill="black"/><rect x="68.2655" y="-191.0575" width="8" height="8" fill="black" transform="rotate(20.0 72.2654577954795 -187.05752642368077)"/><circle cx="82.2274" cy="-187.9291" r="4" fill="black"/><rect x="78.2274" y="-191.9291" width="8" height="8" fill="black" transform="rotate(35.0 82.22740477639697 -187.92908385115734)"/><circle cx="101.7347" cy="-188.7808" r="4" fill="black"/><rect x="88.0755" y="-190.1926" width="8" height="8" fill="black" transform="rotate(50.0 92.07548230651905 -186.19260207448804)"/><circle cx="118.1701" cy="-203.8006" r="4" fill="black"/><rect x="114.1701" y="-207.8006" width="8" height="8" fill="black" transform="rotate(10.0 118.17011387084757 -203.80064127863392)"/><circle cx="135.4898" cy="-212.8167" r="4" fill="black"/><rect x="123.8294" y="-210.3888" width="8" height="8" fill="black" transform="rotate(25.0 127.82937213373826 -206.38883172965913)"/><circle cx="127.8294" cy="-206.3888" r="4" fill="black"/><circle cx="100.3809" cy="-183.0649" r="4" fill="black"/><rect x="96.3809" y="-187.0649" width="8" height="8" fill="black" transform="rotate(75.0 100.38087220020435 -183.06487691512345)"/><circle cx="115.8718" cy="-171.1782" r="4" fill="black"/><rect x="102.8087" y="-179.4044" width="8" height="8" fill="black" transform="rotate(90.0 106.80874829706974 -175.40443248393368)"/><rect x="102.8087" y="-179.4044" width="8" height="8" fill="black" transform="rotate(90.0 106.80874829706974 -175.40443248393368)"/><circle cx="143.4477" cy="-237.1959" r="4" fill="black"/><rect x="139.4477" y="-241.1959" width="8" height="8" fill="black" transform="rotate(35.0 143.44766406330797 -237.19589358886358)"/><circle cx="162.9550" cy="-238.0476" r="4" fill="black"/><rect x="149.2957" y="-239.4594" width="8" height="8" fill="black" transform="rotate(50.0 153.29574159343005 -235.45941181219428)"/><circle cx="153.2957" cy="-235.4594" r="4" fill="black"/><rect x="129.4857" y="-240.3243" width="8" height="8" fill="black" transform="rotate(-5.0 133.48571708239052 -236.324336161387)"/><circle cx="142.1460" cy="-241.3243" r="4" fill="black"/><rect x="138.1460" y="-245.3243" width="8" height="8" fill="black" transform="rotate(10.0 142.14597112023492 -241.324336161387)"/><circle cx="159.4657" cy="-250.3404" r="4" fill="black"/><rect x="147.8052" y="-247.9125" width="8" height="8" fill="black" transform="rotate(25.0 151.8052293831256 -243.91252661241222)"/><circle cx="168.0135" cy="-270.8989" r="4" fill="black"/><rect x="164.0135" y="-274.8989" width="8" height="8" fill="black" transform="rotate(-15.0 168.01351824861072 -270.89889749005675)"/><circle cx="179.9001" cy="-286.3899" r="4" fill="black"/><rect x="171.6740" y="-281.3268" width="8" height="8" fill="black" transform="rotate(0.0 175.6739626798005 -277.3267735869222)"/><circle cx="175.6740" cy="-277.3268" r="4" fill="black"/><circle cx="160.6543" cy="-244.5879" r="4" fill="black"/><rect x="156.6543" y="-248.5879" width="8" height="8" fill="black" transform="rotate(50.0 160.6543026882014 -244.5878543847177)"/><circle cx="179.7174" cy="-240.3617" r="4" fill="black"/><rect x="165.7174" y="-244.3617" width="8" height="8" fill="black" transform="rotate(65.0 169.7173805585679 -240.3616717673107)"/><rect x="165.7174" y="-244.3617" width="8" height="8" fill="black" transform="rotate(65.0 169.7173805585679 -240.3616717673107)"/><circle cx="169.7174" cy="-240.3617" r="4" fill="black"/><circle cx="114.8532" cy="-178.3973" r="4" fill="black"/><rect x="110.8532" y="-182.3973" width="8" height="8" fill="black" transform="rotate(100.0 114.85316262691583 -178.39727238583637)"/><circle cx="123.8692" cy="-161.0776" r="4" fill="black"/><rect x="113.4414" y="-172.7380" width="8" height="8" fill="black" transform="rotate(115.0 117.44135307794105 -168.73801412294569)"/><circle cx="117.4414" cy="-168.7380" r="4" fill="black"/><rect x="105.8532" y="-191.0575" width="8" height="8" fill="black" transform="rotate(60.0 109.85316262691583 -187.05752642368077)"/><circle cx="118.0447" cy="-181.3218" r="4" fill="black"/><rect x="114.0447" y="-185.3218" width="8" height="8" fill="black" transform="rotate(75.0 118.04468306980576 -181.3217620601703)"/><circle cx="133.5356" cy="-169.4351" r="4" fill="black"/><rect x="120.4726" y="-177.6613" width="8" height="8" fill="black" transform="rotate(90.0 124.47255916667115 -173.66131762898053)"/><circle cx="155.7804" cy="-170.3766" r="4" fill="black"/><rect x="151.7804" y="-174.3766" width="8" height="8" fill="black" transform="rotate(50.0 155.78043610306193 -170.3765523666519)"/><circle cx="174.8435" cy="-166.1504" r="4" fill="black"/><rect x="160.8435" y="-170.1504" width="8" height="8" fill="black" transform="rotate(65.0 164.84351397342843 -166.1503697492449)"/><circle cx="164.8435" cy="-166.1504" r="4" fill="black"/><circle cx="128.8244" cy="-165.9267" r="4" fill="black"/><rect x="124.8244" y="-169.9267" width="8" height="8" fill="black" transform="rotate(115.0 128.8243939637209 -165.92673943376914)"/><circle cx="133.0506" cy="-146.8637" r="4" fill="black"/><rect x="124.8244" y="-159.9267" width="8" height="8" fill="black" transform="rotate(130.0 128.8243939637209 -155.92673943376914)"/><rect x="124.8244" y="-159.9267" width="8" height="8" fill="black" transform="rotate(130.0 128.8243939637209 -155.92673943376914)"/><rect x="124.8244" y="-159.9267" width="8" height="8" fill="black" transform="rotate(130.0 128.8243939637209 -155.92673943376914)"/><rect x="124.8244" y="-159.9267" width="8" height="8" fill="black" transform="rotate(130.0 128.8243939637209 -155.92673943376914)"/></svg>