<svg viewBox="-27.7179970294264 -275.63107702953744 332.61596435311674 300.68844766858626" xmlns="http://www.w3.org/2000/svg"><path d="M 0.0000 0.0000 L 0.0000 -10.0000 M 0.0000 -10.0000 L 0.0000 -20.0000 M 0.0000 -20.0000 L 0.0000 -30.0000 M 0.0000 -30.0000 L 0.0000 -40.0000 M 0.0000 -40.0000 L 0.0000 -50.0000 M 0.0000 -50.0000 L 0.0000 -60.0000 M 0.0000 -60.0000 L 0.0000 -70.0000 M 0.0000 -70.0000 L 0.0000 -80.0000 M 0.0000 -80.0000 L 6.4279 -87.6604 M 6.4279 -87.6604 L 12.8558 -95.3209 M 12.8558 -95.3209 L 19.2836 -102.9813 M 19.2836 -102.9813 L 25.7115 -110.6418 M 25.7115 -110.6418 L 35.5596 -112.3783 M 35.5596 -112.3783 L 45.4077 -114.1147 M 45.4077 -114.1147 L 54.0679 -109.1147 M 54.0679 -109.1147 L 57.4881 -99.7178 M 57.4881 -99.7178 L 60.9083 -90.3209 M 45.4077 -114.1147 L 54.0679 -109.1147 M 54.0679 -109.1147 L 57.4881 -99.7178 M 57.4881 -99.7178 L 60.9083 -90.3209 M 45.4077 -114.1147 L 54.0679 -109.1147 M 54.0679 -109.1147 L 62.7282 -104.1147 M 62.7282 -104.1147 L 71.3884 -99.1147 M 71.3884 -99.1147 L 80.0487 -94.1147 M 80.0487 -94.1147 L 88.7089 -89.1147 M 88.7089 -89.1147 L 92.1291 -79.7178 M 92.1291 -79.7178 L 95.5493 -70.3209 M 62.7282 -104.1147 L 66.1484 -94.7178 M 66.1484 -94.7178 L 62.7282 -85.3209 M 62.7282 -85.3209 L 59.3080 -75.9240 M 25.7115 -110.6418 L 35.5596 -112.3783 M 35.5596 -112.3783 L 45.4077 -114.1147 M 45.4077 -114.1147 L 54.0679 -109.1147 M 54.0679 -109.1147 L 57.4881 -99.7178 M 57.4881 -99.7178 L 60.9083 -90.3209 M 45.4077 -114.1147 L 54.0679 -109.1147 M 54.0679 -109.1147 L 57.4881 -99.7178 M 57.4881 -99.7178 L 60.9083 -90.3209 M 45.4077 -114.1147 L 54.0679 -109.1147 M 54.0679 -109.1147 L 62.7282 -104.1147 M 62.7282 -104.1147 L 71.3884 -99.1147 M 71.3884 -99.1147 L 80.0487 -94.1147 M 80.0487 -94.1147 L 88.7089 -89.1147 M 88.7089 -89.1147 L 92.1291 -79.7178 M 92.1291 -79.7178 L 95.5493 -70.3209 M 62.7282 -104.1147 L 66.1484 -94.7178 M 66.1484 -94.7178 L 62.7282 -85.3209 M 62.7282 -85.3209 L 59.3080 -75.9240 M 25.7115 -110.6418 L 35.5596 -112.3783 M 35.5596 -112.3783 L 45.4077 -114.1147 M 45.4077 -114.1147 L 55.2557 -115.8512 M 55.2557 -115.8512 L 65.1038 -117.5877 M 65.1038 -117.5877 L 74.9519 -119.3242 M 74.9519 -119.3242 L 84.8000 -121.0607 M 84.8000 -121.0607 L 94.6480 -122.7972 M 94.6480 -122.7972 L 104.4961 -124.5336 M 104.4961 -124.5336 L 114.3442 -126.2701 M 114.3442 -126.2701 L 124.1923 -128.0066 M 124.1923 -128.0066 L 132.8525 -123.0066 M 132.8525 -123.0066 L 136.2727 -113.6097 M 136.2727 -113.6097 L 139.6929 -104.2127 M 124.1923 -128.0066 L 132.8525 -123.0066 M 132.8525 -123.0066 L 136.2727 -113.6097 M 136.2727 -113.6097 L 139.6929 -104.2127 M 124.1923 -128.0066 L 132.8525 -123.0066 M 132.8525 -123.0066 L 141.5128 -118.0066 M 141.5128 -118.0066 L 150.1730 -113.0066 M 150.1730 -113.0066 L 158.8333 -108.0066 M 158.8333 -108.0066 L 167.4935 -103.0066 M 167.4935 -103.0066 L 170.9138 -93.6097 M 170.9138 -93.6097 L 174.3340 -84.2127 M 141.5128 -118.0066 L 144.9330 -108.6097 M 144.9330 -108.6097 L 141.5128 -99.2127 M 141.5128 -99.2127 L 138.0926 -89.8158 M 65.1038 -117.5877 L 73.7641 -112.5877 M 73.7641 -112.5877 L 82.4243 -107.5877 M 82.4243 -107.5877 L 85.8445 -98.1908 M 85.8445 -98.1908 L 82.4243 -88.7939 M 82.4243 -88.7939 L 79.0041 -79.3969 M 82.4243 -107.5877 L 85.8445 -98.1908 M 85.8445 -98.1908 L 82.4243 -88.7939 M 82.4243 -88.7939 L 79.0041 -79.3969 M 82.4243 -107.5877 L 85.8445 -98.1908 M 85.8445 -98.1908 L 89.2647 -88.7939 M 89.2647 -88.7939 L 92.6849 -79.3969 M 92.6849 -79.3969 L 96.1051 -70.0000 M 96.1051 -70.0000 L 99.5253 -60.6031 M 99.5253 -60.6031 L 96.1051 -51.2061 M 96.1051 -51.2061 L 92.6849 -41.8092 M 89.2647 -88.7939 L 85.8445 -79.3969 M 85.8445 -79.3969 L 77.1843 -74.3969 M 77.1843 -74.3969 L 68.5240 -69.3969 M 0.0000 -80.0000 L 6.4279 -87.6604 M 6.4279 -87.6604 L 12.8558 -95.3209 M 12.8558 -95.3209 L 19.2836 -102.9813 M 19.2836 -102.9813 L 25.7115 -110.6418 M 25.7115 -110.6418 L 35.5596 -112.3783 M 35.5596 -112.3783 L 45.4077 -114.1147 M 45.4077 -114.1147 L 54.0679 -109.1147 M 54.0679 -109.1147 L 57.4881 -99.7178 M 57.4881 -99.7178 L 60.9083 -90.3209 M 45.4077 -114.1147 L 54.0679 -109.1147 M 54.0679 -109.1147 L 57.4881 -99.7178 M 57.4881 -99.7178 L 60.9083 -90.3209 M 45.4077 -114.1147 L 54.0679 -109.1147 M 54.0679 -109.1147 L 62.7282 -104.1147 M 62.7282 -104.1147 L 71.3884 -99.1147 M 71.3884 -99.1147 L 80.0487 -94.1147 M 80.0487 -94.1147 L 88.7089 -89.1147 M 88.7089 -89.1147 L 92.1291 -79.7178 M 92.1291 -79.7178 L 95.5493 -70.3209 M 62.7282 -104.1147 L 66.1484 -94.7178 M 66.1484 -94.7178 L 62.7282 -85.3209 M 62.7282 -85.3209 L 59.3080 -75.9240 M 25.7115 -110.6418 L 35.5596 -112.3783 M 35.5596 -112.3783 L 45.4077 -114.1147 M 45.4077 -114.1147 L 54.0679 -109.1147 M 54.0679 -109.1147 L 57.4881 -99.7178 M 57.4881 -99.7178 L 60.9083 -90.3209 M 45.4077 -114.1147 L 54.0679 -109.1147 M 54.0679 -109.1147 L 57.4881 -99.7178 M 57.4881 -99.7178 L 60.9083 -90.3209 M 45.4077 -114.1147 L 54.0679 -109.1147 M 54.0679 -109.1147 L 62.7282 -104.1147 M 62.7282 -104.1147 L 71.3884 -99.1147 M 71.3884 -99.1147 L 80.0487 -94.1147 M 80.0487 -94.1147 L 88.7089 -89.1147 M 88.7089 -89.1147 L 92.1291 -79.7178 M 92.1291 -79.7178 L 95.5493 -70.3209 M 62.7282 -104.1147 L 66.1484 -94.7178 M 66.1484 -94.7178 L 62.7282 -85.3209 M 62.7282 -85.3209 L 59.3080 -75.9240 M 25.7115 -110.6418 L 35.5596 -112.3783 M 35.5596 -112.3783 L 45.4077 -114.1147 M 45.4077 -114.1147 L 55.2557 -115.8512 M 55.2557 -115.8512 L 65.1038 -117.5877 M 65.1038 -117.5877 L 74.9519 -119.3242 M 74.9519 -119.3242 L 84.8000 -121.0607 M 84.8000 -121.0607 L 94.6480 -122.7972 M 94.6480 -122.7972 L 104.4961 -124.5336 M 104.4961 -124.5336 L 114.3442 -126.2701 M 114.3442 -126.2701 L 124.1923 -128.0066 M 124.1923 -128.0066 L 132.8525 -123.0066 M 132.8525 -123.0066 L 136.2727 -113.6097 M 136.2727 -113.6097 L 139.6929 -104.2127 M 124.1923 -128.0066 L 132.8525 -123.0066 M 132.8525 -123.0066 L 136.2727 -113.6097 M 136.2727 -113.6097 L 139.6929 -104.2127 M 124.1923 -128.0066 L 132.8525 -123.0066 M 132.8525 -123.0066 L 141.5128 -118.0066 M 141.5128 -118.0066 L 150.1730 -113.0066 M 150.1730 -113.0066 L 158.8333 -108.0066 M 158.8333 -108.0066 L 167.4935 -103.0066 M 167.4935 -103.0066 L 170.9138 -93.6097 M 170.9138 -93.6097 L 174.3340 -84.2127 M 141.5128 -118.0066 L 144.9330 -108.6097 M 144.9330 -108.6097 L 141.5128 -99.2127 M 141.5128 -99.2127 L 138.0926 -89.8158 M 65.1038 -117.5877 L 73.7641 -112.5877 M 73.7641 -112.5877 L 82.4243 -107.5877 M 82.4243 -107.5877 L 85.8445 -98.1908 M 85.8445 -98.1908 L 82.4243 -88.7939 M 82.4243 -88.7939 L 79.0041 -79.3969 M 82.4243 -107.5877 L 85.8445 -98.1908 M 85.8445 -98.1908 L 82.4243 -88.7939 M 82.4243 -88.7939 L 79.0041 -79.3969 M 82.4243 -107.5877 L 85.8445 -98.1908 M 85.8445 -98.1908 L 89.2647 -88.7939 M 89.2647 -88.7939 L 92.6849 -79.3969 M 92.6849 -79.3969 L 96.1051 -70.0000 M 96.1051 -70.0000 L 99.5253 -60.6031 M 99.5253 -60.6031 L 96.1051 -51.2061 M 96.1051 -51.2061 L 92.6849 -41.8092 M 89.2647 -88.7939 L 85.8445 -79.3969 M 85.8445 -79.3969 L 77.1843 -74.3969 M 77.1843 -74.3969 L 68.5240 -69.3969 M 0.0000 -80.0000 L 6.4279 -87.6604 M 6.4279 -87.6604 L 12.8558 -95.3209 M 12.8558 -95.3209 L 19.2836 -102.9813 M 19.2836 -102.9813 L 25.7115 -110.6418 M 25.7115 -110.6418 L 32.1394 -118.3022 M 32.1394 -118.3022 L 38.5673 -125.9627 M 38.5673 -125.9627 L 44.9951 -133.6231 M 44.9951 -133.6231 L 51.4230 -141.2836 M 51.4230 -141.2836 L 57.8509 -148.9440 M 57.8509 -148.9440 L 64.2788 -156.6044 M 64.2788 -156.6044 L 70.7066 -164.2649 M 70.7066 -164.2649 L 77.1345 -171.9253 M 77.1345 -171.9253 L 83.5624 -179.5858 M 83.5624 -179.5858 L 89.9903 -187.2462 M 89.9903 -187.2462 L 96.4181 -194.9067 M 96.4181 -194.9067 L 102.8460 -202.5671 M 102.8460 -202.5671 L 109.2739 -210.2276 M 109.2739 -210.2276 L 115.7018 -217.8880 M 115.7018 -217.8880 L 122.1296 -225.5484 M 122.1296 -225.5484 L 128.5575 -233.2089 M 128.5575 -233.2089 L 138.4056 -234.9454 M 138.4056 -234.9454 L 148.2537 -236.6819 M 148.2537 -236.6819 L 156.9139 -231.6819 M 156.9139 -231.6819 L 160.3341 -222.2849 M 160.3341 -222.2849 L 163.7543 -212.8880 M 148.2537 -236.6819 L 156.9139 -231.6819 M 156.9139 -231.6819 L 160.3341 -222.2849 M 160.3341 -222.2849 L 163.7543 -212.8880 M 148.2537 -236.6819 L 156.9139 -231.6819 M 156.9139 -231.6819 L 165.5742 -226.6819 M 165.5742 -226.6819 L 174.2344 -221.6819 M 174.2344 -221.6819 L 182.8947 -216.6819 M 182.8947 -216.6819 L 191.5549 -211.6819 M 191.5549 -211.6819 L 194.9751 -202.2849 M 194.9751 -202.2849 L 198.3954 -192.8880 M 165.5742 -226.6819 L 168.9944 -217.2849 M 168.9944 -217.2849 L 165.5742 -207.8880 M 165.5742 -207.8880 L 162.1540 -198.4911 M 128.5575 -233.2089 L 138.4056 -234.9454 M 138.4056 -234.9454 L 148.2537 -236.6819 M 148.2537 -236.6819 L 156.9139 -231.6819 M 156.9139 -231.6819 L 160.3341 -222.2849 M 160.3341 -222.2849 L 163.7543 -212.8880 M 148.2537 -236.6819 L 156.9139 -231.6819 M 156.9139 -231.6819 L 160.3341 -222.2849 M 160.3341 -222.2849 L 163.7543 -212.8880 M 148.2537 -236.6819 L 156.9139 -231.6819 M 156.9139 -231.6819 L 165.5742 -226.6819 M 165.5742 -226.6819 L 174.2344 -221.6819 M 174.2344 -221.6819 L 182.8947 -216.6819 M 182.8947 -216.6819 L 191.5549 -211.6819 M 191.5549 -211.6819 L 194.9751 -202.2849 M 194.9751 -202.2849 L 198.3954 -192.8880 M 165.5742 -226.6819 L 168.9944 -217.2849 M 168.9944 -217.2849 L 165.5742 -207.8880 M 165.5742 -207.8880 L 162.1540 -198.4911 M 128.5575 -233.2089 L 138.4056 -234.9454 M 138.4056 -234.9454 L 148.2537 -236.6819 M 148.2537 -236.6819 L 158.1018 -238.4183 M 158.1018 -238.4183 L 167.9498 -240.1548 M 167.9498 -240.1548 L 177.7979 -241.8913 M 177.7979 -241.8913 L 187.6460 -243.6278 M 187.6460 -243.6278 L 197.4941 -245.3643 M 197.4941 -245.3643 L 207.3421 -247.1007 M 207.3421 -247.1007 L 217.1902 -248.8372 M 217.1902 -248.8372 L 227.0383 -250.5737 M 227.0383 -250.5737 L 235.6986 -245.5737 M 235.6986 -245.5737 L 239.1188 -236.1768 M 239.1188 -236.1768 L 242.5390 -226.7799 M 227.0383 -250.5737 L 235.6986 -245.5737 M 235.6986 -245.5737 L 239.1188 -236.1768 M 239.1188 -236.1768 L 242.5390 -226.7799 M 227.0383 -250.5737 L 235.6986 -245.5737 M 235.6986 -245.5737 L 244.3588 -240.5737 M 244.3588 -240.5737 L 253.0191 -235.5737 M 253.0191 -235.5737 L 261.6793 -230.5737 M 261.6793 -230.5737 L 270.3396 -225.5737 M 270.3396 -225.5737 L 273.7598 -216.1768 M 273.7598 -216.1768 L 277.1800 -206.7799 M 244.3588 -240.5737 L 247.7790 -231.1768 M 247.7790 -231.1768 L 244.3588 -221.7799 M 244.3588 -221.7799 L 240.9386 -212.3829 M 167.9498 -240.1548 L 176.6101 -235.1548 M 176.6101 -235.1548 L 185.2703 -230.1548 M 185.2703 -230.1548 L 188.6905 -220.7579 M 188.6905 -220.7579 L 185.2703 -211.3610 M 185.2703 -211.3610 L 181.8501 -201.9640 M 185.2703 -230.1548 L 188.6905 -220.7579 M 188.6905 -220.7579 L 185.2703 -211.3610 M 185.2703 -211.3610 L 181.8501 -201.9640 M 185.2703 -230.1548 L 188.6905 -220.7579 M 188.6905 -220.7579 L 192.1107 -211.3610 M 192.1107 -211.3610 L 195.5309 -201.9640 M 195.5309 -201.9640 L 198.9511 -192.5671 M 198.9511 -192.5671 L 202.3713 -183.1702 M 202.3713 -183.1702 L 198.9511 -173.7733 M 198.9511 -173.7733 L 195.5309 -164.3763 M 192.1107 -211.3610 L 188.6905 -201.9640 M 188.6905 -201.9640 L 180.0303 -196.9640 M 180.0303 -196.9640 L 171.3700 -191.9640 M 51.4230 -141.2836 L 61.2711 -143.0200 M 61.2711 -143.0200 L 71.1192 -144.7565 M 71.1192 -144.7565 L 80.9672 -146.4930 M 80.9672 -146.4930 L 90.8153 -148.2295 M 90.8153 -148.2295 L 99.4756 -143.2295 M 99.4756 -143.2295 L 108.1358 -138.2295 M 108.1358 -138.2295 L 111.5560 -128.8326 M 111.5560 -128.8326 L 108.1358 -119.4356 M 108.1358 -119.4356 L 104.7156 -110.0387 M 108.1358 -138.2295 L 111.5560 -128.8326 M 111.5560 -128.8326 L 108.1358 -119.4356 M 108.1358 -119.4356 L 104.7156 -110.0387 M 108.1358 -138.2295 L 111.5560 -128.8326 M 111.5560 -128.8326 L 114.9762 -119.4356 M 114.9762 -119.4356 L 118.3964 -110.0387 M 118.3964 -110.0387 L 121.8166 -100.6418 M 121.8166 -100.6418 L 125.2368 -91.2449 M 125.2368 -91.2449 L 121.8166 -81.8479 M 121.8166 -81.8479 L 118.3964 -72.4510 M 114.9762 -119.4356 L 111.5560 -110.0387 M 111.5560 -110.0387 L 102.8958 -105.0387 M 102.8958 -105.0387 L 94.2355 -100.0387 M 90.8153 -148.2295 L 99.4756 -143.2295 M 99.4756 -143.2295 L 108.1358 -138.2295 M 108.1358 -138.2295 L 111.5560 -128.8326 M 111.5560 -128.8326 L 108.1358 -119.4356 M 108.1358 -119.4356 L 104.7156 -110.0387 M 108.1358 -138.2295 L 111.5560 -128.8326 M 111.5560 -128.8326 L 108.1358 -119.4356 M 108.1358 -119.4356 L 104.7156 -110.0387 M 108.1358 -138.2295 L 111.5560 -128.8326 M 111.5560 -128.8326 L 114.9762 -119.4356 M 114.9762 -119.4356 L 118.3964 -110.0387 M 118.3964 -110.0387 L 121.8166 -100.6418 M 121.8166 -100.6418 L 125.2368 -91.2449 M 125.2368 -91.2449 L 121.8166 -81.8479 M 121.8166 -81.8479 L 118.3964 -72.4510 M 114.9762 -119.4356 L 111.5560 -110.0387 M 111.5560 -110.0387 L 102.8958 -105.0387 M 102.8958 -105.0387 L 94.2355 -100.0387 M 90.8153 -148.2295 L 99.4756 -143.2295 M 99.4756 -143.2295 L 108.1358 -138.2295 M 108.1358 -138.2295 L 116.7961 -133.2295 M 116.7961 -133.2295 L 125.4563 -128.2295 M 125.4563 -128.2295 L 134.1166 -123.2295 M 134.1166 -123.2295 L 142.7768 -118.2295 M 142.7768 -118.2295 L 151.4371 -113.2295 M 151.4371 -113.2295 L 160.0974 -108.2295 M 160.0974 -108.2295 L 168.7576 -103.2295 M 168.7576 -103.2295 L 177.4179 -98.2295 M 177.4179 -98.2295 L 180.8381 -88.8326 M 180.8381 -88.8326 L 177.4179 -79.4356 M 177.4179 -79.4356 L 173.9977 -70.0387 M 177.4179 -98.2295 L 180.8381 -88.8326 M 180.8381 -88.8326 L 177.4179 -79.4356 M 177.4179 -79.4356 L 173.9977 -70.0387 M 177.4179 -98.2295 L 180.8381 -88.8326 M 180.8381 -88.8326 L 184.2583 -79.4356 M 184.2583 -79.4356 L 187.6785 -70.0387 M 187.6785 -70.0387 L 191.0987 -60.6418 M 191.0987 -60.6418 L 194.5189 -51.2449 M 194.5189 -51.2449 L 191.0987 -41.8479 M 191.0987 -41.8479 L 187.6785 -32.4510 M 184.2583 -79.4356 L 180.8381 -70.0387 M 180.8381 -70.0387 L 172.1778 -65.0387 M 172.1778 -65.0387 L 163.5176 -60.0387 M 125.4563 -128.2295 L 128.8765 -118.8326 M 128.8765 -118.8326 L 132.2967 -109.4356 M 132.2967 -109.4356 L 128.8765 -100.0387 M 128.8765 -100.0387 L 120.2163 -95.0387 M 120.2163 -95.0387 L 111.5560 -90.0387 M 132.2967 -109.4356 L 128.8765 -100.0387 M 128.8765 -100.0387 L 120.2163 -95.0387 M 120.2163 -95.0387 L 111.5560 -90.0387 M 132.2967 -109.4356 L 128.8765 -100.0387 M 128.8765 -100.0387 L 125.4563 -90.6418 M 125.4563 -90.6418 L 122.0361 -81.2449 M 122.0361 -81.2449 L 118.6159 -71.8479 M 118.6159 -71.8479 L 115.1957 -62.4510 M 115.1957 -62.4510 L 106.5355 -57.4510 M 106.5355 -57.4510 L 97.8752 -52.4510 M 125.4563 -90.6418 L 116.7961 -85.6418 M 116.7961 -85.6418 L 106.9480 -87.3783 M 106.9480 -87.3783 L 97.0999 -89.1147 " stroke-width="1" stroke="black" fill="none"/><circle cx="54.0679" cy="-109.1147" r="4" fill="black"/><circle cx="57.4881" cy="-99.7178" r="4" fill="black"/><circle cx="54.0679" cy="-109.1147" r="4" fill="black"/><circle cx="88.7089" cy="-89.1147" r="4" fill="black"/><circle cx="66.1484" cy="-94.7178" r="4" fill="black"/><circle cx="62.7282" cy="-85.3209" r="4" fill="black"/><circle cx="54.0679" cy="-109.1147" r="4" fill="black"/><circle cx="57.4881" cy="-99.7178" r="4" fill="black"/><circle cx="54.0679" cy="-109.1147" r="4" fill="black"/><circle cx="88.7089" cy="-89.1147" r="4" fill="black"/><circle cx="66.1484" cy="-94.7178" r="4" fill="black"/><circle cx="132.8525" cy="-123.0066" r="4" fill="black"/><circle cx="136.2727" cy="-113.6097" r="4" fill="black"/><circle cx="132.8525" cy="-123.0066" r="4" fill="black"/><circle cx="167.4935" cy="-103.0066" r="4" fill="black"/><circle cx="144.9330" cy="-108.6097" r="4" fill="black"/><circle cx="85.8445" cy="-98.1908" r="4" fill="black"/><circle cx="82.4243" cy="-88.7939" r="4" fill="black"/><circle cx="85.8445" cy="-98.1908" r="4" fill="black"/><circle cx="99.5253" cy="-60.6031" r="4" fill="black"/><circle cx="85.8445" cy="-79.3969" r="4" fill="black"/><circle cx="77.1843" cy="-74.3969" r="4" fill="black"/><circle cx="54.0679" cy="-109.1147" r="4" fill="black"/><circle cx="57.4881" cy="-99.7178" r="4" fill="black"/><circle cx="54.0679" cy="-109.1147" r="4" fill="black"/><circle cx="88.7089" cy="-89.1147" r="4" fill="black"/><circle cx="66.1484" cy="-94.7178" r="4" fill="black"/><circle cx="62.7282" cy="-85.3209" r="4" fill="black"/><circle cx="54.0679" cy="-109.1147" r="4" fill="black"/><circle cx="57.4881" cy="-99.7178" r="4" fill="black"/><circle cx="54.0679" cy="-109.1147" r="4" fill="black"/><circle cx="88.7089" cy="-89.1147" r="4" fill="black"/><circle cx="66.1484" cy="-94.7178" r="4" fill="black"/><circle cx="132.8525" cy="-123.0066" r="4" fill="black"/><circle cx="136.2727" cy="-113.6097" r="4" fill="black"/><circle cx="132.8525" cy="-123.0066" r="4" fill="black"/><circle cx="167.4935" cy="-103.0066" r="4" fill="black"/><circle cx="144.9330" cy="-108.6097" r="4" fill="black"/><circle cx="85.8445" cy="-98.1908" r="4" fill="black"/><circle cx="82.4243" cy="-88.7939" r="4" fill="black"/><circle cx="85.8445" cy="-98.1908" r="4" fill="black"/><circle cx="99.5253" cy="-60.6031" r="4" fill="black"/><circle cx="85.8445" cy="-79.3969" r="4" fill="black"/><circle cx="156.9139" cy="-231.6819" r="4" fill="black"/><circle cx="160.3341" cy="-222.2849" r="4" fill="black"/><circle cx="156.9139" cy="-231.6819" r="4" fill="black"/><circle cx="191.5549" cy="-211.6819" r="4" fill="black"/><circle cx="168.9944" cy="-217.2849" r="4" fill="black"/><circle cx="165.5742" cy="-207.8880" r="4" fill="black"/><circle cx="156.9139" cy="-231.6819" r="4" fill="black"/><circle cx="160.3341" cy="-222.2849" r="4" fill="black"/><circle cx="156.9139" cy="-231.6819" r="4" fill="black"/><circle cx="191.5549" cy="-211.6819" r="4" fill="black"/><circle cx="168.9944" cy="-217.2849" r="4" fill="black"/><circle cx="235.6986" cy="-245.5737" r="4" fill="black"/><circle cx="239.1188" cy="-236.1768" r="4" fill="black"/><circle cx="235.6986" cy="-245.5737" r="4" fill="black"/><circle cx="270.3396" cy="-225.5737" r="4" fill="black"/><circle cx="247.7790" cy="-231.1768" r="4" fill="black"/><circle cx="188.6905" cy="-220.7579" r="4" fill="black"/><circle cx="185.2703" cy="-211.3610" r="4" fill="black"/><circle cx="188.6905" cy="-220.7579" r="4" fill="black"/><circle cx="202.3713" cy="-183.1702" r="4" fill="black"/><circle cx="188.6905" cy="-201.9640" r="4" fill="black"/><circle cx="111.5560" cy="-128.8326" r="4" fill="black"/><circle cx="108.1358" cy="-119.4356" r="4" fill="black"/><circle cx="111.5560" cy="-128.8326" r="4" fill="black"/><circle cx="125.2368" cy="-91.2449" r="4" fill="black"/><circle cx="111.5560" cy="-110.0387" r="4" fill="black"/><circle cx="102.8958" cy="-105.0387" r="4" fill="black"/><circle cx="111.5560" cy="-128.8326" r="4" fill="black"/><circle cx="108.1358" cy="-119.4356" r="4" fill="black"/><circle cx="111.5560" cy="-128.8326" r="4" fill="black"/><circle cx="125.2368" cy="-91.2449" r="4" fill="black"/><circle cx="111.5560" cy="-110.0387" r="4" fill="black"/><circle cx="180.8381" cy="-88.8326" r="4" fill="black"/><circle cx="177.4179" cy="-79.4356" r="4" fill="black"/><circle cx="180.8381" cy="-88.8326" r="4" fill="black"/><circle cx="194.5189" cy="-51.2449" r="4" fill="black"/><circle cx="180.8381" cy="-70.0387" r="4" fill="black"/><circle cx="128.8765" cy="-100.0387" r="4" fill="black"/><circle cx="120.2163" cy="-95.0387" r="4" fill="black"/><circle cx="128.8765" cy="-100.0387" r="4" fill="black"/><circle cx="115.1957" cy="-62.4510" r="4" fill="black"/><circle cx="116.7961" cy="-85.6418" r="4" fill="black"/></svg>