<svg viewBox="-257.00611071801114 -216.3074630689675 280.37030260146673 235.9717778934191" xmlns="http://www.w3.org/2000/svg"><path d="M 0.0000 0.0000 L 0.0000 -10.0000 M 0.0000 -10.0000 L 0.0000 -20.0000 M 0.0000 -20.0000 L 0.0000 -30.0000 M 0.0000 -30.0000 L 0.0000 -40.0000 M 0.0000 -40.0000 L 0.0000 -50.0000 M 0.0000 -50.0000 L 0.0000 -60.0000 M 0.0000 -60.0000 L 0.0000 -70.0000 M 0.0000 -70.0000 L 0.0000 -80.0000 M 0.0000 -80.0000 L 0.0000 -90.0000 M 0.0000 -90.0000 L 0.0000 -100.0000 M 0.0000 -100.0000 L 0.0000 -110.0000 M 0.0000 -110.0000 L 0.0000 -120.0000 M 0.0000 -120.0000 L 0.0000 -130.0000 M 0.0000 -130.0000 L 0.0000 -140.0000 M 0.0000 -140.0000 L 0.0000 -150.0000 M 0.0000 -150.0000 L -6.4279 -157.6604 M -6.4279 -157.6604 L -16.2760 -159.3969 M 0.0000 -140.0000 L -6.4279 -147.6604 M -6.4279 -147.6604 L -16.2760 -149.3969 M -16.2760 -149.3969 L -24.9362 -144.3969 M 0.0000 -140.0000 L -6.4279 -147.6604 M -6.4279 -147.6604 L -12.8558 -155.3209 M -12.8558 -155.3209 L -22.7038 -157.0574 M -22.7038 -157.0574 L -32.5519 -158.7939 M -32.5519 -158.7939 L -42.4000 -160.5303 M -42.4000 -160.5303 L -51.0602 -155.5303 M -51.0602 -155.5303 L -54.4804 -146.1334 M -12.8558 -155.3209 L -19.2836 -162.9813 M -19.2836 -162.9813 L -29.1317 -164.7178 M -29.1317 -164.7178 L -37.7920 -159.7178 M 0.0000 -120.0000 L -6.4279 -127.6604 M -6.4279 -127.6604 L -12.8558 -135.3209 M -12.8558 -135.3209 L -19.2836 -142.9813 M -19.2836 -142.9813 L -29.1317 -144.7178 M -29.1317 -144.7178 L -37.7920 -139.7178 M -12.8558 -135.3209 L -22.7038 -137.0574 M -22.7038 -137.0574 L -31.3641 -132.0574 M -31.3641 -132.0574 L -34.7843 -122.6604 M -12.8558 -135.3209 L -22.7038 -137.0574 M -22.7038 -137.0574 L -32.5519 -138.7939 M -32.5519 -138.7939 L -41.2122 -133.7939 M -41.2122 -133.7939 L -49.8724 -128.7939 M -49.8724 -128.7939 L -58.5327 -123.7939 M -58.5327 -123.7939 L -61.9529 -114.3969 M -61.9529 -114.3969 L -58.5327 -105.0000 M -32.5519 -138.7939 L -42.4000 -140.5303 M -42.4000 -140.5303 L -51.0602 -135.5303 M -51.0602 -135.5303 L -54.4804 -126.1334 M 0.0000 -120.0000 L -6.4279 -127.6604 M -6.4279 -127.6604 L -12.8558 -135.3209 M -12.8558 -135.3209 L -19.2836 -142.9813 M -19.2836 -142.9813 L -25.7115 -150.6418 M -25.7115 -150.6418 L -35.5596 -152.3783 M -35.5596 -152.3783 L -45.4077 -154.1147 M -45.4077 -154.1147 L -55.2557 -155.8512 M -55.2557 -155.8512 L -65.1038 -157.5877 M -65.1038 -157.5877 L -74.9519 -159.3242 M -74.9519 -159.3242 L -84.8000 -161.0607 M -84.8000 -161.0607 L -94.6480 -162.7972 M -94.6480 -162.7972 L -103.3083 -157.7972 M -103.3083 -157.7972 L -106.7285 -148.4002 M -84.8000 -161.0607 L -93.4602 -156.0607 M -93.4602 -156.0607 L -96.8804 -146.6637 M -96.8804 -146.6637 L -93.4602 -137.2668 M -84.8000 -161.0607 L -93.4602 -156.0607 M -93.4602 -156.0607 L -102.1205 -151.0607 M -102.1205 -151.0607 L -105.5407 -141.6637 M -105.5407 -141.6637 L -108.9609 -132.2668 M -108.9609 -132.2668 L -112.3811 -122.8699 M -112.3811 -122.8699 L -108.9609 -113.4730 M -108.9609 -113.4730 L -100.3006 -108.4730 M -102.1205 -151.0607 L -110.7807 -146.0607 M -110.7807 -146.0607 L -114.2009 -136.6637 M -114.2009 -136.6637 L -110.7807 -127.2668 M -25.7115 -150.6418 L -32.1394 -158.3022 M -32.1394 -158.3022 L -38.5673 -165.9627 M -38.5673 -165.9627 L -44.9951 -173.6231 M -44.9951 -173.6231 L -54.8432 -175.3596 M -54.8432 -175.3596 L -63.5035 -170.3596 M -38.5673 -165.9627 L -48.4153 -167.6991 M -48.4153 -167.6991 L -57.0756 -162.6991 M -57.0756 -162.6991 L -60.4958 -153.3022 M -38.5673 -165.9627 L -48.4153 -167.6991 M -48.4153 -167.6991 L -58.2634 -169.4356 M -58.2634 -169.4356 L -66.9237 -164.4356 M -66.9237 -164.4356 L -75.5839 -159.4356 M -75.5839 -159.4356 L -84.2442 -154.4356 M -84.2442 -154.4356 L -87.6644 -145.0387 M -87.6644 -145.0387 L -84.2442 -135.6418 M -58.2634 -169.4356 L -68.1115 -171.1721 M -68.1115 -171.1721 L -76.7717 -166.1721 M -76.7717 -166.1721 L -80.1919 -156.7752 M 0.0000 -80.0000 L -6.4279 -87.6604 M -6.4279 -87.6604 L -12.8558 -95.3209 M -12.8558 -95.3209 L -19.2836 -102.9813 M -19.2836 -102.9813 L -25.7115 -110.6418 M -25.7115 -110.6418 L -32.1394 -118.3022 M -32.1394 -118.3022 L -38.5673 -125.9627 M -38.5673 -125.9627 L -44.9951 -133.6231 M -44.9951 -133.6231 L -54.8432 -135.3596 M -54.8432 -135.3596 L -63.5035 -130.3596 M -38.5673 -125.9627 L -48.4153 -127.6991 M -48.4153 -127.6991 L -57.0756 -122.6991 M -57.0756 -122.6991 L -60.4958 -113.3022 M -38.5673 -125.9627 L -48.4153 -127.6991 M -48.4153 -127.6991 L -58.2634 -129.4356 M -58.2634 -129.4356 L -66.9237 -124.4356 M -66.9237 -124.4356 L -75.5839 -119.4356 M -75.5839 -119.4356 L -84.2442 -114.4356 M -84.2442 -114.4356 L -87.6644 -105.0387 M -87.6644 -105.0387 L -84.2442 -95.6418 M -58.2634 -129.4356 L -68.1115 -131.1721 M -68.1115 -131.1721 L -76.7717 -126.1721 M -76.7717 -126.1721 L -80.1919 -116.7752 M -25.7115 -110.6418 L -35.5596 -112.3783 M -35.5596 -112.3783 L -45.4077 -114.1147 M -45.4077 -114.1147 L -55.2557 -115.8512 M -55.2557 -115.8512 L -63.9160 -110.8512 M -63.9160 -110.8512 L -67.3362 -101.4543 M -45.4077 -114.1147 L -54.0679 -109.1147 M -54.0679 -109.1147 L -57.4881 -99.7178 M -57.4881 -99.7178 L -54.0679 -90.3209 M -45.4077 -114.1147 L -54.0679 -109.1147 M -54.0679 -109.1147 L -62.7282 -104.1147 M -62.7282 -104.1147 L -66.1484 -94.7178 M -66.1484 -94.7178 L -69.5686 -85.3209 M -69.5686 -85.3209 L -72.9888 -75.9240 M -72.9888 -75.9240 L -69.5686 -66.5270 M -69.5686 -66.5270 L -60.9083 -61.5270 M -62.7282 -104.1147 L -71.3884 -99.1147 M -71.3884 -99.1147 L -74.8086 -89.7178 M -74.8086 -89.7178 L -71.3884 -80.3209 M -25.7115 -110.6418 L -35.5596 -112.3783 M -35.5596 -112.3783 L -45.4077 -114.1147 M -45.4077 -114.1147 L -55.2557 -115.8512 M -55.2557 -115.8512 L -65.1038 -117.5877 M -65.1038 -117.5877 L -73.7641 -112.5877 M -73.7641 -112.5877 L -82.4243 -107.5877 M -82.4243 -107.5877 L -91.0846 -102.5877 M -91.0846 -102.5877 L -99.7448 -97.5877 M -99.7448 -97.5877 L -108.4051 -92.5877 M -108.4051 -92.5877 L -117.0653 -87.5877 M -117.0653 -87.5877 L -125.7256 -82.5877 M -125.7256 -82.5877 L -129.1458 -73.1908 M -129.1458 -73.1908 L -125.7256 -63.7939 M -117.0653 -87.5877 L -120.4855 -78.1908 M -120.4855 -78.1908 L -117.0653 -68.7939 M -117.0653 -68.7939 L -108.4051 -63.7939 M -117.0653 -87.5877 L -120.4855 -78.1908 M -120.4855 -78.1908 L -123.9057 -68.7939 M -123.9057 -68.7939 L -120.4855 -59.3969 M -120.4855 -59.3969 L -117.0653 -50.0000 M -117.0653 -50.0000 L -113.6451 -40.6031 M -113.6451 -40.6031 L -104.9849 -35.6031 M -104.9849 -35.6031 L -95.1368 -37.3396 M -123.9057 -68.7939 L -127.3259 -59.3969 M -127.3259 -59.3969 L -123.9057 -50.0000 M -123.9057 -50.0000 L -115.2455 -45.0000 M -65.1038 -117.5877 L -74.9519 -119.3242 M -74.9519 -119.3242 L -84.8000 -121.0607 M -84.8000 -121.0607 L -94.6480 -122.7972 M -94.6480 -122.7972 L -103.3083 -117.7972 M -103.3083 -117.7972 L -106.7285 -108.4002 M -84.8000 -121.0607 L -93.4602 -116.0607 M -93.4602 -116.0607 L -96.8804 -106.6637 M -96.8804 -106.6637 L -93.4602 -97.2668 M -84.8000 -121.0607 L -93.4602 -116.0607 M -93.4602 -116.0607 L -102.1205 -111.0607 M -102.1205 -111.0607 L -105.5407 -101.6637 M -105.5407 -101.6637 L -108.9609 -92.2668 M -108.9609 -92.2668 L -112.3811 -82.8699 M -112.3811 -82.8699 L -108.9609 -73.4730 M -108.9609 -73.4730 L -100.3006 -68.4730 M -102.1205 -111.0607 L -110.7807 -106.0607 M -110.7807 -106.0607 L -114.2009 -96.6637 M -114.2009 -96.6637 L -110.7807 -87.2668 M 0.0000 -80.0000 L -6.4279 -87.6604 M -6.4279 -87.6604 L -12.8558 -95.3209 M -12.8558 -95.3209 L -19.2836 -102.9813 M -19.2836 -102.9813 L -25.7115 -110.6418 M -25.7115 -110.6418 L -32.1394 -118.3022 M -32.1394 -118.3022 L -38.5673 -125.9627 M -38.5673 -125.9627 L -44.9951 -133.6231 M -44.9951 -133.6231 L -51.4230 -141.2836 M -51.4230 -141.2836 L -61.2711 -143.0200 M -61.2711 -143.0200 L -71.1192 -144.7565 M -71.1192 -144.7565 L -80.9672 -146.4930 M -80.9672 -146.4930 L -90.8153 -148.2295 M -90.8153 -148.2295 L -100.6634 -149.9660 M -100.6634 -149.9660 L -110.5115 -151.7024 M -110.5115 -151.7024 L -120.3596 -153.4389 M -120.3596 -153.4389 L -130.2076 -155.1754 M -130.2076 -155.1754 L -140.0557 -156.9119 M -140.0557 -156.9119 L -149.9038 -158.6484 M -149.9038 -158.6484 L -159.7519 -160.3849 M -159.7519 -160.3849 L -169.5999 -162.1213 M -169.5999 -162.1213 L -179.4480 -163.8578 M -179.4480 -163.8578 L -189.2961 -165.5943 M -189.2961 -165.5943 L -199.1442 -167.3308 M -199.1442 -167.3308 L -207.8044 -162.3308 M -207.8044 -162.3308 L -211.2246 -152.9339 M -189.2961 -165.5943 L -197.9563 -160.5943 M -197.9563 -160.5943 L -201.3765 -151.1974 M -201.3765 -151.1974 L -197.9563 -141.8004 M -189.2961 -165.5943 L -197.9563 -160.5943 M -197.9563 -160.5943 L -206.6166 -155.5943 M -206.6166 -155.5943 L -210.0368 -146.1974 M -210.0368 -146.1974 L -213.4570 -136.8004 M -213.4570 -136.8004 L -216.8772 -127.4035 M -216.8772 -127.4035 L -213.4570 -118.0066 M -213.4570 -118.0066 L -204.7968 -113.0066 M -206.6166 -155.5943 L -215.2769 -150.5943 M -215.2769 -150.5943 L -218.6971 -141.1974 M -218.6971 -141.1974 L -215.2769 -131.8004 M -169.5999 -162.1213 L -178.2602 -157.1213 M -178.2602 -157.1213 L -186.9204 -152.1213 M -186.9204 -152.1213 L -195.5807 -147.1213 M -195.5807 -147.1213 L -199.0009 -137.7244 M -199.0009 -137.7244 L -195.5807 -128.3275 M -186.9204 -152.1213 L -190.3406 -142.7244 M -190.3406 -142.7244 L -186.9204 -133.3275 M -186.9204 -133.3275 L -178.2602 -128.3275 M -186.9204 -152.1213 L -190.3406 -142.7244 M -190.3406 -142.7244 L -193.7609 -133.3275 M -193.7609 -133.3275 L -190.3406 -123.9306 M -190.3406 -123.9306 L -186.9204 -114.5336 M -186.9204 -114.5336 L -183.5002 -105.1367 M -183.5002 -105.1367 L -174.8400 -100.1367 M -174.8400 -100.1367 L -164.9919 -101.8732 M -193.7609 -133.3275 L -197.1811 -123.9306 M -197.1811 -123.9306 L -193.7609 -114.5336 M -193.7609 -114.5336 L -185.1006 -109.5336 M -169.5999 -162.1213 L -178.2602 -157.1213 M -178.2602 -157.1213 L -186.9204 -152.1213 M -186.9204 -152.1213 L -195.5807 -147.1213 M -195.5807 -147.1213 L -204.2410 -142.1213 M -204.2410 -142.1213 L -207.6612 -132.7244 M -207.6612 -132.7244 L -211.0814 -123.3275 M -211.0814 -123.3275 L -214.5016 -113.9306 M -214.5016 -113.9306 L -217.9218 -104.5336 M -217.9218 -104.5336 L -221.3420 -95.1367 M -221.3420 -95.1367 L -224.7622 -85.7398 M -224.7622 -85.7398 L -228.1824 -76.3429 M -228.1824 -76.3429 L -224.7622 -66.9459 M -224.7622 -66.9459 L -216.1019 -61.9459 M -224.7622 -85.7398 L -221.3420 -76.3429 M -221.3420 -76.3429 L -212.6817 -71.3429 M -212.6817 -71.3429 L -202.8336 -73.0793 M -224.7622 -85.7398 L -221.3420 -76.3429 M -221.3420 -76.3429 L -217.9218 -66.9459 M -217.9218 -66.9459 L -209.2615 -61.9459 M -209.2615 -61.9459 L -200.6013 -56.9459 M -200.6013 -56.9459 L -191.9410 -51.9459 M -191.9410 -51.9459 L -182.0929 -53.6824 M -182.0929 -53.6824 L -175.6650 -61.3429 M -217.9218 -66.9459 L -214.5016 -57.5490 M -214.5016 -57.5490 L -205.8413 -52.5490 M -205.8413 -52.5490 L -195.9932 -54.2855 M -204.2410 -142.1213 L -212.9012 -137.1213 M -212.9012 -137.1213 L -221.5615 -132.1213 M -221.5615 -132.1213 L -230.2217 -127.1213 M -230.2217 -127.1213 L -233.6419 -117.7244 M -233.6419 -117.7244 L -230.2217 -108.3275 M -221.5615 -132.1213 L -224.9817 -122.7244 M -224.9817 -122.7244 L -221.5615 -113.3275 M -221.5615 -113.3275 L -212.9012 -108.3275 M -221.5615 -132.1213 L -224.9817 -122.7244 M -224.9817 -122.7244 L -228.4019 -113.3275 M -228.4019 -113.3275 L -224.9817 -103.9306 M -224.9817 -103.9306 L -221.5615 -94.5336 M -221.5615 -94.5336 L -218.1413 -85.1367 M -218.1413 -85.1367 L -209.4810 -80.1367 M -209.4810 -80.1367 L -199.6329 -81.8732 M -228.4019 -113.3275 L -231.8221 -103.9306 M -231.8221 -103.9306 L -228.4019 -94.5336 M -228.4019 -94.5336 L -219.7416 -89.5336 M -51.4230 -141.2836 L -57.8509 -148.9440 M -57.8509 -148.9440 L -64.2788 -156.6044 M -64.2788 -156.6044 L -70.7066 -164.2649 M -70.7066 -164.2649 L -77.1345 -171.9253 M -77.1345 -171.9253 L -83.5624 -179.5858 M -83.5624 -179.5858 L -89.9903 -187.2462 M -89.9903 -187.2462 L -96.4181 -194.9067 M -96.4181 -194.9067 L -106.2662 -196.6431 M -106.2662 -196.6431 L -114.9265 -191.6431 M -89.9903 -187.2462 L -99.8383 -188.9827 M -99.8383 -188.9827 L -108.4986 -183.9827 M -108.4986 -183.9827 L -111.9188 -174.5858 M -89.9903 -187.2462 L -99.8383 -188.9827 M -99.8383 -188.9827 L -109.6864 -190.7192 M -109.6864 -190.7192 L -118.3467 -185.7192 M -118.3467 -185.7192 L -127.0069 -180.7192 M -127.0069 -180.7192 L -135.6672 -175.7192 M -135.6672 -175.7192 L -139.0874 -166.3223 M -139.0874 -166.3223 L -135.6672 -156.9253 M -109.6864 -190.7192 L -119.5345 -192.4557 M -119.5345 -192.4557 L -128.1948 -187.4557 M -128.1948 -187.4557 L -131.6150 -178.0587 M -77.1345 -171.9253 L -86.9826 -173.6618 M -86.9826 -173.6618 L -96.8307 -175.3983 M -96.8307 -175.3983 L -106.6787 -177.1348 M -106.6787 -177.1348 L -115.3390 -172.1348 M -115.3390 -172.1348 L -118.7592 -162.7379 M -96.8307 -175.3983 L -105.4909 -170.3983 M -105.4909 -170.3983 L -108.9111 -161.0014 M -108.9111 -161.0014 L -105.4909 -151.6044 M -96.8307 -175.3983 L -105.4909 -170.3983 M -105.4909 -170.3983 L -114.1512 -165.3983 M -114.1512 -165.3983 L -117.5714 -156.0014 M -117.5714 -156.0014 L -120.9916 -146.6044 M -120.9916 -146.6044 L -124.4118 -137.2075 M -124.4118 -137.2075 L -120.9916 -127.8106 M -120.9916 -127.8106 L -112.3313 -122.8106 M -114.1512 -165.3983 L -122.8114 -160.3983 M -122.8114 -160.3983 L -126.2316 -151.0014 M -126.2316 -151.0014 L -122.8114 -141.6044 M -77.1345 -171.9253 L -86.9826 -173.6618 M -86.9826 -173.6618 L -96.8307 -175.3983 M -96.8307 -175.3983 L -106.6787 -177.1348 M -106.6787 -177.1348 L -116.5268 -178.8713 M -116.5268 -178.8713 L -125.1871 -173.8713 M -125.1871 -173.8713 L -133.8473 -168.8713 M -133.8473 -168.8713 L -142.5076 -163.8713 M -142.5076 -163.8713 L -151.1678 -158.8713 M -151.1678 -158.8713 L -159.8281 -153.8713 M -159.8281 -153.8713 L -168.4883 -148.8713 M -168.4883 -148.8713 L -177.1486 -143.8713 M -177.1486 -143.8713 L -180.5688 -134.4743 M -180.5688 -134.4743 L -177.1486 -125.0774 M -168.4883 -148.8713 L -171.9085 -139.4743 M -171.9085 -139.4743 L -168.4883 -130.0774 M -168.4883 -130.0774 L -159.8281 -125.0774 M -168.4883 -148.8713 L -171.9085 -139.4743 M -171.9085 -139.4743 L -175.3288 -130.0774 M -175.3288 -130.0774 L -171.9085 -120.6805 M -171.9085 -120.6805 L -168.4883 -111.2836 M -168.4883 -111.2836 L -165.0681 -101.8866 M -165.0681 -101.8866 L -156.4079 -96.8866 M -156.4079 -96.8866 L -146.5598 -98.6231 M -175.3288 -130.0774 L -178.7490 -120.6805 M -178.7490 -120.6805 L -175.3288 -111.2836 M -175.3288 -111.2836 L -166.6685 -106.2836 M -116.5268 -178.8713 L -126.3749 -180.6077 M -126.3749 -180.6077 L -136.2230 -182.3442 M -136.2230 -182.3442 L -146.0711 -184.0807 M -146.0711 -184.0807 L -154.7313 -179.0807 M -154.7313 -179.0807 L -158.1515 -169.6838 M -136.2230 -182.3442 L -144.8832 -177.3442 M -144.8832 -177.3442 L -148.3034 -167.9473 M -148.3034 -167.9473 L -144.8832 -158.5504 M -136.2230 -182.3442 L -144.8832 -177.3442 M -144.8832 -177.3442 L -153.5435 -172.3442 M -153.5435 -172.3442 L -156.9637 -162.9473 M -156.9637 -162.9473 L -160.3839 -153.5504 M -160.3839 -153.5504 L -163.8041 -144.1534 M -163.8041 -144.1534 L -160.3839 -134.7565 M -160.3839 -134.7565 L -151.7236 -129.7565 M -153.5435 -172.3442 L -162.2037 -167.3442 M -162.2037 -167.3442 L -165.6239 -157.9473 M -165.6239 -157.9473 L -162.2037 -148.5504 " stroke-width="1" stroke="black" fill="none"/><circle cx="0.0000" cy="-150.0000" r="4" fill="black"/><circle cx="-6.4279" cy="-157.6604" r="4" fill="black"/><circle cx="-6.4279" cy="-147.6604" r="4" fill="black"/><circle cx="-42.4000" cy="-160.5303" r="4" fill="black"/><circle cx="-19.2836" cy="-162.9813" r="4" fill="black"/><circle cx="-29.1317" cy="-164.7178" r="4" fill="black"/><circle cx="-19.2836" cy="-142.9813" r="4" fill="black"/><circle cx="-29.1317" cy="-144.7178" r="4" fill="black"/><circle cx="-22.7038" cy="-137.0574" r="4" fill="black"/><circle cx="-58.5327" cy="-123.7939" r="4" fill="black"/><circle cx="-42.4000" cy="-140.5303" r="4" fill="black"/><circle cx="-94.6480" cy="-162.7972" r="4" fill="black"/><circle cx="-103.3083" cy="-157.7972" r="4" fill="black"/><circle cx="-93.4602" cy="-156.0607" r="4" fill="black"/><circle cx="-112.3811" cy="-122.8699" r="4" fill="black"/><circle cx="-110.7807" cy="-146.0607" r="4" fill="black"/><circle cx="-44.9951" cy="-173.6231" r="4" fill="black"/><circle cx="-54.8432" cy="-175.3596" r="4" fill="black"/><circle cx="-48.4153" cy="-167.6991" r="4" fill="black"/><circle cx="-84.2442" cy="-154.4356" r="4" fill="black"/><circle cx="-68.1115" cy="-171.1721" r="4" fill="black"/><circle cx="-76.7717" cy="-166.1721" r="4" fill="black"/><circle cx="-44.9951" cy="-133.6231" r="4" fill="black"/><circle cx="-54.8432" cy="-135.3596" r="4" fill="black"/><circle cx="-48.4153" cy="-127.6991" r="4" fill="black"/><circle cx="-84.2442" cy="-114.4356" r="4" fill="black"/><circle cx="-68.1115" cy="-131.1721" r="4" fill="black"/><circle cx="-76.7717" cy="-126.1721" r="4" fill="black"/><circle cx="-55.2557" cy="-115.8512" r="4" fill="black"/><circle cx="-63.9160" cy="-110.8512" r="4" fill="black"/><circle cx="-54.0679" cy="-109.1147" r="4" fill="black"/><circle cx="-72.9888" cy="-75.9240" r="4" fill="black"/><circle cx="-71.3884" cy="-99.1147" r="4" fill="black"/><circle cx="-125.7256" cy="-82.5877" r="4" fill="black"/><circle cx="-129.1458" cy="-73.1908" r="4" fill="black"/><circle cx="-120.4855" cy="-78.1908" r="4" fill="black"/><circle cx="-113.6451" cy="-40.6031" r="4" fill="black"/><circle cx="-127.3259" cy="-59.3969" r="4" fill="black"/><circle cx="-94.6480" cy="-122.7972" r="4" fill="black"/><circle cx="-103.3083" cy="-117.7972" r="4" fill="black"/><circle cx="-93.4602" cy="-116.0607" r="4" fill="black"/><circle cx="-112.3811" cy="-82.8699" r="4" fill="black"/><circle cx="-110.7807" cy="-106.0607" r="4" fill="black"/><circle cx="-199.1442" cy="-167.3308" r="4" fill="black"/><circle cx="-207.8044" cy="-162.3308" r="4" fill="black"/><circle cx="-197.9563" cy="-160.5943" r="4" fill="black"/><circle cx="-216.8772" cy="-127.4035" r="4" fill="black"/><circle cx="-215.2769" cy="-150.5943" r="4" fill="black"/><circle cx="-218.6971" cy="-141.1974" r="4" fill="black"/><circle cx="-195.5807" cy="-147.1213" r="4" fill="black"/><circle cx="-199.0009" cy="-137.7244" r="4" fill="black"/><circle cx="-190.3406" cy="-142.7244" r="4" fill="black"/><circle cx="-183.5002" cy="-105.1367" r="4" fill="black"/><circle cx="-197.1811" cy="-123.9306" r="4" fill="black"/><circle cx="-228.1824" cy="-76.3429" r="4" fill="black"/><circle cx="-224.7622" cy="-66.9459" r="4" fill="black"/><circle cx="-221.3420" cy="-76.3429" r="4" fill="black"/><circle cx="-191.9410" cy="-51.9459" r="4" fill="black"/><circle cx="-214.5016" cy="-57.5490" r="4" fill="black"/><circle cx="-230.2217" cy="-127.1213" r="4" fill="black"/><circle cx="-233.6419" cy="-117.7244" r="4" fill="black"/><circle cx="-224.9817" cy="-122.7244" r="4" fill="black"/><circle cx="-218.1413" cy="-85.1367" r="4" fill="black"/><circle cx="-231.8221" cy="-103.9306" r="4" fill="black"/><circle cx="-96.4181" cy="-194.9067" r="4" fill="black"/><circle cx="-106.2662" cy="-196.6431" r="4" fill="black"/><circle cx="-99.8383" cy="-188.9827" r="4" fill="black"/><circle cx="-135.6672" cy="-175.7192" r="4" fill="black"/><circle cx="-119.5345" cy="-192.4557" r="4" fill="black"/><circle cx="-128.1948" cy="-187.4557" r="4" fill="black"/><circle cx="-106.6787" cy="-177.1348" r="4" fill="black"/><circle cx="-115.3390" cy="-172.1348" r="4" fill="black"/><circle cx="-105.4909" cy="-170.3983" r="4" fill="black"/><circle cx="-124.4118" cy="-137.2075" r="4" fill="black"/><circle cx="-122.8114" cy="-160.3983" r="4" fill="black"/><circle cx="-177.1486" cy="-143.8713" r="4" fill="black"/><circle cx="-180.5688" cy="-134.4743" r="4" fill="black"/><circle cx="-171.9085" cy="-139.4743" r="4" fill="black"/><circle cx="-165.0681" cy="-101.8866" r="4" fill="black"/><circle cx="-178.7490" cy="-120.6805" r="4" fill="black"/><circle cx="-146.0711" cy="-184.0807" r="4" fill="black"/><circle cx="-154.7313" cy="-179.0807" r="4" fill="black"/><circle cx="-144.8832" cy="-177.3442" r="4" fill="black"/><circle cx="-163.8041" cy="-144.1534" r="4" fill="black"/><circle cx="-162.2037" cy="-167.3442" r="4" fill="black"/></svg>