<svg viewBox="-204.26936666278502 -426.4583768546149 322.58134503684136 465.22732020503446" xmlns="http://www.w3.org/2000/svg"><path d="M 0.0 0.0 L 6.123233995736766E-16 -10.0 M 6.123233995736766E-16 -10.0 L 1.2246467991473533E-15 -20.0 M 1.2246467991473533E-15 -20.0 L 1.83697019872103E-15 -30.0 M 1.83697019872103E-15 -30.0 L 2.4492935982947065E-15 -40.0 M 2.4492935982947065E-15 -40.0 L 3.061616997868383E-15 -50.0 M 3.061616997868383E-15 -50.0 L 3.67394039744206E-15 -60.0 M 3.67394039744206E-15 -60.0 L 4.2862637970157365E-15 -70.0 M 4.2862637970157365E-15 -70.0 L 4.898587196589413E-15 -80.0 " fill="none" stroke="black" stroke-width="1" stroke-linecap="round"/>
<path d="M 4.898587196589413E-15 -80.0 L 4.226182617407 -89.0630778703665 M 4.226182617407 -89.0630778703665 L 8.452365234813994 -98.126155740733 M 8.452365234813994 -98.126155740733 L 12.678547852220989 -107.1892336110995 M 12.678547852220989 -107.1892336110995 L 16.904730469627985 -116.252311481466 M 16.904730469627985 -116.252311481466 L 24.565174900817766 -122.68018757833138 M 24.565174900817766 -122.68018757833138 L 32.22561933200755 -129.10806367519677 M 32.22561933200755 -129.10806367519677 L 41.88487759489823 -131.696254126222 M 25.357095704441974 -134.378467222199 L 33.017540135631755 -140.80634331906438 M 33.80946093925596 -212.504622962932 L 38.03564355666296 -221.5677008332985 M 49.130349801635525 -165.36037515666277 L 58.789608064526206 -167.94856560768798 M 7.34788079488412E-15 -120.0 L 4.226182617407002 -129.0630778703665 M 4.226182617407002 -129.0630778703665 L 8.452365234813996 -138.126155740733 M 8.452365234813996 -138.126155740733 L 16.112809666003777 -144.5540318375984 M 8.572527594031475E-15 -140.0 L 4.226182617407003 -149.0630778703665 M -25.357095704441956 -214.378467222199 L -25.357095704441956 -224.378467222199 M 8.452365234814 -178.126155740733 L 16.11280966600378 -184.5540318375984 M -50.714191408883906 -268.756934444398 L -50.714191408883906 -278.756934444398 M -50.714191408883906 -278.756934444398 L -50.714191408883906 -288.756934444398 M -50.714191408883906 -288.756934444398 L -46.488008791476915 -297.8200123147645 M -59.16655664369789 -286.883090185131 L -59.16655664369789 -296.883090185131 M -113.58158846565051 -343.5765025070565 L -117.8077710830575 -352.639580377423 M -67.61892187851187 -325.009245925864 L -63.39273926110488 -334.0723237962305 M 16.90473046962799 -196.252311481466 L 24.56517490081777 -202.68018757833138 M 24.56517490081777 -202.68018757833138 L 32.22561933200755 -209.10806367519677 M 32.22561933200755 -209.10806367519677 L 41.88487759489823 -211.696254126222 M 25.357095704441978 -214.378467222199 L 33.017540135631755 -220.80634331906438 M 33.80946093925597 -292.504622962932 L 38.03564355666296 -301.5677008332985 M 49.13034980163553 -245.36037515666277 L 58.78960806452621 -247.94856560768798 " fill="none" stroke="blue" stroke-width="1" stroke-linecap="round"/>
<path d="M 41.88487759489823 -131.696254126222 L 51.54413585778891 -134.2844445772472 M 39.88606376319733 -135.53593977206216 L 47.54650819438711 -141.96381586892755 M 32.22561933200755 -129.10806367519677 L 39.88606376319733 -135.53593977206216 M 39.88606376319733 -135.53593977206216 L 47.54650819438711 -141.96381586892755 M 60.22505604660809 -169.15304948002705 L 64.45123866401508 -178.21612735039355 M 57.20576645727779 -144.55200631995277 L 66.86502472016848 -147.14019677097798 M 33.017540135631755 -140.80634331906438 L 40.677984566821536 -147.23421941592977 M 29.58327832184897 -143.4415450925655 L 33.80946093925596 -152.504622962932 M 25.357095704441974 -134.378467222199 L 29.58327832184897 -143.4415450925655 M 29.58327832184897 -143.4415450925655 L 33.80946093925596 -152.504622962932 M 33.80946093925596 -182.504622962932 L 33.80946093925596 -192.504622962932 M 41.469905370445744 -158.93249905979738 L 49.130349801635525 -165.36037515666277 M 16.904730469627985 -116.252311481466 L 21.13091308703498 -125.3153893518325 M 21.13091308703498 -125.3153893518325 L 25.357095704441974 -134.378467222199 M 25.357095704441974 -134.378467222199 L 29.58327832184897 -143.4415450925655 M 29.58327832184897 -143.4415450925655 L 33.80946093925596 -152.504622962932 M 38.03564355666296 -221.5677008332985 L 42.26182617406995 -230.630778703665 M 33.80946093925596 -222.504622962932 L 33.80946093925596 -232.504622962932 M 33.80946093925596 -212.504622962932 L 33.80946093925596 -222.504622962932 M 33.80946093925596 -222.504622962932 L 33.80946093925596 -232.504622962932 M 21.13091308703498 -259.6938565740315 L 16.904730469627985 -268.756934444398 M 38.03564355666296 -241.5677008332985 L 42.26182617406995 -250.630778703665 M 58.789608064526206 -167.94856560768798 L 68.4488663274169 -170.5367560587132 M 56.790794232825306 -171.78825125352816 L 64.45123866401508 -178.21612735039355 M 49.130349801635525 -165.36037515666277 L 56.790794232825306 -171.78825125352816 M 56.790794232825306 -171.78825125352816 L 64.45123866401508 -178.21612735039355 M 77.12978651623605 -205.40536096149305 L 81.35596913364304 -214.46843883185954 M 74.11049692690577 -180.80431780141876 L 83.76975518979646 -183.39250825244397 M 16.112809666003777 -144.5540318375984 L 23.773254097193558 -150.98190793446378 M 12.67854785222099 -147.1892336110995 L 16.904730469627985 -156.252311481466 M 8.452365234813996 -138.126155740733 L 12.67854785222099 -147.1892336110995 M 12.67854785222099 -147.1892336110995 L 16.904730469627985 -156.252311481466 M 16.904730469627985 -186.252311481466 L 16.904730469627985 -196.252311481466 M 24.565174900817766 -162.68018757833138 L 32.22561933200755 -169.10806367519677 M 4.226182617407003 -149.0630778703665 L 8.452365234813998 -158.126155740733 M 9.184850993605152E-15 -150.0 L 9.797174393178829E-15 -160.0 M 8.572527594031475E-15 -140.0 L 9.184850993605152E-15 -150.0 M 9.184850993605152E-15 -150.0 L 9.797174393178829E-15 -160.0 M -12.678547852220973 -187.1892336110995 L -16.904730469627967 -196.252311481466 M 4.226182617407004 -169.0630778703665 L 8.452365234814 -178.126155740733 M 7.34788079488412E-15 -120.0 L 7.960204194457797E-15 -130.0 M 7.960204194457797E-15 -130.0 L 8.572527594031475E-15 -140.0 M 8.572527594031475E-15 -140.0 L 9.184850993605152E-15 -150.0 M 9.184850993605152E-15 -150.0 L 9.797174393178829E-15 -160.0 M -25.357095704441956 -224.378467222199 L -25.357095704441956 -234.378467222199 M -29.58327832184895 -223.4415450925655 L -33.80946093925594 -232.504622962932 M -25.357095704441956 -214.378467222199 L -29.58327832184895 -223.4415450925655 M -29.58327832184895 -223.4415450925655 L -33.80946093925594 -232.504622962932 M -56.790794232825284 -251.78825125352816 L -64.45123866401507 -258.21612735039355 M -33.80946093925594 -242.504622962932 L -33.80946093925594 -252.504622962932 M 16.11280966600378 -184.5540318375984 L 23.77325409719356 -190.98190793446378 M 12.678547852220994 -187.1892336110995 L 16.90473046962799 -196.252311481466 M 8.452365234814 -178.126155740733 L 12.678547852220994 -187.1892336110995 M 12.678547852220994 -187.1892336110995 L 16.90473046962799 -196.252311481466 M 16.90473046962799 -226.252311481466 L 16.90473046962799 -236.252311481466 M 24.56517490081777 -202.68018757833138 L 32.22561933200755 -209.10806367519677 M 4.898587196589413E-15 -80.0 L 5.5109105961630896E-15 -90.0 M 5.5109105961630896E-15 -90.0 L 6.123233995736766E-15 -100.0 M 6.123233995736766E-15 -100.0 L 6.735557395310443E-15 -110.0 M 6.735557395310443E-15 -110.0 L 7.34788079488412E-15 -120.0 M 7.34788079488412E-15 -120.0 L 7.960204194457797E-15 -130.0 M 7.960204194457797E-15 -130.0 L 8.572527594031475E-15 -140.0 M 8.572527594031475E-15 -140.0 L 9.184850993605152E-15 -150.0 M 9.184850993605152E-15 -150.0 L 9.797174393178829E-15 -160.0 M -46.488008791476915 -297.8200123147645 L -42.261826174069924 -306.883090185131 M -50.714191408883906 -298.756934444398 L -50.714191408883906 -308.756934444398 M -50.714191408883906 -288.756934444398 L -50.714191408883906 -298.756934444398 M -50.714191408883906 -298.756934444398 L -50.714191408883906 -308.756934444398 M -63.39273926110488 -335.9461680554975 L -67.61892187851187 -345.009245925864 M -46.488008791476915 -317.8200123147645 L -42.261826174069924 -326.883090185131 M -59.16655664369789 -296.883090185131 L -59.16655664369789 -306.883090185131 M -63.39273926110488 -295.9461680554975 L -67.61892187851187 -305.009245925864 M -59.16655664369789 -286.883090185131 L -63.39273926110488 -295.9461680554975 M -63.39273926110488 -295.9461680554975 L -67.61892187851187 -305.009245925864 M -90.60025517208119 -324.29287421646023 L -98.26069960327096 -330.72075031332565 M -67.61892187851187 -315.009245925864 L -67.61892187851187 -325.009245925864 M -50.714191408883906 -268.756934444398 L -54.9403740262909 -277.8200123147645 M -54.9403740262909 -277.8200123147645 L -59.16655664369789 -286.883090185131 M -59.16655664369789 -286.883090185131 L -63.39273926110488 -295.9461680554975 M -63.39273926110488 -295.9461680554975 L -67.61892187851187 -305.009245925864 M -117.8077710830575 -352.639580377423 L -122.0339537004645 -361.7026582477895 M -121.24203289684029 -350.0043786039219 L -128.90247732803007 -356.4322547007873 M -113.58158846565051 -343.5765025070565 L -121.24203289684029 -350.0043786039219 M -121.24203289684029 -350.0043786039219 L -128.90247732803007 -356.4322547007873 M -157.88025211670214 -364.1968260538629 L -167.53951037959283 -366.78501650488806 M -133.12865994543708 -365.4953325711538 L -137.35484256284408 -374.5584104415203 M -63.39273926110488 -334.0723237962305 L -59.16655664369789 -343.135401666597 M -67.61892187851187 -335.009245925864 L -67.61892187851187 -345.009245925864 M -67.61892187851187 -325.009245925864 L -67.61892187851187 -335.009245925864 M -67.61892187851187 -335.009245925864 L -67.61892187851187 -345.009245925864 M -80.29746973073284 -372.1984795369635 L -84.52365234813983 -381.26155740733 M -63.39273926110488 -354.0723237962305 L -59.16655664369789 -363.135401666597 M 41.88487759489823 -211.696254126222 L 51.54413585778891 -214.2844445772472 M 39.88606376319733 -215.53593977206216 L 47.54650819438711 -221.96381586892755 M 32.22561933200755 -209.10806367519677 L 39.88606376319733 -215.53593977206216 M 39.88606376319733 -215.53593977206216 L 47.54650819438711 -221.96381586892755 M 60.22505604660809 -249.15304948002705 L 64.45123866401508 -258.21612735039355 M 57.20576645727779 -224.55200631995277 L 66.86502472016848 -227.14019677097798 M 33.017540135631755 -220.80634331906438 L 40.677984566821536 -227.23421941592977 M 29.583278321848972 -223.4415450925655 L 33.80946093925597 -232.504622962932 M 25.357095704441978 -214.378467222199 L 29.583278321848972 -223.4415450925655 M 29.583278321848972 -223.4415450925655 L 33.80946093925597 -232.504622962932 M 33.80946093925597 -262.504622962932 L 33.80946093925597 -272.504622962932 M 41.46990537044575 -238.93249905979738 L 49.13034980163553 -245.36037515666277 M 16.90473046962799 -196.252311481466 L 21.130913087034983 -205.3153893518325 M 21.130913087034983 -205.3153893518325 L 25.357095704441978 -214.378467222199 M 25.357095704441978 -214.378467222199 L 29.583278321848972 -223.4415450925655 M 29.583278321848972 -223.4415450925655 L 33.80946093925597 -232.504622962932 M 38.03564355666296 -301.5677008332985 L 42.26182617406995 -310.630778703665 M 33.80946093925597 -302.504622962932 L 33.80946093925597 -312.504622962932 M 33.80946093925597 -292.504622962932 L 33.80946093925597 -302.504622962932 M 33.80946093925597 -302.504622962932 L 33.80946093925597 -312.504622962932 M 21.130913087034987 -339.6938565740315 L 16.904730469627992 -348.756934444398 M 38.03564355666296 -321.5677008332985 L 42.26182617406995 -330.630778703665 M 58.78960806452621 -247.94856560768798 L 68.4488663274169 -250.5367560587132 M 56.79079423282531 -251.78825125352816 L 64.4512386640151 -258.21612735039355 M 49.13034980163553 -245.36037515666277 L 56.79079423282531 -251.78825125352816 M 56.79079423282531 -251.78825125352816 L 64.4512386640151 -258.21612735039355 M 77.12978651623607 -285.40536096149305 L 81.35596913364306 -294.46843883185954 M 74.11049692690578 -260.80431780141873 L 83.76975518979647 -263.3925082524439 " fill="none" stroke="green" stroke-width="1" stroke-linecap="round"/>
<path d="M 51.54413585778891 -134.2844445772472 L 59.20458028897869 -140.7123206741126 M 47.54650819438711 -141.96381586892755 L 51.77269081179411 -151.02689373929405 M 47.54650819438711 -141.96381586892755 L 51.77269081179411 -151.02689373929405 M 51.77269081179411 -151.02689373929405 L 55.9988734292011 -160.08997160966055 M 55.9988734292011 -160.08997160966055 L 60.22505604660809 -169.15304948002705 M 64.45123866401508 -178.21612735039355 L 64.45123866401508 -188.21612735039355 M 66.86502472016848 -147.14019677097798 L 74.52546915135825 -153.56807286784337 M 40.677984566821536 -147.23421941592977 L 44.90416718422853 -156.29729728629627 M 33.80946093925596 -152.504622962932 L 33.80946093925596 -162.504622962932 M 33.80946093925596 -152.504622962932 L 33.80946093925596 -162.504622962932 M 33.80946093925596 -162.504622962932 L 33.80946093925596 -172.504622962932 M 33.80946093925596 -172.504622962932 L 33.80946093925596 -182.504622962932 M 33.80946093925596 -192.504622962932 L 29.58327832184897 -201.5677008332985 M 49.130349801635525 -165.36037515666277 L 53.35653241904252 -174.42345302702927 M 33.80946093925596 -152.504622962932 L 33.80946093925596 -162.504622962932 M 33.80946093925596 -162.504622962932 L 33.80946093925596 -172.504622962932 M 33.80946093925596 -172.504622962932 L 33.80946093925596 -182.504622962932 M 33.80946093925596 -182.504622962932 L 33.80946093925596 -192.504622962932 M 33.80946093925596 -192.504622962932 L 33.80946093925596 -202.504622962932 M 33.80946093925596 -202.504622962932 L 33.80946093925596 -212.504622962932 M 42.26182617406995 -230.630778703665 L 42.26182617406995 -240.630778703665 M 33.80946093925596 -232.504622962932 L 29.58327832184897 -241.5677008332985 M 33.80946093925596 -232.504622962932 L 29.58327832184897 -241.5677008332985 M 29.58327832184897 -241.5677008332985 L 25.357095704441974 -250.630778703665 M 25.357095704441974 -250.630778703665 L 21.13091308703498 -259.6938565740315 M 16.904730469627985 -268.756934444398 L 9.244286038438206 -275.1848105412634 M 42.26182617406995 -250.630778703665 L 42.26182617406995 -260.630778703665 M 68.4488663274169 -170.5367560587132 L 76.10931075860667 -176.96463215557858 M 64.45123866401508 -178.21612735039355 L 68.67742128142207 -187.27920522076005 M 64.45123866401508 -178.21612735039355 L 68.67742128142207 -187.27920522076005 M 68.67742128142207 -187.27920522076005 L 72.90360389882906 -196.34228309112655 M 72.90360389882906 -196.34228309112655 L 77.12978651623605 -205.40536096149305 M 81.35596913364304 -214.46843883185954 L 81.35596913364304 -224.46843883185954 M 83.76975518979646 -183.39250825244397 L 91.43019962098623 -189.82038434930936 M 23.773254097193558 -150.98190793446378 L 27.999436714600552 -160.04498580483028 M 16.904730469627985 -156.252311481466 L 16.904730469627985 -166.252311481466 M 16.904730469627985 -156.252311481466 L 16.904730469627985 -166.252311481466 M 16.904730469627985 -166.252311481466 L 16.904730469627985 -176.252311481466 M 16.904730469627985 -176.252311481466 L 16.904730469627985 -186.252311481466 M 16.904730469627985 -196.252311481466 L 12.67854785222099 -205.3153893518325 M 32.22561933200755 -169.10806367519677 L 36.451801949414545 -178.17114154556327 M 8.452365234813998 -158.126155740733 L 8.452365234813998 -168.126155740733 M 9.797174393178829E-15 -160.0 L -4.226182617406984 -169.0630778703665 M 9.797174393178829E-15 -160.0 L -4.226182617406984 -169.0630778703665 M -4.226182617406984 -169.0630778703665 L -8.452365234813978 -178.126155740733 M -8.452365234813978 -178.126155740733 L -12.678547852220973 -187.1892336110995 M -16.904730469627967 -196.252311481466 L -24.565174900817745 -202.68018757833138 M 8.452365234814 -178.126155740733 L 8.452365234814 -188.126155740733 M 9.797174393178829E-15 -160.0 L -4.226182617406984 -169.0630778703665 M -4.226182617406984 -169.0630778703665 L -8.452365234813978 -178.126155740733 M -8.452365234813978 -178.126155740733 L -12.678547852220973 -187.1892336110995 M -12.678547852220973 -187.1892336110995 L -16.904730469627967 -196.252311481466 M -16.904730469627967 -196.252311481466 L -21.130913087034962 -205.3153893518325 M -21.130913087034962 -205.3153893518325 L -25.357095704441956 -214.378467222199 M -25.357095704441956 -234.378467222199 L -29.58327832184895 -243.4415450925655 M -33.80946093925594 -232.504622962932 L -41.46990537044572 -238.93249905979738 M -33.80946093925594 -232.504622962932 L -41.46990537044572 -238.93249905979738 M -41.46990537044572 -238.93249905979738 L -49.130349801635504 -245.36037515666277 M -49.130349801635504 -245.36037515666277 L -56.790794232825284 -251.78825125352816 M -64.45123866401507 -258.21612735039355 L -74.11049692690574 -260.80431780141873 M -33.80946093925594 -252.504622962932 L -38.03564355666293 -261.5677008332985 M 23.77325409719356 -190.98190793446378 L 27.999436714600556 -200.04498580483028 M 16.90473046962799 -196.252311481466 L 16.90473046962799 -206.252311481466 M 16.90473046962799 -196.252311481466 L 16.90473046962799 -206.252311481466 M 16.90473046962799 -206.252311481466 L 16.90473046962799 -216.252311481466 M 16.90473046962799 -216.252311481466 L 16.90473046962799 -226.252311481466 M 16.90473046962799 -236.252311481466 L 12.678547852220994 -245.3153893518325 M 32.22561933200755 -209.10806367519677 L 36.451801949414545 -218.17114154556327 M 9.797174393178829E-15 -160.0 L -4.226182617406984 -169.0630778703665 M -4.226182617406984 -169.0630778703665 L -8.452365234813978 -178.126155740733 M -8.452365234813978 -178.126155740733 L -12.678547852220973 -187.1892336110995 M -12.678547852220973 -187.1892336110995 L -16.904730469627967 -196.252311481466 M -16.904730469627967 -196.252311481466 L -21.130913087034962 -205.3153893518325 M -21.130913087034962 -205.3153893518325 L -25.357095704441956 -214.378467222199 M -25.357095704441956 -214.378467222199 L -29.58327832184895 -223.4415450925655 M -29.58327832184895 -223.4415450925655 L -33.80946093925594 -232.504622962932 M -33.80946093925594 -232.504622962932 L -38.03564355666293 -241.5677008332985 M -38.03564355666293 -241.5677008332985 L -42.261826174069924 -250.630778703665 M -42.261826174069924 -250.630778703665 L -46.488008791476915 -259.6938565740315 M -46.488008791476915 -259.6938565740315 L -50.714191408883906 -268.756934444398 M -42.261826174069924 -306.883090185131 L -42.261826174069924 -316.883090185131 M -50.714191408883906 -308.756934444398 L -54.9403740262909 -317.8200123147645 M -50.714191408883906 -308.756934444398 L -54.9403740262909 -317.8200123147645 M -54.9403740262909 -317.8200123147645 L -59.16655664369789 -326.883090185131 M -59.16655664369789 -326.883090185131 L -63.39273926110488 -335.9461680554975 M -67.61892187851187 -345.009245925864 L -75.27936630970164 -351.4371220227294 M -42.261826174069924 -326.883090185131 L -42.261826174069924 -336.883090185131 M -59.16655664369789 -306.883090185131 L -63.39273926110488 -315.9461680554975 M -67.61892187851187 -305.009245925864 L -75.27936630970164 -311.4371220227294 M -67.61892187851187 -305.009245925864 L -75.27936630970164 -311.4371220227294 M -75.27936630970164 -311.4371220227294 L -82.93981074089142 -317.8649981195948 M -82.93981074089142 -317.8649981195948 L -90.60025517208119 -324.29287421646023 M -98.26069960327096 -330.72075031332565 L -107.91995786616164 -333.30894076435084 M -67.61892187851187 -325.009245925864 L -71.84510449591886 -334.0723237962305 M -67.61892187851187 -305.009245925864 L -75.27936630970164 -311.4371220227294 M -75.27936630970164 -311.4371220227294 L -82.93981074089142 -317.8649981195948 M -82.93981074089142 -317.8649981195948 L -90.60025517208119 -324.29287421646023 M -90.60025517208119 -324.29287421646023 L -98.26069960327096 -330.72075031332565 M -98.26069960327096 -330.72075031332565 L -105.92114403446074 -337.14862641019107 M -105.92114403446074 -337.14862641019107 L -113.58158846565051 -343.5765025070565 M -122.0339537004645 -361.7026582477895 L -129.69439813165428 -368.1305343446549 M -128.90247732803007 -356.4322547007873 L -138.56173559092076 -359.0204451518125 M -128.90247732803007 -356.4322547007873 L -138.56173559092076 -359.0204451518125 M -138.56173559092076 -359.0204451518125 L -148.22099385381145 -361.6086356028377 M -148.22099385381145 -361.6086356028377 L -157.88025211670214 -364.1968260538629 M -167.53951037959283 -366.78501650488806 L -177.3875879097149 -365.0485347282188 M -137.35484256284408 -374.5584104415203 L -145.01528699403386 -380.98628653838574 M -59.16655664369789 -343.135401666597 L -59.16655664369789 -353.135401666597 M -67.61892187851187 -345.009245925864 L -71.84510449591886 -354.0723237962305 M -67.61892187851187 -345.009245925864 L -71.84510449591886 -354.0723237962305 M -71.84510449591886 -354.0723237962305 L -76.07128711332585 -363.135401666597 M -76.07128711332585 -363.135401666597 L -80.29746973073284 -372.1984795369635 M -84.52365234813983 -381.26155740733 L -92.18409677932961 -387.6894335041954 M -59.16655664369789 -363.135401666597 L -59.16655664369789 -373.135401666597 M 51.54413585778891 -214.2844445772472 L 59.20458028897869 -220.7123206741126 M 47.54650819438711 -221.96381586892755 L 51.77269081179411 -231.02689373929405 M 47.54650819438711 -221.96381586892755 L 51.77269081179411 -231.02689373929405 M 51.77269081179411 -231.02689373929405 L 55.9988734292011 -240.08997160966055 M 55.9988734292011 -240.08997160966055 L 60.22505604660809 -249.15304948002705 M 64.45123866401508 -258.21612735039355 L 64.45123866401508 -268.21612735039355 M 66.86502472016848 -227.14019677097798 L 74.52546915135825 -233.56807286784337 M 40.677984566821536 -227.23421941592977 L 44.90416718422853 -236.29729728629627 M 33.80946093925597 -232.504622962932 L 33.80946093925597 -242.504622962932 M 33.80946093925597 -232.504622962932 L 33.80946093925597 -242.504622962932 M 33.80946093925597 -242.504622962932 L 33.80946093925597 -252.504622962932 M 33.80946093925597 -252.504622962932 L 33.80946093925597 -262.504622962932 M 33.80946093925597 -272.504622962932 L 29.583278321848976 -281.5677008332985 M 49.13034980163553 -245.36037515666277 L 53.35653241904252 -254.42345302702927 M 33.80946093925597 -232.504622962932 L 33.80946093925597 -242.504622962932 M 33.80946093925597 -242.504622962932 L 33.80946093925597 -252.504622962932 M 33.80946093925597 -252.504622962932 L 33.80946093925597 -262.504622962932 M 33.80946093925597 -262.504622962932 L 33.80946093925597 -272.504622962932 M 33.80946093925597 -272.504622962932 L 33.80946093925597 -282.504622962932 M 33.80946093925597 -282.504622962932 L 33.80946093925597 -292.504622962932 M 42.26182617406995 -310.630778703665 L 42.26182617406995 -320.630778703665 M 33.80946093925597 -312.504622962932 L 29.583278321848976 -321.5677008332985 M 33.80946093925597 -312.504622962932 L 29.583278321848976 -321.5677008332985 M 29.583278321848976 -321.5677008332985 L 25.35709570444198 -330.630778703665 M 25.35709570444198 -330.630778703665 L 21.130913087034987 -339.6938565740315 M 16.904730469627992 -348.756934444398 L 9.244286038438213 -355.1848105412634 M 42.26182617406995 -330.630778703665 L 42.26182617406995 -340.630778703665 M 68.4488663274169 -250.5367560587132 L 76.10931075860667 -256.9646321555786 M 64.4512386640151 -258.21612735039355 L 68.67742128142208 -267.27920522076005 M 64.4512386640151 -258.21612735039355 L 68.67742128142208 -267.27920522076005 M 68.67742128142208 -267.27920522076005 L 72.90360389882908 -276.34228309112655 M 72.90360389882908 -276.34228309112655 L 77.12978651623607 -285.40536096149305 M 81.35596913364306 -294.46843883185954 L 81.35596913364306 -304.46843883185954 M 83.76975518979647 -263.3925082524439 L 91.43019962098624 -269.82038434930934 " fill="none" stroke="yellow" stroke-width="1" stroke-linecap="round"/>
<path d="M 32.22561933200755 -129.10806367519677 L 39.88606376319733 -135.53593977206216 M 16.904730469627985 -116.252311481466 L 21.13091308703498 -125.3153893518325 M 21.13091308703498 -125.3153893518325 L 25.357095704441974 -134.378467222199 M 25.357095704441974 -134.378467222199 L 29.58327832184897 -143.4415450925655 M 33.80946093925596 -212.504622962932 L 33.80946093925596 -222.504622962932 M 49.130349801635525 -165.36037515666277 L 56.790794232825306 -171.78825125352816 M 4.898587196589413E-15 -80.0 L 5.5109105961630896E-15 -90.0 M 5.5109105961630896E-15 -90.0 L 6.123233995736766E-15 -100.0 M 6.123233995736766E-15 -100.0 L 6.735557395310443E-15 -110.0 M 6.735557395310443E-15 -110.0 L 7.34788079488412E-15 -120.0 M 8.452365234813996 -138.126155740733 L 12.67854785222099 -147.1892336110995 M 7.34788079488412E-15 -120.0 L 7.960204194457797E-15 -130.0 M 7.960204194457797E-15 -130.0 L 8.572527594031475E-15 -140.0 M 8.572527594031475E-15 -140.0 L 9.184850993605152E-15 -150.0 M -25.357095704441956 -214.378467222199 L -29.58327832184895 -223.4415450925655 M 8.452365234814 -178.126155740733 L 12.678547852220994 -187.1892336110995 M -50.714191408883906 -288.756934444398 L -50.714191408883906 -298.756934444398 M -50.714191408883906 -268.756934444398 L -54.9403740262909 -277.8200123147645 M -54.9403740262909 -277.8200123147645 L -59.16655664369789 -286.883090185131 M -59.16655664369789 -286.883090185131 L -63.39273926110488 -295.9461680554975 M -113.58158846565051 -343.5765025070565 L -121.24203289684029 -350.0043786039219 M -67.61892187851187 -325.009245925864 L -67.61892187851187 -335.009245925864 M 32.22561933200755 -209.10806367519677 L 39.88606376319733 -215.53593977206216 M 16.90473046962799 -196.252311481466 L 21.130913087034983 -205.3153893518325 M 21.130913087034983 -205.3153893518325 L 25.357095704441978 -214.378467222199 M 25.357095704441978 -214.378467222199 L 29.583278321848972 -223.4415450925655 M 33.80946093925597 -292.504622962932 L 33.80946093925597 -302.504622962932 M 49.13034980163553 -245.36037515666277 L 56.79079423282531 -251.78825125352816 " fill="none" stroke="red" stroke-width="1" stroke-linecap="round"/>
<path d="M 47.54650819438711 -141.96381586892755 L 57.20576645727779 -144.55200631995277 M 33.80946093925596 -152.504622962932 L 41.469905370445744 -158.93249905979738 M 33.80946093925596 -232.504622962932 L 38.03564355666296 -241.5677008332985 M 33.80946093925596 -152.504622962932 L 41.469905370445744 -158.93249905979738 M 41.469905370445744 -158.93249905979738 L 49.130349801635525 -165.36037515666277 M 64.45123866401508 -178.21612735039355 L 74.11049692690577 -180.80431780141876 M 16.904730469627985 -156.252311481466 L 24.565174900817766 -162.68018757833138 M 9.797174393178829E-15 -160.0 L 4.226182617407004 -169.0630778703665 M -33.80946093925594 -232.504622962932 L -33.80946093925594 -242.504622962932 M 9.797174393178829E-15 -160.0 L 4.226182617407004 -169.0630778703665 M 4.226182617407004 -169.0630778703665 L 8.452365234814 -178.126155740733 M 16.90473046962799 -196.252311481466 L 24.56517490081777 -202.68018757833138 M -50.714191408883906 -308.756934444398 L -46.488008791476915 -317.8200123147645 M -67.61892187851187 -305.009245925864 L -67.61892187851187 -315.009245925864 M -128.90247732803007 -356.4322547007873 L -133.12865994543708 -365.4953325711538 M -67.61892187851187 -305.009245925864 L -67.61892187851187 -315.009245925864 M -67.61892187851187 -315.009245925864 L -67.61892187851187 -325.009245925864 M -67.61892187851187 -345.009245925864 L -63.39273926110488 -354.0723237962305 M 9.797174393178829E-15 -160.0 L 4.226182617407004 -169.0630778703665 M 4.226182617407004 -169.0630778703665 L 8.452365234814 -178.126155740733 M 8.452365234814 -178.126155740733 L 12.678547852220994 -187.1892336110995 M 12.678547852220994 -187.1892336110995 L 16.90473046962799 -196.252311481466 M 47.54650819438711 -221.96381586892755 L 57.20576645727779 -224.55200631995277 M 33.80946093925597 -232.504622962932 L 41.46990537044575 -238.93249905979738 M 33.80946093925597 -312.504622962932 L 38.03564355666296 -321.5677008332985 M 33.80946093925597 -232.504622962932 L 41.46990537044575 -238.93249905979738 M 41.46990537044575 -238.93249905979738 L 49.13034980163553 -245.36037515666277 M 64.4512386640151 -258.21612735039355 L 74.11049692690578 -260.80431780141873 " fill="none" stroke="purple" stroke-width="1" stroke-linecap="round"/>
<circle cx="0.0000" cy="-80.0000" r="4" fill="black"/><rect x="-4.0000" y="-84.0000" width="8" height="8" fill="blue" transform="rotate(-65.0 4.898587196589413E-15 -80.0)"/><rect x="-4.0000" y="-84.0000" width="8" height="8" fill="blue" transform="rotate(-65.0 4.898587196589413E-15 -80.0)"/><circle cx="16.9047" cy="-116.2523" r="4" fill="blue"/><rect x="12.9047" y="-120.2523" width="8" height="8" fill="blue" transform="rotate(-40.0 16.904730469627985 -116.252311481466)"/><rect x="12.9047" y="-120.2523" width="8" height="8" fill="blue" transform="rotate(-40.0 16.904730469627985 -116.252311481466)"/><circle cx="32.2256" cy="-129.1081" r="4" fill="blue"/><rect x="28.2256" y="-133.1081" width="8" height="8" fill="blue" transform="rotate(-15.0 32.22561933200755 -129.10806367519677)"/><rect x="28.2256" y="-133.1081" width="8" height="8" fill="blue" transform="rotate(-15.0 32.22561933200755 -129.10806367519677)"/><circle cx="41.8849" cy="-131.6963" r="4" fill="blue"/><rect x="37.8849" y="-135.6963" width="8" height="8" fill="blue" transform="rotate(10.0 41.88487759489823 -131.696254126222)"/><rect x="37.8849" y="-135.6963" width="8" height="8" fill="blue" transform="rotate(10.0 41.88487759489823 -131.696254126222)"/><circle cx="59.2046" cy="-140.7123" r="4" fill="yellow"/><circle cx="39.8861" cy="-135.5359" r="4" fill="red"/><rect x="35.8861" y="-139.5359" width="8" height="8" fill="blue" transform="rotate(-15.0 39.88606376319733 -135.53593977206216)"/><rect x="35.8861" y="-139.5359" width="8" height="8" fill="blue" transform="rotate(-15.0 39.88606376319733 -135.53593977206216)"/><circle cx="51.7727" cy="-151.0269" r="4" fill="yellow"/><circle cx="60.2251" cy="-169.1530" r="4" fill="yellow"/><rect x="56.2251" y="-173.1530" width="8" height="8" fill="blue" transform="rotate(-40.0 60.22505604660809 -169.15304948002705)"/><rect x="56.2251" y="-173.1530" width="8" height="8" fill="blue" transform="rotate(-40.0 60.22505604660809 -169.15304948002705)"/><circle cx="64.4512" cy="-188.2161" r="4" fill="yellow"/><circle cx="64.4512" cy="-178.2161" r="4" fill="purple"/><circle cx="57.2058" cy="-144.5520" r="4" fill="purple"/><rect x="53.2058" y="-148.5520" width="8" height="8" fill="blue" transform="rotate(10.0 57.20576645727779 -144.55200631995277)"/><rect x="53.2058" y="-148.5520" width="8" height="8" fill="blue" transform="rotate(10.0 57.20576645727779 -144.55200631995277)"/><circle cx="74.5255" cy="-153.5681" r="4" fill="yellow"/><circle cx="25.3571" cy="-134.3785" r="4" fill="red"/><rect x="21.3571" y="-138.3785" width="8" height="8" fill="blue" transform="rotate(-40.0 25.357095704441974 -134.378467222199)"/><rect x="21.3571" y="-138.3785" width="8" height="8" fill="blue" transform="rotate(-40.0 25.357095704441974 -134.378467222199)"/><circle cx="33.0175" cy="-140.8063" r="4" fill="blue"/><rect x="29.0175" y="-144.8063" width="8" height="8" fill="blue" transform="rotate(-15.0 33.017540135631755 -140.80634331906438)"/><rect x="29.0175" y="-144.8063" width="8" height="8" fill="blue" transform="rotate(-15.0 33.017540135631755 -140.80634331906438)"/><circle cx="44.9042" cy="-156.2973" r="4" fill="yellow"/><circle cx="29.5833" cy="-143.4415" r="4" fill="red"/><rect x="25.5833" y="-147.4415" width="8" height="8" fill="blue" transform="rotate(-40.0 29.58327832184897 -143.4415450925655)"/><rect x="25.5833" y="-147.4415" width="8" height="8" fill="blue" transform="rotate(-40.0 29.58327832184897 -143.4415450925655)"/><circle cx="33.8095" cy="-162.5046" r="4" fill="yellow"/><circle cx="33.8095" cy="-182.5046" r="4" fill="yellow"/><rect x="29.8095" y="-186.5046" width="8" height="8" fill="blue" transform="rotate(-65.0 33.80946093925596 -182.504622962932)"/><rect x="29.8095" y="-186.5046" width="8" height="8" fill="blue" transform="rotate(-65.0 33.80946093925596 -182.504622962932)"/><circle cx="29.5833" cy="-201.5677" r="4" fill="yellow"/><circle cx="33.8095" cy="-192.5046" r="4" fill="purple"/><circle cx="41.4699" cy="-158.9325" r="4" fill="purple"/><rect x="37.4699" y="-162.9325" width="8" height="8" fill="blue" transform="rotate(-15.0 41.469905370445744 -158.93249905979738)"/><rect x="37.4699" y="-162.9325" width="8" height="8" fill="blue" transform="rotate(-15.0 41.469905370445744 -158.93249905979738)"/><circle cx="53.3565" cy="-174.4235" r="4" fill="yellow"/><circle cx="33.8095" cy="-212.5046" r="4" fill="yellow"/><rect x="29.8095" y="-216.5046" width="8" height="8" fill="blue" transform="rotate(-65.0 33.80946093925596 -212.504622962932)"/><rect x="29.8095" y="-216.5046" width="8" height="8" fill="blue" transform="rotate(-65.0 33.80946093925596 -212.504622962932)"/><circle cx="38.0356" cy="-221.5677" r="4" fill="blue"/><rect x="34.0356" y="-225.5677" width="8" height="8" fill="blue" transform="rotate(-40.0 38.03564355666296 -221.5677008332985)"/><rect x="34.0356" y="-225.5677" width="8" height="8" fill="blue" transform="rotate(-40.0 38.03564355666296 -221.5677008332985)"/><circle cx="42.2618" cy="-240.6308" r="4" fill="yellow"/><circle cx="33.8095" cy="-222.5046" r="4" fill="red"/><rect x="29.8095" y="-226.5046" width="8" height="8" fill="blue" transform="rotate(-65.0 33.80946093925596 -222.504622962932)"/><rect x="29.8095" y="-226.5046" width="8" height="8" fill="blue" transform="rotate(-65.0 33.80946093925596 -222.504622962932)"/><circle cx="29.5833" cy="-241.5677" r="4" fill="yellow"/><circle cx="21.1309" cy="-259.6939" r="4" fill="yellow"/><rect x="17.1309" y="-263.6939" width="8" height="8" fill="blue" transform="rotate(-90.0 21.13091308703498 -259.6938565740315)"/><rect x="17.1309" y="-263.6939" width="8" height="8" fill="blue" transform="rotate(-90.0 21.13091308703498 -259.6938565740315)"/><circle cx="9.2443" cy="-275.1848" r="4" fill="yellow"/><circle cx="16.9047" cy="-268.7569" r="4" fill="purple"/><circle cx="38.0356" cy="-241.5677" r="4" fill="purple"/><rect x="34.0356" y="-245.5677" width="8" height="8" fill="blue" transform="rotate(-40.0 38.03564355666296 -241.5677008332985)"/><rect x="34.0356" y="-245.5677" width="8" height="8" fill="blue" transform="rotate(-40.0 38.03564355666296 -241.5677008332985)"/><circle cx="42.2618" cy="-260.6308" r="4" fill="yellow"/><circle cx="42.2618" cy="-250.6308" r="4" fill="purple"/><circle cx="49.1303" cy="-165.3604" r="4" fill="purple"/><rect x="45.1303" y="-169.3604" width="8" height="8" fill="blue" transform="rotate(-15.0 49.130349801635525 -165.36037515666277)"/><rect x="45.1303" y="-169.3604" width="8" height="8" fill="blue" transform="rotate(-15.0 49.130349801635525 -165.36037515666277)"/><circle cx="58.7896" cy="-167.9486" r="4" fill="blue"/><rect x="54.7896" y="-171.9486" width="8" height="8" fill="blue" transform="rotate(10.0 58.789608064526206 -167.94856560768798)"/><rect x="54.7896" y="-171.9486" width="8" height="8" fill="blue" transform="rotate(10.0 58.789608064526206 -167.94856560768798)"/><circle cx="76.1093" cy="-176.9646" r="4" fill="yellow"/><circle cx="56.7908" cy="-171.7883" r="4" fill="red"/><rect x="52.7908" y="-175.7883" width="8" height="8" fill="blue" transform="rotate(-15.0 56.790794232825306 -171.78825125352816)"/><rect x="52.7908" y="-175.7883" width="8" height="8" fill="blue" transform="rotate(-15.0 56.790794232825306 -171.78825125352816)"/><circle cx="68.6774" cy="-187.2792" r="4" fill="yellow"/><circle cx="77.1298" cy="-205.4054" r="4" fill="yellow"/><rect x="73.1298" y="-209.4054" width="8" height="8" fill="blue" transform="rotate(-40.0 77.12978651623605 -205.40536096149305)"/><rect x="73.1298" y="-209.4054" width="8" height="8" fill="blue" transform="rotate(-40.0 77.12978651623605 -205.40536096149305)"/><circle cx="81.3560" cy="-224.4684" r="4" fill="yellow"/><circle cx="81.3560" cy="-214.4684" r="4" fill="purple"/><circle cx="74.1105" cy="-180.8043" r="4" fill="purple"/><rect x="70.1105" y="-184.8043" width="8" height="8" fill="blue" transform="rotate(10.0 74.11049692690577 -180.80431780141876)"/><rect x="70.1105" y="-184.8043" width="8" height="8" fill="blue" transform="rotate(10.0 74.11049692690577 -180.80431780141876)"/><circle cx="91.4302" cy="-189.8204" r="4" fill="yellow"/><circle cx="0.0000" cy="-120.0000" r="4" fill="red"/><rect x="-4.0000" y="-124.0000" width="8" height="8" fill="blue" transform="rotate(-65.0 7.34788079488412E-15 -120.0)"/><rect x="-4.0000" y="-124.0000" width="8" height="8" fill="blue" transform="rotate(-65.0 7.34788079488412E-15 -120.0)"/><circle cx="8.4524" cy="-138.1262" r="4" fill="blue"/><rect x="4.4524" y="-142.1262" width="8" height="8" fill="blue" transform="rotate(-40.0 8.452365234813996 -138.126155740733)"/><rect x="4.4524" y="-142.1262" width="8" height="8" fill="blue" transform="rotate(-40.0 8.452365234813996 -138.126155740733)"/><circle cx="16.1128" cy="-144.5540" r="4" fill="blue"/><rect x="12.1128" y="-148.5540" width="8" height="8" fill="blue" transform="rotate(-15.0 16.112809666003777 -144.5540318375984)"/><rect x="12.1128" y="-148.5540" width="8" height="8" fill="blue" transform="rotate(-15.0 16.112809666003777 -144.5540318375984)"/><circle cx="27.9994" cy="-160.0450" r="4" fill="yellow"/><circle cx="12.6785" cy="-147.1892" r="4" fill="red"/><rect x="8.6785" y="-151.1892" width="8" height="8" fill="blue" transform="rotate(-40.0 12.67854785222099 -147.1892336110995)"/><rect x="8.6785" y="-151.1892" width="8" height="8" fill="blue" transform="rotate(-40.0 12.67854785222099 -147.1892336110995)"/><circle cx="16.9047" cy="-166.2523" r="4" fill="yellow"/><circle cx="16.9047" cy="-186.2523" r="4" fill="yellow"/><rect x="12.9047" y="-190.2523" width="8" height="8" fill="blue" transform="rotate(-65.0 16.904730469627985 -186.252311481466)"/><rect x="12.9047" y="-190.2523" width="8" height="8" fill="blue" transform="rotate(-65.0 16.904730469627985 -186.252311481466)"/><circle cx="12.6785" cy="-205.3154" r="4" fill="yellow"/><circle cx="16.9047" cy="-196.2523" r="4" fill="purple"/><circle cx="24.5652" cy="-162.6802" r="4" fill="purple"/><rect x="20.5652" y="-166.6802" width="8" height="8" fill="blue" transform="rotate(-15.0 24.565174900817766 -162.68018757833138)"/><rect x="20.5652" y="-166.6802" width="8" height="8" fill="blue" transform="rotate(-15.0 24.565174900817766 -162.68018757833138)"/><circle cx="36.4518" cy="-178.1711" r="4" fill="yellow"/><circle cx="0.0000" cy="-140.0000" r="4" fill="red"/><rect x="-4.0000" y="-144.0000" width="8" height="8" fill="blue" transform="rotate(-65.0 8.572527594031475E-15 -140.0)"/><rect x="-4.0000" y="-144.0000" width="8" height="8" fill="blue" transform="rotate(-65.0 8.572527594031475E-15 -140.0)"/><circle cx="4.2262" cy="-149.0631" r="4" fill="blue"/><rect x="0.2262" y="-153.0631" width="8" height="8" fill="blue" transform="rotate(-40.0 4.226182617407003 -149.0630778703665)"/><rect x="0.2262" y="-153.0631" width="8" height="8" fill="blue" transform="rotate(-40.0 4.226182617407003 -149.0630778703665)"/><circle cx="8.4524" cy="-168.1262" r="4" fill="yellow"/><circle cx="0.0000" cy="-150.0000" r="4" fill="red"/><rect x="-4.0000" y="-154.0000" width="8" height="8" fill="blue" transform="rotate(-65.0 9.184850993605152E-15 -150.0)"/><rect x="-4.0000" y="-154.0000" width="8" height="8" fill="blue" transform="rotate(-65.0 9.184850993605152E-15 -150.0)"/><circle cx="-4.2262" cy="-169.0631" r="4" fill="yellow"/><circle cx="-12.6785" cy="-187.1892" r="4" fill="yellow"/><rect x="-16.6785" y="-191.1892" width="8" height="8" fill="blue" transform="rotate(-90.0 -12.678547852220973 -187.1892336110995)"/><rect x="-16.6785" y="-191.1892" width="8" height="8" fill="blue" transform="rotate(-90.0 -12.678547852220973 -187.1892336110995)"/><circle cx="-24.5652" cy="-202.6802" r="4" fill="yellow"/><circle cx="-16.9047" cy="-196.2523" r="4" fill="purple"/><circle cx="4.2262" cy="-169.0631" r="4" fill="purple"/><rect x="0.2262" y="-173.0631" width="8" height="8" fill="blue" transform="rotate(-40.0 4.226182617407004 -169.0630778703665)"/><rect x="0.2262" y="-173.0631" width="8" height="8" fill="blue" transform="rotate(-40.0 4.226182617407004 -169.0630778703665)"/><circle cx="8.4524" cy="-188.1262" r="4" fill="yellow"/><circle cx="-25.3571" cy="-214.3785" r="4" fill="yellow"/><rect x="-29.3571" y="-218.3785" width="8" height="8" fill="blue" transform="rotate(-90.0 -25.357095704441956 -214.378467222199)"/><rect x="-29.3571" y="-218.3785" width="8" height="8" fill="blue" transform="rotate(-90.0 -25.357095704441956 -214.378467222199)"/><circle cx="-25.3571" cy="-224.3785" r="4" fill="blue"/><rect x="-29.3571" y="-228.3785" width="8" height="8" fill="blue" transform="rotate(-65.0 -25.357095704441956 -224.378467222199)"/><rect x="-29.3571" y="-228.3785" width="8" height="8" fill="blue" transform="rotate(-65.0 -25.357095704441956 -224.378467222199)"/><circle cx="-29.5833" cy="-243.4415" r="4" fill="yellow"/><circle cx="-29.5833" cy="-223.4415" r="4" fill="red"/><rect x="-33.5833" y="-227.4415" width="8" height="8" fill="blue" transform="rotate(-90.0 -29.58327832184895 -223.4415450925655)"/><rect x="-33.5833" y="-227.4415" width="8" height="8" fill="blue" transform="rotate(-90.0 -29.58327832184895 -223.4415450925655)"/><circle cx="-41.4699" cy="-238.9325" r="4" fill="yellow"/><circle cx="-56.7908" cy="-251.7883" r="4" fill="yellow"/><rect x="-60.7908" y="-255.7883" width="8" height="8" fill="blue" transform="rotate(-115.0 -56.790794232825284 -251.78825125352816)"/><rect x="-60.7908" y="-255.7883" width="8" height="8" fill="blue" transform="rotate(-115.0 -56.790794232825284 -251.78825125352816)"/><circle cx="-74.1105" cy="-260.8043" r="4" fill="yellow"/><circle cx="-64.4512" cy="-258.2161" r="4" fill="purple"/><circle cx="-33.8095" cy="-242.5046" r="4" fill="purple"/><rect x="-37.8095" y="-246.5046" width="8" height="8" fill="blue" transform="rotate(-65.0 -33.80946093925594 -242.504622962932)"/><rect x="-37.8095" y="-246.5046" width="8" height="8" fill="blue" transform="rotate(-65.0 -33.80946093925594 -242.504622962932)"/><circle cx="-38.0356" cy="-261.5677" r="4" fill="yellow"/><circle cx="-33.8095" cy="-252.5046" r="4" fill="purple"/><circle cx="8.4524" cy="-178.1262" r="4" fill="purple"/><rect x="4.4524" y="-182.1262" width="8" height="8" fill="blue" transform="rotate(-40.0 8.452365234814 -178.126155740733)"/><rect x="4.4524" y="-182.1262" width="8" height="8" fill="blue" transform="rotate(-40.0 8.452365234814 -178.126155740733)"/><circle cx="16.1128" cy="-184.5540" r="4" fill="blue"/><rect x="12.1128" y="-188.5540" width="8" height="8" fill="blue" transform="rotate(-15.0 16.11280966600378 -184.5540318375984)"/><rect x="12.1128" y="-188.5540" width="8" height="8" fill="blue" transform="rotate(-15.0 16.11280966600378 -184.5540318375984)"/><circle cx="27.9994" cy="-200.0450" r="4" fill="yellow"/><circle cx="12.6785" cy="-187.1892" r="4" fill="red"/><rect x="8.6785" y="-191.1892" width="8" height="8" fill="blue" transform="rotate(-40.0 12.678547852220994 -187.1892336110995)"/><rect x="8.6785" y="-191.1892" width="8" height="8" fill="blue" transform="rotate(-40.0 12.678547852220994 -187.1892336110995)"/><circle cx="16.9047" cy="-206.2523" r="4" fill="yellow"/><circle cx="16.9047" cy="-226.2523" r="4" fill="yellow"/><rect x="12.9047" y="-230.2523" width="8" height="8" fill="blue" transform="rotate(-65.0 16.90473046962799 -226.252311481466)"/><rect x="12.9047" y="-230.2523" width="8" height="8" fill="blue" transform="rotate(-65.0 16.90473046962799 -226.252311481466)"/><circle cx="12.6785" cy="-245.3154" r="4" fill="yellow"/><circle cx="16.9047" cy="-236.2523" r="4" fill="purple"/><circle cx="24.5652" cy="-202.6802" r="4" fill="purple"/><rect x="20.5652" y="-206.6802" width="8" height="8" fill="blue" transform="rotate(-15.0 24.56517490081777 -202.68018757833138)"/><rect x="20.5652" y="-206.6802" width="8" height="8" fill="blue" transform="rotate(-15.0 24.56517490081777 -202.68018757833138)"/><circle cx="36.4518" cy="-218.1711" r="4" fill="yellow"/><circle cx="-50.7142" cy="-268.7569" r="4" fill="yellow"/><rect x="-54.7142" y="-272.7569" width="8" height="8" fill="blue" transform="rotate(-90.0 -50.714191408883906 -268.756934444398)"/><rect x="-54.7142" y="-272.7569" width="8" height="8" fill="blue" transform="rotate(-90.0 -50.714191408883906 -268.756934444398)"/><circle cx="-50.7142" cy="-288.7569" r="4" fill="blue"/><rect x="-54.7142" y="-292.7569" width="8" height="8" fill="blue" transform="rotate(-65.0 -50.714191408883906 -288.756934444398)"/><rect x="-54.7142" y="-292.7569" width="8" height="8" fill="blue" transform="rotate(-65.0 -50.714191408883906 -288.756934444398)"/><circle cx="-46.4880" cy="-297.8200" r="4" fill="blue"/><rect x="-50.4880" y="-301.8200" width="8" height="8" fill="blue" transform="rotate(-40.0 -46.488008791476915 -297.8200123147645)"/><rect x="-50.4880" y="-301.8200" width="8" height="8" fill="blue" transform="rotate(-40.0 -46.488008791476915 -297.8200123147645)"/><circle cx="-42.2618" cy="-316.8831" r="4" fill="yellow"/><circle cx="-50.7142" cy="-298.7569" r="4" fill="red"/><rect x="-54.7142" y="-302.7569" width="8" height="8" fill="blue" transform="rotate(-65.0 -50.714191408883906 -298.756934444398)"/><rect x="-54.7142" y="-302.7569" width="8" height="8" fill="blue" transform="rotate(-65.0 -50.714191408883906 -298.756934444398)"/><circle cx="-54.9404" cy="-317.8200" r="4" fill="yellow"/><circle cx="-63.3927" cy="-335.9462" r="4" fill="yellow"/><rect x="-67.3927" y="-339.9462" width="8" height="8" fill="blue" transform="rotate(-90.0 -63.39273926110488 -335.9461680554975)"/><rect x="-67.3927" y="-339.9462" width="8" height="8" fill="blue" transform="rotate(-90.0 -63.39273926110488 -335.9461680554975)"/><circle cx="-75.2794" cy="-351.4371" r="4" fill="yellow"/><circle cx="-67.6189" cy="-345.0092" r="4" fill="purple"/><circle cx="-46.4880" cy="-317.8200" r="4" fill="purple"/><rect x="-50.4880" y="-321.8200" width="8" height="8" fill="blue" transform="rotate(-40.0 -46.488008791476915 -317.8200123147645)"/><rect x="-50.4880" y="-321.8200" width="8" height="8" fill="blue" transform="rotate(-40.0 -46.488008791476915 -317.8200123147645)"/><circle cx="-42.2618" cy="-336.8831" r="4" fill="yellow"/><circle cx="-59.1666" cy="-286.8831" r="4" fill="red"/><rect x="-63.1666" y="-290.8831" width="8" height="8" fill="blue" transform="rotate(-90.0 -59.16655664369789 -286.883090185131)"/><rect x="-63.1666" y="-290.8831" width="8" height="8" fill="blue" transform="rotate(-90.0 -59.16655664369789 -286.883090185131)"/><circle cx="-59.1666" cy="-296.8831" r="4" fill="blue"/><rect x="-63.1666" y="-300.8831" width="8" height="8" fill="blue" transform="rotate(-65.0 -59.16655664369789 -296.883090185131)"/><rect x="-63.1666" y="-300.8831" width="8" height="8" fill="blue" transform="rotate(-65.0 -59.16655664369789 -296.883090185131)"/><circle cx="-63.3927" cy="-315.9462" r="4" fill="yellow"/><circle cx="-63.3927" cy="-295.9462" r="4" fill="red"/><rect x="-67.3927" y="-299.9462" width="8" height="8" fill="blue" transform="rotate(-90.0 -63.39273926110488 -295.9461680554975)"/><rect x="-67.3927" y="-299.9462" width="8" height="8" fill="blue" transform="rotate(-90.0 -63.39273926110488 -295.9461680554975)"/><circle cx="-75.2794" cy="-311.4371" r="4" fill="yellow"/><circle cx="-90.6003" cy="-324.2929" r="4" fill="yellow"/><rect x="-94.6003" y="-328.2929" width="8" height="8" fill="blue" transform="rotate(-115.0 -90.60025517208119 -324.29287421646023)"/><rect x="-94.6003" y="-328.2929" width="8" height="8" fill="blue" transform="rotate(-115.0 -90.60025517208119 -324.29287421646023)"/><circle cx="-107.9200" cy="-333.3089" r="4" fill="yellow"/><circle cx="-98.2607" cy="-330.7208" r="4" fill="purple"/><circle cx="-67.6189" cy="-315.0092" r="4" fill="purple"/><rect x="-71.6189" y="-319.0092" width="8" height="8" fill="blue" transform="rotate(-65.0 -67.61892187851187 -315.009245925864)"/><rect x="-71.6189" y="-319.0092" width="8" height="8" fill="blue" transform="rotate(-65.0 -67.61892187851187 -315.009245925864)"/><circle cx="-71.8451" cy="-334.0723" r="4" fill="yellow"/><circle cx="-113.5816" cy="-343.5765" r="4" fill="yellow"/><rect x="-117.5816" y="-347.5765" width="8" height="8" fill="blue" transform="rotate(-115.0 -113.58158846565051 -343.5765025070565)"/><rect x="-117.5816" y="-347.5765" width="8" height="8" fill="blue" transform="rotate(-115.0 -113.58158846565051 -343.5765025070565)"/><circle cx="-117.8078" cy="-352.6396" r="4" fill="blue"/><rect x="-121.8078" y="-356.6396" width="8" height="8" fill="blue" transform="rotate(-90.0 -117.8077710830575 -352.639580377423)"/><rect x="-121.8078" y="-356.6396" width="8" height="8" fill="blue" transform="rotate(-90.0 -117.8077710830575 -352.639580377423)"/><circle cx="-129.6944" cy="-368.1305" r="4" fill="yellow"/><circle cx="-121.2420" cy="-350.0044" r="4" fill="red"/><rect x="-125.2420" y="-354.0044" width="8" height="8" fill="blue" transform="rotate(-115.0 -121.24203289684029 -350.0043786039219)"/><rect x="-125.2420" y="-354.0044" width="8" height="8" fill="blue" transform="rotate(-115.0 -121.24203289684029 -350.0043786039219)"/><circle cx="-138.5617" cy="-359.0204" r="4" fill="yellow"/><circle cx="-157.8803" cy="-364.1968" r="4" fill="yellow"/><rect x="-161.8803" y="-368.1968" width="8" height="8" fill="blue" transform="rotate(-140.0 -157.88025211670214 -364.1968260538629)"/><rect x="-161.8803" y="-368.1968" width="8" height="8" fill="blue" transform="rotate(-140.0 -157.88025211670214 -364.1968260538629)"/><circle cx="-177.3876" cy="-365.0485" r="4" fill="yellow"/><circle cx="-167.5395" cy="-366.7850" r="4" fill="purple"/><circle cx="-133.1287" cy="-365.4953" r="4" fill="purple"/><rect x="-137.1287" y="-369.4953" width="8" height="8" fill="blue" transform="rotate(-90.0 -133.12865994543708 -365.4953325711538)"/><rect x="-137.1287" y="-369.4953" width="8" height="8" fill="blue" transform="rotate(-90.0 -133.12865994543708 -365.4953325711538)"/><circle cx="-145.0153" cy="-380.9863" r="4" fill="yellow"/><circle cx="-137.3548" cy="-374.5584" r="4" fill="purple"/><circle cx="-67.6189" cy="-325.0092" r="4" fill="purple"/><rect x="-71.6189" y="-329.0092" width="8" height="8" fill="blue" transform="rotate(-65.0 -67.61892187851187 -325.009245925864)"/><rect x="-71.6189" y="-329.0092" width="8" height="8" fill="blue" transform="rotate(-65.0 -67.61892187851187 -325.009245925864)"/><circle cx="-63.3927" cy="-334.0723" r="4" fill="blue"/><rect x="-67.3927" y="-338.0723" width="8" height="8" fill="blue" transform="rotate(-40.0 -63.39273926110488 -334.0723237962305)"/><rect x="-67.3927" y="-338.0723" width="8" height="8" fill="blue" transform="rotate(-40.0 -63.39273926110488 -334.0723237962305)"/><circle cx="-59.1666" cy="-353.1354" r="4" fill="yellow"/><circle cx="-67.6189" cy="-335.0092" r="4" fill="red"/><rect x="-71.6189" y="-339.0092" width="8" height="8" fill="blue" transform="rotate(-65.0 -67.61892187851187 -335.009245925864)"/><rect x="-71.6189" y="-339.0092" width="8" height="8" fill="blue" transform="rotate(-65.0 -67.61892187851187 -335.009245925864)"/><circle cx="-71.8451" cy="-354.0723" r="4" fill="yellow"/><circle cx="-80.2975" cy="-372.1985" r="4" fill="yellow"/><rect x="-84.2975" y="-376.1985" width="8" height="8" fill="blue" transform="rotate(-90.0 -80.29746973073284 -372.1984795369635)"/><rect x="-84.2975" y="-376.1985" width="8" height="8" fill="blue" transform="rotate(-90.0 -80.29746973073284 -372.1984795369635)"/><circle cx="-92.1841" cy="-387.6894" r="4" fill="yellow"/><circle cx="-84.5237" cy="-381.2616" r="4" fill="purple"/><circle cx="-63.3927" cy="-354.0723" r="4" fill="purple"/><rect x="-67.3927" y="-358.0723" width="8" height="8" fill="blue" transform="rotate(-40.0 -63.39273926110488 -354.0723237962305)"/><rect x="-67.3927" y="-358.0723" width="8" height="8" fill="blue" transform="rotate(-40.0 -63.39273926110488 -354.0723237962305)"/><circle cx="-59.1666" cy="-373.1354" r="4" fill="yellow"/><circle cx="-59.1666" cy="-363.1354" r="4" fill="purple"/><circle cx="16.9047" cy="-196.2523" r="4" fill="purple"/><rect x="12.9047" y="-200.2523" width="8" height="8" fill="blue" transform="rotate(-40.0 16.90473046962799 -196.252311481466)"/><rect x="12.9047" y="-200.2523" width="8" height="8" fill="blue" transform="rotate(-40.0 16.90473046962799 -196.252311481466)"/><circle cx="32.2256" cy="-209.1081" r="4" fill="blue"/><rect x="28.2256" y="-213.1081" width="8" height="8" fill="blue" transform="rotate(-15.0 32.22561933200755 -209.10806367519677)"/><rect x="28.2256" y="-213.1081" width="8" height="8" fill="blue" transform="rotate(-15.0 32.22561933200755 -209.10806367519677)"/><circle cx="41.8849" cy="-211.6963" r="4" fill="blue"/><rect x="37.8849" y="-215.6963" width="8" height="8" fill="blue" transform="rotate(10.0 41.88487759489823 -211.696254126222)"/><rect x="37.8849" y="-215.6963" width="8" height="8" fill="blue" transform="rotate(10.0 41.88487759489823 -211.696254126222)"/><circle cx="59.2046" cy="-220.7123" r="4" fill="yellow"/><circle cx="39.8861" cy="-215.5359" r="4" fill="red"/><rect x="35.8861" y="-219.5359" width="8" height="8" fill="blue" transform="rotate(-15.0 39.88606376319733 -215.53593977206216)"/><rect x="35.8861" y="-219.5359" width="8" height="8" fill="blue" transform="rotate(-15.0 39.88606376319733 -215.53593977206216)"/><circle cx="51.7727" cy="-231.0269" r="4" fill="yellow"/><circle cx="60.2251" cy="-249.1530" r="4" fill="yellow"/><rect x="56.2251" y="-253.1530" width="8" height="8" fill="blue" transform="rotate(-40.0 60.22505604660809 -249.15304948002705)"/><rect x="56.2251" y="-253.1530" width="8" height="8" fill="blue" transform="rotate(-40.0 60.22505604660809 -249.15304948002705)"/><circle cx="64.4512" cy="-268.2161" r="4" fill="yellow"/><circle cx="64.4512" cy="-258.2161" r="4" fill="purple"/><circle cx="57.2058" cy="-224.5520" r="4" fill="purple"/><rect x="53.2058" y="-228.5520" width="8" height="8" fill="blue" transform="rotate(10.0 57.20576645727779 -224.55200631995277)"/><rect x="53.2058" y="-228.5520" width="8" height="8" fill="blue" transform="rotate(10.0 57.20576645727779 -224.55200631995277)"/><circle cx="74.5255" cy="-233.5681" r="4" fill="yellow"/><circle cx="25.3571" cy="-214.3785" r="4" fill="red"/><rect x="21.3571" y="-218.3785" width="8" height="8" fill="blue" transform="rotate(-40.0 25.357095704441978 -214.378467222199)"/><rect x="21.3571" y="-218.3785" width="8" height="8" fill="blue" transform="rotate(-40.0 25.357095704441978 -214.378467222199)"/><circle cx="33.0175" cy="-220.8063" r="4" fill="blue"/><rect x="29.0175" y="-224.8063" width="8" height="8" fill="blue" transform="rotate(-15.0 33.017540135631755 -220.80634331906438)"/><rect x="29.0175" y="-224.8063" width="8" height="8" fill="blue" transform="rotate(-15.0 33.017540135631755 -220.80634331906438)"/><circle cx="44.9042" cy="-236.2973" r="4" fill="yellow"/><circle cx="29.5833" cy="-223.4415" r="4" fill="red"/><rect x="25.5833" y="-227.4415" width="8" height="8" fill="blue" transform="rotate(-40.0 29.583278321848972 -223.4415450925655)"/><rect x="25.5833" y="-227.4415" width="8" height="8" fill="blue" transform="rotate(-40.0 29.583278321848972 -223.4415450925655)"/><circle cx="33.8095" cy="-242.5046" r="4" fill="yellow"/><circle cx="33.8095" cy="-262.5046" r="4" fill="yellow"/><rect x="29.8095" y="-266.5046" width="8" height="8" fill="blue" transform="rotate(-65.0 33.80946093925597 -262.504622962932)"/><rect x="29.8095" y="-266.5046" width="8" height="8" fill="blue" transform="rotate(-65.0 33.80946093925597 -262.504622962932)"/><circle cx="29.5833" cy="-281.5677" r="4" fill="yellow"/><circle cx="33.8095" cy="-272.5046" r="4" fill="purple"/><circle cx="41.4699" cy="-238.9325" r="4" fill="purple"/><rect x="37.4699" y="-242.9325" width="8" height="8" fill="blue" transform="rotate(-15.0 41.46990537044575 -238.93249905979738)"/><rect x="37.4699" y="-242.9325" width="8" height="8" fill="blue" transform="rotate(-15.0 41.46990537044575 -238.93249905979738)"/><circle cx="53.3565" cy="-254.4235" r="4" fill="yellow"/><circle cx="33.8095" cy="-292.5046" r="4" fill="yellow"/><rect x="29.8095" y="-296.5046" width="8" height="8" fill="blue" transform="rotate(-65.0 33.80946093925597 -292.504622962932)"/><rect x="29.8095" y="-296.5046" width="8" height="8" fill="blue" transform="rotate(-65.0 33.80946093925597 -292.504622962932)"/><circle cx="38.0356" cy="-301.5677" r="4" fill="blue"/><rect x="34.0356" y="-305.5677" width="8" height="8" fill="blue" transform="rotate(-40.0 38.03564355666296 -301.5677008332985)"/><rect x="34.0356" y="-305.5677" width="8" height="8" fill="blue" transform="rotate(-40.0 38.03564355666296 -301.5677008332985)"/><circle cx="42.2618" cy="-320.6308" r="4" fill="yellow"/><circle cx="33.8095" cy="-302.5046" r="4" fill="red"/><rect x="29.8095" y="-306.5046" width="8" height="8" fill="blue" transform="rotate(-65.0 33.80946093925597 -302.504622962932)"/><rect x="29.8095" y="-306.5046" width="8" height="8" fill="blue" transform="rotate(-65.0 33.80946093925597 -302.504622962932)"/><circle cx="29.5833" cy="-321.5677" r="4" fill="yellow"/><circle cx="21.1309" cy="-339.6939" r="4" fill="yellow"/><rect x="17.1309" y="-343.6939" width="8" height="8" fill="blue" transform="rotate(-90.0 21.130913087034987 -339.6938565740315)"/><rect x="17.1309" y="-343.6939" width="8" height="8" fill="blue" transform="rotate(-90.0 21.130913087034987 -339.6938565740315)"/><circle cx="9.2443" cy="-355.1848" r="4" fill="yellow"/><circle cx="16.9047" cy="-348.7569" r="4" fill="purple"/><circle cx="38.0356" cy="-321.5677" r="4" fill="purple"/><rect x="34.0356" y="-325.5677" width="8" height="8" fill="blue" transform="rotate(-40.0 38.03564355666296 -321.5677008332985)"/><rect x="34.0356" y="-325.5677" width="8" height="8" fill="blue" transform="rotate(-40.0 38.03564355666296 -321.5677008332985)"/><circle cx="42.2618" cy="-340.6308" r="4" fill="yellow"/><circle cx="42.2618" cy="-330.6308" r="4" fill="purple"/><circle cx="49.1303" cy="-245.3604" r="4" fill="purple"/><rect x="45.1303" y="-249.3604" width="8" height="8" fill="blue" transform="rotate(-15.0 49.13034980163553 -245.36037515666277)"/><rect x="45.1303" y="-249.3604" width="8" height="8" fill="blue" transform="rotate(-15.0 49.13034980163553 -245.36037515666277)"/><circle cx="58.7896" cy="-247.9486" r="4" fill="blue"/><rect x="54.7896" y="-251.9486" width="8" height="8" fill="blue" transform="rotate(10.0 58.78960806452621 -247.94856560768798)"/><rect x="54.7896" y="-251.9486" width="8" height="8" fill="blue" transform="rotate(10.0 58.78960806452621 -247.94856560768798)"/><circle cx="76.1093" cy="-256.9646" r="4" fill="yellow"/><circle cx="56.7908" cy="-251.7883" r="4" fill="red"/><rect x="52.7908" y="-255.7883" width="8" height="8" fill="blue" transform="rotate(-15.0 56.79079423282531 -251.78825125352816)"/><rect x="52.7908" y="-255.7883" width="8" height="8" fill="blue" transform="rotate(-15.0 56.79079423282531 -251.78825125352816)"/><circle cx="68.6774" cy="-267.2792" r="4" fill="yellow"/><circle cx="77.1298" cy="-285.4054" r="4" fill="yellow"/><rect x="73.1298" y="-289.4054" width="8" height="8" fill="blue" transform="rotate(-40.0 77.12978651623607 -285.40536096149305)"/><rect x="73.1298" y="-289.4054" width="8" height="8" fill="blue" transform="rotate(-40.0 77.12978651623607 -285.40536096149305)"/><circle cx="81.3560" cy="-304.4684" r="4" fill="yellow"/><circle cx="81.3560" cy="-294.4684" r="4" fill="purple"/><circle cx="74.1105" cy="-260.8043" r="4" fill="purple"/><rect x="70.1105" y="-264.8043" width="8" height="8" fill="blue" transform="rotate(10.0 74.11049692690578 -260.80431780141873)"/><rect x="70.1105" y="-264.8043" width="8" height="8" fill="blue" transform="rotate(10.0 74.11049692690578 -260.80431780141873)"/><circle cx="91.4302" cy="-269.8204" r="4" fill="yellow"/></svg>