<svg viewBox="-65.20907433445902 -478.39517044534966 267.391875961818 521.885640485836" xmlns="http://www.w3.org/2000/svg"><path d="M 0.0000 0.0000 L 0.0000 -10.0000 M 0.0000 -10.0000 L 0.0000 -20.0000 M 0.0000 -20.0000 L 0.0000 -30.0000 M 0.0000 -30.0000 L 0.0000 -40.0000 M 0.0000 -40.0000 L 0.0000 -50.0000 M 0.0000 -50.0000 L 0.0000 -60.0000 M 0.0000 -60.0000 L 0.0000 -70.0000 M 0.0000 -70.0000 L 0.0000 -80.0000 M 0.0000 -80.0000 L 6.4279 -87.6604 M 6.4279 -87.6604 L 12.8558 -95.3209 M 12.8558 -95.3209 L 19.2836 -102.9813 M 19.2836 -102.9813 L 25.7115 -110.6418 M 25.7115 -110.6418 L 35.5596 -112.3783 M 35.5596 -112.3783 L 45.4077 -114.1147 M 45.4077 -114.1147 L 54.0679 -109.1147 M 54.0679 -109.1147 L 61.1390 -102.0437 M 61.1390 -102.0437 L 70.5359 -98.6235 M 45.4077 -114.1147 L 55.3696 -113.2432 M 55.3696 -113.2432 L 64.7665 -109.8230 M 64.7665 -109.8230 L 74.7285 -110.6945 M 45.4077 -114.1147 L 55.3696 -113.2432 M 55.3696 -113.2432 L 65.3316 -112.3716 M 65.3316 -112.3716 L 74.7285 -115.7918 M 74.7285 -115.7918 L 84.1254 -119.2120 M 84.1254 -119.2120 L 93.5223 -122.6322 M 93.5223 -122.6322 L 103.4843 -123.5038 M 103.4843 -123.5038 L 112.1445 -128.5038 M 65.3316 -112.3716 L 72.4026 -105.3006 M 72.4026 -105.3006 L 77.4026 -96.6403 M 77.4026 -96.6403 L 85.5941 -90.9045 M 25.7115 -110.6418 L 33.9030 -116.3775 M 33.9030 -116.3775 L 42.0945 -122.1133 M 42.0945 -122.1133 L 52.0565 -121.2417 M 52.0565 -121.2417 L 61.4534 -117.8215 M 61.4534 -117.8215 L 71.4154 -118.6931 M 42.0945 -122.1133 L 51.4915 -125.5335 M 51.4915 -125.5335 L 61.4534 -126.4051 M 61.4534 -126.4051 L 70.1137 -131.4051 M 42.0945 -122.1133 L 51.4915 -125.5335 M 51.4915 -125.5335 L 60.8884 -128.9537 M 60.8884 -128.9537 L 67.9595 -136.0248 M 67.9595 -136.0248 L 75.0305 -143.0958 M 75.0305 -143.0958 L 82.1016 -150.1669 M 82.1016 -150.1669 L 90.7619 -155.1669 M 90.7619 -155.1669 L 96.4976 -163.3584 M 60.8884 -128.9537 L 70.2853 -125.5335 M 70.2853 -125.5335 L 78.4768 -119.7977 M 78.4768 -119.7977 L 88.3249 -118.0613 M 25.7115 -110.6418 L 33.9030 -116.3775 M 33.9030 -116.3775 L 42.0945 -122.1133 M 42.0945 -122.1133 L 50.2861 -127.8491 M 50.2861 -127.8491 L 58.4776 -133.5848 M 58.4776 -133.5848 L 63.4776 -142.2451 M 63.4776 -142.2451 L 68.4776 -150.9053 M 68.4776 -150.9053 L 73.4776 -159.5656 M 73.4776 -159.5656 L 78.4776 -168.2259 M 78.4776 -168.2259 L 83.4776 -176.8861 M 83.4776 -176.8861 L 88.4776 -185.5464 M 88.4776 -185.5464 L 97.8745 -188.9666 M 97.8745 -188.9666 L 107.8365 -189.8381 M 107.8365 -189.8381 L 116.4967 -194.8381 M 88.4776 -185.5464 L 95.5487 -192.6174 M 95.5487 -192.6174 L 104.2089 -197.6174 M 104.2089 -197.6174 L 109.9447 -205.8089 M 88.4776 -185.5464 L 95.5487 -192.6174 M 95.5487 -192.6174 L 102.6197 -199.6885 M 102.6197 -199.6885 L 106.0399 -209.0854 M 106.0399 -209.0854 L 109.4601 -218.4823 M 109.4601 -218.4823 L 112.8803 -227.8793 M 112.8803 -227.8793 L 118.6161 -236.0708 M 118.6161 -236.0708 L 120.3526 -245.9189 M 102.6197 -199.6885 L 112.5817 -200.5601 M 112.5817 -200.5601 L 122.4297 -198.8236 M 122.4297 -198.8236 L 132.0890 -201.4118 M 58.4776 -133.5848 L 68.4395 -132.7133 M 68.4395 -132.7133 L 78.4015 -131.8417 M 78.4015 -131.8417 L 85.4725 -124.7707 M 85.4725 -124.7707 L 90.4725 -116.1104 M 90.4725 -116.1104 L 98.6641 -110.3746 M 78.4015 -131.8417 L 87.7984 -128.4215 M 87.7984 -128.4215 L 95.9899 -122.6858 M 95.9899 -122.6858 L 105.8380 -120.9493 M 78.4015 -131.8417 L 87.7984 -128.4215 M 87.7984 -128.4215 L 97.1953 -125.0013 M 97.1953 -125.0013 L 107.1573 -125.8729 M 107.1573 -125.8729 L 117.1192 -126.7444 M 117.1192 -126.7444 L 127.0812 -127.6160 M 127.0812 -127.6160 L 136.9293 -125.8795 M 136.9293 -125.8795 L 146.5885 -128.4677 M 97.1953 -125.0013 L 102.1953 -116.3411 M 102.1953 -116.3411 L 104.7835 -106.6818 M 104.7835 -106.6818 L 111.2114 -99.0214 M 0.0000 -80.0000 L 2.5882 -89.6593 M 2.5882 -89.6593 L 5.1764 -99.3185 M 5.1764 -99.3185 L 7.7646 -108.9778 M 7.7646 -108.9778 L 10.3528 -118.6370 M 10.3528 -118.6370 L 18.5443 -124.3728 M 18.5443 -124.3728 L 26.7358 -130.1086 M 26.7358 -130.1086 L 36.6977 -129.2370 M 36.6977 -129.2370 L 46.0947 -125.8168 M 46.0947 -125.8168 L 56.0566 -126.6884 M 26.7358 -130.1086 L 36.1327 -133.5288 M 36.1327 -133.5288 L 46.0947 -134.4003 M 46.0947 -134.4003 L 54.7549 -139.4003 M 26.7358 -130.1086 L 36.1327 -133.5288 M 36.1327 -133.5288 L 45.5297 -136.9490 M 45.5297 -136.9490 L 52.6007 -144.0200 M 52.6007 -144.0200 L 59.6718 -151.0911 M 59.6718 -151.0911 L 66.7429 -158.1622 M 66.7429 -158.1622 L 75.4031 -163.1622 M 75.4031 -163.1622 L 81.1389 -171.3537 M 45.5297 -136.9490 L 54.9266 -133.5288 M 54.9266 -133.5288 L 63.1181 -127.7930 M 63.1181 -127.7930 L 72.9662 -126.0565 M 10.3528 -118.6370 L 15.3528 -127.2973 M 15.3528 -127.2973 L 20.3528 -135.9575 M 20.3528 -135.9575 L 29.7497 -139.3777 M 29.7497 -139.3777 L 39.7116 -140.2493 M 39.7116 -140.2493 L 48.3719 -145.2493 M 20.3528 -135.9575 L 27.4238 -143.0286 M 27.4238 -143.0286 L 36.0841 -148.0286 M 36.0841 -148.0286 L 41.8198 -156.2201 M 20.3528 -135.9575 L 27.4238 -143.0286 M 27.4238 -143.0286 L 34.4949 -150.0997 M 34.4949 -150.0997 L 37.9151 -159.4966 M 37.9151 -159.4966 L 41.3353 -168.8935 M 41.3353 -168.8935 L 44.7555 -178.2905 M 44.7555 -178.2905 L 50.4913 -186.4820 M 50.4913 -186.4820 L 52.2277 -196.3301 M 34.4949 -150.0997 L 44.4568 -150.9712 M 44.4568 -150.9712 L 54.3049 -149.2348 M 54.3049 -149.2348 L 63.9642 -151.8229 M 10.3528 -118.6370 L 15.3528 -127.2973 M 15.3528 -127.2973 L 20.3528 -135.9575 M 20.3528 -135.9575 L 25.3528 -144.6178 M 25.3528 -144.6178 L 30.3528 -153.2780 M 30.3528 -153.2780 L 31.2243 -163.2400 M 31.2243 -163.2400 L 32.0959 -173.2019 M 32.0959 -173.2019 L 32.9674 -183.1639 M 32.9674 -183.1639 L 33.8390 -193.1258 M 33.8390 -193.1258 L 34.7105 -203.0878 M 34.7105 -203.0878 L 35.5821 -213.0497 M 35.5821 -213.0497 L 42.6532 -220.1208 M 42.6532 -220.1208 L 51.3134 -225.1208 M 51.3134 -225.1208 L 57.0492 -233.3123 M 35.5821 -213.0497 L 39.0023 -222.4467 M 39.0023 -222.4467 L 44.7381 -230.6382 M 44.7381 -230.6382 L 46.4746 -240.4863 M 35.5821 -213.0497 L 39.0023 -222.4467 M 39.0023 -222.4467 L 42.4225 -231.8436 M 42.4225 -231.8436 L 41.5510 -241.8055 M 41.5510 -241.8055 L 40.6794 -251.7675 M 40.6794 -251.7675 L 39.8078 -261.7294 M 39.8078 -261.7294 L 41.5443 -271.5775 M 41.5443 -271.5775 L 38.9561 -281.2368 M 42.4225 -231.8436 L 51.0828 -236.8436 M 51.0828 -236.8436 L 60.7420 -239.4318 M 60.7420 -239.4318 L 68.4025 -245.8597 M 30.3528 -153.2780 L 39.7497 -156.6983 M 39.7497 -156.6983 L 49.1466 -160.1185 M 49.1466 -160.1185 L 58.5435 -156.6983 M 58.5435 -156.6983 L 66.7351 -150.9625 M 66.7351 -150.9625 L 76.5831 -149.2260 M 49.1466 -160.1185 L 59.1086 -160.9900 M 59.1086 -160.9900 L 68.9566 -159.2535 M 68.9566 -159.2535 L 78.6159 -161.8417 M 49.1466 -160.1185 L 59.1086 -160.9900 M 59.1086 -160.9900 L 69.0705 -161.8616 M 69.0705 -161.8616 L 77.7308 -166.8616 M 77.7308 -166.8616 L 86.3910 -171.8616 M 86.3910 -171.8616 L 95.0513 -176.8616 M 95.0513 -176.8616 L 104.7105 -179.4498 M 104.7105 -179.4498 L 112.3710 -185.8776 M 69.0705 -161.8616 L 77.2620 -156.1258 M 77.2620 -156.1258 L 83.6899 -148.4654 M 83.6899 -148.4654 L 92.7530 -144.2392 M 0.0000 -80.0000 L 2.5882 -89.6593 M 2.5882 -89.6593 L 5.1764 -99.3185 M 5.1764 -99.3185 L 7.7646 -108.9778 M 7.7646 -108.9778 L 10.3528 -118.6370 M 10.3528 -118.6370 L 12.9410 -128.2963 M 12.9410 -128.2963 L 15.5291 -137.9555 M 15.5291 -137.9555 L 18.1173 -147.6148 M 18.1173 -147.6148 L 20.7055 -157.2741 M 20.7055 -157.2741 L 18.9690 -167.1221 M 18.9690 -167.1221 L 17.2326 -176.9702 M 17.2326 -176.9702 L 15.4961 -186.8183 M 15.4961 -186.8183 L 13.7596 -196.6664 M 13.7596 -196.6664 L 12.0231 -206.5145 M 12.0231 -206.5145 L 10.2866 -216.3625 M 10.2866 -216.3625 L 8.5502 -226.2106 M 8.5502 -226.2106 L 6.8137 -236.0587 M 6.8137 -236.0587 L 5.0772 -245.9068 M 5.0772 -245.9068 L 3.3407 -255.7548 M 3.3407 -255.7548 L 1.6042 -265.6029 M 1.6042 -265.6029 L -0.1323 -275.4510 M -0.1323 -275.4510 L 4.8677 -284.1113 M 4.8677 -284.1113 L 9.8677 -292.7715 M 9.8677 -292.7715 L 19.2647 -296.1917 M 19.2647 -296.1917 L 29.2266 -297.0633 M 29.2266 -297.0633 L 37.8869 -302.0633 M 9.8677 -292.7715 L 16.9388 -299.8426 M 16.9388 -299.8426 L 25.5991 -304.8426 M 25.5991 -304.8426 L 31.3348 -313.0341 M 9.8677 -292.7715 L 16.9388 -299.8426 M 16.9388 -299.8426 L 24.0099 -306.9136 M 24.0099 -306.9136 L 27.4301 -316.3106 M 27.4301 -316.3106 L 30.8503 -325.7075 M 30.8503 -325.7075 L 34.2705 -335.1044 M 34.2705 -335.1044 L 40.0062 -343.2959 M 40.0062 -343.2959 L 41.7427 -353.1440 M 24.0099 -306.9136 L 33.9718 -307.7852 M 33.9718 -307.7852 L 43.8199 -306.0487 M 43.8199 -306.0487 L 53.4792 -308.6369 M -0.1323 -275.4510 L 0.7393 -285.4129 M 0.7393 -285.4129 L 1.6109 -295.3749 M 1.6109 -295.3749 L 8.6819 -302.4460 M 8.6819 -302.4460 L 17.3422 -307.4460 M 17.3422 -307.4460 L 23.0779 -315.6375 M 1.6109 -295.3749 L 5.0311 -304.7718 M 5.0311 -304.7718 L 10.7668 -312.9633 M 10.7668 -312.9633 L 12.5033 -322.8114 M 1.6109 -295.3749 L 5.0311 -304.7718 M 5.0311 -304.7718 L 8.4513 -314.1687 M 8.4513 -314.1687 L 7.5797 -324.1307 M 7.5797 -324.1307 L 6.7081 -334.0926 M 6.7081 -334.0926 L 5.8366 -344.0546 M 5.8366 -344.0546 L 7.5731 -353.9027 M 7.5731 -353.9027 L 4.9849 -363.5619 M 8.4513 -314.1687 L 17.1115 -319.1687 M 17.1115 -319.1687 L 26.7708 -321.7569 M 26.7708 -321.7569 L 34.4312 -328.1848 M -0.1323 -275.4510 L 0.7393 -285.4129 M 0.7393 -285.4129 L 1.6109 -295.3749 M 1.6109 -295.3749 L 2.4824 -305.3368 M 2.4824 -305.3368 L 3.3540 -315.2988 M 3.3540 -315.2988 L -0.0662 -324.6957 M -0.0662 -324.6957 L -3.4864 -334.0926 M -3.4864 -334.0926 L -6.9066 -343.4896 M -6.9066 -343.4896 L -10.3268 -352.8865 M -10.3268 -352.8865 L -13.7470 -362.2834 M -13.7470 -362.2834 L -17.1672 -371.6803 M -17.1672 -371.6803 L -13.7470 -381.0773 M -13.7470 -381.0773 L -8.0113 -389.2688 M -8.0113 -389.2688 L -6.2748 -399.1169 M -17.1672 -371.6803 L -18.0388 -381.6423 M -18.0388 -381.6423 L -16.3023 -391.4904 M -16.3023 -391.4904 L -18.8905 -401.1496 M -17.1672 -371.6803 L -18.0388 -381.6423 M -18.0388 -381.6423 L -18.9104 -391.6042 M -18.9104 -391.6042 L -23.9104 -400.2645 M -23.9104 -400.2645 L -28.9104 -408.9247 M -28.9104 -408.9247 L -33.9104 -417.5850 M -33.9104 -417.5850 L -36.4985 -427.2443 M -36.4985 -427.2443 L -42.9264 -434.9047 M -18.9104 -391.6042 L -13.1746 -399.7958 M -13.1746 -399.7958 L -5.5141 -406.2236 M -5.5141 -406.2236 L -1.2880 -415.2867 M 3.3540 -315.2988 L 10.4250 -322.3699 M 10.4250 -322.3699 L 17.4961 -329.4409 M 17.4961 -329.4409 L 27.4581 -330.3125 M 27.4581 -330.3125 L 37.3061 -328.5760 M 37.3061 -328.5760 L 46.9654 -331.1642 M 17.4961 -329.4409 L 26.1564 -334.4409 M 26.1564 -334.4409 L 35.8156 -337.0291 M 35.8156 -337.0291 L 43.4761 -343.4570 M 17.4961 -329.4409 L 26.1564 -334.4409 M 26.1564 -334.4409 L 34.8166 -339.4409 M 34.8166 -339.4409 L 40.5524 -347.6324 M 40.5524 -347.6324 L 46.2881 -355.8240 M 46.2881 -355.8240 L 52.0239 -364.0155 M 52.0239 -364.0155 L 59.6844 -370.4434 M 59.6844 -370.4434 L 63.9105 -379.5064 M 34.8166 -339.4409 L 44.6647 -337.7044 M 44.6647 -337.7044 L 53.7278 -333.4783 M 53.7278 -333.4783 L 63.7278 -333.4783 M 20.7055 -157.2741 L 28.8970 -163.0098 M 28.8970 -163.0098 L 37.0886 -168.7456 M 37.0886 -168.7456 L 45.2801 -174.4814 M 45.2801 -174.4814 L 53.4716 -180.2171 M 53.4716 -180.2171 L 63.4336 -179.3456 M 63.4336 -179.3456 L 73.3955 -178.4740 M 73.3955 -178.4740 L 80.4666 -171.4029 M 80.4666 -171.4029 L 85.4666 -162.7427 M 85.4666 -162.7427 L 93.6581 -157.0069 M 73.3955 -178.4740 L 82.7924 -175.0538 M 82.7924 -175.0538 L 90.9839 -169.3180 M 90.9839 -169.3180 L 100.8320 -167.5816 M 73.3955 -178.4740 L 82.7924 -175.0538 M 82.7924 -175.0538 L 92.1894 -171.6336 M 92.1894 -171.6336 L 102.1513 -172.5052 M 102.1513 -172.5052 L 112.1132 -173.3767 M 112.1132 -173.3767 L 122.0752 -174.2483 M 122.0752 -174.2483 L 131.9233 -172.5118 M 131.9233 -172.5118 L 141.5825 -175.1000 M 92.1894 -171.6336 L 97.1894 -162.9734 M 97.1894 -162.9734 L 99.7775 -153.3141 M 99.7775 -153.3141 L 106.2054 -145.6536 M 53.4716 -180.2171 L 62.8685 -183.6373 M 62.8685 -183.6373 L 72.2655 -187.0575 M 72.2655 -187.0575 L 81.6624 -183.6373 M 81.6624 -183.6373 L 89.8539 -177.9016 M 89.8539 -177.9016 L 99.7020 -176.1651 M 72.2655 -187.0575 L 82.2274 -187.9291 M 82.2274 -187.9291 L 92.0755 -186.1926 M 92.0755 -186.1926 L 101.7347 -188.7808 M 72.2655 -187.0575 L 82.2274 -187.9291 M 82.2274 -187.9291 L 92.1894 -188.8006 M 92.1894 -188.8006 L 100.8496 -193.8006 M 100.8496 -193.8006 L 109.5099 -198.8006 M 109.5099 -198.8006 L 118.1701 -203.8006 M 118.1701 -203.8006 L 127.8294 -206.3888 M 127.8294 -206.3888 L 135.4898 -212.8167 M 92.1894 -188.8006 L 100.3809 -183.0649 M 100.3809 -183.0649 L 106.8087 -175.4044 M 106.8087 -175.4044 L 115.8718 -171.1782 M 53.4716 -180.2171 L 62.8685 -183.6373 M 62.8685 -183.6373 L 72.2655 -187.0575 M 72.2655 -187.0575 L 81.6624 -190.4777 M 81.6624 -190.4777 L 91.0593 -193.8979 M 91.0593 -193.8979 L 98.1304 -200.9690 M 98.1304 -200.9690 L 105.2014 -208.0401 M 105.2014 -208.0401 L 112.2725 -215.1111 M 112.2725 -215.1111 L 119.3436 -222.1822 M 119.3436 -222.1822 L 126.4146 -229.2533 M 126.4146 -229.2533 L 133.4857 -236.3243 M 133.4857 -236.3243 L 143.4477 -237.1959 M 143.4477 -237.1959 L 153.2957 -235.4594 M 153.2957 -235.4594 L 162.9550 -238.0476 M 133.4857 -236.3243 L 142.1460 -241.3243 M 142.1460 -241.3243 L 151.8052 -243.9125 M 151.8052 -243.9125 L 159.4657 -250.3404 M 133.4857 -236.3243 L 142.1460 -241.3243 M 142.1460 -241.3243 L 150.8062 -246.3243 M 150.8062 -246.3243 L 156.5420 -254.5159 M 156.5420 -254.5159 L 162.2778 -262.7074 M 162.2778 -262.7074 L 168.0135 -270.8989 M 168.0135 -270.8989 L 175.6740 -277.3268 M 175.6740 -277.3268 L 179.9001 -286.3899 M 150.8062 -246.3243 L 160.6543 -244.5879 M 160.6543 -244.5879 L 169.7174 -240.3617 M 169.7174 -240.3617 L 179.7174 -240.3617 M 91.0593 -193.8979 L 100.4562 -190.4777 M 100.4562 -190.4777 L 109.8532 -187.0575 M 109.8532 -187.0575 L 114.8532 -178.3973 M 114.8532 -178.3973 L 117.4414 -168.7380 M 117.4414 -168.7380 L 123.8692 -161.0776 M 109.8532 -187.0575 L 118.0447 -181.3218 M 118.0447 -181.3218 L 124.4726 -173.6613 M 124.4726 -173.6613 L 133.5356 -169.4351 M 109.8532 -187.0575 L 118.0447 -181.3218 M 118.0447 -181.3218 L 126.2362 -175.5860 M 126.2362 -175.5860 L 136.0843 -173.8495 M 136.0843 -173.8495 L 145.9324 -172.1130 M 145.9324 -172.1130 L 155.7804 -170.3766 M 155.7804 -170.3766 L 164.8435 -166.1504 M 164.8435 -166.1504 L 174.8435 -166.1504 M 126.2362 -175.5860 L 128.8244 -165.9267 M 128.8244 -165.9267 L 128.8244 -155.9267 M 128.8244 -155.9267 L 133.0506 -146.8637 " stroke-width="1" stroke="black" fill="none"/><circle cx="54.0679" cy="-109.1147" r="4" fill="black"/><circle cx="61.1390" cy="-102.0437" r="4" fill="black"/><circle cx="55.3696" cy="-113.2432" r="4" fill="black"/><circle cx="93.5223" cy="-122.6322" r="4" fill="black"/><circle cx="72.4026" cy="-105.3006" r="4" fill="black"/><circle cx="77.4026" cy="-96.6403" r="4" fill="black"/><circle cx="52.0565" cy="-121.2417" r="4" fill="black"/><circle cx="61.4534" cy="-117.8215" r="4" fill="black"/><circle cx="51.4915" cy="-125.5335" r="4" fill="black"/><circle cx="82.1016" cy="-150.1669" r="4" fill="black"/><circle cx="70.2853" cy="-125.5335" r="4" fill="black"/><circle cx="97.8745" cy="-188.9666" r="4" fill="black"/><circle cx="107.8365" cy="-189.8381" r="4" fill="black"/><circle cx="95.5487" cy="-192.6174" r="4" fill="black"/><circle cx="112.8803" cy="-227.8793" r="4" fill="black"/><circle cx="112.5817" cy="-200.5601" r="4" fill="black"/><circle cx="85.4725" cy="-124.7707" r="4" fill="black"/><circle cx="90.4725" cy="-116.1104" r="4" fill="black"/><circle cx="87.7984" cy="-128.4215" r="4" fill="black"/><circle cx="127.0812" cy="-127.6160" r="4" fill="black"/><circle cx="102.1953" cy="-116.3411" r="4" fill="black"/><circle cx="104.7835" cy="-106.6818" r="4" fill="black"/><circle cx="36.6977" cy="-129.2370" r="4" fill="black"/><circle cx="46.0947" cy="-125.8168" r="4" fill="black"/><circle cx="36.1327" cy="-133.5288" r="4" fill="black"/><circle cx="66.7429" cy="-158.1622" r="4" fill="black"/><circle cx="54.9266" cy="-133.5288" r="4" fill="black"/><circle cx="63.1181" cy="-127.7930" r="4" fill="black"/><circle cx="29.7497" cy="-139.3777" r="4" fill="black"/><circle cx="39.7116" cy="-140.2493" r="4" fill="black"/><circle cx="27.4238" cy="-143.0286" r="4" fill="black"/><circle cx="44.7555" cy="-178.2905" r="4" fill="black"/><circle cx="44.4568" cy="-150.9712" r="4" fill="black"/><circle cx="42.6532" cy="-220.1208" r="4" fill="black"/><circle cx="51.3134" cy="-225.1208" r="4" fill="black"/><circle cx="39.0023" cy="-222.4467" r="4" fill="black"/><circle cx="39.8078" cy="-261.7294" r="4" fill="black"/><circle cx="51.0828" cy="-236.8436" r="4" fill="black"/><circle cx="58.5435" cy="-156.6983" r="4" fill="black"/><circle cx="66.7351" cy="-150.9625" r="4" fill="black"/><circle cx="59.1086" cy="-160.9900" r="4" fill="black"/><circle cx="95.0513" cy="-176.8616" r="4" fill="black"/><circle cx="77.2620" cy="-156.1258" r="4" fill="black"/><circle cx="19.2647" cy="-296.1917" r="4" fill="black"/><circle cx="29.2266" cy="-297.0633" r="4" fill="black"/><circle cx="16.9388" cy="-299.8426" r="4" fill="black"/><circle cx="34.2705" cy="-335.1044" r="4" fill="black"/><circle cx="33.9718" cy="-307.7852" r="4" fill="black"/><circle cx="43.8199" cy="-306.0487" r="4" fill="black"/><circle cx="8.6819" cy="-302.4460" r="4" fill="black"/><circle cx="17.3422" cy="-307.4460" r="4" fill="black"/><circle cx="5.0311" cy="-304.7718" r="4" fill="black"/><circle cx="5.8366" cy="-344.0546" r="4" fill="black"/><circle cx="17.1115" cy="-319.1687" r="4" fill="black"/><circle cx="-13.7470" cy="-381.0773" r="4" fill="black"/><circle cx="-8.0113" cy="-389.2688" r="4" fill="black"/><circle cx="-18.0388" cy="-381.6423" r="4" fill="black"/><circle cx="-33.9104" cy="-417.5850" r="4" fill="black"/><circle cx="-13.1746" cy="-399.7958" r="4" fill="black"/><circle cx="27.4581" cy="-330.3125" r="4" fill="black"/><circle cx="37.3061" cy="-328.5760" r="4" fill="black"/><circle cx="26.1564" cy="-334.4409" r="4" fill="black"/><circle cx="52.0239" cy="-364.0155" r="4" fill="black"/><circle cx="44.6647" cy="-337.7044" r="4" fill="black"/><circle cx="80.4666" cy="-171.4029" r="4" fill="black"/><circle cx="85.4666" cy="-162.7427" r="4" fill="black"/><circle cx="82.7924" cy="-175.0538" r="4" fill="black"/><circle cx="122.0752" cy="-174.2483" r="4" fill="black"/><circle cx="97.1894" cy="-162.9734" r="4" fill="black"/><circle cx="99.7775" cy="-153.3141" r="4" fill="black"/><circle cx="81.6624" cy="-183.6373" r="4" fill="black"/><circle cx="89.8539" cy="-177.9016" r="4" fill="black"/><circle cx="82.2274" cy="-187.9291" r="4" fill="black"/><circle cx="118.1701" cy="-203.8006" r="4" fill="black"/><circle cx="100.3809" cy="-183.0649" r="4" fill="black"/><circle cx="143.4477" cy="-237.1959" r="4" fill="black"/><circle cx="153.2957" cy="-235.4594" r="4" fill="black"/><circle cx="142.1460" cy="-241.3243" r="4" fill="black"/><circle cx="168.0135" cy="-270.8989" r="4" fill="black"/><circle cx="160.6543" cy="-244.5879" r="4" fill="black"/><circle cx="114.8532" cy="-178.3973" r="4" fill="black"/><circle cx="117.4414" cy="-168.7380" r="4" fill="black"/><circle cx="118.0447" cy="-181.3218" r="4" fill="black"/><circle cx="155.7804" cy="-170.3766" r="4" fill="black"/><circle cx="128.8244" cy="-165.9267" r="4" fill="black"/></svg>