<svg viewBox="-27.7179970294264 -275.63107702953744 332.61596435311674 300.68844766858626" xmlns="http://www.w3.org/2000/svg"><path d="M 0.0 0.0 L 6.123233995736766E-16 -10.0 M 6.123233995736766E-16 -10.0 L 1.2246467991473533E-15 -20.0 M 1.2246467991473533E-15 -20.0 L 1.83697019872103E-15 -30.0 M 1.83697019872103E-15 -30.0 L 2.4492935982947065E-15 -40.0 M 2.4492935982947065E-15 -40.0 L 3.061616997868383E-15 -50.0 M 3.061616997868383E-15 -50.0 L 3.67394039744206E-15 -60.0 M 3.67394039744206E-15 -60.0 L 4.2862637970157365E-15 -70.0 M 4.2862637970157365E-15 -70.0 L 4.898587196589413E-15 -80.0 M 4.898587196589413E-15 -80.0 L 6.427876096865399 -87.66044443118977 M 6.427876096865399 -87.66044443118977 L 12.855752193730792 -95.32088886237955 M 12.855752193730792 -95.32088886237955 L 19.283628290596184 -102.98133329356932 M 19.283628290596184 -102.98133329356932 L 25.711504387461577 -110.6417777247591 M 25.711504387461577 -110.6417777247591 L 35.55958191758366 -112.3782595014284 M 35.55958191758366 -112.3782595014284 L 45.40765944770574 -114.11474127809771 M 45.40765944770574 -114.11474127809771 L 54.06791348555013 -109.11474127809771 M 54.06791348555013 -109.11474127809771 L 57.488114918806815 -99.71781507023863 M 57.488114918806815 -99.71781507023863 L 60.9083163520635 -90.32088886237955 M 45.40765944770574 -114.11474127809771 L 54.06791348555013 -109.11474127809771 M 54.06791348555013 -109.11474127809771 L 57.488114918806815 -99.71781507023863 M 57.488114918806815 -99.71781507023863 L 60.9083163520635 -90.32088886237955 M 45.40765944770574 -114.11474127809771 L 54.06791348555013 -109.11474127809771 M 54.06791348555013 -109.11474127809771 L 62.72816752339452 -104.11474127809771 M 62.72816752339452 -104.11474127809771 L 71.3884215612389 -99.11474127809771 M 71.3884215612389 -99.11474127809771 L 80.04867559908328 -94.11474127809771 M 80.04867559908328 -94.11474127809771 L 88.70892963692766 -89.11474127809771 M 88.70892963692766 -89.11474127809771 L 92.12913107018436 -79.71781507023863 M 92.12913107018436 -79.71781507023863 L 95.54933250344105 -70.32088886237955 M 62.72816752339452 -104.11474127809771 L 66.14836895665121 -94.71781507023863 M 66.14836895665121 -94.71781507023863 L 62.728167523394525 -85.32088886237955 M 62.728167523394525 -85.32088886237955 L 59.30796609013784 -75.92396265452047 M 25.711504387461577 -110.6417777247591 L 35.55958191758366 -112.3782595014284 M 35.55958191758366 -112.3782595014284 L 45.40765944770574 -114.11474127809771 M 45.40765944770574 -114.11474127809771 L 54.06791348555013 -109.11474127809771 M 54.06791348555013 -109.11474127809771 L 57.488114918806815 -99.71781507023863 M 57.488114918806815 -99.71781507023863 L 60.9083163520635 -90.32088886237955 M 45.40765944770574 -114.11474127809771 L 54.06791348555013 -109.11474127809771 M 54.06791348555013 -109.11474127809771 L 57.488114918806815 -99.71781507023863 M 57.488114918806815 -99.71781507023863 L 60.9083163520635 -90.32088886237955 M 45.40765944770574 -114.11474127809771 L 54.06791348555013 -109.11474127809771 M 54.06791348555013 -109.11474127809771 L 62.72816752339452 -104.11474127809771 M 62.72816752339452 -104.11474127809771 L 71.3884215612389 -99.11474127809771 M 71.3884215612389 -99.11474127809771 L 80.04867559908328 -94.11474127809771 M 80.04867559908328 -94.11474127809771 L 88.70892963692766 -89.11474127809771 M 88.70892963692766 -89.11474127809771 L 92.12913107018436 -79.71781507023863 M 92.12913107018436 -79.71781507023863 L 95.54933250344105 -70.32088886237955 M 62.72816752339452 -104.11474127809771 L 66.14836895665121 -94.71781507023863 M 66.14836895665121 -94.71781507023863 L 62.728167523394525 -85.32088886237955 M 62.728167523394525 -85.32088886237955 L 59.30796609013784 -75.92396265452047 M 25.711504387461577 -110.6417777247591 L 35.55958191758366 -112.3782595014284 M 35.55958191758366 -112.3782595014284 L 45.40765944770574 -114.11474127809771 M 45.40765944770574 -114.11474127809771 L 55.25573697782782 -115.85122305476702 M 55.25573697782782 -115.85122305476702 L 65.1038145079499 -117.58770483143633 M 65.1038145079499 -117.58770483143633 L 74.95189203807199 -119.32418660810563 M 74.95189203807199 -119.32418660810563 L 84.79996956819407 -121.06066838477494 M 84.79996956819407 -121.06066838477494 L 94.64804709831616 -122.79715016144425 M 94.64804709831616 -122.79715016144425 L 104.49612462843824 -124.53363193811356 M 104.49612462843824 -124.53363193811356 L 114.34420215856032 -126.27011371478287 M 114.34420215856032 -126.27011371478287 L 124.1922796886824 -128.00659549145217 M 124.1922796886824 -128.00659549145217 L 132.8525337265268 -123.00659549145217 M 132.8525337265268 -123.00659549145217 L 136.27273515978348 -113.60966928359309 M 136.27273515978348 -113.60966928359309 L 139.69293659304017 -104.21274307573401 M 124.1922796886824 -128.00659549145217 L 132.8525337265268 -123.00659549145217 M 132.8525337265268 -123.00659549145217 L 136.27273515978348 -113.60966928359309 M 136.27273515978348 -113.60966928359309 L 139.69293659304017 -104.21274307573401 M 124.1922796886824 -128.00659549145217 L 132.8525337265268 -123.00659549145217 M 132.8525337265268 -123.00659549145217 L 141.51278776437118 -118.00659549145217 M 141.51278776437118 -118.00659549145217 L 150.17304180221558 -113.00659549145217 M 150.17304180221558 -113.00659549145217 L 158.83329584005998 -108.00659549145217 M 158.83329584005998 -108.00659549145217 L 167.49354987790437 -103.00659549145217 M 167.49354987790437 -103.00659549145217 L 170.91375131116106 -93.60966928359309 M 170.91375131116106 -93.60966928359309 L 174.33395274441776 -84.21274307573401 M 141.51278776437118 -118.00659549145217 L 144.93298919762788 -108.60966928359309 M 144.93298919762788 -108.60966928359309 L 141.51278776437118 -99.21274307573401 M 141.51278776437118 -99.21274307573401 L 138.0925863311145 -89.81581686787493 M 65.1038145079499 -117.58770483143633 L 73.76406854579429 -112.58770483143633 M 73.76406854579429 -112.58770483143633 L 82.42432258363867 -107.58770483143633 M 82.42432258363867 -107.58770483143633 L 85.84452401689536 -98.19077862357724 M 85.84452401689536 -98.19077862357724 L 82.42432258363867 -88.79385241571816 M 82.42432258363867 -88.79385241571816 L 79.00412115038198 -79.39692620785908 M 82.42432258363867 -107.58770483143633 L 85.84452401689536 -98.19077862357724 M 85.84452401689536 -98.19077862357724 L 82.42432258363867 -88.79385241571816 M 82.42432258363867 -88.79385241571816 L 79.00412115038198 -79.39692620785908 M 82.42432258363867 -107.58770483143633 L 85.84452401689536 -98.19077862357724 M 85.84452401689536 -98.19077862357724 L 89.26472545015206 -88.79385241571816 M 89.26472545015206 -88.79385241571816 L 92.68492688340875 -79.39692620785908 M 92.68492688340875 -79.39692620785908 L 96.10512831666544 -70.0 M 96.10512831666544 -70.0 L 99.52532974992214 -60.60307379214092 M 99.52532974992214 -60.60307379214092 L 96.10512831666544 -51.20614758428184 M 96.10512831666544 -51.20614758428184 L 92.68492688340875 -41.809221376422755 M 89.26472545015206 -88.79385241571816 L 85.84452401689536 -79.39692620785908 M 85.84452401689536 -79.39692620785908 L 77.18426997905098 -74.39692620785908 M 77.18426997905098 -74.39692620785908 L 68.5240159412066 -69.39692620785908 M 4.898587196589413E-15 -80.0 L 6.427876096865399 -87.66044443118977 M 6.427876096865399 -87.66044443118977 L 12.855752193730792 -95.32088886237955 M 12.855752193730792 -95.32088886237955 L 19.283628290596184 -102.98133329356932 M 19.283628290596184 -102.98133329356932 L 25.711504387461577 -110.6417777247591 M 25.711504387461577 -110.6417777247591 L 35.55958191758366 -112.3782595014284 M 35.55958191758366 -112.3782595014284 L 45.40765944770574 -114.11474127809771 M 45.40765944770574 -114.11474127809771 L 54.06791348555013 -109.11474127809771 M 54.06791348555013 -109.11474127809771 L 57.488114918806815 -99.71781507023863 M 57.488114918806815 -99.71781507023863 L 60.9083163520635 -90.32088886237955 M 45.40765944770574 -114.11474127809771 L 54.06791348555013 -109.11474127809771 M 54.06791348555013 -109.11474127809771 L 57.488114918806815 -99.71781507023863 M 57.488114918806815 -99.71781507023863 L 60.9083163520635 -90.32088886237955 M 45.40765944770574 -114.11474127809771 L 54.06791348555013 -109.11474127809771 M 54.06791348555013 -109.11474127809771 L 62.72816752339452 -104.11474127809771 M 62.72816752339452 -104.11474127809771 L 71.3884215612389 -99.11474127809771 M 71.3884215612389 -99.11474127809771 L 80.04867559908328 -94.11474127809771 M 80.04867559908328 -94.11474127809771 L 88.70892963692766 -89.11474127809771 M 88.70892963692766 -89.11474127809771 L 92.12913107018436 -79.71781507023863 M 92.12913107018436 -79.71781507023863 L 95.54933250344105 -70.32088886237955 M 62.72816752339452 -104.11474127809771 L 66.14836895665121 -94.71781507023863 M 66.14836895665121 -94.71781507023863 L 62.728167523394525 -85.32088886237955 M 62.728167523394525 -85.32088886237955 L 59.30796609013784 -75.92396265452047 M 25.711504387461577 -110.6417777247591 L 35.55958191758366 -112.3782595014284 M 35.55958191758366 -112.3782595014284 L 45.40765944770574 -114.11474127809771 M 45.40765944770574 -114.11474127809771 L 54.06791348555013 -109.11474127809771 M 54.06791348555013 -109.11474127809771 L 57.488114918806815 -99.71781507023863 M 57.488114918806815 -99.71781507023863 L 60.9083163520635 -90.32088886237955 M 45.40765944770574 -114.11474127809771 L 54.06791348555013 -109.11474127809771 M 54.06791348555013 -109.11474127809771 L 57.488114918806815 -99.71781507023863 M 57.488114918806815 -99.71781507023863 L 60.9083163520635 -90.32088886237955 M 45.40765944770574 -114.11474127809771 L 54.06791348555013 -109.11474127809771 M 54.06791348555013 -109.11474127809771 L 62.72816752339452 -104.11474127809771 M 62.72816752339452 -104.11474127809771 L 71.3884215612389 -99.11474127809771 M 71.3884215612389 -99.11474127809771 L 80.04867559908328 -94.11474127809771 M 80.04867559908328 -94.11474127809771 L 88.70892963692766 -89.11474127809771 M 88.70892963692766 -89.11474127809771 L 92.12913107018436 -79.71781507023863 M 92.12913107018436 -79.71781507023863 L 95.54933250344105 -70.32088886237955 M 62.72816752339452 -104.11474127809771 L 66.14836895665121 -94.71781507023863 M 66.14836895665121 -94.71781507023863 L 62.728167523394525 -85.32088886237955 M 62.728167523394525 -85.32088886237955 L 59.30796609013784 -75.92396265452047 M 25.711504387461577 -110.6417777247591 L 35.55958191758366 -112.3782595014284 M 35.55958191758366 -112.3782595014284 L 45.40765944770574 -114.11474127809771 M 45.40765944770574 -114.11474127809771 L 55.25573697782782 -115.85122305476702 M 55.25573697782782 -115.85122305476702 L 65.1038145079499 -117.58770483143633 M 65.1038145079499 -117.58770483143633 L 74.95189203807199 -119.32418660810563 M 74.95189203807199 -119.32418660810563 L 84.79996956819407 -121.06066838477494 M 84.79996956819407 -121.06066838477494 L 94.64804709831616 -122.79715016144425 M 94.64804709831616 -122.79715016144425 L 104.49612462843824 -124.53363193811356 M 104.49612462843824 -124.53363193811356 L 114.34420215856032 -126.27011371478287 M 114.34420215856032 -126.27011371478287 L 124.1922796886824 -128.00659549145217 M 124.1922796886824 -128.00659549145217 L 132.8525337265268 -123.00659549145217 M 132.8525337265268 -123.00659549145217 L 136.27273515978348 -113.60966928359309 M 136.27273515978348 -113.60966928359309 L 139.69293659304017 -104.21274307573401 M 124.1922796886824 -128.00659549145217 L 132.8525337265268 -123.00659549145217 M 132.8525337265268 -123.00659549145217 L 136.27273515978348 -113.60966928359309 M 136.27273515978348 -113.60966928359309 L 139.69293659304017 -104.21274307573401 M 124.1922796886824 -128.00659549145217 L 132.8525337265268 -123.00659549145217 M 132.8525337265268 -123.00659549145217 L 141.51278776437118 -118.00659549145217 M 141.51278776437118 -118.00659549145217 L 150.17304180221558 -113.00659549145217 M 150.17304180221558 -113.00659549145217 L 158.83329584005998 -108.00659549145217 M 158.83329584005998 -108.00659549145217 L 167.49354987790437 -103.00659549145217 M 167.49354987790437 -103.00659549145217 L 170.91375131116106 -93.60966928359309 M 170.91375131116106 -93.60966928359309 L 174.33395274441776 -84.21274307573401 M 141.51278776437118 -118.00659549145217 L 144.93298919762788 -108.60966928359309 M 144.93298919762788 -108.60966928359309 L 141.51278776437118 -99.21274307573401 M 141.51278776437118 -99.21274307573401 L 138.0925863311145 -89.81581686787493 M 65.1038145079499 -117.58770483143633 L 73.76406854579429 -112.58770483143633 M 73.76406854579429 -112.58770483143633 L 82.42432258363867 -107.58770483143633 M 82.42432258363867 -107.58770483143633 L 85.84452401689536 -98.19077862357724 M 85.84452401689536 -98.19077862357724 L 82.42432258363867 -88.79385241571816 M 82.42432258363867 -88.79385241571816 L 79.00412115038198 -79.39692620785908 M 82.42432258363867 -107.58770483143633 L 85.84452401689536 -98.19077862357724 M 85.84452401689536 -98.19077862357724 L 82.42432258363867 -88.79385241571816 M 82.42432258363867 -88.79385241571816 L 79.00412115038198 -79.39692620785908 M 82.42432258363867 -107.58770483143633 L 85.84452401689536 -98.19077862357724 M 85.84452401689536 -98.19077862357724 L 89.26472545015206 -88.79385241571816 M 89.26472545015206 -88.79385241571816 L 92.68492688340875 -79.39692620785908 M 92.68492688340875 -79.39692620785908 L 96.10512831666544 -70.0 M 96.10512831666544 -70.0 L 99.52532974992214 -60.60307379214092 M 99.52532974992214 -60.60307379214092 L 96.10512831666544 -51.20614758428184 M 96.10512831666544 -51.20614758428184 L 92.68492688340875 -41.809221376422755 M 89.26472545015206 -88.79385241571816 L 85.84452401689536 -79.39692620785908 M 85.84452401689536 -79.39692620785908 L 77.18426997905098 -74.39692620785908 M 77.18426997905098 -74.39692620785908 L 68.5240159412066 -69.39692620785908 M 4.898587196589413E-15 -80.0 L 6.427876096865399 -87.66044443118977 M 6.427876096865399 -87.66044443118977 L 12.855752193730792 -95.32088886237955 M 12.855752193730792 -95.32088886237955 L 19.283628290596184 -102.98133329356932 M 19.283628290596184 -102.98133329356932 L 25.711504387461577 -110.6417777247591 M 25.711504387461577 -110.6417777247591 L 32.13938048432697 -118.30222215594887 M 32.13938048432697 -118.30222215594887 L 38.56725658119237 -125.96266658713864 M 38.56725658119237 -125.96266658713864 L 44.99513267805776 -133.62311101832842 M 44.99513267805776 -133.62311101832842 L 51.42300877492315 -141.2835554495182 M 51.42300877492315 -141.2835554495182 L 57.85088487178854 -148.94399988070796 M 57.85088487178854 -148.94399988070796 L 64.27876096865393 -156.60444431189774 M 64.27876096865393 -156.60444431189774 L 70.70663706551932 -164.2648887430875 M 70.70663706551932 -164.2648887430875 L 77.1345131623847 -171.92533317427728 M 77.1345131623847 -171.92533317427728 L 83.5623892592501 -179.58577760546706 M 83.5623892592501 -179.58577760546706 L 89.99026535611549 -187.24622203665683 M 89.99026535611549 -187.24622203665683 L 96.41814145298088 -194.9066664678466 M 96.41814145298088 -194.9066664678466 L 102.84601754984627 -202.56711089903638 M 102.84601754984627 -202.56711089903638 L 109.27389364671166 -210.22755533022615 M 109.27389364671166 -210.22755533022615 L 115.70176974357705 -217.88799976141593 M 115.70176974357705 -217.88799976141593 L 122.12964584044244 -225.5484441926057 M 122.12964584044244 -225.5484441926057 L 128.55752193730783 -233.20888862379547 M 128.55752193730783 -233.20888862379547 L 138.4055994674299 -234.94537040046478 M 138.4055994674299 -234.94537040046478 L 148.253676997552 -236.6818521771341 M 148.253676997552 -236.6818521771341 L 156.9139310353964 -231.6818521771341 M 156.9139310353964 -231.6818521771341 L 160.33413246865308 -222.284925969275 M 160.33413246865308 -222.284925969275 L 163.75433390190977 -212.88799976141593 M 148.253676997552 -236.6818521771341 L 156.9139310353964 -231.6818521771341 M 156.9139310353964 -231.6818521771341 L 160.33413246865308 -222.284925969275 M 160.33413246865308 -222.284925969275 L 163.75433390190977 -212.88799976141593 M 148.253676997552 -236.6818521771341 L 156.9139310353964 -231.6818521771341 M 156.9139310353964 -231.6818521771341 L 165.57418507324078 -226.6818521771341 M 165.57418507324078 -226.6818521771341 L 174.23443911108518 -221.6818521771341 M 174.23443911108518 -221.6818521771341 L 182.89469314892958 -216.6818521771341 M 182.89469314892958 -216.6818521771341 L 191.55494718677397 -211.6818521771341 M 191.55494718677397 -211.6818521771341 L 194.97514862003067 -202.284925969275 M 194.97514862003067 -202.284925969275 L 198.39535005328736 -192.88799976141593 M 165.57418507324078 -226.6818521771341 L 168.99438650649748 -217.284925969275 M 168.99438650649748 -217.284925969275 L 165.57418507324078 -207.88799976141593 M 165.57418507324078 -207.88799976141593 L 162.1539836399841 -198.49107355355684 M 128.55752193730783 -233.20888862379547 L 138.4055994674299 -234.94537040046478 M 138.4055994674299 -234.94537040046478 L 148.253676997552 -236.6818521771341 M 148.253676997552 -236.6818521771341 L 156.9139310353964 -231.6818521771341 M 156.9139310353964 -231.6818521771341 L 160.33413246865308 -222.284925969275 M 160.33413246865308 -222.284925969275 L 163.75433390190977 -212.88799976141593 M 148.253676997552 -236.6818521771341 L 156.9139310353964 -231.6818521771341 M 156.9139310353964 -231.6818521771341 L 160.33413246865308 -222.284925969275 M 160.33413246865308 -222.284925969275 L 163.75433390190977 -212.88799976141593 M 148.253676997552 -236.6818521771341 L 156.9139310353964 -231.6818521771341 M 156.9139310353964 -231.6818521771341 L 165.57418507324078 -226.6818521771341 M 165.57418507324078 -226.6818521771341 L 174.23443911108518 -221.6818521771341 M 174.23443911108518 -221.6818521771341 L 182.89469314892958 -216.6818521771341 M 182.89469314892958 -216.6818521771341 L 191.55494718677397 -211.6818521771341 M 191.55494718677397 -211.6818521771341 L 194.97514862003067 -202.284925969275 M 194.97514862003067 -202.284925969275 L 198.39535005328736 -192.88799976141593 M 165.57418507324078 -226.6818521771341 L 168.99438650649748 -217.284925969275 M 168.99438650649748 -217.284925969275 L 165.57418507324078 -207.88799976141593 M 165.57418507324078 -207.88799976141593 L 162.1539836399841 -198.49107355355684 M 128.55752193730783 -233.20888862379547 L 138.4055994674299 -234.94537040046478 M 138.4055994674299 -234.94537040046478 L 148.253676997552 -236.6818521771341 M 148.253676997552 -236.6818521771341 L 158.10175452767407 -238.4183339538034 M 158.10175452767407 -238.4183339538034 L 167.94983205779616 -240.1548157304727 M 167.94983205779616 -240.1548157304727 L 177.79790958791824 -241.891297507142 M 177.79790958791824 -241.891297507142 L 187.64598711804032 -243.62777928381132 M 187.64598711804032 -243.62777928381132 L 197.4940646481624 -245.36426106048063 M 197.4940646481624 -245.36426106048063 L 207.3421421782845 -247.10074283714994 M 207.3421421782845 -247.10074283714994 L 217.19021970840657 -248.83722461381925 M 217.19021970840657 -248.83722461381925 L 227.03829723852866 -250.57370639048855 M 227.03829723852866 -250.57370639048855 L 235.69855127637305 -245.57370639048855 M 235.69855127637305 -245.57370639048855 L 239.11875270962975 -236.17678018262947 M 239.11875270962975 -236.17678018262947 L 242.53895414288644 -226.7798539747704 M 227.03829723852866 -250.57370639048855 L 235.69855127637305 -245.57370639048855 M 235.69855127637305 -245.57370639048855 L 239.11875270962975 -236.17678018262947 M 239.11875270962975 -236.17678018262947 L 242.53895414288644 -226.7798539747704 M 227.03829723852866 -250.57370639048855 L 235.69855127637305 -245.57370639048855 M 235.69855127637305 -245.57370639048855 L 244.35880531421745 -240.57370639048855 M 244.35880531421745 -240.57370639048855 L 253.01905935206184 -235.57370639048855 M 253.01905935206184 -235.57370639048855 L 261.6793133899062 -230.57370639048855 M 261.6793133899062 -230.57370639048855 L 270.3395674277506 -225.57370639048855 M 270.3395674277506 -225.57370639048855 L 273.7597688610073 -216.17678018262947 M 273.7597688610073 -216.17678018262947 L 277.17997029426397 -206.7798539747704 M 244.35880531421745 -240.57370639048855 L 247.77900674747414 -231.17678018262947 M 247.77900674747414 -231.17678018262947 L 244.35880531421745 -221.7798539747704 M 244.35880531421745 -221.7798539747704 L 240.93860388096076 -212.3829277669113 M 167.94983205779616 -240.1548157304727 L 176.61008609564055 -235.1548157304727 M 176.61008609564055 -235.1548157304727 L 185.27034013348495 -230.1548157304727 M 185.27034013348495 -230.1548157304727 L 188.69054156674164 -220.75788952261362 M 188.69054156674164 -220.75788952261362 L 185.27034013348495 -211.36096331475454 M 185.27034013348495 -211.36096331475454 L 181.85013870022826 -201.96403710689546 M 185.27034013348495 -230.1548157304727 L 188.69054156674164 -220.75788952261362 M 188.69054156674164 -220.75788952261362 L 185.27034013348495 -211.36096331475454 M 185.27034013348495 -211.36096331475454 L 181.85013870022826 -201.96403710689546 M 185.27034013348495 -230.1548157304727 L 188.69054156674164 -220.75788952261362 M 188.69054156674164 -220.75788952261362 L 192.11074299999834 -211.36096331475454 M 192.11074299999834 -211.36096331475454 L 195.53094443325503 -201.96403710689546 M 195.53094443325503 -201.96403710689546 L 198.95114586651172 -192.56711089903638 M 198.95114586651172 -192.56711089903638 L 202.37134729976842 -183.1701846911773 M 202.37134729976842 -183.1701846911773 L 198.95114586651172 -173.77325848331822 M 198.95114586651172 -173.77325848331822 L 195.53094443325503 -164.37633227545913 M 192.11074299999834 -211.36096331475454 L 188.69054156674164 -201.96403710689546 M 188.69054156674164 -201.96403710689546 L 180.03028752889725 -196.96403710689546 M 180.03028752889725 -196.96403710689546 L 171.37003349105285 -191.96403710689546 M 51.42300877492315 -141.2835554495182 L 61.27108630504523 -143.0200372261875 M 61.27108630504523 -143.0200372261875 L 71.11916383516731 -144.7565190028568 M 71.11916383516731 -144.7565190028568 L 80.9672413652894 -146.4930007795261 M 80.9672413652894 -146.4930007795261 L 90.81531889541148 -148.22948255619542 M 90.81531889541148 -148.22948255619542 L 99.47557293325586 -143.22948255619542 M 99.47557293325586 -143.22948255619542 L 108.13582697110024 -138.22948255619542 M 108.13582697110024 -138.22948255619542 L 111.55602840435694 -128.83255634833634 M 111.55602840435694 -128.83255634833634 L 108.13582697110024 -119.43563014047726 M 108.13582697110024 -119.43563014047726 L 104.71562553784355 -110.03870393261818 M 108.13582697110024 -138.22948255619542 L 111.55602840435694 -128.83255634833634 M 111.55602840435694 -128.83255634833634 L 108.13582697110024 -119.43563014047726 M 108.13582697110024 -119.43563014047726 L 104.71562553784355 -110.03870393261818 M 108.13582697110024 -138.22948255619542 L 111.55602840435694 -128.83255634833634 M 111.55602840435694 -128.83255634833634 L 114.97622983761363 -119.43563014047726 M 114.97622983761363 -119.43563014047726 L 118.39643127087032 -110.03870393261818 M 118.39643127087032 -110.03870393261818 L 121.81663270412702 -100.6417777247591 M 121.81663270412702 -100.6417777247591 L 125.23683413738371 -91.24485151690001 M 125.23683413738371 -91.24485151690001 L 121.81663270412702 -81.84792530904093 M 121.81663270412702 -81.84792530904093 L 118.39643127087032 -72.45099910118185 M 114.97622983761363 -119.43563014047726 L 111.55602840435694 -110.03870393261818 M 111.55602840435694 -110.03870393261818 L 102.89577436651255 -105.03870393261818 M 102.89577436651255 -105.03870393261818 L 94.23552032866817 -100.03870393261818 M 90.81531889541148 -148.22948255619542 L 99.47557293325586 -143.22948255619542 M 99.47557293325586 -143.22948255619542 L 108.13582697110024 -138.22948255619542 M 108.13582697110024 -138.22948255619542 L 111.55602840435694 -128.83255634833634 M 111.55602840435694 -128.83255634833634 L 108.13582697110024 -119.43563014047726 M 108.13582697110024 -119.43563014047726 L 104.71562553784355 -110.03870393261818 M 108.13582697110024 -138.22948255619542 L 111.55602840435694 -128.83255634833634 M 111.55602840435694 -128.83255634833634 L 108.13582697110024 -119.43563014047726 M 108.13582697110024 -119.43563014047726 L 104.71562553784355 -110.03870393261818 M 108.13582697110024 -138.22948255619542 L 111.55602840435694 -128.83255634833634 M 111.55602840435694 -128.83255634833634 L 114.97622983761363 -119.43563014047726 M 114.97622983761363 -119.43563014047726 L 118.39643127087032 -110.03870393261818 M 118.39643127087032 -110.03870393261818 L 121.81663270412702 -100.6417777247591 M 121.81663270412702 -100.6417777247591 L 125.23683413738371 -91.24485151690001 M 125.23683413738371 -91.24485151690001 L 121.81663270412702 -81.84792530904093 M 121.81663270412702 -81.84792530904093 L 118.39643127087032 -72.45099910118185 M 114.97622983761363 -119.43563014047726 L 111.55602840435694 -110.03870393261818 M 111.55602840435694 -110.03870393261818 L 102.89577436651255 -105.03870393261818 M 102.89577436651255 -105.03870393261818 L 94.23552032866817 -100.03870393261818 M 90.81531889541148 -148.22948255619542 L 99.47557293325586 -143.22948255619542 M 99.47557293325586 -143.22948255619542 L 108.13582697110024 -138.22948255619542 M 108.13582697110024 -138.22948255619542 L 116.79608100894463 -133.22948255619542 M 116.79608100894463 -133.22948255619542 L 125.45633504678901 -128.22948255619542 M 125.45633504678901 -128.22948255619542 L 134.1165890846334 -123.22948255619542 M 134.1165890846334 -123.22948255619542 L 142.7768431224778 -118.22948255619542 M 142.7768431224778 -118.22948255619542 L 151.4370971603222 -113.22948255619542 M 151.4370971603222 -113.22948255619542 L 160.0973511981666 -108.22948255619542 M 160.0973511981666 -108.22948255619542 L 168.757605236011 -103.22948255619542 M 168.757605236011 -103.22948255619542 L 177.41785927385538 -98.22948255619542 M 177.41785927385538 -98.22948255619542 L 180.83806070711208 -88.83255634833634 M 180.83806070711208 -88.83255634833634 L 177.41785927385538 -79.43563014047726 M 177.41785927385538 -79.43563014047726 L 173.9976578405987 -70.03870393261818 M 177.41785927385538 -98.22948255619542 L 180.83806070711208 -88.83255634833634 M 180.83806070711208 -88.83255634833634 L 177.41785927385538 -79.43563014047726 M 177.41785927385538 -79.43563014047726 L 173.9976578405987 -70.03870393261818 M 177.41785927385538 -98.22948255619542 L 180.83806070711208 -88.83255634833634 M 180.83806070711208 -88.83255634833634 L 184.25826214036877 -79.43563014047726 M 184.25826214036877 -79.43563014047726 L 187.67846357362546 -70.03870393261818 M 187.67846357362546 -70.03870393261818 L 191.09866500688216 -60.641777724759095 M 191.09866500688216 -60.641777724759095 L 194.51886644013885 -51.24485151690001 M 194.51886644013885 -51.24485151690001 L 191.09866500688216 -41.84792530904093 M 191.09866500688216 -41.84792530904093 L 187.67846357362546 -32.45099910118185 M 184.25826214036877 -79.43563014047726 L 180.83806070711208 -70.03870393261818 M 180.83806070711208 -70.03870393261818 L 172.17780666926768 -65.03870393261818 M 172.17780666926768 -65.03870393261818 L 163.51755263142329 -60.038703932618176 M 125.45633504678901 -128.22948255619542 L 128.8765364800457 -118.83255634833634 M 128.8765364800457 -118.83255634833634 L 132.2967379133024 -109.43563014047726 M 132.2967379133024 -109.43563014047726 L 128.8765364800457 -100.03870393261818 M 128.8765364800457 -100.03870393261818 L 120.21628244220132 -95.03870393261818 M 120.21628244220132 -95.03870393261818 L 111.55602840435694 -90.03870393261818 M 132.2967379133024 -109.43563014047726 L 128.8765364800457 -100.03870393261818 M 128.8765364800457 -100.03870393261818 L 120.21628244220132 -95.03870393261818 M 120.21628244220132 -95.03870393261818 L 111.55602840435694 -90.03870393261818 M 132.2967379133024 -109.43563014047726 L 128.8765364800457 -100.03870393261818 M 128.8765364800457 -100.03870393261818 L 125.45633504678901 -90.6417777247591 M 125.45633504678901 -90.6417777247591 L 122.03613361353231 -81.24485151690001 M 122.03613361353231 -81.24485151690001 L 118.61593218027562 -71.84792530904093 M 118.61593218027562 -71.84792530904093 L 115.19573074701893 -62.45099910118185 M 115.19573074701893 -62.45099910118185 L 106.53547670917455 -57.45099910118185 M 106.53547670917455 -57.45099910118185 L 97.87522267133016 -52.45099910118185 M 125.45633504678901 -90.6417777247591 L 116.79608100894463 -85.6417777247591 M 116.79608100894463 -85.6417777247591 L 106.94800347882254 -87.3782595014284 M 106.94800347882254 -87.3782595014284 L 97.09992594870046 -89.11474127809771 " fill="none" stroke="black" stroke-width="1" stroke-linecap="round"/><circle cx="54.0679" cy="-109.1147" r="4" fill="black"/><circle cx="57.4881" cy="-99.7178" r="4" fill="black"/><circle cx="54.0679" cy="-109.1147" r="4" fill="black"/><circle cx="88.7089" cy="-89.1147" r="4" fill="black"/><circle cx="66.1484" cy="-94.7178" r="4" fill="black"/><circle cx="62.7282" cy="-85.3209" r="4" fill="black"/><circle cx="54.0679" cy="-109.1147" r="4" fill="black"/><circle cx="57.4881" cy="-99.7178" r="4" fill="black"/><circle cx="54.0679" cy="-109.1147" r="4" fill="black"/><circle cx="88.7089" cy="-89.1147" r="4" fill="black"/><circle cx="66.1484" cy="-94.7178" r="4" fill="black"/><circle cx="132.8525" cy="-123.0066" r="4" fill="black"/><circle cx="136.2727" cy="-113.6097" r="4" fill="black"/><circle cx="132.8525" cy="-123.0066" r="4" fill="black"/><circle cx="167.4935" cy="-103.0066" r="4" fill="black"/><circle cx="144.9330" cy="-108.6097" r="4" fill="black"/><circle cx="85.8445" cy="-98.1908" r="4" fill="black"/><circle cx="82.4243" cy="-88.7939" r="4" fill="black"/><circle cx="85.8445" cy="-98.1908" r="4" fill="black"/><circle cx="99.5253" cy="-60.6031" r="4" fill="black"/><circle cx="85.8445" cy="-79.3969" r="4" fill="black"/><circle cx="77.1843" cy="-74.3969" r="4" fill="black"/><circle cx="54.0679" cy="-109.1147" r="4" fill="black"/><circle cx="57.4881" cy="-99.7178" r="4" fill="black"/><circle cx="54.0679" cy="-109.1147" r="4" fill="black"/><circle cx="88.7089" cy="-89.1147" r="4" fill="black"/><circle cx="66.1484" cy="-94.7178" r="4" fill="black"/><circle cx="62.7282" cy="-85.3209" r="4" fill="black"/><circle cx="54.0679" cy="-109.1147" r="4" fill="black"/><circle cx="57.4881" cy="-99.7178" r="4" fill="black"/><circle cx="54.0679" cy="-109.1147" r="4" fill="black"/><circle cx="88.7089" cy="-89.1147" r="4" fill="black"/><circle cx="66.1484" cy="-94.7178" r="4" fill="black"/><circle cx="132.8525" cy="-123.0066" r="4" fill="black"/><circle cx="136.2727" cy="-113.6097" r="4" fill="black"/><circle cx="132.8525" cy="-123.0066" r="4" fill="black"/><circle cx="167.4935" cy="-103.0066" r="4" fill="black"/><circle cx="144.9330" cy="-108.6097" r="4" fill="black"/><circle cx="85.8445" cy="-98.1908" r="4" fill="black"/><circle cx="82.4243" cy="-88.7939" r="4" fill="black"/><circle cx="85.8445" cy="-98.1908" r="4" fill="black"/><circle cx="99.5253" cy="-60.6031" r="4" fill="black"/><circle cx="85.8445" cy="-79.3969" r="4" fill="black"/><circle cx="156.9139" cy="-231.6819" r="4" fill="black"/><circle cx="160.3341" cy="-222.2849" r="4" fill="black"/><circle cx="156.9139" cy="-231.6819" r="4" fill="black"/><circle cx="191.5549" cy="-211.6819" r="4" fill="black"/><circle cx="168.9944" cy="-217.2849" r="4" fill="black"/><circle cx="165.5742" cy="-207.8880" r="4" fill="black"/><circle cx="156.9139" cy="-231.6819" r="4" fill="black"/><circle cx="160.3341" cy="-222.2849" r="4" fill="black"/><circle cx="156.9139" cy="-231.6819" r="4" fill="black"/><circle cx="191.5549" cy="-211.6819" r="4" fill="black"/><circle cx="168.9944" cy="-217.2849" r="4" fill="black"/><circle cx="235.6986" cy="-245.5737" r="4" fill="black"/><circle cx="239.1188" cy="-236.1768" r="4" fill="black"/><circle cx="235.6986" cy="-245.5737" r="4" fill="black"/><circle cx="270.3396" cy="-225.5737" r="4" fill="black"/><circle cx="247.7790" cy="-231.1768" r="4" fill="black"/><circle cx="188.6905" cy="-220.7579" r="4" fill="black"/><circle cx="185.2703" cy="-211.3610" r="4" fill="black"/><circle cx="188.6905" cy="-220.7579" r="4" fill="black"/><circle cx="202.3713" cy="-183.1702" r="4" fill="black"/><circle cx="188.6905" cy="-201.9640" r="4" fill="black"/><circle cx="111.5560" cy="-128.8326" r="4" fill="black"/><circle cx="108.1358" cy="-119.4356" r="4" fill="black"/><circle cx="111.5560" cy="-128.8326" r="4" fill="black"/><circle cx="125.2368" cy="-91.2449" r="4" fill="black"/><circle cx="111.5560" cy="-110.0387" r="4" fill="black"/><circle cx="102.8958" cy="-105.0387" r="4" fill="black"/><circle cx="111.5560" cy="-128.8326" r="4" fill="black"/><circle cx="108.1358" cy="-119.4356" r="4" fill="black"/><circle cx="111.5560" cy="-128.8326" r="4" fill="black"/><circle cx="125.2368" cy="-91.2449" r="4" fill="black"/><circle cx="111.5560" cy="-110.0387" r="4" fill="black"/><circle cx="180.8381" cy="-88.8326" r="4" fill="black"/><circle cx="177.4179" cy="-79.4356" r="4" fill="black"/><circle cx="180.8381" cy="-88.8326" r="4" fill="black"/><circle cx="194.5189" cy="-51.2449" r="4" fill="black"/><circle cx="180.8381" cy="-70.0387" r="4" fill="black"/><circle cx="128.8765" cy="-100.0387" r="4" fill="black"/><circle cx="120.2163" cy="-95.0387" r="4" fill="black"/><circle cx="128.8765" cy="-100.0387" r="4" fill="black"/><circle cx="115.1957" cy="-62.4510" r="4" fill="black"/><circle cx="116.7961" cy="-85.6418" r="4" fill="black"/></svg>