<svg viewBox="-65.20907433445902 -478.39517044534966 267.391875961818 521.885640485836" xmlns="http://www.w3.org/2000/svg"><path d="M 0.0 0.0 L 6.123233995736766E-16 -10.0 M 6.123233995736766E-16 -10.0 L 1.2246467991473533E-15 -20.0 M 1.2246467991473533E-15 -20.0 L 1.83697019872103E-15 -30.0 M 1.83697019872103E-15 -30.0 L 2.4492935982947065E-15 -40.0 M 2.4492935982947065E-15 -40.0 L 3.061616997868383E-15 -50.0 M 3.061616997868383E-15 -50.0 L 3.67394039744206E-15 -60.0 M 3.67394039744206E-15 -60.0 L 4.2862637970157365E-15 -70.0 M 4.2862637970157365E-15 -70.0 L 4.898587196589413E-15 -80.0 M 4.898587196589413E-15 -80.0 L 6.427876096865399 -87.66044443118977 M 6.427876096865399 -87.66044443118977 L 12.855752193730792 -95.32088886237955 M 12.855752193730792 -95.32088886237955 L 19.283628290596184 -102.98133329356932 M 19.283628290596184 -102.98133329356932 L 25.711504387461577 -110.6417777247591 M 25.711504387461577 -110.6417777247591 L 35.55958191758366 -112.3782595014284 M 35.55958191758366 -112.3782595014284 L 45.40765944770574 -114.11474127809771 M 45.40765944770574 -114.11474127809771 L 54.06791348555013 -109.11474127809771 M 54.06791348555013 -109.11474127809771 L 61.138981297415604 -102.04367346623224 M 61.138981297415604 -102.04367346623224 L 70.5359075052747 -98.62347203297554 M 45.40765944770574 -114.11474127809771 L 55.36960642862319 -113.24318385062112 M 55.36960642862319 -113.24318385062112 L 64.76653263648228 -109.82298241736443 M 64.76653263648228 -109.82298241736443 L 74.72847961739974 -110.69453984484102 M 45.40765944770574 -114.11474127809771 L 55.36960642862319 -113.24318385062112 M 55.36960642862319 -113.24318385062112 L 65.33155340954065 -112.37162642314453 M 65.33155340954065 -112.37162642314453 L 74.72847961739973 -115.79182785640123 M 74.72847961739973 -115.79182785640123 L 84.12540582525881 -119.21202928965792 M 84.12540582525881 -119.21202928965792 L 93.52233203311789 -122.63223072291461 M 93.52233203311789 -122.63223072291461 L 103.48427901403535 -123.5037881503912 M 103.48427901403535 -123.5037881503912 L 112.14453305187973 -128.5037881503912 M 65.33155340954065 -112.37162642314453 L 72.40262122140612 -105.30055861127906 M 72.40262122140612 -105.30055861127906 L 77.40262122140612 -96.64030457343468 M 77.40262122140612 -96.64030457343468 L 85.59414166429605 -90.90454020992422 M 25.711504387461577 -110.6417777247591 L 33.9030248303515 -116.37754208826955 M 33.9030248303515 -116.37754208826955 L 42.094545273241415 -122.11330645178 M 42.094545273241415 -122.11330645178 L 52.05649225415887 -121.24174902430342 M 52.05649225415887 -121.24174902430342 L 61.45341846201795 -117.82154759104672 M 61.45341846201795 -117.82154759104672 L 71.41536544293541 -118.69310501852331 M 42.094545273241415 -122.11330645178 L 51.491471481100504 -125.5335078850367 M 51.491471481100504 -125.5335078850367 L 61.45341846201796 -126.40506531251329 M 61.45341846201796 -126.40506531251329 L 70.11367249986235 -131.40506531251327 M 42.094545273241415 -122.11330645178 L 51.491471481100504 -125.5335078850367 M 51.491471481100504 -125.5335078850367 L 60.888397688959586 -128.9537093182934 M 60.888397688959586 -128.9537093182934 L 67.95946550082506 -136.02477713015887 M 67.95946550082506 -136.02477713015887 L 75.03053331269054 -143.09584494202434 M 75.03053331269054 -143.09584494202434 L 82.10160112455601 -150.16691275388982 M 82.10160112455601 -150.16691275388982 L 90.7618551624004 -155.16691275388982 M 90.7618551624004 -155.16691275388982 L 96.49761952591085 -163.35843319677974 M 60.888397688959586 -128.9537093182934 L 70.28532389681867 -125.5335078850367 M 70.28532389681867 -125.5335078850367 L 78.47684433970858 -119.79774352152624 M 78.47684433970858 -119.79774352152624 L 88.32492186983066 -118.06126174485694 M 25.711504387461577 -110.6417777247591 L 33.9030248303515 -116.37754208826955 M 33.9030248303515 -116.37754208826955 L 42.094545273241415 -122.11330645178 M 42.094545273241415 -122.11330645178 L 50.28606571613133 -127.84907081529046 M 50.28606571613133 -127.84907081529046 L 58.47758615902125 -133.58483517880092 M 58.47758615902125 -133.58483517880092 L 63.47758615902125 -142.2450892166453 M 63.47758615902125 -142.2450892166453 L 68.47758615902126 -150.9053432544897 M 68.47758615902126 -150.9053432544897 L 73.47758615902126 -159.5655972923341 M 73.47758615902126 -159.5655972923341 L 78.47758615902126 -168.2258513301785 M 78.47758615902126 -168.2258513301785 L 83.47758615902126 -176.8861053680229 M 83.47758615902126 -176.8861053680229 L 88.47758615902126 -185.5463594058673 M 88.47758615902126 -185.5463594058673 L 97.87451236688034 -188.96656083912399 M 97.87451236688034 -188.96656083912399 L 107.8364593477978 -189.83811826660056 M 107.8364593477978 -189.83811826660056 L 116.49671338564218 -194.83811826660056 M 88.47758615902126 -185.5463594058673 L 95.54865397088673 -192.61742721773277 M 95.54865397088673 -192.61742721773277 L 104.20890800873111 -197.61742721773277 M 104.20890800873111 -197.61742721773277 L 109.94467237224157 -205.8089476606227 M 88.47758615902126 -185.5463594058673 L 95.54865397088673 -192.61742721773277 M 95.54865397088673 -192.61742721773277 L 102.61972178275221 -199.68849502959824 M 102.61972178275221 -199.68849502959824 L 106.0399232160089 -209.08542123745733 M 106.0399232160089 -209.08542123745733 L 109.4601246492656 -218.4823474453164 M 109.4601246492656 -218.4823474453164 L 112.88032608252229 -227.8792736531755 M 112.88032608252229 -227.8792736531755 L 118.61609044603274 -236.0707940960654 M 118.61609044603274 -236.0707940960654 L 120.35257222270205 -245.9188716261875 M 102.61972178275221 -199.68849502959824 L 112.58166876366967 -200.56005245707482 M 112.58166876366967 -200.56005245707482 L 122.42974629379175 -198.8235706804055 M 122.42974629379175 -198.8235706804055 L 132.08900455668243 -201.41176113143072 M 58.47758615902125 -133.58483517880092 L 68.4395331399387 -132.71327775132434 M 68.4395331399387 -132.71327775132434 L 78.40148012085616 -131.84172032384777 M 78.40148012085616 -131.84172032384777 L 85.47254793272164 -124.77065251198229 M 85.47254793272164 -124.77065251198229 L 90.47254793272164 -116.11039847413791 M 90.47254793272164 -116.11039847413791 L 98.66406837561155 -110.37463411062745 M 78.40148012085616 -131.84172032384777 L 87.79840632871525 -128.42151889059107 M 87.79840632871525 -128.42151889059107 L 95.98992677160516 -122.68575452708062 M 95.98992677160516 -122.68575452708062 L 105.83800430172724 -120.94927275041131 M 78.40148012085616 -131.84172032384777 L 87.79840632871525 -128.42151889059107 M 87.79840632871525 -128.42151889059107 L 97.19533253657433 -125.00131745733438 M 97.19533253657433 -125.00131745733438 L 107.15727951749179 -125.87287488481097 M 107.15727951749179 -125.87287488481097 L 117.11922649840925 -126.74443231228756 M 117.11922649840925 -126.74443231228756 L 127.08117347932671 -127.61598973976415 M 127.08117347932671 -127.61598973976415 L 136.9292510094488 -125.87950796309484 M 136.9292510094488 -125.87950796309484 L 146.58850927233948 -128.46769841412004 M 97.19533253657433 -125.00131745733438 L 102.19533253657433 -116.34106341949 M 102.19533253657433 -116.34106341949 L 104.78352298759954 -106.68180515659931 M 104.78352298759954 -106.68180515659931 L 111.21139908446493 -99.02136072540954 M 4.898587196589413E-15 -80.0 L 2.5881904510252123 -89.65925826289069 M 2.5881904510252123 -89.65925826289069 L 5.17638090205042 -99.31851652578138 M 5.17638090205042 -99.31851652578138 L 7.7645713530756275 -108.97777478867206 M 7.7645713530756275 -108.97777478867206 L 10.352761804100835 -118.63703305156275 M 10.352761804100835 -118.63703305156275 L 18.544282246990754 -124.37279741507321 M 18.544282246990754 -124.37279741507321 L 26.73580268988067 -130.10856177858366 M 26.73580268988067 -130.10856177858366 L 36.697749670798125 -129.2370043511071 M 36.697749670798125 -129.2370043511071 L 46.09467587865721 -125.8168029178504 M 46.09467587865721 -125.8168029178504 L 56.05662285957467 -126.68836034532698 M 26.73580268988067 -130.10856177858366 L 36.13272889773975 -133.52876321184036 M 36.13272889773975 -133.52876321184036 L 46.094675878657206 -134.40032063931693 M 46.094675878657206 -134.40032063931693 L 54.754929916501595 -139.40032063931693 M 26.73580268988067 -130.10856177858366 L 36.13272889773975 -133.52876321184036 M 36.13272889773975 -133.52876321184036 L 45.529655105598835 -136.94896464509705 M 45.529655105598835 -136.94896464509705 L 52.60072291746431 -144.02003245696253 M 52.60072291746431 -144.02003245696253 L 59.671790729329786 -151.091100268828 M 59.671790729329786 -151.091100268828 L 66.74285854119526 -158.16216808069348 M 66.74285854119526 -158.16216808069348 L 75.40311257903964 -163.16216808069348 M 75.40311257903964 -163.16216808069348 L 81.1388769425501 -171.3536885235834 M 45.529655105598835 -136.94896464509705 L 54.926581313457916 -133.52876321184036 M 54.926581313457916 -133.52876321184036 L 63.11810175634783 -127.7929988483299 M 63.11810175634783 -127.7929988483299 L 72.96617928646991 -126.0565170716606 M 10.352761804100835 -118.63703305156275 L 15.352761804100837 -127.29728708940713 M 15.352761804100837 -127.29728708940713 L 20.352761804100837 -135.95754112725152 M 20.352761804100837 -135.95754112725152 L 29.749688011959922 -139.3777425605082 M 29.749688011959922 -139.3777425605082 L 39.71163499287738 -140.24929998798478 M 39.71163499287738 -140.24929998798478 L 48.37188903072177 -145.24929998798478 M 20.352761804100837 -135.95754112725152 L 27.423829615966312 -143.028608939117 M 27.423829615966312 -143.028608939117 L 36.0840836538107 -148.028608939117 M 36.0840836538107 -148.028608939117 L 41.81984801732116 -156.22012938200692 M 20.352761804100837 -135.95754112725152 L 27.423829615966312 -143.028608939117 M 27.423829615966312 -143.028608939117 L 34.49489742783179 -150.09967675098247 M 34.49489742783179 -150.09967675098247 L 37.915098861088474 -159.49660295884155 M 37.915098861088474 -159.49660295884155 L 41.33530029434516 -168.89352916670063 M 41.33530029434516 -168.89352916670063 L 44.755501727601846 -178.2904553745597 M 44.755501727601846 -178.2904553745597 L 50.49126609111231 -186.48197581744964 M 50.49126609111231 -186.48197581744964 L 52.22774786778161 -196.33005334757172 M 34.49489742783179 -150.09967675098247 L 44.45684440874924 -150.97123417845904 M 44.45684440874924 -150.97123417845904 L 54.30492193887132 -149.23475240178973 M 54.30492193887132 -149.23475240178973 L 63.964180201762 -151.82294285281495 M 10.352761804100835 -118.63703305156275 L 15.352761804100837 -127.29728708940713 M 15.352761804100837 -127.29728708940713 L 20.352761804100837 -135.95754112725152 M 20.352761804100837 -135.95754112725152 L 25.352761804100837 -144.6177951650959 M 25.352761804100837 -144.6177951650959 L 30.352761804100837 -153.2780492029403 M 30.352761804100837 -153.2780492029403 L 31.224319231577418 -163.23999618385776 M 31.224319231577418 -163.23999618385776 L 32.095876659054 -173.2019431647752 M 32.095876659054 -173.2019431647752 L 32.96743408653058 -183.16389014569265 M 32.96743408653058 -183.16389014569265 L 33.83899151400716 -193.1258371266101 M 33.83899151400716 -193.1258371266101 L 34.710548941483744 -203.08778410752754 M 34.710548941483744 -203.08778410752754 L 35.582106368960325 -213.049731088445 M 35.582106368960325 -213.049731088445 L 42.6531741808258 -220.12079890031046 M 42.6531741808258 -220.12079890031046 L 51.31342821867019 -225.12079890031046 M 51.31342821867019 -225.12079890031046 L 57.04919258218065 -233.3123193432004 M 35.582106368960325 -213.049731088445 L 39.00230780221701 -222.44665729630407 M 39.00230780221701 -222.44665729630407 L 44.73807216572747 -230.638177739194 M 44.73807216572747 -230.638177739194 L 46.474553942396774 -240.48625526931608 M 35.582106368960325 -213.049731088445 L 39.00230780221701 -222.44665729630407 M 39.00230780221701 -222.44665729630407 L 42.4225092354737 -231.84358350416315 M 42.4225092354737 -231.84358350416315 L 41.550951807997116 -241.8055304850806 M 41.550951807997116 -241.8055304850806 L 40.679394380520534 -251.76747746599804 M 40.679394380520534 -251.76747746599804 L 39.80783695304395 -261.7294244469155 M 39.80783695304395 -261.7294244469155 L 41.544318729713254 -271.57750197703757 M 41.544318729713254 -271.57750197703757 L 38.95612827868805 -281.23676023992823 M 42.4225092354737 -231.84358350416315 L 51.082763273318086 -236.84358350416315 M 51.082763273318086 -236.84358350416315 L 60.74202153620877 -239.43177395518836 M 60.74202153620877 -239.43177395518836 L 68.40246596739854 -245.85965005205375 M 30.352761804100837 -153.2780492029403 L 39.74968801195992 -156.698250636197 M 39.74968801195992 -156.698250636197 L 49.146614219819 -160.1184520694537 M 49.146614219819 -160.1184520694537 L 58.54354042767808 -156.698250636197 M 58.54354042767808 -156.698250636197 L 66.73506087056799 -150.96248627268653 M 66.73506087056799 -150.96248627268653 L 76.58313840069007 -149.22600449601723 M 49.146614219819 -160.1184520694537 L 59.10856120073645 -160.99000949693027 M 59.10856120073645 -160.99000949693027 L 68.95663873085853 -159.25352772026096 M 68.95663873085853 -159.25352772026096 L 78.61589699374922 -161.84171817128617 M 49.146614219819 -160.1184520694537 L 59.10856120073645 -160.99000949693027 M 59.10856120073645 -160.99000949693027 L 69.0705081816539 -161.86156692440684 M 69.0705081816539 -161.86156692440684 L 77.73076221949829 -166.86156692440684 M 77.73076221949829 -166.86156692440684 L 86.39101625734267 -171.86156692440684 M 86.39101625734267 -171.86156692440684 L 95.05127029518705 -176.86156692440684 M 95.05127029518705 -176.86156692440684 L 104.71052855807774 -179.44975737543206 M 104.71052855807774 -179.44975737543206 L 112.37097298926751 -185.87763347229745 M 69.0705081816539 -161.86156692440684 L 77.26202862454383 -156.12580256089637 M 77.26202862454383 -156.12580256089637 L 83.68990472140922 -148.4653581297066 M 83.68990472140922 -148.4653581297066 L 92.75298259177572 -144.2391755122996 M 4.898587196589413E-15 -80.0 L 2.5881904510252123 -89.65925826289069 M 2.5881904510252123 -89.65925826289069 L 5.17638090205042 -99.31851652578138 M 5.17638090205042 -99.31851652578138 L 7.7645713530756275 -108.97777478867206 M 7.7645713530756275 -108.97777478867206 L 10.352761804100835 -118.63703305156275 M 10.352761804100835 -118.63703305156275 L 12.940952255126042 -128.29629131445344 M 12.940952255126042 -128.29629131445344 L 15.52914270615125 -137.95554957734413 M 15.52914270615125 -137.95554957734413 L 18.117333157176457 -147.61480784023482 M 18.117333157176457 -147.61480784023482 L 20.705523608201666 -157.2740661031255 M 20.705523608201666 -157.2740661031255 L 18.969041831532362 -167.1221436332476 M 18.969041831532362 -167.1221436332476 L 17.232560054863058 -176.97022116336967 M 17.232560054863058 -176.97022116336967 L 15.496078278193755 -186.81829869349176 M 15.496078278193755 -186.81829869349176 L 13.759596501524452 -196.66637622361384 M 13.759596501524452 -196.66637622361384 L 12.02311472485515 -206.51445375373592 M 12.02311472485515 -206.51445375373592 L 10.286632948185847 -216.362531283858 M 10.286632948185847 -216.362531283858 L 8.550151171516545 -226.2106088139801 M 8.550151171516545 -226.2106088139801 L 6.813669394847242 -236.05868634410217 M 6.813669394847242 -236.05868634410217 L 5.077187618177939 -245.90676387422425 M 5.077187618177939 -245.90676387422425 L 3.3407058415086364 -255.75484140434634 M 3.3407058415086364 -255.75484140434634 L 1.6042240648393333 -265.6029189344684 M 1.6042240648393333 -265.6029189344684 L -0.1322577118299697 -275.45099646459045 M -0.1322577118299697 -275.45099646459045 L 4.867742288170032 -284.1112505024348 M 4.867742288170032 -284.1112505024348 L 9.867742288170032 -292.7715045402792 M 9.867742288170032 -292.7715045402792 L 19.264668496029117 -296.1917059735359 M 19.264668496029117 -296.1917059735359 L 29.22661547694657 -297.0632634010125 M 29.22661547694657 -297.0632634010125 L 37.88686951479096 -302.0632634010125 M 9.867742288170032 -292.7715045402792 L 16.938810100035507 -299.84257235214466 M 16.938810100035507 -299.84257235214466 L 25.599064137879893 -304.84257235214466 M 25.599064137879893 -304.84257235214466 L 31.334828501390355 -313.03409279503455 M 9.867742288170032 -292.7715045402792 L 16.938810100035507 -299.84257235214466 M 16.938810100035507 -299.84257235214466 L 24.009877911900983 -306.91364016401013 M 24.009877911900983 -306.91364016401013 L 27.430079345157672 -316.31056637186924 M 27.430079345157672 -316.31056637186924 L 30.850280778414362 -325.70749257972835 M 30.850280778414362 -325.70749257972835 L 34.27048221167105 -335.10441878758746 M 34.27048221167105 -335.10441878758746 L 40.006246575181514 -343.29593923047736 M 40.006246575181514 -343.29593923047736 L 41.742728351850815 -353.1440167605994 M 24.009877911900983 -306.91364016401013 L 33.97182489281844 -307.78519759148674 M 33.97182489281844 -307.78519759148674 L 43.819902422940515 -306.04871581481746 M 43.819902422940515 -306.04871581481746 L 53.4791606858312 -308.63690626584264 M -0.1322577118299697 -275.45099646459045 L 0.7392997156466117 -285.4129434455079 M 0.7392997156466117 -285.4129434455079 L 1.610857143123193 -295.37489042642534 M 1.610857143123193 -295.37489042642534 L 8.681924954988668 -302.4459582382908 M 8.681924954988668 -302.4459582382908 L 17.342178992833055 -307.4459582382908 M 17.342178992833055 -307.4459582382908 L 23.077943356343518 -315.6374786811807 M 1.610857143123193 -295.37489042642534 L 5.031058576379881 -304.77181663428445 M 5.031058576379881 -304.77181663428445 L 10.766822939890343 -312.96333707717434 M 10.766822939890343 -312.96333707717434 L 12.503304716559647 -322.8114146072964 M 1.610857143123193 -295.37489042642534 L 5.031058576379881 -304.77181663428445 M 5.031058576379881 -304.77181663428445 L 8.45126000963657 -314.16874284214356 M 8.45126000963657 -314.16874284214356 L 7.579702582159988 -324.130689823061 M 7.579702582159988 -324.130689823061 L 6.708145154683406 -334.09263680397845 M 6.708145154683406 -334.09263680397845 L 5.836587727206823 -344.0545837848959 M 5.836587727206823 -344.0545837848959 L 7.573069503876128 -353.90266131501795 M 7.573069503876128 -353.90266131501795 L 4.9848790528509195 -363.5619195779086 M 8.45126000963657 -314.16874284214356 L 17.11151404748096 -319.16874284214356 M 17.11151404748096 -319.16874284214356 L 26.77077231037164 -321.75693329316874 M 26.77077231037164 -321.75693329316874 L 34.43121674156142 -328.18480939003416 M -0.1322577118299697 -275.45099646459045 L 0.7392997156466117 -285.4129434455079 M 0.7392997156466117 -285.4129434455079 L 1.610857143123193 -295.37489042642534 M 1.610857143123193 -295.37489042642534 L 2.4824145705997744 -305.3368374073428 M 2.4824145705997744 -305.3368374073428 L 3.353971998076356 -315.29878438826023 M 3.353971998076356 -315.29878438826023 L -0.0662294351803312 -324.69571059611934 M -0.0662294351803312 -324.69571059611934 L -3.486430868437018 -334.09263680397845 M -3.486430868437018 -334.09263680397845 L -6.906632301693705 -343.48956301183756 M -6.906632301693705 -343.48956301183756 L -10.326833734950391 -352.88648921969667 M -10.326833734950391 -352.88648921969667 L -13.747035168207077 -362.2834154275558 M -13.747035168207077 -362.2834154275558 L -17.167236601463763 -371.6803416354149 M -17.167236601463763 -371.6803416354149 L -13.747035168207075 -381.077267843274 M -13.747035168207075 -381.077267843274 L -8.011270804696615 -389.2687882861639 M -8.011270804696615 -389.2687882861639 L -6.27478902802731 -399.11686581628595 M -17.167236601463763 -371.6803416354149 L -18.038794028940345 -381.64228861633234 M -18.038794028940345 -381.64228861633234 L -16.30231225227104 -391.4903661464544 M -16.30231225227104 -391.4903661464544 L -18.89050270329625 -401.14962440934505 M -17.167236601463763 -371.6803416354149 L -18.038794028940345 -381.64228861633234 M -18.038794028940345 -381.64228861633234 L -18.910351456416926 -391.6042355972498 M -18.910351456416926 -391.6042355972498 L -23.910351456416926 -400.26448963509415 M -23.910351456416926 -400.26448963509415 L -28.910351456416926 -408.9247436729385 M -28.910351456416926 -408.9247436729385 L -33.910351456416926 -417.5849977107829 M -33.910351456416926 -417.5849977107829 L -36.49854190744213 -427.24425597367355 M -36.49854190744213 -427.24425597367355 L -42.92641800430752 -434.9047004048633 M -18.910351456416926 -391.6042355972498 L -13.174587092906464 -399.7957560401397 M -13.174587092906464 -399.7957560401397 L -5.514142661716684 -406.2236321370051 M -5.514142661716684 -406.2236321370051 L -1.2879600443096892 -415.2867100073716 M 3.353971998076356 -315.29878438826023 L 10.42503980994183 -322.3698522001257 M 10.42503980994183 -322.3698522001257 L 17.496107621807305 -329.4409200119912 M 17.496107621807305 -329.4409200119912 L 27.458054602724758 -330.3124774394678 M 27.458054602724758 -330.3124774394678 L 37.30613213284684 -328.5759956627985 M 37.30613213284684 -328.5759956627985 L 46.96539039573752 -331.1641861138237 M 17.496107621807305 -329.4409200119912 L 26.156361659651694 -334.4409200119912 M 26.156361659651694 -334.4409200119912 L 35.815619922542375 -337.02911046301637 M 35.815619922542375 -337.02911046301637 L 43.476064353732156 -343.4569865598818 M 17.496107621807305 -329.4409200119912 L 26.156361659651694 -334.4409200119912 M 26.156361659651694 -334.4409200119912 L 34.81661569749608 -339.4409200119912 M 34.81661569749608 -339.4409200119912 L 40.552380061006545 -347.6324404548811 M 40.552380061006545 -347.6324404548811 L 46.28814442451701 -355.823960897771 M 46.28814442451701 -355.823960897771 L 52.02390878802747 -364.01548134066087 M 52.02390878802747 -364.01548134066087 L 59.68435321921725 -370.4433574375263 M 59.68435321921725 -370.4433574375263 L 63.91053583662425 -379.5064353078928 M 34.81661569749608 -339.4409200119912 L 44.66469322761816 -337.7044382353219 M 44.66469322761816 -337.7044382353219 L 53.72777109798466 -333.4782556179149 M 53.72777109798466 -333.4782556179149 L 63.72777109798466 -333.4782556179149 M 20.705523608201666 -157.2740661031255 L 28.897044051091584 -163.00983046663598 M 28.897044051091584 -163.00983046663598 L 37.0885644939815 -168.74559483014644 M 37.0885644939815 -168.74559483014644 L 45.28008493687142 -174.4813591936569 M 45.28008493687142 -174.4813591936569 L 53.471605379761336 -180.21712355716738 M 53.471605379761336 -180.21712355716738 L 63.43355236067879 -179.3455661296908 M 63.43355236067879 -179.3455661296908 L 73.39549934159625 -178.47400870221423 M 73.39549934159625 -178.47400870221423 L 80.46656715346172 -171.40294089034876 M 80.46656715346172 -171.40294089034876 L 85.46656715346172 -162.74268685250436 M 85.46656715346172 -162.74268685250436 L 93.65808759635163 -157.0069224889939 M 73.39549934159625 -178.47400870221423 L 82.79242554945533 -175.05380726895754 M 82.79242554945533 -175.05380726895754 L 90.98394599234524 -169.31804290544707 M 90.98394599234524 -169.31804290544707 L 100.83202352246732 -167.58156112877776 M 73.39549934159625 -178.47400870221423 L 82.79242554945533 -175.05380726895754 M 82.79242554945533 -175.05380726895754 L 92.18935175731441 -171.63360583570085 M 92.18935175731441 -171.63360583570085 L 102.15129873823187 -172.50516326317742 M 102.15129873823187 -172.50516326317742 L 112.11324571914933 -173.376720690654 M 112.11324571914933 -173.376720690654 L 122.0751927000668 -174.24827811813057 M 122.0751927000668 -174.24827811813057 L 131.92327023018888 -172.51179634146126 M 131.92327023018888 -172.51179634146126 L 141.58252849307956 -175.09998679248648 M 92.18935175731441 -171.63360583570085 L 97.18935175731441 -162.97335179785645 M 97.18935175731441 -162.97335179785645 L 99.77754220833963 -153.31409353496576 M 99.77754220833963 -153.31409353496576 L 106.20541830520501 -145.653649103776 M 53.471605379761336 -180.21712355716738 L 62.868531587620424 -183.63732499042408 M 62.868531587620424 -183.63732499042408 L 72.2654577954795 -187.05752642368077 M 72.2654577954795 -187.05752642368077 L 81.66238400333859 -183.63732499042408 M 81.66238400333859 -183.63732499042408 L 89.85390444622851 -177.9015606269136 M 89.85390444622851 -177.9015606269136 L 99.7019819763506 -176.1650788502443 M 72.2654577954795 -187.05752642368077 L 82.22740477639697 -187.92908385115734 M 82.22740477639697 -187.92908385115734 L 92.07548230651905 -186.19260207448804 M 92.07548230651905 -186.19260207448804 L 101.73474056940974 -188.78079252551325 M 72.2654577954795 -187.05752642368077 L 82.22740477639697 -187.92908385115734 M 82.22740477639697 -187.92908385115734 L 92.18935175731443 -188.80064127863392 M 92.18935175731443 -188.80064127863392 L 100.84960579515881 -193.80064127863392 M 100.84960579515881 -193.80064127863392 L 109.50985983300319 -198.80064127863392 M 109.50985983300319 -198.80064127863392 L 118.17011387084757 -203.80064127863392 M 118.17011387084757 -203.80064127863392 L 127.82937213373826 -206.38883172965913 M 127.82937213373826 -206.38883172965913 L 135.48981656492805 -212.81670782652452 M 92.18935175731443 -188.80064127863392 L 100.38087220020435 -183.06487691512345 M 100.38087220020435 -183.06487691512345 L 106.80874829706974 -175.40443248393368 M 106.80874829706974 -175.40443248393368 L 115.87182616743624 -171.17824986652667 M 53.471605379761336 -180.21712355716738 L 62.868531587620424 -183.63732499042408 M 62.868531587620424 -183.63732499042408 L 72.2654577954795 -187.05752642368077 M 72.2654577954795 -187.05752642368077 L 81.66238400333859 -190.47772785693746 M 81.66238400333859 -190.47772785693746 L 91.05931021119767 -193.89792929019416 M 91.05931021119767 -193.89792929019416 L 98.13037802306314 -200.96899710205963 M 98.13037802306314 -200.96899710205963 L 105.20144583492862 -208.0400649139251 M 105.20144583492862 -208.0400649139251 L 112.2725136467941 -215.11113272579058 M 112.2725136467941 -215.11113272579058 L 119.34358145865957 -222.18220053765606 M 119.34358145865957 -222.18220053765606 L 126.41464927052505 -229.25326834952153 M 126.41464927052505 -229.25326834952153 L 133.48571708239052 -236.324336161387 M 133.48571708239052 -236.324336161387 L 143.44766406330797 -237.19589358886358 M 143.44766406330797 -237.19589358886358 L 153.29574159343005 -235.45941181219428 M 153.29574159343005 -235.45941181219428 L 162.95499985632074 -238.0476022632195 M 133.48571708239052 -236.324336161387 L 142.14597112023492 -241.324336161387 M 142.14597112023492 -241.324336161387 L 151.8052293831256 -243.91252661241222 M 151.8052293831256 -243.91252661241222 L 159.46567381431538 -250.3404027092776 M 133.48571708239052 -236.324336161387 L 142.14597112023492 -241.324336161387 M 142.14597112023492 -241.324336161387 L 150.80622515807931 -246.324336161387 M 150.80622515807931 -246.324336161387 L 156.54198952158978 -254.51585660427693 M 156.54198952158978 -254.51585660427693 L 162.27775388510025 -262.70737704716686 M 162.27775388510025 -262.70737704716686 L 168.01351824861072 -270.89889749005675 M 168.01351824861072 -270.89889749005675 L 175.6739626798005 -277.3267735869222 M 175.6739626798005 -277.3267735869222 L 179.9001452972075 -286.38985145728867 M 150.80622515807931 -246.324336161387 L 160.6543026882014 -244.5878543847177 M 160.6543026882014 -244.5878543847177 L 169.7173805585679 -240.3616717673107 M 169.7173805585679 -240.3616717673107 L 179.7173805585679 -240.3616717673107 M 91.05931021119767 -193.89792929019416 L 100.45623641905675 -190.47772785693746 M 100.45623641905675 -190.47772785693746 L 109.85316262691583 -187.05752642368077 M 109.85316262691583 -187.05752642368077 L 114.85316262691583 -178.39727238583637 M 114.85316262691583 -178.39727238583637 L 117.44135307794105 -168.73801412294569 M 117.44135307794105 -168.73801412294569 L 123.86922917480643 -161.0775696917559 M 109.85316262691583 -187.05752642368077 L 118.04468306980576 -181.3217620601703 M 118.04468306980576 -181.3217620601703 L 124.47255916667115 -173.66131762898053 M 124.47255916667115 -173.66131762898053 L 133.53563703703765 -169.43513501157352 M 109.85316262691583 -187.05752642368077 L 118.04468306980576 -181.3217620601703 M 118.04468306980576 -181.3217620601703 L 126.23620351269568 -175.58599769665983 M 126.23620351269568 -175.58599769665983 L 136.08428104281776 -173.84951591999052 M 136.08428104281776 -173.84951591999052 L 145.93235857293985 -172.11303414332122 M 145.93235857293985 -172.11303414332122 L 155.78043610306193 -170.3765523666519 M 155.78043610306193 -170.3765523666519 L 164.84351397342843 -166.1503697492449 M 164.84351397342843 -166.1503697492449 L 174.84351397342843 -166.1503697492449 M 126.23620351269568 -175.58599769665983 L 128.8243939637209 -165.92673943376914 M 128.8243939637209 -165.92673943376914 L 128.8243939637209 -155.92673943376914 M 128.8243939637209 -155.92673943376914 L 133.0505765811279 -146.86366156340264 " fill="none" stroke="black" stroke-width="1" stroke-linecap="round"/>
<circle cx="54.0679" cy="-109.1147" r="4" fill="black"/><rect x="50.0679" y="-113.1147" width="8" height="8" fill="black" transform="rotate(70.0 54.06791348555013 -109.11474127809771)"/><circle cx="70.5359" cy="-98.6235" r="4" fill="black"/><rect x="57.1390" y="-106.0437" width="8" height="8" fill="black" transform="rotate(85.0 61.138981297415604 -102.04367346623224)"/><circle cx="61.1390" cy="-102.0437" r="4" fill="black"/><rect x="41.4077" y="-118.1147" width="8" height="8" fill="black" transform="rotate(30.0 45.40765944770574 -114.11474127809771)"/><circle cx="55.3696" cy="-113.2432" r="4" fill="black"/><rect x="51.3696" y="-117.2432" width="8" height="8" fill="black" transform="rotate(45.0 55.36960642862319 -113.24318385062112)"/><circle cx="74.7285" cy="-110.6945" r="4" fill="black"/><rect x="60.7665" y="-113.8230" width="8" height="8" fill="black" transform="rotate(60.0 64.76653263648228 -109.82298241736443)"/><circle cx="93.5223" cy="-122.6322" r="4" fill="black"/><rect x="89.5223" y="-126.6322" width="8" height="8" fill="black" transform="rotate(20.0 93.52233203311789 -122.63223072291461)"/><circle cx="112.1445" cy="-128.5038" r="4" fill="black"/><rect x="99.4843" y="-127.5038" width="8" height="8" fill="black" transform="rotate(35.0 103.48427901403535 -123.5037881503912)"/><circle cx="103.4843" cy="-123.5038" r="4" fill="black"/><circle cx="72.4026" cy="-105.3006" r="4" fill="black"/><rect x="68.4026" y="-109.3006" width="8" height="8" fill="black" transform="rotate(85.0 72.40262122140612 -105.30055861127906)"/><circle cx="85.5941" cy="-90.9045" r="4" fill="black"/><rect x="73.4026" y="-100.6403" width="8" height="8" fill="black" transform="rotate(100.0 77.40262122140612 -96.64030457343468)"/><rect x="73.4026" y="-100.6403" width="8" height="8" fill="black" transform="rotate(100.0 77.40262122140612 -96.64030457343468)"/><circle cx="77.4026" cy="-96.6403" r="4" fill="black"/><rect x="21.7115" y="-114.6418" width="8" height="8" fill="black" transform="rotate(-10.0 25.711504387461577 -110.6417777247591)"/><circle cx="52.0565" cy="-121.2417" r="4" fill="black"/><rect x="48.0565" y="-125.2417" width="8" height="8" fill="black" transform="rotate(45.0 52.05649225415887 -121.24174902430342)"/><circle cx="71.4154" cy="-118.6931" r="4" fill="black"/><rect x="57.4534" y="-121.8215" width="8" height="8" fill="black" transform="rotate(60.0 61.45341846201795 -117.82154759104672)"/><circle cx="61.4534" cy="-117.8215" r="4" fill="black"/><rect x="38.0945" y="-126.1133" width="8" height="8" fill="black" transform="rotate(5.0 42.094545273241415 -122.11330645178)"/><circle cx="51.4915" cy="-125.5335" r="4" fill="black"/><rect x="47.4915" y="-129.5335" width="8" height="8" fill="black" transform="rotate(20.0 51.491471481100504 -125.5335078850367)"/><circle cx="70.1137" cy="-131.4051" r="4" fill="black"/><rect x="57.4534" y="-130.4051" width="8" height="8" fill="black" transform="rotate(35.0 61.45341846201796 -126.40506531251329)"/><circle cx="82.1016" cy="-150.1669" r="4" fill="black"/><rect x="78.1016" y="-154.1669" width="8" height="8" fill="black" transform="rotate(-5.0 82.10160112455601 -150.16691275388982)"/><circle cx="96.4976" cy="-163.3584" r="4" fill="black"/><rect x="86.7619" y="-159.1669" width="8" height="8" fill="black" transform="rotate(10.0 90.7618551624004 -155.16691275388982)"/><circle cx="90.7619" cy="-155.1669" r="4" fill="black"/><circle cx="70.2853" cy="-125.5335" r="4" fill="black"/><rect x="66.2853" y="-129.5335" width="8" height="8" fill="black" transform="rotate(60.0 70.28532389681867 -125.5335078850367)"/><circle cx="88.3249" cy="-118.0613" r="4" fill="black"/><rect x="74.4768" y="-123.7977" width="8" height="8" fill="black" transform="rotate(75.0 78.47684433970858 -119.79774352152624)"/><rect x="74.4768" y="-123.7977" width="8" height="8" fill="black" transform="rotate(75.0 78.47684433970858 -119.79774352152624)"/><circle cx="97.8745" cy="-188.9666" r="4" fill="black"/><rect x="93.8745" y="-192.9666" width="8" height="8" fill="black" transform="rotate(20.0 97.87451236688034 -188.96656083912399)"/><circle cx="116.4967" cy="-194.8381" r="4" fill="black"/><rect x="103.8365" y="-193.8381" width="8" height="8" fill="black" transform="rotate(35.0 107.8364593477978 -189.83811826660056)"/><circle cx="107.8365" cy="-189.8381" r="4" fill="black"/><rect x="84.4776" y="-189.5464" width="8" height="8" fill="black" transform="rotate(-20.0 88.47758615902126 -185.5463594058673)"/><circle cx="95.5487" cy="-192.6174" r="4" fill="black"/><rect x="91.5487" y="-196.6174" width="8" height="8" fill="black" transform="rotate(-5.0 95.54865397088673 -192.61742721773277)"/><circle cx="109.9447" cy="-205.8089" r="4" fill="black"/><rect x="100.2089" y="-201.6174" width="8" height="8" fill="black" transform="rotate(10.0 104.20890800873111 -197.61742721773277)"/><circle cx="112.8803" cy="-227.8793" r="4" fill="black"/><rect x="108.8803" y="-231.8793" width="8" height="8" fill="black" transform="rotate(-30.0 112.88032608252229 -227.8792736531755)"/><circle cx="120.3526" cy="-245.9189" r="4" fill="black"/><rect x="114.6161" y="-240.0708" width="8" height="8" fill="black" transform="rotate(-15.0 118.61609044603274 -236.0707940960654)"/><circle cx="118.6161" cy="-236.0708" r="4" fill="black"/><circle cx="112.5817" cy="-200.5601" r="4" fill="black"/><rect x="108.5817" y="-204.5601" width="8" height="8" fill="black" transform="rotate(35.0 112.58166876366967 -200.56005245707482)"/><circle cx="132.0890" cy="-201.4118" r="4" fill="black"/><rect x="118.4297" y="-202.8236" width="8" height="8" fill="black" transform="rotate(50.0 122.42974629379175 -198.8235706804055)"/><rect x="118.4297" y="-202.8236" width="8" height="8" fill="black" transform="rotate(50.0 122.42974629379175 -198.8235706804055)"/><circle cx="122.4297" cy="-198.8236" r="4" fill="black"/><circle cx="85.4725" cy="-124.7707" r="4" fill="black"/><rect x="81.4725" y="-128.7707" width="8" height="8" fill="black" transform="rotate(85.0 85.47254793272164 -124.77065251198229)"/><circle cx="98.6641" cy="-110.3746" r="4" fill="black"/><rect x="86.4725" y="-120.1104" width="8" height="8" fill="black" transform="rotate(100.0 90.47254793272164 -116.11039847413791)"/><circle cx="90.4725" cy="-116.1104" r="4" fill="black"/><rect x="74.4015" y="-135.8417" width="8" height="8" fill="black" transform="rotate(45.0 78.40148012085616 -131.84172032384777)"/><circle cx="87.7984" cy="-128.4215" r="4" fill="black"/><rect x="83.7984" y="-132.4215" width="8" height="8" fill="black" transform="rotate(60.0 87.79840632871525 -128.42151889059107)"/><circle cx="105.8380" cy="-120.9493" r="4" fill="black"/><rect x="91.9899" y="-126.6858" width="8" height="8" fill="black" transform="rotate(75.0 95.98992677160516 -122.68575452708062)"/><circle cx="127.0812" cy="-127.6160" r="4" fill="black"/><rect x="123.0812" y="-131.6160" width="8" height="8" fill="black" transform="rotate(35.0 127.08117347932671 -127.61598973976415)"/><circle cx="146.5885" cy="-128.4677" r="4" fill="black"/><rect x="132.9293" y="-129.8795" width="8" height="8" fill="black" transform="rotate(50.0 136.9292510094488 -125.87950796309484)"/><circle cx="136.9293" cy="-125.8795" r="4" fill="black"/><circle cx="102.1953" cy="-116.3411" r="4" fill="black"/><rect x="98.1953" y="-120.3411" width="8" height="8" fill="black" transform="rotate(100.0 102.19533253657433 -116.34106341949)"/><circle cx="111.2114" cy="-99.0214" r="4" fill="black"/><rect x="100.7835" y="-110.6818" width="8" height="8" fill="black" transform="rotate(115.0 104.78352298759954 -106.68180515659931)"/><rect x="100.7835" y="-110.6818" width="8" height="8" fill="black" transform="rotate(115.0 104.78352298759954 -106.68180515659931)"/><rect x="100.7835" y="-110.6818" width="8" height="8" fill="black" transform="rotate(115.0 104.78352298759954 -106.68180515659931)"/><circle cx="104.7835" cy="-106.6818" r="4" fill="black"/><rect x="-4.0000" y="-84.0000" width="8" height="8" fill="black" transform="rotate(-50.0 4.898587196589413E-15 -80.0)"/><circle cx="36.6977" cy="-129.2370" r="4" fill="black"/><rect x="32.6977" y="-133.2370" width="8" height="8" fill="black" transform="rotate(45.0 36.697749670798125 -129.2370043511071)"/><circle cx="56.0566" cy="-126.6884" r="4" fill="black"/><rect x="42.0947" y="-129.8168" width="8" height="8" fill="black" transform="rotate(60.0 46.09467587865721 -125.8168029178504)"/><circle cx="46.0947" cy="-125.8168" r="4" fill="black"/><rect x="22.7358" y="-134.1086" width="8" height="8" fill="black" transform="rotate(5.0 26.73580268988067 -130.10856177858366)"/><circle cx="36.1327" cy="-133.5288" r="4" fill="black"/><rect x="32.1327" y="-137.5288" width="8" height="8" fill="black" transform="rotate(20.0 36.13272889773975 -133.52876321184036)"/><circle cx="54.7549" cy="-139.4003" r="4" fill="black"/><rect x="42.0947" y="-138.4003" width="8" height="8" fill="black" transform="rotate(35.0 46.094675878657206 -134.40032063931693)"/><circle cx="66.7429" cy="-158.1622" r="4" fill="black"/><rect x="62.7429" y="-162.1622" width="8" height="8" fill="black" transform="rotate(-5.0 66.74285854119526 -158.16216808069348)"/><circle cx="81.1389" cy="-171.3537" r="4" fill="black"/><rect x="71.4031" y="-167.1622" width="8" height="8" fill="black" transform="rotate(10.0 75.40311257903964 -163.16216808069348)"/><circle cx="75.4031" cy="-163.1622" r="4" fill="black"/><circle cx="54.9266" cy="-133.5288" r="4" fill="black"/><rect x="50.9266" y="-137.5288" width="8" height="8" fill="black" transform="rotate(60.0 54.926581313457916 -133.52876321184036)"/><circle cx="72.9662" cy="-126.0565" r="4" fill="black"/><rect x="59.1181" y="-131.7930" width="8" height="8" fill="black" transform="rotate(75.0 63.11810175634783 -127.7929988483299)"/><rect x="59.1181" y="-131.7930" width="8" height="8" fill="black" transform="rotate(75.0 63.11810175634783 -127.7929988483299)"/><circle cx="63.1181" cy="-127.7930" r="4" fill="black"/><rect x="6.3528" y="-122.6370" width="8" height="8" fill="black" transform="rotate(-35.0 10.352761804100835 -118.63703305156275)"/><circle cx="29.7497" cy="-139.3777" r="4" fill="black"/><rect x="25.7497" y="-143.3777" width="8" height="8" fill="black" transform="rotate(20.0 29.749688011959922 -139.3777425605082)"/><circle cx="48.3719" cy="-145.2493" r="4" fill="black"/><rect x="35.7116" y="-144.2493" width="8" height="8" fill="black" transform="rotate(35.0 39.71163499287738 -140.24929998798478)"/><circle cx="39.7116" cy="-140.2493" r="4" fill="black"/><rect x="16.3528" y="-139.9575" width="8" height="8" fill="black" transform="rotate(-20.0 20.352761804100837 -135.95754112725152)"/><circle cx="27.4238" cy="-143.0286" r="4" fill="black"/><rect x="23.4238" y="-147.0286" width="8" height="8" fill="black" transform="rotate(-5.0 27.423829615966312 -143.028608939117)"/><circle cx="41.8198" cy="-156.2201" r="4" fill="black"/><rect x="32.0841" y="-152.0286" width="8" height="8" fill="black" transform="rotate(10.0 36.0840836538107 -148.028608939117)"/><circle cx="44.7555" cy="-178.2905" r="4" fill="black"/><rect x="40.7555" y="-182.2905" width="8" height="8" fill="black" transform="rotate(-30.0 44.755501727601846 -178.2904553745597)"/><circle cx="52.2277" cy="-196.3301" r="4" fill="black"/><rect x="46.4913" y="-190.4820" width="8" height="8" fill="black" transform="rotate(-15.0 50.49126609111231 -186.48197581744964)"/><circle cx="50.4913" cy="-186.4820" r="4" fill="black"/><circle cx="44.4568" cy="-150.9712" r="4" fill="black"/><rect x="40.4568" y="-154.9712" width="8" height="8" fill="black" transform="rotate(35.0 44.45684440874924 -150.97123417845904)"/><circle cx="63.9642" cy="-151.8229" r="4" fill="black"/><rect x="50.3049" y="-153.2348" width="8" height="8" fill="black" transform="rotate(50.0 54.30492193887132 -149.23475240178973)"/><rect x="50.3049" y="-153.2348" width="8" height="8" fill="black" transform="rotate(50.0 54.30492193887132 -149.23475240178973)"/><circle cx="42.6532" cy="-220.1208" r="4" fill="black"/><rect x="38.6532" y="-224.1208" width="8" height="8" fill="black" transform="rotate(-5.0 42.6531741808258 -220.12079890031046)"/><circle cx="57.0492" cy="-233.3123" r="4" fill="black"/><rect x="47.3134" y="-229.1208" width="8" height="8" fill="black" transform="rotate(10.0 51.31342821867019 -225.12079890031046)"/><circle cx="51.3134" cy="-225.1208" r="4" fill="black"/><rect x="31.5821" y="-217.0497" width="8" height="8" fill="black" transform="rotate(-45.0 35.582106368960325 -213.049731088445)"/><circle cx="39.0023" cy="-222.4467" r="4" fill="black"/><rect x="35.0023" y="-226.4467" width="8" height="8" fill="black" transform="rotate(-30.0 39.00230780221701 -222.44665729630407)"/><circle cx="46.4746" cy="-240.4863" r="4" fill="black"/><rect x="40.7381" y="-234.6382" width="8" height="8" fill="black" transform="rotate(-15.0 44.73807216572747 -230.638177739194)"/><circle cx="39.8078" cy="-261.7294" r="4" fill="black"/><rect x="35.8078" y="-265.7294" width="8" height="8" fill="black" transform="rotate(-55.0 39.80783695304395 -261.7294244469155)"/><circle cx="38.9561" cy="-281.2368" r="4" fill="black"/><rect x="37.5443" y="-275.5775" width="8" height="8" fill="black" transform="rotate(-40.0 41.544318729713254 -271.57750197703757)"/><circle cx="41.5443" cy="-271.5775" r="4" fill="black"/><circle cx="51.0828" cy="-236.8436" r="4" fill="black"/><rect x="47.0828" y="-240.8436" width="8" height="8" fill="black" transform="rotate(10.0 51.082763273318086 -236.84358350416315)"/><circle cx="68.4025" cy="-245.8597" r="4" fill="black"/><rect x="56.7420" y="-243.4318" width="8" height="8" fill="black" transform="rotate(25.0 60.74202153620877 -239.43177395518836)"/><rect x="56.7420" y="-243.4318" width="8" height="8" fill="black" transform="rotate(25.0 60.74202153620877 -239.43177395518836)"/><circle cx="60.7420" cy="-239.4318" r="4" fill="black"/><circle cx="58.5435" cy="-156.6983" r="4" fill="black"/><rect x="54.5435" y="-160.6983" width="8" height="8" fill="black" transform="rotate(60.0 58.54354042767808 -156.698250636197)"/><circle cx="76.5831" cy="-149.2260" r="4" fill="black"/><rect x="62.7351" y="-154.9625" width="8" height="8" fill="black" transform="rotate(75.0 66.73506087056799 -150.96248627268653)"/><circle cx="66.7351" cy="-150.9625" r="4" fill="black"/><rect x="45.1466" y="-164.1185" width="8" height="8" fill="black" transform="rotate(20.0 49.146614219819 -160.1184520694537)"/><circle cx="59.1086" cy="-160.9900" r="4" fill="black"/><rect x="55.1086" y="-164.9900" width="8" height="8" fill="black" transform="rotate(35.0 59.10856120073645 -160.99000949693027)"/><circle cx="78.6159" cy="-161.8417" r="4" fill="black"/><rect x="64.9566" y="-163.2535" width="8" height="8" fill="black" transform="rotate(50.0 68.95663873085853 -159.25352772026096)"/><circle cx="95.0513" cy="-176.8616" r="4" fill="black"/><rect x="91.0513" y="-180.8616" width="8" height="8" fill="black" transform="rotate(10.0 95.05127029518705 -176.86156692440684)"/><circle cx="112.3710" cy="-185.8776" r="4" fill="black"/><rect x="100.7105" y="-183.4498" width="8" height="8" fill="black" transform="rotate(25.0 104.71052855807774 -179.44975737543206)"/><circle cx="104.7105" cy="-179.4498" r="4" fill="black"/><circle cx="77.2620" cy="-156.1258" r="4" fill="black"/><rect x="73.2620" y="-160.1258" width="8" height="8" fill="black" transform="rotate(75.0 77.26202862454383 -156.12580256089637)"/><circle cx="92.7530" cy="-144.2392" r="4" fill="black"/><rect x="79.6899" y="-152.4654" width="8" height="8" fill="black" transform="rotate(90.0 83.68990472140922 -148.4653581297066)"/><rect x="79.6899" y="-152.4654" width="8" height="8" fill="black" transform="rotate(90.0 83.68990472140922 -148.4653581297066)"/><rect x="79.6899" y="-152.4654" width="8" height="8" fill="black" transform="rotate(90.0 83.68990472140922 -148.4653581297066)"/><circle cx="19.2647" cy="-296.1917" r="4" fill="black"/><rect x="15.2647" y="-300.1917" width="8" height="8" fill="black" transform="rotate(20.0 19.264668496029117 -296.1917059735359)"/><circle cx="37.8869" cy="-302.0633" r="4" fill="black"/><rect x="25.2266" y="-301.0633" width="8" height="8" fill="black" transform="rotate(35.0 29.22661547694657 -297.0632634010125)"/><circle cx="29.2266" cy="-297.0633" r="4" fill="black"/><rect x="5.8677" y="-296.7715" width="8" height="8" fill="black" transform="rotate(-20.0 9.867742288170032 -292.7715045402792)"/><circle cx="16.9388" cy="-299.8426" r="4" fill="black"/><rect x="12.9388" y="-303.8426" width="8" height="8" fill="black" transform="rotate(-5.0 16.938810100035507 -299.84257235214466)"/><circle cx="31.3348" cy="-313.0341" r="4" fill="black"/><rect x="21.5991" y="-308.8426" width="8" height="8" fill="black" transform="rotate(10.0 25.599064137879893 -304.84257235214466)"/><circle cx="34.2705" cy="-335.1044" r="4" fill="black"/><rect x="30.2705" y="-339.1044" width="8" height="8" fill="black" transform="rotate(-30.0 34.27048221167105 -335.10441878758746)"/><circle cx="41.7427" cy="-353.1440" r="4" fill="black"/><rect x="36.0062" y="-347.2959" width="8" height="8" fill="black" transform="rotate(-15.0 40.006246575181514 -343.29593923047736)"/><circle cx="40.0062" cy="-343.2959" r="4" fill="black"/><circle cx="33.9718" cy="-307.7852" r="4" fill="black"/><rect x="29.9718" y="-311.7852" width="8" height="8" fill="black" transform="rotate(35.0 33.97182489281844 -307.78519759148674)"/><circle cx="53.4792" cy="-308.6369" r="4" fill="black"/><rect x="39.8199" y="-310.0487" width="8" height="8" fill="black" transform="rotate(50.0 43.819902422940515 -306.04871581481746)"/><rect x="39.8199" y="-310.0487" width="8" height="8" fill="black" transform="rotate(50.0 43.819902422940515 -306.04871581481746)"/><circle cx="43.8199" cy="-306.0487" r="4" fill="black"/><rect x="-4.1323" y="-279.4510" width="8" height="8" fill="black" transform="rotate(-60.0 -0.1322577118299697 -275.45099646459045)"/><circle cx="8.6819" cy="-302.4460" r="4" fill="black"/><rect x="4.6819" y="-306.4460" width="8" height="8" fill="black" transform="rotate(-5.0 8.681924954988668 -302.4459582382908)"/><circle cx="23.0779" cy="-315.6375" r="4" fill="black"/><rect x="13.3422" y="-311.4460" width="8" height="8" fill="black" transform="rotate(10.0 17.342178992833055 -307.4459582382908)"/><circle cx="17.3422" cy="-307.4460" r="4" fill="black"/><rect x="-2.3891" y="-299.3749" width="8" height="8" fill="black" transform="rotate(-45.0 1.610857143123193 -295.37489042642534)"/><circle cx="5.0311" cy="-304.7718" r="4" fill="black"/><rect x="1.0311" y="-308.7718" width="8" height="8" fill="black" transform="rotate(-30.0 5.031058576379881 -304.77181663428445)"/><circle cx="12.5033" cy="-322.8114" r="4" fill="black"/><rect x="6.7668" y="-316.9633" width="8" height="8" fill="black" transform="rotate(-15.0 10.766822939890343 -312.96333707717434)"/><circle cx="5.8366" cy="-344.0546" r="4" fill="black"/><rect x="1.8366" y="-348.0546" width="8" height="8" fill="black" transform="rotate(-55.0 5.836587727206823 -344.0545837848959)"/><circle cx="4.9849" cy="-363.5619" r="4" fill="black"/><rect x="3.5731" y="-357.9027" width="8" height="8" fill="black" transform="rotate(-40.0 7.573069503876128 -353.90266131501795)"/><circle cx="7.5731" cy="-353.9027" r="4" fill="black"/><circle cx="17.1115" cy="-319.1687" r="4" fill="black"/><rect x="13.1115" y="-323.1687" width="8" height="8" fill="black" transform="rotate(10.0 17.11151404748096 -319.16874284214356)"/><circle cx="34.4312" cy="-328.1848" r="4" fill="black"/><rect x="22.7708" y="-325.7569" width="8" height="8" fill="black" transform="rotate(25.0 26.77077231037164 -321.75693329316874)"/><rect x="22.7708" y="-325.7569" width="8" height="8" fill="black" transform="rotate(25.0 26.77077231037164 -321.75693329316874)"/><circle cx="-13.7470" cy="-381.0773" r="4" fill="black"/><rect x="-17.7470" y="-385.0773" width="8" height="8" fill="black" transform="rotate(-30.0 -13.747035168207075 -381.077267843274)"/><circle cx="-6.2748" cy="-399.1169" r="4" fill="black"/><rect x="-12.0113" y="-393.2688" width="8" height="8" fill="black" transform="rotate(-15.0 -8.011270804696615 -389.2687882861639)"/><circle cx="-8.0113" cy="-389.2688" r="4" fill="black"/><rect x="-21.1672" y="-375.6803" width="8" height="8" fill="black" transform="rotate(-70.0 -17.167236601463763 -371.6803416354149)"/><circle cx="-18.0388" cy="-381.6423" r="4" fill="black"/><rect x="-22.0388" y="-385.6423" width="8" height="8" fill="black" transform="rotate(-55.0 -18.038794028940345 -381.64228861633234)"/><circle cx="-18.8905" cy="-401.1496" r="4" fill="black"/><rect x="-20.3023" y="-395.4904" width="8" height="8" fill="black" transform="rotate(-40.0 -16.30231225227104 -391.4903661464544)"/><circle cx="-33.9104" cy="-417.5850" r="4" fill="black"/><rect x="-37.9104" y="-421.5850" width="8" height="8" fill="black" transform="rotate(-80.0 -33.910351456416926 -417.5849977107829)"/><circle cx="-42.9264" cy="-434.9047" r="4" fill="black"/><rect x="-40.4985" y="-431.2443" width="8" height="8" fill="black" transform="rotate(-65.0 -36.49854190744213 -427.24425597367355)"/><circle cx="-36.4985" cy="-427.2443" r="4" fill="black"/><circle cx="-13.1746" cy="-399.7958" r="4" fill="black"/><rect x="-17.1746" y="-403.7958" width="8" height="8" fill="black" transform="rotate(-15.0 -13.174587092906464 -399.7957560401397)"/><circle cx="-1.2880" cy="-415.2867" r="4" fill="black"/><rect x="-9.5141" y="-410.2236" width="8" height="8" fill="black" transform="rotate(0.0 -5.514142661716684 -406.2236321370051)"/><rect x="-9.5141" y="-410.2236" width="8" height="8" fill="black" transform="rotate(0.0 -5.514142661716684 -406.2236321370051)"/><circle cx="-5.5141" cy="-406.2236" r="4" fill="black"/><circle cx="27.4581" cy="-330.3125" r="4" fill="black"/><rect x="23.4581" y="-334.3125" width="8" height="8" fill="black" transform="rotate(35.0 27.458054602724758 -330.3124774394678)"/><circle cx="46.9654" cy="-331.1642" r="4" fill="black"/><rect x="33.3061" y="-332.5760" width="8" height="8" fill="black" transform="rotate(50.0 37.30613213284684 -328.5759956627985)"/><circle cx="37.3061" cy="-328.5760" r="4" fill="black"/><rect x="13.4961" y="-333.4409" width="8" height="8" fill="black" transform="rotate(-5.0 17.496107621807305 -329.4409200119912)"/><circle cx="26.1564" cy="-334.4409" r="4" fill="black"/><rect x="22.1564" y="-338.4409" width="8" height="8" fill="black" transform="rotate(10.0 26.156361659651694 -334.4409200119912)"/><circle cx="43.4761" cy="-343.4570" r="4" fill="black"/><rect x="31.8156" y="-341.0291" width="8" height="8" fill="black" transform="rotate(25.0 35.815619922542375 -337.02911046301637)"/><circle cx="52.0239" cy="-364.0155" r="4" fill="black"/><rect x="48.0239" y="-368.0155" width="8" height="8" fill="black" transform="rotate(-15.0 52.02390878802747 -364.01548134066087)"/><circle cx="63.9105" cy="-379.5064" r="4" fill="black"/><rect x="55.6844" y="-374.4434" width="8" height="8" fill="black" transform="rotate(0.0 59.68435321921725 -370.4433574375263)"/><circle cx="59.6844" cy="-370.4434" r="4" fill="black"/><circle cx="44.6647" cy="-337.7044" r="4" fill="black"/><rect x="40.6647" y="-341.7044" width="8" height="8" fill="black" transform="rotate(50.0 44.66469322761816 -337.7044382353219)"/><circle cx="63.7278" cy="-333.4783" r="4" fill="black"/><rect x="49.7278" y="-337.4783" width="8" height="8" fill="black" transform="rotate(65.0 53.72777109798466 -333.4782556179149)"/><rect x="49.7278" y="-337.4783" width="8" height="8" fill="black" transform="rotate(65.0 53.72777109798466 -333.4782556179149)"/><rect x="49.7278" y="-337.4783" width="8" height="8" fill="black" transform="rotate(65.0 53.72777109798466 -333.4782556179149)"/><circle cx="53.7278" cy="-333.4783" r="4" fill="black"/><circle cx="80.4666" cy="-171.4029" r="4" fill="black"/><rect x="76.4666" y="-175.4029" width="8" height="8" fill="black" transform="rotate(85.0 80.46656715346172 -171.40294089034876)"/><circle cx="93.6581" cy="-157.0069" r="4" fill="black"/><rect x="81.4666" y="-166.7427" width="8" height="8" fill="black" transform="rotate(100.0 85.46656715346172 -162.74268685250436)"/><circle cx="85.4666" cy="-162.7427" r="4" fill="black"/><rect x="69.3955" y="-182.4740" width="8" height="8" fill="black" transform="rotate(45.0 73.39549934159625 -178.47400870221423)"/><circle cx="82.7924" cy="-175.0538" r="4" fill="black"/><rect x="78.7924" y="-179.0538" width="8" height="8" fill="black" transform="rotate(60.0 82.79242554945533 -175.05380726895754)"/><circle cx="100.8320" cy="-167.5816" r="4" fill="black"/><rect x="86.9839" y="-173.3180" width="8" height="8" fill="black" transform="rotate(75.0 90.98394599234524 -169.31804290544707)"/><circle cx="122.0752" cy="-174.2483" r="4" fill="black"/><rect x="118.0752" y="-178.2483" width="8" height="8" fill="black" transform="rotate(35.0 122.0751927000668 -174.24827811813057)"/><circle cx="141.5825" cy="-175.1000" r="4" fill="black"/><rect x="127.9233" y="-176.5118" width="8" height="8" fill="black" transform="rotate(50.0 131.92327023018888 -172.51179634146126)"/><circle cx="131.9233" cy="-172.5118" r="4" fill="black"/><circle cx="97.1894" cy="-162.9734" r="4" fill="black"/><rect x="93.1894" y="-166.9734" width="8" height="8" fill="black" transform="rotate(100.0 97.18935175731441 -162.97335179785645)"/><circle cx="106.2054" cy="-145.6536" r="4" fill="black"/><rect x="95.7775" y="-157.3141" width="8" height="8" fill="black" transform="rotate(115.0 99.77754220833963 -153.31409353496576)"/><rect x="95.7775" y="-157.3141" width="8" height="8" fill="black" transform="rotate(115.0 99.77754220833963 -153.31409353496576)"/><circle cx="99.7775" cy="-153.3141" r="4" fill="black"/><rect x="49.4716" y="-184.2171" width="8" height="8" fill="black" transform="rotate(5.0 53.471605379761336 -180.21712355716738)"/><circle cx="81.6624" cy="-183.6373" r="4" fill="black"/><rect x="77.6624" y="-187.6373" width="8" height="8" fill="black" transform="rotate(60.0 81.66238400333859 -183.63732499042408)"/><circle cx="99.7020" cy="-176.1651" r="4" fill="black"/><rect x="85.8539" y="-181.9016" width="8" height="8" fill="black" transform="rotate(75.0 89.85390444622851 -177.9015606269136)"/><circle cx="89.8539" cy="-177.9016" r="4" fill="black"/><rect x="68.2655" y="-191.0575" width="8" height="8" fill="black" transform="rotate(20.0 72.2654577954795 -187.05752642368077)"/><circle cx="82.2274" cy="-187.9291" r="4" fill="black"/><rect x="78.2274" y="-191.9291" width="8" height="8" fill="black" transform="rotate(35.0 82.22740477639697 -187.92908385115734)"/><circle cx="101.7347" cy="-188.7808" r="4" fill="black"/><rect x="88.0755" y="-190.1926" width="8" height="8" fill="black" transform="rotate(50.0 92.07548230651905 -186.19260207448804)"/><circle cx="118.1701" cy="-203.8006" r="4" fill="black"/><rect x="114.1701" y="-207.8006" width="8" height="8" fill="black" transform="rotate(10.0 118.17011387084757 -203.80064127863392)"/><circle cx="135.4898" cy="-212.8167" r="4" fill="black"/><rect x="123.8294" y="-210.3888" width="8" height="8" fill="black" transform="rotate(25.0 127.82937213373826 -206.38883172965913)"/><circle cx="127.8294" cy="-206.3888" r="4" fill="black"/><circle cx="100.3809" cy="-183.0649" r="4" fill="black"/><rect x="96.3809" y="-187.0649" width="8" height="8" fill="black" transform="rotate(75.0 100.38087220020435 -183.06487691512345)"/><circle cx="115.8718" cy="-171.1782" r="4" fill="black"/><rect x="102.8087" y="-179.4044" width="8" height="8" fill="black" transform="rotate(90.0 106.80874829706974 -175.40443248393368)"/><rect x="102.8087" y="-179.4044" width="8" height="8" fill="black" transform="rotate(90.0 106.80874829706974 -175.40443248393368)"/><circle cx="143.4477" cy="-237.1959" r="4" fill="black"/><rect x="139.4477" y="-241.1959" width="8" height="8" fill="black" transform="rotate(35.0 143.44766406330797 -237.19589358886358)"/><circle cx="162.9550" cy="-238.0476" r="4" fill="black"/><rect x="149.2957" y="-239.4594" width="8" height="8" fill="black" transform="rotate(50.0 153.29574159343005 -235.45941181219428)"/><circle cx="153.2957" cy="-235.4594" r="4" fill="black"/><rect x="129.4857" y="-240.3243" width="8" height="8" fill="black" transform="rotate(-5.0 133.48571708239052 -236.324336161387)"/><circle cx="142.1460" cy="-241.3243" r="4" fill="black"/><rect x="138.1460" y="-245.3243" width="8" height="8" fill="black" transform="rotate(10.0 142.14597112023492 -241.324336161387)"/><circle cx="159.4657" cy="-250.3404" r="4" fill="black"/><rect x="147.8052" y="-247.9125" width="8" height="8" fill="black" transform="rotate(25.0 151.8052293831256 -243.91252661241222)"/><circle cx="168.0135" cy="-270.8989" r="4" fill="black"/><rect x="164.0135" y="-274.8989" width="8" height="8" fill="black" transform="rotate(-15.0 168.01351824861072 -270.89889749005675)"/><circle cx="179.9001" cy="-286.3899" r="4" fill="black"/><rect x="171.6740" y="-281.3268" width="8" height="8" fill="black" transform="rotate(0.0 175.6739626798005 -277.3267735869222)"/><circle cx="175.6740" cy="-277.3268" r="4" fill="black"/><circle cx="160.6543" cy="-244.5879" r="4" fill="black"/><rect x="156.6543" y="-248.5879" width="8" height="8" fill="black" transform="rotate(50.0 160.6543026882014 -244.5878543847177)"/><circle cx="179.7174" cy="-240.3617" r="4" fill="black"/><rect x="165.7174" y="-244.3617" width="8" height="8" fill="black" transform="rotate(65.0 169.7173805585679 -240.3616717673107)"/><rect x="165.7174" y="-244.3617" width="8" height="8" fill="black" transform="rotate(65.0 169.7173805585679 -240.3616717673107)"/><circle cx="169.7174" cy="-240.3617" r="4" fill="black"/><circle cx="114.8532" cy="-178.3973" r="4" fill="black"/><rect x="110.8532" y="-182.3973" width="8" height="8" fill="black" transform="rotate(100.0 114.85316262691583 -178.39727238583637)"/><circle cx="123.8692" cy="-161.0776" r="4" fill="black"/><rect x="113.4414" y="-172.7380" width="8" height="8" fill="black" transform="rotate(115.0 117.44135307794105 -168.73801412294569)"/><circle cx="117.4414" cy="-168.7380" r="4" fill="black"/><rect x="105.8532" y="-191.0575" width="8" height="8" fill="black" transform="rotate(60.0 109.85316262691583 -187.05752642368077)"/><circle cx="118.0447" cy="-181.3218" r="4" fill="black"/><rect x="114.0447" y="-185.3218" width="8" height="8" fill="black" transform="rotate(75.0 118.04468306980576 -181.3217620601703)"/><circle cx="133.5356" cy="-169.4351" r="4" fill="black"/><rect x="120.4726" y="-177.6613" width="8" height="8" fill="black" transform="rotate(90.0 124.47255916667115 -173.66131762898053)"/><circle cx="155.7804" cy="-170.3766" r="4" fill="black"/><rect x="151.7804" y="-174.3766" width="8" height="8" fill="black" transform="rotate(50.0 155.78043610306193 -170.3765523666519)"/><circle cx="174.8435" cy="-166.1504" r="4" fill="black"/><rect x="160.8435" y="-170.1504" width="8" height="8" fill="black" transform="rotate(65.0 164.84351397342843 -166.1503697492449)"/><circle cx="164.8435" cy="-166.1504" r="4" fill="black"/><circle cx="128.8244" cy="-165.9267" r="4" fill="black"/><rect x="124.8244" y="-169.9267" width="8" height="8" fill="black" transform="rotate(115.0 128.8243939637209 -165.92673943376914)"/><circle cx="133.0506" cy="-146.8637" r="4" fill="black"/><rect x="124.8244" y="-159.9267" width="8" height="8" fill="black" transform="rotate(130.0 128.8243939637209 -155.92673943376914)"/><rect x="124.8244" y="-159.9267" width="8" height="8" fill="black" transform="rotate(130.0 128.8243939637209 -155.92673943376914)"/><rect x="124.8244" y="-159.9267" width="8" height="8" fill="black" transform="rotate(130.0 128.8243939637209 -155.92673943376914)"/><rect x="124.8244" y="-159.9267" width="8" height="8" fill="black" transform="rotate(130.0 128.8243939637209 -155.92673943376914)"/></svg>