<svg viewBox="-23.797561933058017 -479.5407848610472 285.5707431966962 523.135401666597" xmlns="http://www.w3.org/2000/svg"><path d="M 0.0 0.0 L 6.123233995736766E-16 -10.0 M 6.123233995736766E-16 -10.0 L 1.2246467991473533E-15 -20.0 M 1.2246467991473533E-15 -20.0 L 1.83697019872103E-15 -30.0 M 1.83697019872103E-15 -30.0 L 2.4492935982947065E-15 -40.0 M 2.4492935982947065E-15 -40.0 L 3.061616997868383E-15 -50.0 M 3.061616997868383E-15 -50.0 L 3.67394039744206E-15 -60.0 M 3.67394039744206E-15 -60.0 L 4.2862637970157365E-15 -70.0 M 4.2862637970157365E-15 -70.0 L 4.898587196589413E-15 -80.0 " fill="none" stroke="black" stroke-width="1" stroke-linecap="round"/><path d="M 4.898587196589413E-15 -80.0 L 7.660444431189785 -86.42787609686539 M 7.660444431189785 -86.42787609686539 L 15.320888862379565 -92.85575219373078 M 15.320888862379565 -92.85575219373078 L 22.981333293569346 -99.28362829059617 M 22.981333293569346 -99.28362829059617 L 30.641777724759127 -105.71150438746156 M 30.641777724759127 -105.71150438746156 L 40.489855254881206 -103.97502261079225 M 40.489855254881206 -103.97502261079225 L 50.33793278500329 -102.23854083412294 M 50.33793278500329 -102.23854083412294 L 55.33793278500329 -93.57828679627856 M 49.96029425054049 -110.88788528951198 L 58.15181469343041 -105.15212092600153 M 115.2414773634605 -154.63152277275475 L 125.08955489358259 -152.89504099608544 M 85.6618516621017 -104.5927374645415 L 86.53340908957827 -94.63079048362404 M 16.904730469627985 -116.252311481466 L 26.563988732518666 -118.84050193249121 M 26.563988732518666 -118.84050193249121 L 36.22324699540935 -121.42869238351642 M 36.22324699540935 -121.42869238351642 L 44.414767438299265 -115.69292802000597 M 32.22561933200755 -129.10806367519677 L 42.07369686212962 -127.37158189852747 M 72.90360389882906 -196.34228309112655 L 82.56286216171975 -198.93047354215176 M 67.24266325463127 -138.49085231558894 L 72.24266325463127 -129.83059827774454 M 33.80946093925596 -272.504622962932 L 41.469905370445744 -278.9324990597974 M 41.469905370445744 -278.9324990597974 L 49.130349801635525 -285.3603751566628 M 49.130349801635525 -285.3603751566628 L 58.9784273317576 -283.62389337999355 M 42.26182617406995 -290.630778703665 L 51.92108443696063 -293.21896915469017 M 50.714191408883934 -368.756934444398 L 58.374635840073715 -375.1848105412634 M 70.0327079346653 -313.93331534644835 L 78.22422837755522 -308.1975509829379 M 72.4464939908187 -162.85738476703284 L 80.6380144337086 -157.12162040352237 M 80.6380144337086 -157.12162040352237 L 88.82953487659853 -151.3858560400119 M 88.82953487659853 -151.3858560400119 L 89.7010923040751 -141.42390905909446 M 92.14264905106286 -159.38442121369422 L 97.14264905106286 -150.72416717584983 M 169.79435368865114 -171.44060036650689 L 177.98587413154107 -165.70483600299642 M 121.83880411130703 -138.59094958466682 L 118.41860267805033 -129.19402337680773 " fill="none" stroke="blue" stroke-width="1" stroke-linecap="round"/><path d="M 55.33793278500329 -93.57828679627856 L 56.20949021247987 -83.6163398153611 M 58.52945322789321 -96.50277647061249 L 63.52945322789321 -87.8425224327681 M 50.33793278500329 -102.23854083412294 L 58.52945322789321 -96.50277647061249 M 58.52945322789321 -96.50277647061249 L 66.72097367078312 -90.76701210710203 M 96.26520626114937 -85.55756677709411 L 104.45672670403928 -79.82180241358365 M 67.59253109825971 -80.80506512618457 L 64.17232966500302 -71.40813891832549 M 58.15181469343041 -105.15212092600153 L 63.15181469343041 -96.49186688815715 M 59.80837178066257 -109.15140351284268 L 67.99989222355248 -103.41563914933222 M 49.96029425054049 -110.88788528951198 L 59.80837178066257 -109.15140351284268 M 59.80837178066257 -109.15140351284268 L 69.65644931078465 -107.41492173617337 M 98.63422409945672 -115.17949308924901 L 108.4823016295788 -113.4430113125797 M 74.65644931078465 -98.75466769832899 L 75.52800673826124 -88.79272071741153 M 30.641777724759127 -105.71150438746156 L 40.30103598764981 -108.29969483848677 M 40.30103598764981 -108.29969483848677 L 49.96029425054049 -110.88788528951198 M 49.96029425054049 -110.88788528951198 L 59.619552513431174 -113.4760757405372 M 59.619552513431174 -113.4760757405372 L 69.27881077632186 -116.06426619156241 M 125.08955489358259 -152.89504099608544 L 133.2810753364725 -147.15927663257497 M 124.90073562635119 -157.21971322377996 L 134.74881315647326 -155.48323144711065 M 115.2414773634605 -154.63152277275475 L 124.90073562635119 -157.21971322377996 M 124.90073562635119 -157.21971322377996 L 134.55999388924187 -159.80790367480517 M 157.5413271828112 -179.09153196540134 L 167.20058544570188 -181.67972241642656 M 142.7515143321318 -154.0721393112947 L 147.7515143321318 -145.4118852734503 M 86.53340908957827 -94.63079048362404 L 83.11320765632158 -85.23386427576496 M 90.6618516621017 -95.93248342669712 L 91.53340908957827 -85.97053644577966 M 85.6618516621017 -104.5927374645415 L 90.6618516621017 -95.93248342669712 M 90.6618516621017 -95.93248342669712 L 95.6618516621017 -87.27222938885274 M 120.23641299077147 -70.06493629832137 L 125.23641299077147 -61.40468226047699 M 92.241650228845 -77.87530318099365 L 85.17058241697953 -70.80423536912818 M 44.414767438299265 -115.69292802000597 L 49.414767438299265 -107.03267398216158 M 46.07132452553142 -119.69221060684711 L 54.26284496842134 -113.95644624333666 M 36.22324699540935 -121.42869238351642 L 46.07132452553142 -119.69221060684711 M 46.07132452553142 -119.69221060684711 L 55.91940205565351 -117.9557288301778 M 84.89717684432557 -125.72030018325344 L 94.74525437444765 -123.98381840658413 M 60.91940205565351 -109.29547479233342 L 61.79095948313009 -99.33352781141596 M 42.07369686212962 -127.37158189852747 L 50.26521730501954 -121.63581753501701 M 41.88487759489823 -131.696254126222 L 51.73295512502031 -129.95977234955268 M 32.22561933200755 -129.10806367519677 L 41.88487759489823 -131.696254126222 M 41.88487759489823 -131.696254126222 L 51.54413585778891 -134.2844445772472 M 74.52546915135824 -153.56807286784337 L 84.18472741424893 -156.15626331886858 M 59.735656300678826 -128.54868021373673 L 64.73565630067883 -119.88842617589235 M 16.904730469627985 -116.252311481466 L 24.565174900817766 -122.68018757833138 M 24.565174900817766 -122.68018757833138 L 32.22561933200755 -129.10806367519677 M 32.22561933200755 -129.10806367519677 L 39.88606376319733 -135.53593977206216 M 39.88606376319733 -135.53593977206216 L 47.54650819438711 -141.96381586892755 M 82.56286216171975 -198.93047354215176 L 92.41093969184183 -197.19399176548245 M 80.56404833001884 -202.77015918799194 L 90.22330659290952 -205.35834963901715 M 72.90360389882906 -196.34228309112655 L 80.56404833001884 -202.77015918799194 M 80.56404833001884 -202.77015918799194 L 88.22449276120861 -209.19803528485733 M 100.90304061342958 -236.38726889595682 L 108.56348504461936 -242.8151449928222 M 98.07257029133069 -207.46155350818802 L 106.26409073422062 -201.72578914467755 M 72.24266325463127 -129.83059827774454 L 73.11422068210786 -119.86865129682708 M 75.43418369752118 -132.75508795207847 L 80.43418369752118 -124.09483391423409 M 67.24266325463127 -138.49085231558894 L 75.43418369752118 -132.75508795207847 M 75.43418369752118 -132.75508795207847 L 83.6257041404111 -127.01932358856801 M 113.16993673077735 -121.80987825856009 L 121.36145717366728 -116.07411389504963 M 84.49726156788768 -117.05737660765055 L 81.07706013463098 -107.66045039979147 M 4.898587196589413E-15 -80.0 L 4.226182617407 -89.0630778703665 M 4.226182617407 -89.0630778703665 L 8.452365234813994 -98.126155740733 M 8.452365234813994 -98.126155740733 L 12.678547852220989 -107.1892336110995 M 12.678547852220989 -107.1892336110995 L 16.904730469627985 -116.252311481466 M 16.904730469627985 -116.252311481466 L 21.13091308703498 -125.3153893518325 M 21.13091308703498 -125.3153893518325 L 25.357095704441974 -134.378467222199 M 25.357095704441974 -134.378467222199 L 29.58327832184897 -143.4415450925655 M 29.58327832184897 -143.4415450925655 L 33.80946093925596 -152.504622962932 M 58.9784273317576 -283.62389337999355 L 67.16994777464751 -277.8881290164831 M 58.789608064526206 -287.948565607688 L 68.63768559464829 -286.21208383101873 M 49.130349801635525 -285.3603751566628 L 58.789608064526206 -287.948565607688 M 58.789608064526206 -287.948565607688 L 68.4488663274169 -290.5367560587132 M 91.43019962098622 -309.82038434930945 L 101.0894578838769 -312.40857480033463 M 76.6403867703068 -284.80099169520275 L 81.6403867703068 -276.1407376573584 M 51.92108443696063 -293.21896915469017 L 61.76916196708271 -291.4824873780209 M 49.92227060525973 -297.0586548005304 L 59.581528868150414 -299.6468452515556 M 42.26182617406995 -290.630778703665 L 49.92227060525973 -297.0586548005304 M 49.92227060525973 -297.0586548005304 L 57.582715036449514 -303.4865308973958 M 70.26126288867049 -330.6757645084953 L 77.92170731986026 -337.10364060536074 M 67.4307925665716 -301.75004912072654 L 75.62231300946152 -296.0142847572161 M 33.80946093925596 -272.504622962932 L 38.03564355666296 -281.5677008332985 M 38.03564355666296 -281.5677008332985 L 42.26182617406995 -290.630778703665 M 42.26182617406995 -290.630778703665 L 46.48800879147694 -299.6938565740315 M 46.48800879147694 -299.6938565740315 L 50.714191408883934 -308.756934444398 M 58.374635840073715 -375.1848105412634 L 68.0338941029644 -377.7730009922886 M 54.940374026290925 -377.8200123147645 L 62.600818457480706 -384.2478884116299 M 50.714191408883934 -368.756934444398 L 54.940374026290925 -377.8200123147645 M 54.940374026290925 -377.8200123147645 L 59.166556643697916 -386.883090185131 M 59.166556643697916 -416.883090185131 L 63.39273926110491 -425.9461680554975 M 68.8258149065886 -389.47128063615617 L 78.67389243671069 -387.7347988594869 M 78.22422837755522 -308.1975509829379 L 83.22422837755522 -299.53729694509354 M 79.88078546478738 -312.1968335697791 L 88.0723059076773 -306.46106920626863 M 70.0327079346653 -313.93331534644835 L 79.88078546478738 -312.1968335697791 M 79.88078546478738 -312.1968335697791 L 89.72886299490946 -310.4603517931098 M 118.70663778358153 -318.22492314618535 L 128.5547153137036 -316.48844136951607 M 94.72886299490946 -301.8000977552654 L 95.60042042238604 -291.838150774348 M 89.7010923040751 -141.42390905909446 L 86.28089087081841 -132.02698285123537 M 93.82953487659853 -142.7256020021675 L 94.7010923040751 -132.76365502125006 M 88.82953487659853 -151.3858560400119 L 93.82953487659853 -142.7256020021675 M 93.82953487659853 -142.7256020021675 L 98.82953487659853 -134.0653479643231 M 123.4040962052683 -116.85805487379173 L 128.4040962052683 -108.19780083594735 M 95.40933344334184 -124.66842175646403 L 88.33826563147636 -117.59735394459855 M 97.14264905106286 -150.72416717584983 L 98.01420647853945 -140.76222019493238 M 100.33416949395277 -153.64865685018376 L 105.33416949395277 -144.98840281233936 M 92.14264905106286 -159.38442121369422 L 100.33416949395277 -153.64865685018376 M 100.33416949395277 -153.64865685018376 L 108.5256899368427 -147.9128924866733 M 138.06992252720894 -142.70344715666536 L 146.26144297009887 -136.9676827931549 M 109.39724736431927 -137.95094550575584 L 105.97704593106258 -128.55401929789676 M 72.4464939908187 -162.85738476703284 L 82.29457152094078 -161.12090299036353 M 82.29457152094078 -161.12090299036353 L 92.14264905106286 -159.38442121369422 M 92.14264905106286 -159.38442121369422 L 101.99072658118494 -157.64793943702492 M 101.99072658118494 -157.64793943702492 L 111.83880411130703 -155.9114576603556 M 177.98587413154107 -165.70483600299642 L 182.98587413154107 -157.04458196515202 M 179.64243121877323 -169.70411858983758 L 187.83395166166315 -163.9683542263271 M 169.79435368865114 -171.44060036650689 L 179.64243121877323 -169.70411858983758 M 179.64243121877323 -169.70411858983758 L 189.4905087488953 -167.96763681316827 M 218.46828353756737 -175.7322081662439 L 228.31636106768946 -173.9957263895746 M 194.4905087488953 -159.30738277532387 L 195.36206617637188 -149.34543579440643 M 118.41860267805033 -129.19402337680773 L 111.34753486618486 -122.12295556494226 M 122.71036153878362 -128.62900260374937 L 119.29016010552692 -119.23207639589029 M 121.83880411130703 -138.59094958466682 L 122.71036153878362 -128.62900260374937 M 122.71036153878362 -128.62900260374937 L 123.58191896626019 -118.66705562283191 M 138.5819189662602 -92.68629350929876 L 139.45347639373676 -82.7243465283813 M 116.51085115439471 -111.59598781096643 L 107.11392494653563 -108.17578637770974 " fill="none" stroke="green" stroke-width="1" stroke-linecap="round"/><path d="M 56.20949021247987 -83.6163398153611 L 61.20949021247987 -74.95608577751672 M 63.52945322789321 -87.8425224327681 L 71.72097367078312 -82.10675806925765 M 66.72097367078312 -90.76701210710203 L 76.56905120090521 -89.03053033043273 M 76.56905120090521 -89.03053033043273 L 86.41712873102729 -87.29404855376342 M 86.41712873102729 -87.29404855376342 L 96.26520626114937 -85.55756677709411 M 104.45672670403928 -79.82180241358365 L 114.30480423416137 -78.08532063691435 M 64.17232966500302 -71.40813891832549 L 65.0438870924796 -61.44619193740804 M 63.15181469343041 -96.49186688815715 L 71.34333513632032 -90.75610252464669 M 67.99989222355248 -103.41563914933222 L 77.84796975367456 -101.67915737266291 M 69.65644931078465 -107.41492173617337 L 79.31570757367534 -110.00311218719858 M 79.31570757367534 -110.00311218719858 L 88.97496583656603 -112.5913026382238 M 88.97496583656603 -112.5913026382238 L 98.63422409945672 -115.17949308924901 M 108.4823016295788 -113.4430113125797 L 118.14155989246949 -116.03120176360491 M 75.52800673826124 -88.79272071741153 L 80.52800673826124 -80.13246667956714 M 69.27881077632186 -116.06426619156241 L 76.93925520751164 -122.4921422884278 M 76.93925520751164 -122.4921422884278 L 84.59969963870141 -128.9200183852932 M 84.59969963870141 -128.9200183852932 L 92.26014406989118 -135.34789448215858 M 92.26014406989118 -135.34789448215858 L 99.92058850108096 -141.77577057902397 M 99.92058850108096 -141.77577057902397 L 107.58103293227073 -148.20364667588936 M 107.58103293227073 -148.20364667588936 L 115.2414773634605 -154.63152277275475 M 133.2810753364725 -147.15927663257497 L 143.12915286659458 -145.42279485590566 M 134.74881315647326 -155.48323144711065 L 144.40807141936395 -158.07142189813587 M 134.55999388924187 -159.80790367480517 L 142.22043832043164 -166.23577977167056 M 142.22043832043164 -166.23577977167056 L 149.8808827516214 -172.66365586853595 M 149.8808827516214 -172.66365586853595 L 157.5413271828112 -179.09153196540134 M 167.20058544570188 -181.67972241642656 L 174.86102987689165 -188.10759851329195 M 147.7515143321318 -145.4118852734503 L 155.94303477502172 -139.67612090993984 M 83.11320765632158 -85.23386427576496 L 83.98476508379815 -75.2719172948475 M 91.53340908957827 -85.97053644577966 L 96.53340908957827 -77.31028240793528 M 95.6618516621017 -87.27222938885274 L 103.85337210499162 -81.53646502534228 M 103.85337210499162 -81.53646502534228 L 112.04489254788155 -75.80070066183183 M 112.04489254788155 -75.80070066183183 L 120.23641299077147 -70.06493629832137 M 125.23641299077147 -61.40468226047699 L 133.4279334336614 -55.668917896966526 M 85.17058241697953 -70.80423536912818 L 81.75038098372283 -61.4073091612691 M 49.414767438299265 -107.03267398216158 L 57.60628788118918 -101.29690961865113 M 54.26284496842134 -113.95644624333666 L 64.11092249854342 -112.21996446666735 M 55.91940205565351 -117.9557288301778 L 65.5786603185442 -120.54391928120302 M 65.5786603185442 -120.54391928120302 L 75.23791858143488 -123.13210973222823 M 75.23791858143488 -123.13210973222823 L 84.89717684432557 -125.72030018325344 M 94.74525437444765 -123.98381840658413 L 104.40451263733834 -126.57200885760935 M 61.79095948313009 -99.33352781141596 L 66.7909594831301 -90.67327377357158 M 50.26521730501954 -121.63581753501701 L 60.113294835141616 -119.8993357583477 M 51.73295512502031 -129.95977234955268 L 61.39221338791099 -132.5479628005779 M 51.54413585778891 -134.2844445772472 L 59.20458028897869 -140.7123206741126 M 59.20458028897869 -140.7123206741126 L 66.86502472016846 -147.14019677097798 M 66.86502472016846 -147.14019677097798 L 74.52546915135824 -153.56807286784337 M 84.18472741424893 -156.15626331886858 L 91.8451718454387 -162.58413941573397 M 64.73565630067883 -119.88842617589235 L 72.92717674356874 -114.1526618123819 M 47.54650819438711 -141.96381586892755 L 51.77269081179411 -151.02689373929405 M 51.77269081179411 -151.02689373929405 L 55.9988734292011 -160.08997160966055 M 55.9988734292011 -160.08997160966055 L 60.22505604660809 -169.15304948002705 M 60.22505604660809 -169.15304948002705 L 64.45123866401508 -178.21612735039355 M 64.45123866401508 -178.21612735039355 L 68.67742128142207 -187.27920522076005 M 68.67742128142207 -187.27920522076005 L 72.90360389882906 -196.34228309112655 M 92.41093969184183 -197.19399176548245 L 102.07019795473252 -199.78218221650766 M 90.22330659290952 -205.35834963901715 L 97.8837510240993 -211.78622573588254 M 88.22449276120861 -209.19803528485733 L 92.4506753786156 -218.26111315522382 M 92.4506753786156 -218.26111315522382 L 96.67685799602259 -227.32419102559032 M 96.67685799602259 -227.32419102559032 L 100.90304061342958 -236.38726889595682 M 108.56348504461936 -242.8151449928222 L 112.78966766202635 -251.8782228631887 M 106.26409073422062 -201.72578914467755 L 116.1121682643427 -199.98930736800824 M 73.11422068210786 -119.86865129682708 L 78.11422068210786 -111.2083972589827 M 80.43418369752118 -124.09483391423409 L 88.6257041404111 -118.35906955072363 M 83.6257041404111 -127.01932358856801 L 93.47378167053319 -125.2828418118987 M 93.47378167053319 -125.2828418118987 L 103.32185920065527 -123.5463600352294 M 103.32185920065527 -123.5463600352294 L 113.16993673077735 -121.80987825856009 M 121.36145717366728 -116.07411389504963 L 131.20953470378936 -114.33763211838033 M 81.07706013463098 -107.66045039979147 L 81.94861756210756 -97.69850341887401 M 33.80946093925596 -152.504622962932 L 33.80946093925596 -162.504622962932 M 33.80946093925596 -162.504622962932 L 33.80946093925596 -172.504622962932 M 33.80946093925596 -172.504622962932 L 33.80946093925596 -182.504622962932 M 33.80946093925596 -182.504622962932 L 33.80946093925596 -192.504622962932 M 33.80946093925596 -192.504622962932 L 33.80946093925596 -202.504622962932 M 33.80946093925596 -202.504622962932 L 33.80946093925596 -212.504622962932 M 33.80946093925596 -212.504622962932 L 33.80946093925596 -222.504622962932 M 33.80946093925596 -222.504622962932 L 33.80946093925596 -232.504622962932 M 33.80946093925596 -232.504622962932 L 33.80946093925596 -242.504622962932 M 33.80946093925596 -242.504622962932 L 33.80946093925596 -252.504622962932 M 33.80946093925596 -252.504622962932 L 33.80946093925596 -262.504622962932 M 33.80946093925596 -262.504622962932 L 33.80946093925596 -272.504622962932 M 67.16994777464751 -277.8881290164831 L 77.0180253047696 -276.1516472398138 M 68.63768559464829 -286.21208383101873 L 78.29694385753898 -288.8002742820439 M 68.4488663274169 -290.5367560587132 L 76.10931075860667 -296.9646321555786 M 76.10931075860667 -296.9646321555786 L 83.76975518979644 -303.39250825244403 M 83.76975518979644 -303.39250825244403 L 91.43019962098622 -309.82038434930945 M 101.0894578838769 -312.40857480033463 L 108.74990231506668 -318.83645089720005 M 81.6403867703068 -276.1407376573584 L 89.83190721319673 -270.40497329384795 M 61.76916196708271 -291.4824873780209 L 71.4284202299734 -294.0706778290461 M 59.581528868150414 -299.6468452515556 L 67.24197329934019 -306.074721348421 M 57.582715036449514 -303.4865308973958 L 61.808897653856505 -312.5496087677623 M 61.808897653856505 -312.5496087677623 L 66.0350802712635 -321.6126866381288 M 66.0350802712635 -321.6126866381288 L 70.26126288867049 -330.6757645084953 M 77.92170731986026 -337.10364060536074 L 82.14788993726725 -346.16671847572724 M 75.62231300946152 -296.0142847572161 L 85.4703905395836 -294.2778029805468 M 50.714191408883934 -308.756934444398 L 50.714191408883934 -318.756934444398 M 50.714191408883934 -318.756934444398 L 50.714191408883934 -328.756934444398 M 50.714191408883934 -328.756934444398 L 50.714191408883934 -338.756934444398 M 50.714191408883934 -338.756934444398 L 50.714191408883934 -348.756934444398 M 50.714191408883934 -348.756934444398 L 50.714191408883934 -358.756934444398 M 50.714191408883934 -358.756934444398 L 50.714191408883934 -368.756934444398 M 68.0338941029644 -377.7730009922886 L 75.69433853415417 -384.200877089154 M 62.600818457480706 -384.2478884116299 L 66.8270010748877 -393.3109662819964 M 59.166556643697916 -386.883090185131 L 59.166556643697916 -396.883090185131 M 59.166556643697916 -396.883090185131 L 59.166556643697916 -406.883090185131 M 59.166556643697916 -406.883090185131 L 59.166556643697916 -416.883090185131 M 63.39273926110491 -425.9461680554975 L 63.39273926110491 -435.9461680554975 M 78.67389243671069 -387.7347988594869 L 88.33315069960138 -390.32298931051207 M 83.22422837755522 -299.53729694509354 L 91.41574882044515 -293.8015325815831 M 88.0723059076773 -306.46106920626863 L 97.92038343779939 -304.72458742959935 M 89.72886299490946 -310.4603517931098 L 99.38812125780015 -313.048542244135 M 99.38812125780015 -313.048542244135 L 109.04737952069084 -315.63673269516016 M 109.04737952069084 -315.63673269516016 L 118.70663778358153 -318.22492314618535 M 128.5547153137036 -316.48844136951607 L 138.2139735765943 -319.07663182054125 M 95.60042042238604 -291.838150774348 L 100.60042042238604 -283.1778967365036 M 86.28089087081841 -132.02698285123537 L 87.15244829829498 -122.06503587031791 M 94.7010923040751 -132.76365502125006 L 99.7010923040751 -124.10340098340568 M 98.82953487659853 -134.0653479643231 L 107.02105531948845 -128.32958360081264 M 107.02105531948845 -128.32958360081264 L 115.21257576237838 -122.59381923730218 M 115.21257576237838 -122.59381923730218 L 123.4040962052683 -116.85805487379173 M 128.4040962052683 -108.19780083594735 L 136.59561664815823 -102.46203647243689 M 88.33826563147636 -117.59735394459855 L 84.91806419821967 -108.20042773673947 M 98.01420647853945 -140.76222019493238 L 103.01420647853945 -132.101966157088 M 105.33416949395277 -144.98840281233936 L 113.5256899368427 -139.2526384488289 M 108.5256899368427 -147.9128924866733 L 118.37376746696478 -146.17641071000398 M 118.37376746696478 -146.17641071000398 L 128.22184499708686 -144.43992893333467 M 128.22184499708686 -144.43992893333467 L 138.06992252720894 -142.70344715666536 M 146.26144297009887 -136.9676827931549 L 156.10952050022095 -135.23120101648558 M 105.97704593106258 -128.55401929789676 L 106.84860335853915 -118.5920723169793 M 111.83880411130703 -155.9114576603556 L 121.49806237419772 -158.49964811138082 M 121.49806237419772 -158.49964811138082 L 131.1573206370884 -161.08783856240603 M 131.1573206370884 -161.08783856240603 L 140.81657889997908 -163.67602901343125 M 140.81657889997908 -163.67602901343125 L 150.47583716286977 -166.26421946445646 M 150.47583716286977 -166.26421946445646 L 160.13509542576045 -168.85240991548167 M 160.13509542576045 -168.85240991548167 L 169.79435368865114 -171.44060036650689 M 182.98587413154107 -157.04458196515202 L 191.177394574431 -151.30881760164155 M 187.83395166166315 -163.9683542263271 L 197.68202919178523 -162.2318724496578 M 189.4905087488953 -167.96763681316827 L 199.149767011786 -170.55582726419348 M 199.149767011786 -170.55582726419348 L 208.80902527467669 -173.1440177152187 M 208.80902527467669 -173.1440177152187 L 218.46828353756737 -175.7322081662439 M 228.31636106768946 -173.9957263895746 L 237.97561933058014 -176.5839168405998 M 195.36206617637188 -149.34543579440643 L 200.36206617637188 -140.68518175656203 M 111.34753486618486 -122.12295556494226 L 107.92733343292817 -112.72602935708318 M 119.29016010552692 -119.23207639589029 L 120.1617175330035 -109.27012941497283 M 123.58191896626019 -118.66705562283191 L 128.5819189662602 -110.00680158498753 M 128.5819189662602 -110.00680158498753 L 133.5819189662602 -101.34654754714315 M 133.5819189662602 -101.34654754714315 L 138.5819189662602 -92.68629350929876 M 139.45347639373676 -82.7243465283813 L 144.45347639373676 -74.06409249053692 M 107.11392494653563 -108.17578637770974 L 100.04285713467016 -101.10471856584427 " fill="none" stroke="yellow" stroke-width="1" stroke-linecap="round"/><path d="M 50.33793278500329 -102.23854083412294 L 58.52945322789321 -96.50277647061249 M 30.641777724759127 -105.71150438746156 L 40.30103598764981 -108.29969483848677 M 40.30103598764981 -108.29969483848677 L 49.96029425054049 -110.88788528951198 M 49.96029425054049 -110.88788528951198 L 59.80837178066257 -109.15140351284268 M 115.2414773634605 -154.63152277275475 L 124.90073562635119 -157.21971322377996 M 85.6618516621017 -104.5927374645415 L 90.6618516621017 -95.93248342669712 M 4.898587196589413E-15 -80.0 L 4.226182617407 -89.0630778703665 M 4.226182617407 -89.0630778703665 L 8.452365234813994 -98.126155740733 M 8.452365234813994 -98.126155740733 L 12.678547852220989 -107.1892336110995 M 12.678547852220989 -107.1892336110995 L 16.904730469627985 -116.252311481466 M 36.22324699540935 -121.42869238351642 L 46.07132452553142 -119.69221060684711 M 16.904730469627985 -116.252311481466 L 24.565174900817766 -122.68018757833138 M 24.565174900817766 -122.68018757833138 L 32.22561933200755 -129.10806367519677 M 32.22561933200755 -129.10806367519677 L 41.88487759489823 -131.696254126222 M 72.90360389882906 -196.34228309112655 L 80.56404833001884 -202.77015918799194 M 67.24266325463127 -138.49085231558894 L 75.43418369752118 -132.75508795207847 M 49.130349801635525 -285.3603751566628 L 58.789608064526206 -287.948565607688 M 33.80946093925596 -272.504622962932 L 38.03564355666296 -281.5677008332985 M 38.03564355666296 -281.5677008332985 L 42.26182617406995 -290.630778703665 M 42.26182617406995 -290.630778703665 L 49.92227060525973 -297.0586548005304 M 50.714191408883934 -368.756934444398 L 54.940374026290925 -377.8200123147645 M 70.0327079346653 -313.93331534644835 L 79.88078546478738 -312.1968335697791 M 88.82953487659853 -151.3858560400119 L 93.82953487659853 -142.7256020021675 M 72.4464939908187 -162.85738476703284 L 82.29457152094078 -161.12090299036353 M 82.29457152094078 -161.12090299036353 L 92.14264905106286 -159.38442121369422 M 92.14264905106286 -159.38442121369422 L 100.33416949395277 -153.64865685018376 M 169.79435368865114 -171.44060036650689 L 179.64243121877323 -169.70411858983758 M 121.83880411130703 -138.59094958466682 L 122.71036153878362 -128.62900260374937 " fill="none" stroke="red" stroke-width="1" stroke-linecap="round"/><path d="M 66.72097367078312 -90.76701210710203 L 67.59253109825971 -80.80506512618457 M 69.65644931078465 -107.41492173617337 L 74.65644931078465 -98.75466769832899 M 134.55999388924187 -159.80790367480517 L 142.7515143321318 -154.0721393112947 M 69.27881077632186 -116.06426619156241 L 77.47033121921177 -110.32850182805196 M 77.47033121921177 -110.32850182805196 L 85.6618516621017 -104.5927374645415 M 95.6618516621017 -87.27222938885274 L 92.241650228845 -77.87530318099365 M 55.91940205565351 -117.9557288301778 L 60.91940205565351 -109.29547479233342 M 51.54413585778891 -134.2844445772472 L 59.735656300678826 -128.54868021373673 M 88.22449276120861 -209.19803528485733 L 98.07257029133069 -207.46155350818802 M 47.54650819438711 -141.96381586892755 L 57.394585724509184 -140.22733409225825 M 57.394585724509184 -140.22733409225825 L 67.24266325463127 -138.49085231558894 M 83.6257041404111 -127.01932358856801 L 84.49726156788768 -117.05737660765055 M 68.4488663274169 -290.5367560587132 L 76.6403867703068 -284.80099169520275 M 57.582715036449514 -303.4865308973958 L 67.4307925665716 -301.75004912072654 M 59.166556643697916 -386.883090185131 L 68.8258149065886 -389.47128063615617 M 50.714191408883934 -308.756934444398 L 60.373449671774615 -311.34512489542317 M 60.373449671774615 -311.34512489542317 L 70.0327079346653 -313.93331534644835 M 89.72886299490946 -310.4603517931098 L 94.72886299490946 -301.8000977552654 M 33.80946093925596 -152.504622962932 L 43.468719202146644 -155.0928134139572 M 43.468719202146644 -155.0928134139572 L 53.127977465037326 -157.68100386498242 M 53.127977465037326 -157.68100386498242 L 62.78723572792801 -160.26919431600763 M 62.78723572792801 -160.26919431600763 L 72.4464939908187 -162.85738476703284 M 98.82953487659853 -134.0653479643231 L 95.40933344334184 -124.66842175646403 M 108.5256899368427 -147.9128924866733 L 109.39724736431927 -137.95094550575584 M 189.4905087488953 -167.96763681316827 L 194.4905087488953 -159.30738277532387 M 111.83880411130703 -155.9114576603556 L 116.83880411130703 -147.2512036225112 M 116.83880411130703 -147.2512036225112 L 121.83880411130703 -138.59094958466682 M 123.58191896626019 -118.66705562283191 L 116.51085115439471 -111.59598781096643 " fill="none" stroke="purple" stroke-width="1" stroke-linecap="round"/><circle cx="0.0000" cy="-80.0000" r="4" fill="black"/><rect x="-4.0000" y="-84.0000" width="8" height="8" fill="blue" transform="rotate(-40.0 4.898587196589413E-15 -80.0)"/><rect x="-4.0000" y="-84.0000" width="8" height="8" fill="blue" transform="rotate(-40.0 4.898587196589413E-15 -80.0)"/><circle cx="30.6418" cy="-105.7115" r="4" fill="blue"/><rect x="26.6418" y="-109.7115" width="8" height="8" fill="blue" transform="rotate(10.0 30.641777724759127 -105.71150438746156)"/><rect x="26.6418" y="-109.7115" width="8" height="8" fill="blue" transform="rotate(10.0 30.641777724759127 -105.71150438746156)"/><circle cx="50.3379" cy="-102.2385" r="4" fill="blue"/><rect x="46.3379" y="-106.2385" width="8" height="8" fill="blue" transform="rotate(60.0 50.33793278500329 -102.23854083412294)"/><rect x="46.3379" y="-106.2385" width="8" height="8" fill="blue" transform="rotate(60.0 50.33793278500329 -102.23854083412294)"/><circle cx="55.3379" cy="-93.5783" r="4" fill="blue"/><rect x="51.3379" y="-97.5783" width="8" height="8" fill="blue" transform="rotate(110.0 55.33793278500329 -93.57828679627856)"/><rect x="51.3379" y="-97.5783" width="8" height="8" fill="blue" transform="rotate(110.0 55.33793278500329 -93.57828679627856)"/><circle cx="61.2095" cy="-74.9561" r="4" fill="yellow"/><circle cx="58.5295" cy="-96.5028" r="4" fill="red"/><rect x="54.5295" y="-100.5028" width="8" height="8" fill="blue" transform="rotate(85.0 58.52945322789321 -96.50277647061249)"/><rect x="54.5295" y="-100.5028" width="8" height="8" fill="blue" transform="rotate(85.0 58.52945322789321 -96.50277647061249)"/><circle cx="71.7210" cy="-82.1068" r="4" fill="yellow"/><circle cx="96.2652" cy="-85.5576" r="4" fill="yellow"/><rect x="92.2652" y="-89.5576" width="8" height="8" fill="blue" transform="rotate(60.0 96.26520626114937 -85.55756677709411)"/><rect x="92.2652" y="-89.5576" width="8" height="8" fill="blue" transform="rotate(60.0 96.26520626114937 -85.55756677709411)"/><circle cx="114.3048" cy="-78.0853" r="4" fill="yellow"/><circle cx="104.4567" cy="-79.8218" r="4" fill="purple"/><circle cx="67.5925" cy="-80.8051" r="4" fill="purple"/><rect x="63.5925" y="-84.8051" width="8" height="8" fill="blue" transform="rotate(135.0 67.59253109825971 -80.80506512618457)"/><rect x="63.5925" y="-84.8051" width="8" height="8" fill="blue" transform="rotate(135.0 67.59253109825971 -80.80506512618457)"/><circle cx="65.0439" cy="-61.4462" r="4" fill="yellow"/><circle cx="49.9603" cy="-110.8879" r="4" fill="red"/><rect x="45.9603" y="-114.8879" width="8" height="8" fill="blue" transform="rotate(35.0 49.96029425054049 -110.88788528951198)"/><rect x="45.9603" y="-114.8879" width="8" height="8" fill="blue" transform="rotate(35.0 49.96029425054049 -110.88788528951198)"/><circle cx="58.1518" cy="-105.1521" r="4" fill="blue"/><rect x="54.1518" y="-109.1521" width="8" height="8" fill="blue" transform="rotate(85.0 58.15181469343041 -105.15212092600153)"/><rect x="54.1518" y="-109.1521" width="8" height="8" fill="blue" transform="rotate(85.0 58.15181469343041 -105.15212092600153)"/><circle cx="71.3433" cy="-90.7561" r="4" fill="yellow"/><circle cx="59.8084" cy="-109.1514" r="4" fill="red"/><rect x="55.8084" y="-113.1514" width="8" height="8" fill="blue" transform="rotate(60.0 59.80837178066257 -109.15140351284268)"/><rect x="55.8084" y="-113.1514" width="8" height="8" fill="blue" transform="rotate(60.0 59.80837178066257 -109.15140351284268)"/><circle cx="77.8480" cy="-101.6792" r="4" fill="yellow"/><circle cx="98.6342" cy="-115.1795" r="4" fill="yellow"/><rect x="94.6342" y="-119.1795" width="8" height="8" fill="blue" transform="rotate(35.0 98.63422409945672 -115.17949308924901)"/><rect x="94.6342" y="-119.1795" width="8" height="8" fill="blue" transform="rotate(35.0 98.63422409945672 -115.17949308924901)"/><circle cx="118.1416" cy="-116.0312" r="4" fill="yellow"/><circle cx="108.4823" cy="-113.4430" r="4" fill="purple"/><circle cx="74.6564" cy="-98.7547" r="4" fill="purple"/><rect x="70.6564" y="-102.7547" width="8" height="8" fill="blue" transform="rotate(110.0 74.65644931078465 -98.75466769832899)"/><rect x="70.6564" y="-102.7547" width="8" height="8" fill="blue" transform="rotate(110.0 74.65644931078465 -98.75466769832899)"/><circle cx="80.5280" cy="-80.1325" r="4" fill="yellow"/><circle cx="115.2415" cy="-154.6315" r="4" fill="yellow"/><rect x="111.2415" y="-158.6315" width="8" height="8" fill="blue" transform="rotate(10.0 115.2414773634605 -154.63152277275475)"/><rect x="111.2415" y="-158.6315" width="8" height="8" fill="blue" transform="rotate(10.0 115.2414773634605 -154.63152277275475)"/><circle cx="125.0896" cy="-152.8950" r="4" fill="blue"/><rect x="121.0896" y="-156.8950" width="8" height="8" fill="blue" transform="rotate(60.0 125.08955489358259 -152.89504099608544)"/><rect x="121.0896" y="-156.8950" width="8" height="8" fill="blue" transform="rotate(60.0 125.08955489358259 -152.89504099608544)"/><circle cx="143.1292" cy="-145.4228" r="4" fill="yellow"/><circle cx="124.9007" cy="-157.2197" r="4" fill="red"/><rect x="120.9007" y="-161.2197" width="8" height="8" fill="blue" transform="rotate(35.0 124.90073562635119 -157.21971322377996)"/><rect x="120.9007" y="-161.2197" width="8" height="8" fill="blue" transform="rotate(35.0 124.90073562635119 -157.21971322377996)"/><circle cx="144.4081" cy="-158.0714" r="4" fill="yellow"/><circle cx="157.5413" cy="-179.0915" r="4" fill="yellow"/><rect x="153.5413" y="-183.0915" width="8" height="8" fill="blue" transform="rotate(10.0 157.5413271828112 -179.09153196540134)"/><rect x="153.5413" y="-183.0915" width="8" height="8" fill="blue" transform="rotate(10.0 157.5413271828112 -179.09153196540134)"/><circle cx="174.8610" cy="-188.1076" r="4" fill="yellow"/><circle cx="167.2006" cy="-181.6797" r="4" fill="purple"/><circle cx="142.7515" cy="-154.0721" r="4" fill="purple"/><rect x="138.7515" y="-158.0721" width="8" height="8" fill="blue" transform="rotate(85.0 142.7515143321318 -154.0721393112947)"/><rect x="138.7515" y="-158.0721" width="8" height="8" fill="blue" transform="rotate(85.0 142.7515143321318 -154.0721393112947)"/><circle cx="155.9430" cy="-139.6761" r="4" fill="yellow"/><circle cx="147.7515" cy="-145.4119" r="4" fill="purple"/><circle cx="85.6619" cy="-104.5927" r="4" fill="purple"/><rect x="81.6619" y="-108.5927" width="8" height="8" fill="blue" transform="rotate(85.0 85.6618516621017 -104.5927374645415)"/><rect x="81.6619" y="-108.5927" width="8" height="8" fill="blue" transform="rotate(85.0 85.6618516621017 -104.5927374645415)"/><circle cx="86.5334" cy="-94.6308" r="4" fill="blue"/><rect x="82.5334" y="-98.6308" width="8" height="8" fill="blue" transform="rotate(135.0 86.53340908957827 -94.63079048362404)"/><rect x="82.5334" y="-98.6308" width="8" height="8" fill="blue" transform="rotate(135.0 86.53340908957827 -94.63079048362404)"/><circle cx="83.9848" cy="-75.2719" r="4" fill="yellow"/><circle cx="90.6619" cy="-95.9325" r="4" fill="red"/><rect x="86.6619" y="-99.9325" width="8" height="8" fill="blue" transform="rotate(110.0 90.6618516621017 -95.93248342669712)"/><rect x="86.6619" y="-99.9325" width="8" height="8" fill="blue" transform="rotate(110.0 90.6618516621017 -95.93248342669712)"/><circle cx="96.5334" cy="-77.3103" r="4" fill="yellow"/><circle cx="120.2364" cy="-70.0649" r="4" fill="yellow"/><rect x="116.2364" y="-74.0649" width="8" height="8" fill="blue" transform="rotate(85.0 120.23641299077147 -70.06493629832137)"/><rect x="116.2364" y="-74.0649" width="8" height="8" fill="blue" transform="rotate(85.0 120.23641299077147 -70.06493629832137)"/><circle cx="133.4279" cy="-55.6689" r="4" fill="yellow"/><circle cx="125.2364" cy="-61.4047" r="4" fill="purple"/><circle cx="92.2417" cy="-77.8753" r="4" fill="purple"/><rect x="88.2417" y="-81.8753" width="8" height="8" fill="blue" transform="rotate(160.0 92.241650228845 -77.87530318099365)"/><rect x="88.2417" y="-81.8753" width="8" height="8" fill="blue" transform="rotate(160.0 92.241650228845 -77.87530318099365)"/><circle cx="81.7504" cy="-61.4073" r="4" fill="yellow"/><circle cx="16.9047" cy="-116.2523" r="4" fill="red"/><rect x="12.9047" y="-120.2523" width="8" height="8" fill="blue" transform="rotate(-15.0 16.904730469627985 -116.252311481466)"/><rect x="12.9047" y="-120.2523" width="8" height="8" fill="blue" transform="rotate(-15.0 16.904730469627985 -116.252311481466)"/><circle cx="36.2232" cy="-121.4287" r="4" fill="blue"/><rect x="32.2232" y="-125.4287" width="8" height="8" fill="blue" transform="rotate(35.0 36.22324699540935 -121.42869238351642)"/><rect x="32.2232" y="-125.4287" width="8" height="8" fill="blue" transform="rotate(35.0 36.22324699540935 -121.42869238351642)"/><circle cx="44.4148" cy="-115.6929" r="4" fill="blue"/><rect x="40.4148" y="-119.6929" width="8" height="8" fill="blue" transform="rotate(85.0 44.414767438299265 -115.69292802000597)"/><rect x="40.4148" y="-119.6929" width="8" height="8" fill="blue" transform="rotate(85.0 44.414767438299265 -115.69292802000597)"/><circle cx="57.6063" cy="-101.2969" r="4" fill="yellow"/><circle cx="46.0713" cy="-119.6922" r="4" fill="red"/><rect x="42.0713" y="-123.6922" width="8" height="8" fill="blue" transform="rotate(60.0 46.07132452553142 -119.69221060684711)"/><rect x="42.0713" y="-123.6922" width="8" height="8" fill="blue" transform="rotate(60.0 46.07132452553142 -119.69221060684711)"/><circle cx="64.1109" cy="-112.2200" r="4" fill="yellow"/><circle cx="84.8972" cy="-125.7203" r="4" fill="yellow"/><rect x="80.8972" y="-129.7203" width="8" height="8" fill="blue" transform="rotate(35.0 84.89717684432557 -125.72030018325344)"/><rect x="80.8972" y="-129.7203" width="8" height="8" fill="blue" transform="rotate(35.0 84.89717684432557 -125.72030018325344)"/><circle cx="104.4045" cy="-126.5720" r="4" fill="yellow"/><circle cx="94.7453" cy="-123.9838" r="4" fill="purple"/><circle cx="60.9194" cy="-109.2955" r="4" fill="purple"/><rect x="56.9194" y="-113.2955" width="8" height="8" fill="blue" transform="rotate(110.0 60.91940205565351 -109.29547479233342)"/><rect x="56.9194" y="-113.2955" width="8" height="8" fill="blue" transform="rotate(110.0 60.91940205565351 -109.29547479233342)"/><circle cx="66.7910" cy="-90.6733" r="4" fill="yellow"/><circle cx="32.2256" cy="-129.1081" r="4" fill="red"/><rect x="28.2256" y="-133.1081" width="8" height="8" fill="blue" transform="rotate(10.0 32.22561933200755 -129.10806367519677)"/><rect x="28.2256" y="-133.1081" width="8" height="8" fill="blue" transform="rotate(10.0 32.22561933200755 -129.10806367519677)"/><circle cx="42.0737" cy="-127.3716" r="4" fill="blue"/><rect x="38.0737" y="-131.3716" width="8" height="8" fill="blue" transform="rotate(60.0 42.07369686212962 -127.37158189852747)"/><rect x="38.0737" y="-131.3716" width="8" height="8" fill="blue" transform="rotate(60.0 42.07369686212962 -127.37158189852747)"/><circle cx="60.1133" cy="-119.8993" r="4" fill="yellow"/><circle cx="41.8849" cy="-131.6963" r="4" fill="red"/><rect x="37.8849" y="-135.6963" width="8" height="8" fill="blue" transform="rotate(35.0 41.88487759489823 -131.696254126222)"/><rect x="37.8849" y="-135.6963" width="8" height="8" fill="blue" transform="rotate(35.0 41.88487759489823 -131.696254126222)"/><circle cx="61.3922" cy="-132.5480" r="4" fill="yellow"/><circle cx="74.5255" cy="-153.5681" r="4" fill="yellow"/><rect x="70.5255" y="-157.5681" width="8" height="8" fill="blue" transform="rotate(10.0 74.52546915135824 -153.56807286784337)"/><rect x="70.5255" y="-157.5681" width="8" height="8" fill="blue" transform="rotate(10.0 74.52546915135824 -153.56807286784337)"/><circle cx="91.8452" cy="-162.5841" r="4" fill="yellow"/><circle cx="84.1847" cy="-156.1563" r="4" fill="purple"/><circle cx="59.7357" cy="-128.5487" r="4" fill="purple"/><rect x="55.7357" y="-132.5487" width="8" height="8" fill="blue" transform="rotate(85.0 59.735656300678826 -128.54868021373673)"/><rect x="55.7357" y="-132.5487" width="8" height="8" fill="blue" transform="rotate(85.0 59.735656300678826 -128.54868021373673)"/><circle cx="72.9272" cy="-114.1527" r="4" fill="yellow"/><circle cx="72.9036" cy="-196.3423" r="4" fill="yellow"/><rect x="68.9036" y="-200.3423" width="8" height="8" fill="blue" transform="rotate(-15.0 72.90360389882906 -196.34228309112655)"/><rect x="68.9036" y="-200.3423" width="8" height="8" fill="blue" transform="rotate(-15.0 72.90360389882906 -196.34228309112655)"/><circle cx="82.5629" cy="-198.9305" r="4" fill="blue"/><rect x="78.5629" y="-202.9305" width="8" height="8" fill="blue" transform="rotate(35.0 82.56286216171975 -198.93047354215176)"/><rect x="78.5629" y="-202.9305" width="8" height="8" fill="blue" transform="rotate(35.0 82.56286216171975 -198.93047354215176)"/><circle cx="102.0702" cy="-199.7822" r="4" fill="yellow"/><circle cx="80.5640" cy="-202.7702" r="4" fill="red"/><rect x="76.5640" y="-206.7702" width="8" height="8" fill="blue" transform="rotate(10.0 80.56404833001884 -202.77015918799194)"/><rect x="76.5640" y="-206.7702" width="8" height="8" fill="blue" transform="rotate(10.0 80.56404833001884 -202.77015918799194)"/><circle cx="97.8838" cy="-211.7862" r="4" fill="yellow"/><circle cx="100.9030" cy="-236.3873" r="4" fill="yellow"/><rect x="96.9030" y="-240.3873" width="8" height="8" fill="blue" transform="rotate(-15.0 100.90304061342958 -236.38726889595682)"/><rect x="96.9030" y="-240.3873" width="8" height="8" fill="blue" transform="rotate(-15.0 100.90304061342958 -236.38726889595682)"/><circle cx="112.7897" cy="-251.8782" r="4" fill="yellow"/><circle cx="108.5635" cy="-242.8151" r="4" fill="purple"/><circle cx="98.0726" cy="-207.4616" r="4" fill="purple"/><rect x="94.0726" y="-211.4616" width="8" height="8" fill="blue" transform="rotate(60.0 98.07257029133069 -207.46155350818802)"/><rect x="94.0726" y="-211.4616" width="8" height="8" fill="blue" transform="rotate(60.0 98.07257029133069 -207.46155350818802)"/><circle cx="116.1122" cy="-199.9893" r="4" fill="yellow"/><circle cx="106.2641" cy="-201.7258" r="4" fill="purple"/><circle cx="67.2427" cy="-138.4909" r="4" fill="purple"/><rect x="63.2427" y="-142.4909" width="8" height="8" fill="blue" transform="rotate(60.0 67.24266325463127 -138.49085231558894)"/><rect x="63.2427" y="-142.4909" width="8" height="8" fill="blue" transform="rotate(60.0 67.24266325463127 -138.49085231558894)"/><circle cx="72.2427" cy="-129.8306" r="4" fill="blue"/><rect x="68.2427" y="-133.8306" width="8" height="8" fill="blue" transform="rotate(110.0 72.24266325463127 -129.83059827774454)"/><rect x="68.2427" y="-133.8306" width="8" height="8" fill="blue" transform="rotate(110.0 72.24266325463127 -129.83059827774454)"/><circle cx="78.1142" cy="-111.2084" r="4" fill="yellow"/><circle cx="75.4342" cy="-132.7551" r="4" fill="red"/><rect x="71.4342" y="-136.7551" width="8" height="8" fill="blue" transform="rotate(85.0 75.43418369752118 -132.75508795207847)"/><rect x="71.4342" y="-136.7551" width="8" height="8" fill="blue" transform="rotate(85.0 75.43418369752118 -132.75508795207847)"/><circle cx="88.6257" cy="-118.3591" r="4" fill="yellow"/><circle cx="113.1699" cy="-121.8099" r="4" fill="yellow"/><rect x="109.1699" y="-125.8099" width="8" height="8" fill="blue" transform="rotate(60.0 113.16993673077735 -121.80987825856009)"/><rect x="109.1699" y="-125.8099" width="8" height="8" fill="blue" transform="rotate(60.0 113.16993673077735 -121.80987825856009)"/><circle cx="131.2095" cy="-114.3376" r="4" fill="yellow"/><circle cx="121.3615" cy="-116.0741" r="4" fill="purple"/><circle cx="84.4973" cy="-117.0574" r="4" fill="purple"/><rect x="80.4973" y="-121.0574" width="8" height="8" fill="blue" transform="rotate(135.0 84.49726156788768 -117.05737660765055)"/><rect x="80.4973" y="-121.0574" width="8" height="8" fill="blue" transform="rotate(135.0 84.49726156788768 -117.05737660765055)"/><circle cx="81.9486" cy="-97.6985" r="4" fill="yellow"/><circle cx="33.8095" cy="-272.5046" r="4" fill="yellow"/><rect x="29.8095" y="-276.5046" width="8" height="8" fill="blue" transform="rotate(-40.0 33.80946093925596 -272.504622962932)"/><rect x="29.8095" y="-276.5046" width="8" height="8" fill="blue" transform="rotate(-40.0 33.80946093925596 -272.504622962932)"/><circle cx="49.1303" cy="-285.3604" r="4" fill="blue"/><rect x="45.1303" y="-289.3604" width="8" height="8" fill="blue" transform="rotate(10.0 49.130349801635525 -285.3603751566628)"/><rect x="45.1303" y="-289.3604" width="8" height="8" fill="blue" transform="rotate(10.0 49.130349801635525 -285.3603751566628)"/><circle cx="58.9784" cy="-283.6239" r="4" fill="blue"/><rect x="54.9784" y="-287.6239" width="8" height="8" fill="blue" transform="rotate(60.0 58.9784273317576 -283.62389337999355)"/><rect x="54.9784" y="-287.6239" width="8" height="8" fill="blue" transform="rotate(60.0 58.9784273317576 -283.62389337999355)"/><circle cx="77.0180" cy="-276.1516" r="4" fill="yellow"/><circle cx="58.7896" cy="-287.9486" r="4" fill="red"/><rect x="54.7896" y="-291.9486" width="8" height="8" fill="blue" transform="rotate(35.0 58.789608064526206 -287.948565607688)"/><rect x="54.7896" y="-291.9486" width="8" height="8" fill="blue" transform="rotate(35.0 58.789608064526206 -287.948565607688)"/><circle cx="78.2969" cy="-288.8003" r="4" fill="yellow"/><circle cx="91.4302" cy="-309.8204" r="4" fill="yellow"/><rect x="87.4302" y="-313.8204" width="8" height="8" fill="blue" transform="rotate(10.0 91.43019962098622 -309.82038434930945)"/><rect x="87.4302" y="-313.8204" width="8" height="8" fill="blue" transform="rotate(10.0 91.43019962098622 -309.82038434930945)"/><circle cx="108.7499" cy="-318.8365" r="4" fill="yellow"/><circle cx="101.0895" cy="-312.4086" r="4" fill="purple"/><circle cx="76.6404" cy="-284.8010" r="4" fill="purple"/><rect x="72.6404" y="-288.8010" width="8" height="8" fill="blue" transform="rotate(85.0 76.6403867703068 -284.80099169520275)"/><rect x="72.6404" y="-288.8010" width="8" height="8" fill="blue" transform="rotate(85.0 76.6403867703068 -284.80099169520275)"/><circle cx="89.8319" cy="-270.4050" r="4" fill="yellow"/><circle cx="42.2618" cy="-290.6308" r="4" fill="red"/><rect x="38.2618" y="-294.6308" width="8" height="8" fill="blue" transform="rotate(-15.0 42.26182617406995 -290.630778703665)"/><rect x="38.2618" y="-294.6308" width="8" height="8" fill="blue" transform="rotate(-15.0 42.26182617406995 -290.630778703665)"/><circle cx="51.9211" cy="-293.2190" r="4" fill="blue"/><rect x="47.9211" y="-297.2190" width="8" height="8" fill="blue" transform="rotate(35.0 51.92108443696063 -293.21896915469017)"/><rect x="47.9211" y="-297.2190" width="8" height="8" fill="blue" transform="rotate(35.0 51.92108443696063 -293.21896915469017)"/><circle cx="71.4284" cy="-294.0707" r="4" fill="yellow"/><circle cx="49.9223" cy="-297.0587" r="4" fill="red"/><rect x="45.9223" y="-301.0587" width="8" height="8" fill="blue" transform="rotate(10.0 49.92227060525973 -297.0586548005304)"/><rect x="45.9223" y="-301.0587" width="8" height="8" fill="blue" transform="rotate(10.0 49.92227060525973 -297.0586548005304)"/><circle cx="67.2420" cy="-306.0747" r="4" fill="yellow"/><circle cx="70.2613" cy="-330.6758" r="4" fill="yellow"/><rect x="66.2613" y="-334.6758" width="8" height="8" fill="blue" transform="rotate(-15.0 70.26126288867049 -330.6757645084953)"/><rect x="66.2613" y="-334.6758" width="8" height="8" fill="blue" transform="rotate(-15.0 70.26126288867049 -330.6757645084953)"/><circle cx="82.1479" cy="-346.1667" r="4" fill="yellow"/><circle cx="77.9217" cy="-337.1036" r="4" fill="purple"/><circle cx="67.4308" cy="-301.7500" r="4" fill="purple"/><rect x="63.4308" y="-305.7500" width="8" height="8" fill="blue" transform="rotate(60.0 67.4307925665716 -301.75004912072654)"/><rect x="63.4308" y="-305.7500" width="8" height="8" fill="blue" transform="rotate(60.0 67.4307925665716 -301.75004912072654)"/><circle cx="85.4704" cy="-294.2778" r="4" fill="yellow"/><circle cx="50.7142" cy="-368.7569" r="4" fill="yellow"/><rect x="46.7142" y="-372.7569" width="8" height="8" fill="blue" transform="rotate(-40.0 50.714191408883934 -368.756934444398)"/><rect x="46.7142" y="-372.7569" width="8" height="8" fill="blue" transform="rotate(-40.0 50.714191408883934 -368.756934444398)"/><circle cx="58.3746" cy="-375.1848" r="4" fill="blue"/><rect x="54.3746" y="-379.1848" width="8" height="8" fill="blue" transform="rotate(10.0 58.374635840073715 -375.1848105412634)"/><rect x="54.3746" y="-379.1848" width="8" height="8" fill="blue" transform="rotate(10.0 58.374635840073715 -375.1848105412634)"/><circle cx="75.6943" cy="-384.2009" r="4" fill="yellow"/><circle cx="54.9404" cy="-377.8200" r="4" fill="red"/><rect x="50.9404" y="-381.8200" width="8" height="8" fill="blue" transform="rotate(-15.0 54.940374026290925 -377.8200123147645)"/><rect x="50.9404" y="-381.8200" width="8" height="8" fill="blue" transform="rotate(-15.0 54.940374026290925 -377.8200123147645)"/><circle cx="66.8270" cy="-393.3110" r="4" fill="yellow"/><circle cx="59.1666" cy="-416.8831" r="4" fill="yellow"/><rect x="55.1666" y="-420.8831" width="8" height="8" fill="blue" transform="rotate(-40.0 59.166556643697916 -416.883090185131)"/><rect x="55.1666" y="-420.8831" width="8" height="8" fill="blue" transform="rotate(-40.0 59.166556643697916 -416.883090185131)"/><circle cx="63.3927" cy="-435.9462" r="4" fill="yellow"/><circle cx="63.3927" cy="-425.9462" r="4" fill="purple"/><circle cx="68.8258" cy="-389.4713" r="4" fill="purple"/><rect x="64.8258" y="-393.4713" width="8" height="8" fill="blue" transform="rotate(35.0 68.8258149065886 -389.47128063615617)"/><rect x="64.8258" y="-393.4713" width="8" height="8" fill="blue" transform="rotate(35.0 68.8258149065886 -389.47128063615617)"/><circle cx="88.3332" cy="-390.3230" r="4" fill="yellow"/><circle cx="78.6739" cy="-387.7348" r="4" fill="purple"/><circle cx="70.0327" cy="-313.9333" r="4" fill="purple"/><rect x="66.0327" y="-317.9333" width="8" height="8" fill="blue" transform="rotate(35.0 70.0327079346653 -313.93331534644835)"/><rect x="66.0327" y="-317.9333" width="8" height="8" fill="blue" transform="rotate(35.0 70.0327079346653 -313.93331534644835)"/><circle cx="78.2242" cy="-308.1976" r="4" fill="blue"/><rect x="74.2242" y="-312.1976" width="8" height="8" fill="blue" transform="rotate(85.0 78.22422837755522 -308.1975509829379)"/><rect x="74.2242" y="-312.1976" width="8" height="8" fill="blue" transform="rotate(85.0 78.22422837755522 -308.1975509829379)"/><circle cx="91.4157" cy="-293.8015" r="4" fill="yellow"/><circle cx="79.8808" cy="-312.1968" r="4" fill="red"/><rect x="75.8808" y="-316.1968" width="8" height="8" fill="blue" transform="rotate(60.0 79.88078546478738 -312.1968335697791)"/><rect x="75.8808" y="-316.1968" width="8" height="8" fill="blue" transform="rotate(60.0 79.88078546478738 -312.1968335697791)"/><circle cx="97.9204" cy="-304.7246" r="4" fill="yellow"/><circle cx="118.7066" cy="-318.2249" r="4" fill="yellow"/><rect x="114.7066" y="-322.2249" width="8" height="8" fill="blue" transform="rotate(35.0 118.70663778358153 -318.22492314618535)"/><rect x="114.7066" y="-322.2249" width="8" height="8" fill="blue" transform="rotate(35.0 118.70663778358153 -318.22492314618535)"/><circle cx="138.2140" cy="-319.0766" r="4" fill="yellow"/><circle cx="128.5547" cy="-316.4884" r="4" fill="purple"/><circle cx="94.7289" cy="-301.8001" r="4" fill="purple"/><rect x="90.7289" y="-305.8001" width="8" height="8" fill="blue" transform="rotate(110.0 94.72886299490946 -301.8000977552654)"/><rect x="90.7289" y="-305.8001" width="8" height="8" fill="blue" transform="rotate(110.0 94.72886299490946 -301.8000977552654)"/><circle cx="100.6004" cy="-283.1779" r="4" fill="yellow"/><circle cx="95.6004" cy="-291.8382" r="4" fill="purple"/><circle cx="72.4465" cy="-162.8574" r="4" fill="purple"/><rect x="68.4465" y="-166.8574" width="8" height="8" fill="blue" transform="rotate(35.0 72.4464939908187 -162.85738476703284)"/><rect x="68.4465" y="-166.8574" width="8" height="8" fill="blue" transform="rotate(35.0 72.4464939908187 -162.85738476703284)"/><circle cx="88.8295" cy="-151.3859" r="4" fill="blue"/><rect x="84.8295" y="-155.3859" width="8" height="8" fill="blue" transform="rotate(85.0 88.82953487659853 -151.3858560400119)"/><rect x="84.8295" y="-155.3859" width="8" height="8" fill="blue" transform="rotate(85.0 88.82953487659853 -151.3858560400119)"/><circle cx="89.7011" cy="-141.4239" r="4" fill="blue"/><rect x="85.7011" y="-145.4239" width="8" height="8" fill="blue" transform="rotate(135.0 89.7010923040751 -141.42390905909446)"/><rect x="85.7011" y="-145.4239" width="8" height="8" fill="blue" transform="rotate(135.0 89.7010923040751 -141.42390905909446)"/><circle cx="87.1524" cy="-122.0650" r="4" fill="yellow"/><circle cx="93.8295" cy="-142.7256" r="4" fill="red"/><rect x="89.8295" y="-146.7256" width="8" height="8" fill="blue" transform="rotate(110.0 93.82953487659853 -142.7256020021675)"/><rect x="89.8295" y="-146.7256" width="8" height="8" fill="blue" transform="rotate(110.0 93.82953487659853 -142.7256020021675)"/><circle cx="99.7011" cy="-124.1034" r="4" fill="yellow"/><circle cx="123.4041" cy="-116.8581" r="4" fill="yellow"/><rect x="119.4041" y="-120.8581" width="8" height="8" fill="blue" transform="rotate(85.0 123.4040962052683 -116.85805487379173)"/><rect x="119.4041" y="-120.8581" width="8" height="8" fill="blue" transform="rotate(85.0 123.4040962052683 -116.85805487379173)"/><circle cx="136.5956" cy="-102.4620" r="4" fill="yellow"/><circle cx="128.4041" cy="-108.1978" r="4" fill="purple"/><circle cx="95.4093" cy="-124.6684" r="4" fill="purple"/><rect x="91.4093" y="-128.6684" width="8" height="8" fill="blue" transform="rotate(160.0 95.40933344334184 -124.66842175646403)"/><rect x="91.4093" y="-128.6684" width="8" height="8" fill="blue" transform="rotate(160.0 95.40933344334184 -124.66842175646403)"/><circle cx="84.9181" cy="-108.2004" r="4" fill="yellow"/><circle cx="92.1426" cy="-159.3844" r="4" fill="red"/><rect x="88.1426" y="-163.3844" width="8" height="8" fill="blue" transform="rotate(60.0 92.14264905106286 -159.38442121369422)"/><rect x="88.1426" y="-163.3844" width="8" height="8" fill="blue" transform="rotate(60.0 92.14264905106286 -159.38442121369422)"/><circle cx="97.1426" cy="-150.7242" r="4" fill="blue"/><rect x="93.1426" y="-154.7242" width="8" height="8" fill="blue" transform="rotate(110.0 97.14264905106286 -150.72416717584983)"/><rect x="93.1426" y="-154.7242" width="8" height="8" fill="blue" transform="rotate(110.0 97.14264905106286 -150.72416717584983)"/><circle cx="103.0142" cy="-132.1020" r="4" fill="yellow"/><circle cx="100.3342" cy="-153.6487" r="4" fill="red"/><rect x="96.3342" y="-157.6487" width="8" height="8" fill="blue" transform="rotate(85.0 100.33416949395277 -153.64865685018376)"/><rect x="96.3342" y="-157.6487" width="8" height="8" fill="blue" transform="rotate(85.0 100.33416949395277 -153.64865685018376)"/><circle cx="113.5257" cy="-139.2526" r="4" fill="yellow"/><circle cx="138.0699" cy="-142.7034" r="4" fill="yellow"/><rect x="134.0699" y="-146.7034" width="8" height="8" fill="blue" transform="rotate(60.0 138.06992252720894 -142.70344715666536)"/><rect x="134.0699" y="-146.7034" width="8" height="8" fill="blue" transform="rotate(60.0 138.06992252720894 -142.70344715666536)"/><circle cx="156.1095" cy="-135.2312" r="4" fill="yellow"/><circle cx="146.2614" cy="-136.9677" r="4" fill="purple"/><circle cx="109.3972" cy="-137.9509" r="4" fill="purple"/><rect x="105.3972" y="-141.9509" width="8" height="8" fill="blue" transform="rotate(135.0 109.39724736431927 -137.95094550575584)"/><rect x="105.3972" y="-141.9509" width="8" height="8" fill="blue" transform="rotate(135.0 109.39724736431927 -137.95094550575584)"/><circle cx="106.8486" cy="-118.5921" r="4" fill="yellow"/><circle cx="169.7944" cy="-171.4406" r="4" fill="yellow"/><rect x="165.7944" y="-175.4406" width="8" height="8" fill="blue" transform="rotate(35.0 169.79435368865114 -171.44060036650689)"/><rect x="165.7944" y="-175.4406" width="8" height="8" fill="blue" transform="rotate(35.0 169.79435368865114 -171.44060036650689)"/><circle cx="177.9859" cy="-165.7048" r="4" fill="blue"/><rect x="173.9859" y="-169.7048" width="8" height="8" fill="blue" transform="rotate(85.0 177.98587413154107 -165.70483600299642)"/><rect x="173.9859" y="-169.7048" width="8" height="8" fill="blue" transform="rotate(85.0 177.98587413154107 -165.70483600299642)"/><circle cx="191.1774" cy="-151.3088" r="4" fill="yellow"/><circle cx="179.6424" cy="-169.7041" r="4" fill="red"/><rect x="175.6424" y="-173.7041" width="8" height="8" fill="blue" transform="rotate(60.0 179.64243121877323 -169.70411858983758)"/><rect x="175.6424" y="-173.7041" width="8" height="8" fill="blue" transform="rotate(60.0 179.64243121877323 -169.70411858983758)"/><circle cx="197.6820" cy="-162.2319" r="4" fill="yellow"/><circle cx="218.4683" cy="-175.7322" r="4" fill="yellow"/><rect x="214.4683" y="-179.7322" width="8" height="8" fill="blue" transform="rotate(35.0 218.46828353756737 -175.7322081662439)"/><rect x="214.4683" y="-179.7322" width="8" height="8" fill="blue" transform="rotate(35.0 218.46828353756737 -175.7322081662439)"/><circle cx="237.9756" cy="-176.5839" r="4" fill="yellow"/><circle cx="228.3164" cy="-173.9957" r="4" fill="purple"/><circle cx="194.4905" cy="-159.3074" r="4" fill="purple"/><rect x="190.4905" y="-163.3074" width="8" height="8" fill="blue" transform="rotate(110.0 194.4905087488953 -159.30738277532387)"/><rect x="190.4905" y="-163.3074" width="8" height="8" fill="blue" transform="rotate(110.0 194.4905087488953 -159.30738277532387)"/><circle cx="200.3621" cy="-140.6852" r="4" fill="yellow"/><circle cx="195.3621" cy="-149.3454" r="4" fill="purple"/><circle cx="121.8388" cy="-138.5909" r="4" fill="purple"/><rect x="117.8388" y="-142.5909" width="8" height="8" fill="blue" transform="rotate(110.0 121.83880411130703 -138.59094958466682)"/><rect x="117.8388" y="-142.5909" width="8" height="8" fill="blue" transform="rotate(110.0 121.83880411130703 -138.59094958466682)"/><circle cx="118.4186" cy="-129.1940" r="4" fill="blue"/><rect x="114.4186" y="-133.1940" width="8" height="8" fill="blue" transform="rotate(160.0 118.41860267805033 -129.19402337680773)"/><rect x="114.4186" y="-133.1940" width="8" height="8" fill="blue" transform="rotate(160.0 118.41860267805033 -129.19402337680773)"/><circle cx="107.9273" cy="-112.7260" r="4" fill="yellow"/><circle cx="122.7104" cy="-128.6290" r="4" fill="red"/><rect x="118.7104" y="-132.6290" width="8" height="8" fill="blue" transform="rotate(135.0 122.71036153878362 -128.62900260374937)"/><rect x="118.7104" y="-132.6290" width="8" height="8" fill="blue" transform="rotate(135.0 122.71036153878362 -128.62900260374937)"/><circle cx="120.1617" cy="-109.2701" r="4" fill="yellow"/><circle cx="138.5819" cy="-92.6863" r="4" fill="yellow"/><rect x="134.5819" y="-96.6863" width="8" height="8" fill="blue" transform="rotate(110.0 138.5819189662602 -92.68629350929876)"/><rect x="134.5819" y="-96.6863" width="8" height="8" fill="blue" transform="rotate(110.0 138.5819189662602 -92.68629350929876)"/><circle cx="144.4535" cy="-74.0641" r="4" fill="yellow"/><circle cx="139.4535" cy="-82.7243" r="4" fill="purple"/><circle cx="116.5109" cy="-111.5960" r="4" fill="purple"/><rect x="112.5109" y="-115.5960" width="8" height="8" fill="blue" transform="rotate(185.0 116.51085115439471 -111.59598781096643)"/><rect x="112.5109" y="-115.5960" width="8" height="8" fill="blue" transform="rotate(185.0 116.51085115439471 -111.59598781096643)"/><circle cx="100.0429" cy="-101.1047" r="4" fill="yellow"/></svg>