<svg viewBox="-257.00611071801114 -216.3074630689675 280.37030260146673 235.9717778934191" xmlns="http://www.w3.org/2000/svg"><path d="M 0.0 0.0 L 6.123233995736766E-16 -10.0 M 6.123233995736766E-16 -10.0 L 1.2246467991473533E-15 -20.0 M 1.2246467991473533E-15 -20.0 L 1.83697019872103E-15 -30.0 M 1.83697019872103E-15 -30.0 L 2.4492935982947065E-15 -40.0 M 2.4492935982947065E-15 -40.0 L 3.061616997868383E-15 -50.0 M 3.061616997868383E-15 -50.0 L 3.67394039744206E-15 -60.0 M 3.67394039744206E-15 -60.0 L 4.2862637970157365E-15 -70.0 M 4.2862637970157365E-15 -70.0 L 4.898587196589413E-15 -80.0 M 4.898587196589413E-15 -80.0 L 5.5109105961630896E-15 -90.0 M 5.5109105961630896E-15 -90.0 L 6.123233995736766E-15 -100.0 M 6.123233995736766E-15 -100.0 L 6.735557395310443E-15 -110.0 M 6.735557395310443E-15 -110.0 L 7.34788079488412E-15 -120.0 M 7.34788079488412E-15 -120.0 L 7.960204194457797E-15 -130.0 M 7.960204194457797E-15 -130.0 L 8.572527594031475E-15 -140.0 M 8.572527594031475E-15 -140.0 L 9.184850993605152E-15 -150.0 M 9.184850993605152E-15 -150.0 L -6.4278760968653845 -157.66044443118977 M -6.4278760968653845 -157.66044443118977 L -16.275953626987466 -159.39692620785908 M 8.572527594031475E-15 -140.0 L -6.4278760968653845 -147.66044443118977 M -6.4278760968653845 -147.66044443118977 L -16.275953626987466 -149.39692620785908 M -16.275953626987466 -149.39692620785908 L -24.93620766483185 -144.39692620785908 M 8.572527594031475E-15 -140.0 L -6.4278760968653845 -147.66044443118977 M -6.4278760968653845 -147.66044443118977 L -12.855752193730778 -155.32088886237955 M -12.855752193730778 -155.32088886237955 L -22.703829723852856 -157.05737063904886 M -22.703829723852856 -157.05737063904886 L -32.55190725397493 -158.79385241571816 M -32.55190725397493 -158.79385241571816 L -42.399984784097015 -160.53033419238747 M -42.399984784097015 -160.53033419238747 L -51.0602388219414 -155.53033419238747 M -51.0602388219414 -155.53033419238747 L -54.48044025519808 -146.1334079845284 M -12.855752193730778 -155.32088886237955 L -19.28362829059617 -162.98133329356932 M -19.28362829059617 -162.98133329356932 L -29.13170582071825 -164.71781507023863 M -29.13170582071825 -164.71781507023863 L -37.791959858562635 -159.71781507023863 M 7.34788079488412E-15 -120.0 L -6.427876096865386 -127.66044443118977 M -6.427876096865386 -127.66044443118977 L -12.85575219373078 -135.32088886237955 M -12.85575219373078 -135.32088886237955 L -19.283628290596173 -142.98133329356932 M -19.283628290596173 -142.98133329356932 L -29.131705820718253 -144.71781507023863 M -29.131705820718253 -144.71781507023863 L -37.791959858562635 -139.71781507023863 M -12.85575219373078 -135.32088886237955 L -22.70382972385286 -137.05737063904886 M -22.70382972385286 -137.05737063904886 L -31.364083761697245 -132.05737063904886 M -31.364083761697245 -132.05737063904886 L -34.78428519495393 -122.66044443118977 M -12.85575219373078 -135.32088886237955 L -22.70382972385286 -137.05737063904886 M -22.70382972385286 -137.05737063904886 L -32.55190725397494 -138.79385241571816 M -32.55190725397494 -138.79385241571816 L -41.21216129181933 -133.79385241571816 M -41.21216129181933 -133.79385241571816 L -49.87241532966371 -128.79385241571816 M -49.87241532966371 -128.79385241571816 L -58.53266936750809 -123.79385241571816 M -58.53266936750809 -123.79385241571816 L -61.95287080076478 -114.39692620785908 M -61.95287080076478 -114.39692620785908 L -58.53266936750809 -105.0 M -32.55190725397494 -138.79385241571816 L -42.399984784097015 -140.53033419238747 M -42.399984784097015 -140.53033419238747 L -51.0602388219414 -135.53033419238747 M -51.0602388219414 -135.53033419238747 L -54.48044025519808 -126.13340798452839 M 7.34788079488412E-15 -120.0 L -6.427876096865386 -127.66044443118977 M -6.427876096865386 -127.66044443118977 L -12.85575219373078 -135.32088886237955 M -12.85575219373078 -135.32088886237955 L -19.283628290596173 -142.98133329356932 M -19.283628290596173 -142.98133329356932 L -25.711504387461567 -150.6417777247591 M -25.711504387461567 -150.6417777247591 L -35.55958191758364 -152.3782595014284 M -35.55958191758364 -152.3782595014284 L -45.407659447705726 -154.1147412780977 M -45.407659447705726 -154.1147412780977 L -55.25573697782781 -155.85122305476702 M -55.25573697782781 -155.85122305476702 L -65.10381450794989 -157.58770483143633 M -65.10381450794989 -157.58770483143633 L -74.95189203807197 -159.32418660810563 M -74.95189203807197 -159.32418660810563 L -84.79996956819406 -161.06066838477494 M -84.79996956819406 -161.06066838477494 L -94.64804709831614 -162.79715016144425 M -94.64804709831614 -162.79715016144425 L -103.30830113616052 -157.79715016144425 M -103.30830113616052 -157.79715016144425 L -106.7285025694172 -148.40022395358517 M -84.79996956819406 -161.06066838477494 L -93.46022360603844 -156.06066838477494 M -93.46022360603844 -156.06066838477494 L -96.88042503929512 -146.66374217691586 M -96.88042503929512 -146.66374217691586 L -93.46022360603843 -137.26681596905678 M -84.79996956819406 -161.06066838477494 L -93.46022360603844 -156.06066838477494 M -93.46022360603844 -156.06066838477494 L -102.12047764388282 -151.06066838477494 M -102.12047764388282 -151.06066838477494 L -105.5406790771395 -141.66374217691586 M -105.5406790771395 -141.66374217691586 L -108.96088051039618 -132.26681596905678 M -108.96088051039618 -132.26681596905678 L -112.38108194365286 -122.8698897611977 M -112.38108194365286 -122.8698897611977 L -108.96088051039617 -113.47296355333862 M -108.96088051039617 -113.47296355333862 L -100.30062647255178 -108.47296355333862 M -102.12047764388282 -151.06066838477494 L -110.7807316817272 -146.06066838477494 M -110.7807316817272 -146.06066838477494 L -114.20093311498388 -136.66374217691586 M -114.20093311498388 -136.66374217691586 L -110.78073168172719 -127.26681596905678 M -25.711504387461567 -150.6417777247591 L -32.13938048432696 -158.30222215594887 M -32.13938048432696 -158.30222215594887 L -38.56725658119235 -165.96266658713864 M -38.56725658119235 -165.96266658713864 L -44.99513267805774 -173.62311101832842 M -44.99513267805774 -173.62311101832842 L -54.843210208179826 -175.35959279499772 M -54.843210208179826 -175.35959279499772 L -63.50346424602421 -170.35959279499772 M -38.56725658119235 -165.96266658713864 L -48.415334111314436 -167.69914836380795 M -48.415334111314436 -167.69914836380795 L -57.07558814915882 -162.69914836380795 M -57.07558814915882 -162.69914836380795 L -60.495789582415505 -153.30222215594887 M -38.56725658119235 -165.96266658713864 L -48.415334111314436 -167.69914836380795 M -48.415334111314436 -167.69914836380795 L -58.26341164143652 -169.43563014047726 M -58.26341164143652 -169.43563014047726 L -66.9236656792809 -164.43563014047726 M -66.9236656792809 -164.43563014047726 L -75.58391971712528 -159.43563014047726 M -75.58391971712528 -159.43563014047726 L -84.24417375496967 -154.43563014047726 M -84.24417375496967 -154.43563014047726 L -87.66437518822634 -145.03870393261818 M -87.66437518822634 -145.03870393261818 L -84.24417375496965 -135.6417777247591 M -58.26341164143652 -169.43563014047726 L -68.1114891715586 -171.17211191714657 M -68.1114891715586 -171.17211191714657 L -76.77174320940298 -166.17211191714657 M -76.77174320940298 -166.17211191714657 L -80.19194464265966 -156.77518570928748 M 4.898587196589413E-15 -80.0 L -6.427876096865388 -87.66044443118977 M -6.427876096865388 -87.66044443118977 L -12.855752193730781 -95.32088886237955 M -12.855752193730781 -95.32088886237955 L -19.283628290596177 -102.98133329356932 M -19.283628290596177 -102.98133329356932 L -25.71150438746157 -110.6417777247591 M -25.71150438746157 -110.6417777247591 L -32.13938048432696 -118.30222215594887 M -32.13938048432696 -118.30222215594887 L -38.56725658119235 -125.96266658713864 M -38.56725658119235 -125.96266658713864 L -44.99513267805774 -133.62311101832842 M -44.99513267805774 -133.62311101832842 L -54.843210208179826 -135.35959279499772 M -54.843210208179826 -135.35959279499772 L -63.50346424602421 -130.35959279499772 M -38.56725658119235 -125.96266658713864 L -48.415334111314436 -127.69914836380795 M -48.415334111314436 -127.69914836380795 L -57.07558814915882 -122.69914836380795 M -57.07558814915882 -122.69914836380795 L -60.495789582415505 -113.30222215594887 M -38.56725658119235 -125.96266658713864 L -48.415334111314436 -127.69914836380795 M -48.415334111314436 -127.69914836380795 L -58.26341164143652 -129.43563014047726 M -58.26341164143652 -129.43563014047726 L -66.9236656792809 -124.43563014047726 M -66.9236656792809 -124.43563014047726 L -75.58391971712528 -119.43563014047726 M -75.58391971712528 -119.43563014047726 L -84.24417375496967 -114.43563014047726 M -84.24417375496967 -114.43563014047726 L -87.66437518822634 -105.03870393261818 M -87.66437518822634 -105.03870393261818 L -84.24417375496965 -95.6417777247591 M -58.26341164143652 -129.43563014047726 L -68.1114891715586 -131.17211191714657 M -68.1114891715586 -131.17211191714657 L -76.77174320940298 -126.17211191714657 M -76.77174320940298 -126.17211191714657 L -80.19194464265966 -116.77518570928748 M -25.71150438746157 -110.6417777247591 L -35.55958191758365 -112.3782595014284 M -35.55958191758365 -112.3782595014284 L -45.407659447705726 -114.11474127809771 M -45.407659447705726 -114.11474127809771 L -55.25573697782781 -115.85122305476702 M -55.25573697782781 -115.85122305476702 L -63.91599101567219 -110.85122305476702 M -63.91599101567219 -110.85122305476702 L -67.33619244892887 -101.45429684690794 M -45.407659447705726 -114.11474127809771 L -54.06791348555011 -109.11474127809771 M -54.06791348555011 -109.11474127809771 L -57.488114918806794 -99.71781507023863 M -57.488114918806794 -99.71781507023863 L -54.06791348555011 -90.32088886237955 M -45.407659447705726 -114.11474127809771 L -54.06791348555011 -109.11474127809771 M -54.06791348555011 -109.11474127809771 L -62.72816752339449 -104.11474127809771 M -62.72816752339449 -104.11474127809771 L -66.14836895665117 -94.71781507023863 M -66.14836895665117 -94.71781507023863 L -69.56857038990785 -85.32088886237955 M -69.56857038990785 -85.32088886237955 L -72.98877182316453 -75.92396265452047 M -72.98877182316453 -75.92396265452047 L -69.56857038990783 -66.52703644666138 M -69.56857038990783 -66.52703644666138 L -60.90831635206345 -61.52703644666138 M -62.72816752339449 -104.11474127809771 L -71.38842156123887 -99.11474127809771 M -71.38842156123887 -99.11474127809771 L -74.80862299449555 -89.71781507023863 M -74.80862299449555 -89.71781507023863 L -71.38842156123886 -80.32088886237955 M -25.71150438746157 -110.6417777247591 L -35.55958191758365 -112.3782595014284 M -35.55958191758365 -112.3782595014284 L -45.407659447705726 -114.11474127809771 M -45.407659447705726 -114.11474127809771 L -55.25573697782781 -115.85122305476702 M -55.25573697782781 -115.85122305476702 L -65.10381450794989 -117.58770483143633 M -65.10381450794989 -117.58770483143633 L -73.76406854579427 -112.58770483143633 M -73.76406854579427 -112.58770483143633 L -82.42432258363866 -107.58770483143633 M -82.42432258363866 -107.58770483143633 L -91.08457662148304 -102.58770483143633 M -91.08457662148304 -102.58770483143633 L -99.74483065932742 -97.58770483143633 M -99.74483065932742 -97.58770483143633 L -108.4050846971718 -92.58770483143633 M -108.4050846971718 -92.58770483143633 L -117.06533873501618 -87.58770483143633 M -117.06533873501618 -87.58770483143633 L -125.72559277286057 -82.58770483143633 M -125.72559277286057 -82.58770483143633 L -129.14579420611724 -73.19077862357724 M -129.14579420611724 -73.19077862357724 L -125.72559277286055 -63.79385241571816 M -117.06533873501618 -87.58770483143633 L -120.48554016827286 -78.19077862357724 M -120.48554016827286 -78.19077862357724 L -117.06533873501617 -68.79385241571816 M -117.06533873501617 -68.79385241571816 L -108.40508469717179 -63.793852415718156 M -117.06533873501618 -87.58770483143633 L -120.48554016827286 -78.19077862357724 M -120.48554016827286 -78.19077862357724 L -123.90574160152954 -68.79385241571816 M -123.90574160152954 -68.79385241571816 L -120.48554016827285 -59.39692620785908 M -120.48554016827285 -59.39692620785908 L -117.06533873501616 -50.0 M -117.06533873501616 -50.0 L -113.64513730175946 -40.60307379214092 M -113.64513730175946 -40.60307379214092 L -104.98488326391508 -35.60307379214091 M -104.98488326391508 -35.60307379214091 L -95.136805733793 -37.33955556881021 M -123.90574160152954 -68.79385241571816 L -127.32594303478622 -59.39692620785908 M -127.32594303478622 -59.39692620785908 L -123.90574160152953 -50.0 M -123.90574160152953 -50.0 L -115.24548756368515 -44.99999999999999 M -65.10381450794989 -117.58770483143633 L -74.95189203807197 -119.32418660810563 M -74.95189203807197 -119.32418660810563 L -84.79996956819406 -121.06066838477494 M -84.79996956819406 -121.06066838477494 L -94.64804709831614 -122.79715016144425 M -94.64804709831614 -122.79715016144425 L -103.30830113616052 -117.79715016144425 M -103.30830113616052 -117.79715016144425 L -106.7285025694172 -108.40022395358517 M -84.79996956819406 -121.06066838477494 L -93.46022360603844 -116.06066838477494 M -93.46022360603844 -116.06066838477494 L -96.88042503929512 -106.66374217691586 M -96.88042503929512 -106.66374217691586 L -93.46022360603843 -97.26681596905678 M -84.79996956819406 -121.06066838477494 L -93.46022360603844 -116.06066838477494 M -93.46022360603844 -116.06066838477494 L -102.12047764388282 -111.06066838477494 M -102.12047764388282 -111.06066838477494 L -105.5406790771395 -101.66374217691586 M -105.5406790771395 -101.66374217691586 L -108.96088051039618 -92.26681596905678 M -108.96088051039618 -92.26681596905678 L -112.38108194365286 -82.8698897611977 M -112.38108194365286 -82.8698897611977 L -108.96088051039617 -73.47296355333862 M -108.96088051039617 -73.47296355333862 L -100.30062647255178 -68.47296355333862 M -102.12047764388282 -111.06066838477494 L -110.7807316817272 -106.06066838477494 M -110.7807316817272 -106.06066838477494 L -114.20093311498388 -96.66374217691586 M -114.20093311498388 -96.66374217691586 L -110.78073168172719 -87.26681596905678 M 4.898587196589413E-15 -80.0 L -6.427876096865388 -87.66044443118977 M -6.427876096865388 -87.66044443118977 L -12.855752193730781 -95.32088886237955 M -12.855752193730781 -95.32088886237955 L -19.283628290596177 -102.98133329356932 M -19.283628290596177 -102.98133329356932 L -25.71150438746157 -110.6417777247591 M -25.71150438746157 -110.6417777247591 L -32.13938048432696 -118.30222215594887 M -32.13938048432696 -118.30222215594887 L -38.56725658119235 -125.96266658713864 M -38.56725658119235 -125.96266658713864 L -44.99513267805774 -133.62311101832842 M -44.99513267805774 -133.62311101832842 L -51.42300877492313 -141.2835554495182 M -51.42300877492313 -141.2835554495182 L -61.271086305045216 -143.0200372261875 M -61.271086305045216 -143.0200372261875 L -71.1191638351673 -144.7565190028568 M -71.1191638351673 -144.7565190028568 L -80.96724136528938 -146.4930007795261 M -80.96724136528938 -146.4930007795261 L -90.81531889541147 -148.22948255619542 M -90.81531889541147 -148.22948255619542 L -100.66339642553355 -149.96596433286473 M -100.66339642553355 -149.96596433286473 L -110.51147395565563 -151.70244610953404 M -110.51147395565563 -151.70244610953404 L -120.35955148577771 -153.43892788620334 M -120.35955148577771 -153.43892788620334 L -130.20762901589978 -155.17540966287265 M -130.20762901589978 -155.17540966287265 L -140.05570654602187 -156.91189143954196 M -140.05570654602187 -156.91189143954196 L -149.90378407614395 -158.64837321621127 M -149.90378407614395 -158.64837321621127 L -159.75186160626603 -160.38485499288058 M -159.75186160626603 -160.38485499288058 L -169.59993913638812 -162.12133676954988 M -169.59993913638812 -162.12133676954988 L -179.4480166665102 -163.8578185462192 M -179.4480166665102 -163.8578185462192 L -189.29609419663228 -165.5943003228885 M -189.29609419663228 -165.5943003228885 L -199.14417172675437 -167.3307820995578 M -199.14417172675437 -167.3307820995578 L -207.80442576459876 -162.3307820995578 M -207.80442576459876 -162.3307820995578 L -211.22462719785545 -152.93385589169873 M -189.29609419663228 -165.5943003228885 L -197.95634823447668 -160.5943003228885 M -197.95634823447668 -160.5943003228885 L -201.37654966773337 -151.19737411502942 M -201.37654966773337 -151.19737411502942 L -197.95634823447668 -141.80044790717034 M -189.29609419663228 -165.5943003228885 L -197.95634823447668 -160.5943003228885 M -197.95634823447668 -160.5943003228885 L -206.61660227232107 -155.5943003228885 M -206.61660227232107 -155.5943003228885 L -210.03680370557777 -146.19737411502942 M -210.03680370557777 -146.19737411502942 L -213.45700513883446 -136.80044790717034 M -213.45700513883446 -136.80044790717034 L -216.87720657209115 -127.40352169931126 M -216.87720657209115 -127.40352169931126 L -213.45700513883446 -118.00659549145217 M -213.45700513883446 -118.00659549145217 L -204.79675110099006 -113.00659549145217 M -206.61660227232107 -155.5943003228885 L -215.27685631016547 -150.5943003228885 M -215.27685631016547 -150.5943003228885 L -218.69705774342216 -141.19737411502942 M -218.69705774342216 -141.19737411502942 L -215.27685631016547 -131.80044790717034 M -169.59993913638812 -162.12133676954988 L -178.2601931742325 -157.12133676954988 M -178.2601931742325 -157.12133676954988 L -186.9204472120769 -152.12133676954988 M -186.9204472120769 -152.12133676954988 L -195.5807012499213 -147.12133676954988 M -195.5807012499213 -147.12133676954988 L -199.000902683178 -137.7244105616908 M -199.000902683178 -137.7244105616908 L -195.5807012499213 -128.32748435383172 M -186.9204472120769 -152.12133676954988 L -190.3406486453336 -142.7244105616908 M -190.3406486453336 -142.7244105616908 L -186.9204472120769 -133.32748435383172 M -186.9204472120769 -133.32748435383172 L -178.2601931742325 -128.32748435383172 M -186.9204472120769 -152.12133676954988 L -190.3406486453336 -142.7244105616908 M -190.3406486453336 -142.7244105616908 L -193.7608500785903 -133.32748435383172 M -193.7608500785903 -133.32748435383172 L -190.3406486453336 -123.93055814597264 M -190.3406486453336 -123.93055814597264 L -186.9204472120769 -114.53363193811356 M -186.9204472120769 -114.53363193811356 L -183.50024577882022 -105.13670573025448 M -183.50024577882022 -105.13670573025448 L -174.83999174097582 -100.13670573025448 M -174.83999174097582 -100.13670573025448 L -164.99191421085374 -101.87318750692377 M -193.7608500785903 -133.32748435383172 L -197.181051511847 -123.93055814597264 M -197.181051511847 -123.93055814597264 L -193.7608500785903 -114.53363193811356 M -193.7608500785903 -114.53363193811356 L -185.1005960407459 -109.53363193811356 M -169.59993913638812 -162.12133676954988 L -178.2601931742325 -157.12133676954988 M -178.2601931742325 -157.12133676954988 L -186.9204472120769 -152.12133676954988 M -186.9204472120769 -152.12133676954988 L -195.5807012499213 -147.12133676954988 M -195.5807012499213 -147.12133676954988 L -204.2409552877657 -142.12133676954988 M -204.2409552877657 -142.12133676954988 L -207.6611567210224 -132.7244105616908 M -207.6611567210224 -132.7244105616908 L -211.0813581542791 -123.32748435383172 M -211.0813581542791 -123.32748435383172 L -214.50155958753578 -113.93055814597264 M -214.50155958753578 -113.93055814597264 L -217.92176102079247 -104.53363193811356 M -217.92176102079247 -104.53363193811356 L -221.34196245404917 -95.13670573025448 M -221.34196245404917 -95.13670573025448 L -224.76216388730586 -85.7397795223954 M -224.76216388730586 -85.7397795223954 L -228.18236532056255 -76.34285331453631 M -228.18236532056255 -76.34285331453631 L -224.76216388730586 -66.94592710667723 M -224.76216388730586 -66.94592710667723 L -216.10190984946146 -61.945927106677225 M -224.76216388730586 -85.7397795223954 L -221.34196245404917 -76.34285331453631 M -221.34196245404917 -76.34285331453631 L -212.68170841620477 -71.34285331453631 M -212.68170841620477 -71.34285331453631 L -202.8336308860827 -73.0793350912056 M -224.76216388730586 -85.7397795223954 L -221.34196245404917 -76.34285331453631 M -221.34196245404917 -76.34285331453631 L -217.92176102079247 -66.94592710667723 M -217.92176102079247 -66.94592710667723 L -209.26150698294808 -61.945927106677225 M -209.26150698294808 -61.945927106677225 L -200.60125294510368 -56.94592710667722 M -200.60125294510368 -56.94592710667722 L -191.94099890725929 -51.94592710667721 M -191.94099890725929 -51.94592710667721 L -182.0929213771372 -53.68240888334651 M -182.0929213771372 -53.68240888334651 L -175.6650452802718 -61.34285331453629 M -217.92176102079247 -66.94592710667723 L -214.50155958753578 -57.54900089881815 M -214.50155958753578 -57.54900089881815 L -205.84130554969138 -52.54900089881814 M -205.84130554969138 -52.54900089881814 L -195.9932280195693 -54.285482675487444 M -204.2409552877657 -142.12133676954988 L -212.9012093256101 -137.12133676954988 M -212.9012093256101 -137.12133676954988 L -221.5614633634545 -132.12133676954988 M -221.5614633634545 -132.12133676954988 L -230.2217174012989 -127.12133676954988 M -230.2217174012989 -127.12133676954988 L -233.64191883455558 -117.7244105616908 M -233.64191883455558 -117.7244105616908 L -230.2217174012989 -108.32748435383172 M -221.5614633634545 -132.12133676954988 L -224.9816647967112 -122.7244105616908 M -224.9816647967112 -122.7244105616908 L -221.5614633634545 -113.32748435383172 M -221.5614633634545 -113.32748435383172 L -212.9012093256101 -108.32748435383172 M -221.5614633634545 -132.12133676954988 L -224.9816647967112 -122.7244105616908 M -224.9816647967112 -122.7244105616908 L -228.40186622996788 -113.32748435383172 M -228.40186622996788 -113.32748435383172 L -224.9816647967112 -103.93055814597264 M -224.9816647967112 -103.93055814597264 L -221.5614633634545 -94.53363193811356 M -221.5614633634545 -94.53363193811356 L -218.1412619301978 -85.13670573025448 M -218.1412619301978 -85.13670573025448 L -209.4810078923534 -80.13670573025448 M -209.4810078923534 -80.13670573025448 L -199.63293036223132 -81.87318750692377 M -228.40186622996788 -113.32748435383172 L -231.82206766322457 -103.93055814597264 M -231.82206766322457 -103.93055814597264 L -228.40186622996788 -94.53363193811356 M -228.40186622996788 -94.53363193811356 L -219.74161219212348 -89.53363193811356 M -51.42300877492313 -141.2835554495182 L -57.85088487178852 -148.94399988070796 M -57.85088487178852 -148.94399988070796 L -64.27876096865391 -156.60444431189774 M -64.27876096865391 -156.60444431189774 L -70.7066370655193 -164.2648887430875 M -70.7066370655193 -164.2648887430875 L -77.13451316238469 -171.92533317427728 M -77.13451316238469 -171.92533317427728 L -83.56238925925008 -179.58577760546706 M -83.56238925925008 -179.58577760546706 L -89.99026535611547 -187.24622203665683 M -89.99026535611547 -187.24622203665683 L -96.41814145298086 -194.9066664678466 M -96.41814145298086 -194.9066664678466 L -106.26621898310295 -196.6431482445159 M -106.26621898310295 -196.6431482445159 L -114.92647302094733 -191.6431482445159 M -89.99026535611547 -187.24622203665683 L -99.83834288623756 -188.98270381332614 M -99.83834288623756 -188.98270381332614 L -108.49859692408194 -183.98270381332614 M -108.49859692408194 -183.98270381332614 L -111.91879835733862 -174.58577760546706 M -89.99026535611547 -187.24622203665683 L -99.83834288623756 -188.98270381332614 M -99.83834288623756 -188.98270381332614 L -109.68642041635964 -190.71918558999545 M -109.68642041635964 -190.71918558999545 L -118.34667445420402 -185.71918558999545 M -118.34667445420402 -185.71918558999545 L -127.0069284920484 -180.71918558999545 M -127.0069284920484 -180.71918558999545 L -135.66718252989278 -175.71918558999545 M -135.66718252989278 -175.71918558999545 L -139.08738396314948 -166.32225938213637 M -139.08738396314948 -166.32225938213637 L -135.66718252989278 -156.92533317427728 M -109.68642041635964 -190.71918558999545 L -119.53449794648172 -192.45566736666476 M -119.53449794648172 -192.45566736666476 L -128.1947519843261 -187.45566736666476 M -128.1947519843261 -187.45566736666476 L -131.6149534175828 -178.05874115880567 M -77.13451316238469 -171.92533317427728 L -86.98259069250678 -173.6618149509466 M -86.98259069250678 -173.6618149509466 L -96.83066822262886 -175.3982967276159 M -96.83066822262886 -175.3982967276159 L -106.67874575275094 -177.1347785042852 M -106.67874575275094 -177.1347785042852 L -115.33899979059532 -172.1347785042852 M -115.33899979059532 -172.1347785042852 L -118.759201223852 -162.73785229642613 M -96.83066822262886 -175.3982967276159 L -105.49092226047324 -170.3982967276159 M -105.49092226047324 -170.3982967276159 L -108.91112369372992 -161.00137051975682 M -108.91112369372992 -161.00137051975682 L -105.49092226047323 -151.60444431189774 M -96.83066822262886 -175.3982967276159 L -105.49092226047324 -170.3982967276159 M -105.49092226047324 -170.3982967276159 L -114.15117629831762 -165.3982967276159 M -114.15117629831762 -165.3982967276159 L -117.5713777315743 -156.00137051975682 M -117.5713777315743 -156.00137051975682 L -120.99157916483098 -146.60444431189774 M -120.99157916483098 -146.60444431189774 L -124.41178059808766 -137.20751810403866 M -124.41178059808766 -137.20751810403866 L -120.99157916483097 -127.81059189617957 M -120.99157916483097 -127.81059189617957 L -112.33132512698658 -122.81059189617957 M -114.15117629831762 -165.3982967276159 L -122.811430336162 -160.3982967276159 M -122.811430336162 -160.3982967276159 L -126.23163176941868 -151.00137051975682 M -126.23163176941868 -151.00137051975682 L -122.81143033616199 -141.60444431189774 M -77.13451316238469 -171.92533317427728 L -86.98259069250678 -173.6618149509466 M -86.98259069250678 -173.6618149509466 L -96.83066822262886 -175.3982967276159 M -96.83066822262886 -175.3982967276159 L -106.67874575275094 -177.1347785042852 M -106.67874575275094 -177.1347785042852 L -116.52682328287302 -178.87126028095452 M -116.52682328287302 -178.87126028095452 L -125.1870773207174 -173.87126028095452 M -125.1870773207174 -173.87126028095452 L -133.8473313585618 -168.87126028095452 M -133.8473313585618 -168.87126028095452 L -142.5075853964062 -163.87126028095452 M -142.5075853964062 -163.87126028095452 L -151.1678394342506 -158.87126028095452 M -151.1678394342506 -158.87126028095452 L -159.828093472095 -153.87126028095452 M -159.828093472095 -153.87126028095452 L -168.4883475099394 -148.87126028095452 M -168.4883475099394 -148.87126028095452 L -177.14860154778378 -143.87126028095452 M -177.14860154778378 -143.87126028095452 L -180.56880298104048 -134.47433407309543 M -180.56880298104048 -134.47433407309543 L -177.14860154778378 -125.07740786523635 M -168.4883475099394 -148.87126028095452 L -171.90854894319608 -139.47433407309543 M -171.90854894319608 -139.47433407309543 L -168.4883475099394 -130.07740786523635 M -168.4883475099394 -130.07740786523635 L -159.828093472095 -125.07740786523635 M -168.4883475099394 -148.87126028095452 L -171.90854894319608 -139.47433407309543 M -171.90854894319608 -139.47433407309543 L -175.32875037645277 -130.07740786523635 M -175.32875037645277 -130.07740786523635 L -171.90854894319608 -120.68048165737727 M -171.90854894319608 -120.68048165737727 L -168.4883475099394 -111.28355544951819 M -168.4883475099394 -111.28355544951819 L -165.0681460766827 -101.88662924165911 M -165.0681460766827 -101.88662924165911 L -156.4078920388383 -96.88662924165911 M -156.4078920388383 -96.88662924165911 L -146.55981450871622 -98.6231110183284 M -175.32875037645277 -130.07740786523635 L -178.74895180970947 -120.68048165737727 M -178.74895180970947 -120.68048165737727 L -175.32875037645277 -111.28355544951819 M -175.32875037645277 -111.28355544951819 L -166.66849633860838 -106.28355544951819 M -116.52682328287302 -178.87126028095452 L -126.37490081299511 -180.60774205762382 M -126.37490081299511 -180.60774205762382 L -136.22297834311718 -182.34422383429313 M -136.22297834311718 -182.34422383429313 L -146.07105587323926 -184.08070561096244 M -146.07105587323926 -184.08070561096244 L -154.73130991108366 -179.08070561096244 M -154.73130991108366 -179.08070561096244 L -158.15151134434035 -169.68377940310336 M -136.22297834311718 -182.34422383429313 L -144.88323238096157 -177.34422383429313 M -144.88323238096157 -177.34422383429313 L -148.30343381421827 -167.94729762643405 M -148.30343381421827 -167.94729762643405 L -144.88323238096157 -158.55037141857497 M -136.22297834311718 -182.34422383429313 L -144.88323238096157 -177.34422383429313 M -144.88323238096157 -177.34422383429313 L -153.54348641880597 -172.34422383429313 M -153.54348641880597 -172.34422383429313 L -156.96368785206266 -162.94729762643405 M -156.96368785206266 -162.94729762643405 L -160.38388928531936 -153.55037141857497 M -160.38388928531936 -153.55037141857497 L -163.80409071857605 -144.1534452107159 M -163.80409071857605 -144.1534452107159 L -160.38388928531936 -134.7565190028568 M -160.38388928531936 -134.7565190028568 L -151.72363524747496 -129.7565190028568 M -153.54348641880597 -172.34422383429313 L -162.20374045665037 -167.34422383429313 M -162.20374045665037 -167.34422383429313 L -165.62394188990706 -157.94729762643405 M -165.62394188990706 -157.94729762643405 L -162.20374045665037 -148.55037141857497 " fill="none" stroke="black" stroke-width="1" stroke-linecap="round"/><circle cx="0.0000" cy="-150.0000" r="4" fill="black"/><circle cx="-6.4279" cy="-157.6604" r="4" fill="black"/><circle cx="-6.4279" cy="-147.6604" r="4" fill="black"/><circle cx="-42.4000" cy="-160.5303" r="4" fill="black"/><circle cx="-19.2836" cy="-162.9813" r="4" fill="black"/><circle cx="-29.1317" cy="-164.7178" r="4" fill="black"/><circle cx="-19.2836" cy="-142.9813" r="4" fill="black"/><circle cx="-29.1317" cy="-144.7178" r="4" fill="black"/><circle cx="-22.7038" cy="-137.0574" r="4" fill="black"/><circle cx="-58.5327" cy="-123.7939" r="4" fill="black"/><circle cx="-42.4000" cy="-140.5303" r="4" fill="black"/><circle cx="-94.6480" cy="-162.7972" r="4" fill="black"/><circle cx="-103.3083" cy="-157.7972" r="4" fill="black"/><circle cx="-93.4602" cy="-156.0607" r="4" fill="black"/><circle cx="-112.3811" cy="-122.8699" r="4" fill="black"/><circle cx="-110.7807" cy="-146.0607" r="4" fill="black"/><circle cx="-44.9951" cy="-173.6231" r="4" fill="black"/><circle cx="-54.8432" cy="-175.3596" r="4" fill="black"/><circle cx="-48.4153" cy="-167.6991" r="4" fill="black"/><circle cx="-84.2442" cy="-154.4356" r="4" fill="black"/><circle cx="-68.1115" cy="-171.1721" r="4" fill="black"/><circle cx="-76.7717" cy="-166.1721" r="4" fill="black"/><circle cx="-44.9951" cy="-133.6231" r="4" fill="black"/><circle cx="-54.8432" cy="-135.3596" r="4" fill="black"/><circle cx="-48.4153" cy="-127.6991" r="4" fill="black"/><circle cx="-84.2442" cy="-114.4356" r="4" fill="black"/><circle cx="-68.1115" cy="-131.1721" r="4" fill="black"/><circle cx="-76.7717" cy="-126.1721" r="4" fill="black"/><circle cx="-55.2557" cy="-115.8512" r="4" fill="black"/><circle cx="-63.9160" cy="-110.8512" r="4" fill="black"/><circle cx="-54.0679" cy="-109.1147" r="4" fill="black"/><circle cx="-72.9888" cy="-75.9240" r="4" fill="black"/><circle cx="-71.3884" cy="-99.1147" r="4" fill="black"/><circle cx="-125.7256" cy="-82.5877" r="4" fill="black"/><circle cx="-129.1458" cy="-73.1908" r="4" fill="black"/><circle cx="-120.4855" cy="-78.1908" r="4" fill="black"/><circle cx="-113.6451" cy="-40.6031" r="4" fill="black"/><circle cx="-127.3259" cy="-59.3969" r="4" fill="black"/><circle cx="-94.6480" cy="-122.7972" r="4" fill="black"/><circle cx="-103.3083" cy="-117.7972" r="4" fill="black"/><circle cx="-93.4602" cy="-116.0607" r="4" fill="black"/><circle cx="-112.3811" cy="-82.8699" r="4" fill="black"/><circle cx="-110.7807" cy="-106.0607" r="4" fill="black"/><circle cx="-199.1442" cy="-167.3308" r="4" fill="black"/><circle cx="-207.8044" cy="-162.3308" r="4" fill="black"/><circle cx="-197.9563" cy="-160.5943" r="4" fill="black"/><circle cx="-216.8772" cy="-127.4035" r="4" fill="black"/><circle cx="-215.2769" cy="-150.5943" r="4" fill="black"/><circle cx="-218.6971" cy="-141.1974" r="4" fill="black"/><circle cx="-195.5807" cy="-147.1213" r="4" fill="black"/><circle cx="-199.0009" cy="-137.7244" r="4" fill="black"/><circle cx="-190.3406" cy="-142.7244" r="4" fill="black"/><circle cx="-183.5002" cy="-105.1367" r="4" fill="black"/><circle cx="-197.1811" cy="-123.9306" r="4" fill="black"/><circle cx="-228.1824" cy="-76.3429" r="4" fill="black"/><circle cx="-224.7622" cy="-66.9459" r="4" fill="black"/><circle cx="-221.3420" cy="-76.3429" r="4" fill="black"/><circle cx="-191.9410" cy="-51.9459" r="4" fill="black"/><circle cx="-214.5016" cy="-57.5490" r="4" fill="black"/><circle cx="-230.2217" cy="-127.1213" r="4" fill="black"/><circle cx="-233.6419" cy="-117.7244" r="4" fill="black"/><circle cx="-224.9817" cy="-122.7244" r="4" fill="black"/><circle cx="-218.1413" cy="-85.1367" r="4" fill="black"/><circle cx="-231.8221" cy="-103.9306" r="4" fill="black"/><circle cx="-96.4181" cy="-194.9067" r="4" fill="black"/><circle cx="-106.2662" cy="-196.6431" r="4" fill="black"/><circle cx="-99.8383" cy="-188.9827" r="4" fill="black"/><circle cx="-135.6672" cy="-175.7192" r="4" fill="black"/><circle cx="-119.5345" cy="-192.4557" r="4" fill="black"/><circle cx="-128.1948" cy="-187.4557" r="4" fill="black"/><circle cx="-106.6787" cy="-177.1348" r="4" fill="black"/><circle cx="-115.3390" cy="-172.1348" r="4" fill="black"/><circle cx="-105.4909" cy="-170.3983" r="4" fill="black"/><circle cx="-124.4118" cy="-137.2075" r="4" fill="black"/><circle cx="-122.8114" cy="-160.3983" r="4" fill="black"/><circle cx="-177.1486" cy="-143.8713" r="4" fill="black"/><circle cx="-180.5688" cy="-134.4743" r="4" fill="black"/><circle cx="-171.9085" cy="-139.4743" r="4" fill="black"/><circle cx="-165.0681" cy="-101.8866" r="4" fill="black"/><circle cx="-178.7490" cy="-120.6805" r="4" fill="black"/><circle cx="-146.0711" cy="-184.0807" r="4" fill="black"/><circle cx="-154.7313" cy="-179.0807" r="4" fill="black"/><circle cx="-144.8832" cy="-177.3442" r="4" fill="black"/><circle cx="-163.8041" cy="-144.1534" r="4" fill="black"/><circle cx="-162.2037" cy="-167.3442" r="4" fill="black"/></svg>