<svg viewBox="-65.20907433445902 -478.39517044534966 267.391875961818 521.885640485836" xmlns="http://www.w3.org/2000/svg"><path d="M 0.0 0.0 L 6.123233995736766E-16 -10.0 M 6.123233995736766E-16 -10.0 L 1.2246467991473533E-15 -20.0 M 1.2246467991473533E-15 -20.0 L 1.83697019872103E-15 -30.0 M 1.83697019872103E-15 -30.0 L 2.4492935982947065E-15 -40.0 M 2.4492935982947065E-15 -40.0 L 3.061616997868383E-15 -50.0 M 3.061616997868383E-15 -50.0 L 3.67394039744206E-15 -60.0 M 3.67394039744206E-15 -60.0 L 4.2862637970157365E-15 -70.0 M 4.2862637970157365E-15 -70.0 L 4.898587196589413E-15 -80.0 M 4.898587196589413E-15 -80.0 L 6.427876096865399 -87.66044443118977 M 6.427876096865399 -87.66044443118977 L 12.855752193730792 -95.32088886237955 M 12.855752193730792 -95.32088886237955 L 19.283628290596184 -102.98133329356932 M 19.283628290596184 -102.98133329356932 L 25.711504387461577 -110.6417777247591 M 25.711504387461577 -110.6417777247591 L 35.55958191758366 -112.3782595014284 M 35.55958191758366 -112.3782595014284 L 45.40765944770574 -114.11474127809771 M 45.40765944770574 -114.11474127809771 L 54.06791348555013 -109.11474127809771 M 54.06791348555013 -109.11474127809771 L 61.138981297415604 -102.04367346623224 M 61.138981297415604 -102.04367346623224 L 70.5359075052747 -98.62347203297554 M 45.40765944770574 -114.11474127809771 L 55.36960642862319 -113.24318385062112 M 55.36960642862319 -113.24318385062112 L 64.76653263648228 -109.82298241736443 M 64.76653263648228 -109.82298241736443 L 74.72847961739974 -110.69453984484102 M 45.40765944770574 -114.11474127809771 L 55.36960642862319 -113.24318385062112 M 55.36960642862319 -113.24318385062112 L 65.33155340954065 -112.37162642314453 M 65.33155340954065 -112.37162642314453 L 74.72847961739973 -115.79182785640123 M 74.72847961739973 -115.79182785640123 L 84.12540582525881 -119.21202928965792 M 84.12540582525881 -119.21202928965792 L 93.52233203311789 -122.63223072291461 M 93.52233203311789 -122.63223072291461 L 103.48427901403535 -123.5037881503912 M 103.48427901403535 -123.5037881503912 L 112.14453305187973 -128.5037881503912 M 65.33155340954065 -112.37162642314453 L 72.40262122140612 -105.30055861127906 M 72.40262122140612 -105.30055861127906 L 77.40262122140612 -96.64030457343468 M 77.40262122140612 -96.64030457343468 L 85.59414166429605 -90.90454020992422 M 25.711504387461577 -110.6417777247591 L 33.9030248303515 -116.37754208826955 M 33.9030248303515 -116.37754208826955 L 42.094545273241415 -122.11330645178 M 42.094545273241415 -122.11330645178 L 52.05649225415887 -121.24174902430342 M 52.05649225415887 -121.24174902430342 L 61.45341846201795 -117.82154759104672 M 61.45341846201795 -117.82154759104672 L 71.41536544293541 -118.69310501852331 M 42.094545273241415 -122.11330645178 L 51.491471481100504 -125.5335078850367 M 51.491471481100504 -125.5335078850367 L 61.45341846201796 -126.40506531251329 M 61.45341846201796 -126.40506531251329 L 70.11367249986235 -131.40506531251327 M 42.094545273241415 -122.11330645178 L 51.491471481100504 -125.5335078850367 M 51.491471481100504 -125.5335078850367 L 60.888397688959586 -128.9537093182934 M 60.888397688959586 -128.9537093182934 L 67.95946550082506 -136.02477713015887 M 67.95946550082506 -136.02477713015887 L 75.03053331269054 -143.09584494202434 M 75.03053331269054 -143.09584494202434 L 82.10160112455601 -150.16691275388982 M 82.10160112455601 -150.16691275388982 L 90.7618551624004 -155.16691275388982 M 90.7618551624004 -155.16691275388982 L 96.49761952591085 -163.35843319677974 M 60.888397688959586 -128.9537093182934 L 70.28532389681867 -125.5335078850367 M 70.28532389681867 -125.5335078850367 L 78.47684433970858 -119.79774352152624 M 78.47684433970858 -119.79774352152624 L 88.32492186983066 -118.06126174485694 M 25.711504387461577 -110.6417777247591 L 33.9030248303515 -116.37754208826955 M 33.9030248303515 -116.37754208826955 L 42.094545273241415 -122.11330645178 M 42.094545273241415 -122.11330645178 L 50.28606571613133 -127.84907081529046 M 50.28606571613133 -127.84907081529046 L 58.47758615902125 -133.58483517880092 M 58.47758615902125 -133.58483517880092 L 63.47758615902125 -142.2450892166453 M 63.47758615902125 -142.2450892166453 L 68.47758615902126 -150.9053432544897 M 68.47758615902126 -150.9053432544897 L 73.47758615902126 -159.5655972923341 M 73.47758615902126 -159.5655972923341 L 78.47758615902126 -168.2258513301785 M 78.47758615902126 -168.2258513301785 L 83.47758615902126 -176.8861053680229 M 83.47758615902126 -176.8861053680229 L 88.47758615902126 -185.5463594058673 M 88.47758615902126 -185.5463594058673 L 97.87451236688034 -188.96656083912399 M 97.87451236688034 -188.96656083912399 L 107.8364593477978 -189.83811826660056 M 107.8364593477978 -189.83811826660056 L 116.49671338564218 -194.83811826660056 M 88.47758615902126 -185.5463594058673 L 95.54865397088673 -192.61742721773277 M 95.54865397088673 -192.61742721773277 L 104.20890800873111 -197.61742721773277 M 104.20890800873111 -197.61742721773277 L 109.94467237224157 -205.8089476606227 M 88.47758615902126 -185.5463594058673 L 95.54865397088673 -192.61742721773277 M 95.54865397088673 -192.61742721773277 L 102.61972178275221 -199.68849502959824 M 102.61972178275221 -199.68849502959824 L 106.0399232160089 -209.08542123745733 M 106.0399232160089 -209.08542123745733 L 109.4601246492656 -218.4823474453164 M 109.4601246492656 -218.4823474453164 L 112.88032608252229 -227.8792736531755 M 112.88032608252229 -227.8792736531755 L 118.61609044603274 -236.0707940960654 M 118.61609044603274 -236.0707940960654 L 120.35257222270205 -245.9188716261875 M 102.61972178275221 -199.68849502959824 L 112.58166876366967 -200.56005245707482 M 112.58166876366967 -200.56005245707482 L 122.42974629379175 -198.8235706804055 M 122.42974629379175 -198.8235706804055 L 132.08900455668243 -201.41176113143072 M 58.47758615902125 -133.58483517880092 L 68.4395331399387 -132.71327775132434 M 68.4395331399387 -132.71327775132434 L 78.40148012085616 -131.84172032384777 M 78.40148012085616 -131.84172032384777 L 85.47254793272164 -124.77065251198229 M 85.47254793272164 -124.77065251198229 L 90.47254793272164 -116.11039847413791 M 90.47254793272164 -116.11039847413791 L 98.66406837561155 -110.37463411062745 M 78.40148012085616 -131.84172032384777 L 87.79840632871525 -128.42151889059107 M 87.79840632871525 -128.42151889059107 L 95.98992677160516 -122.68575452708062 M 95.98992677160516 -122.68575452708062 L 105.83800430172724 -120.94927275041131 M 78.40148012085616 -131.84172032384777 L 87.79840632871525 -128.42151889059107 M 87.79840632871525 -128.42151889059107 L 97.19533253657433 -125.00131745733438 M 97.19533253657433 -125.00131745733438 L 107.15727951749179 -125.87287488481097 M 107.15727951749179 -125.87287488481097 L 117.11922649840925 -126.74443231228756 M 117.11922649840925 -126.74443231228756 L 127.08117347932671 -127.61598973976415 M 127.08117347932671 -127.61598973976415 L 136.9292510094488 -125.87950796309484 M 136.9292510094488 -125.87950796309484 L 146.58850927233948 -128.46769841412004 M 97.19533253657433 -125.00131745733438 L 102.19533253657433 -116.34106341949 M 102.19533253657433 -116.34106341949 L 104.78352298759954 -106.68180515659931 M 104.78352298759954 -106.68180515659931 L 111.21139908446493 -99.02136072540954 M 4.898587196589413E-15 -80.0 L 2.5881904510252123 -89.65925826289069 M 2.5881904510252123 -89.65925826289069 L 5.17638090205042 -99.31851652578138 M 5.17638090205042 -99.31851652578138 L 7.7645713530756275 -108.97777478867206 M 7.7645713530756275 -108.97777478867206 L 10.352761804100835 -118.63703305156275 M 10.352761804100835 -118.63703305156275 L 18.544282246990754 -124.37279741507321 M 18.544282246990754 -124.37279741507321 L 26.73580268988067 -130.10856177858366 M 26.73580268988067 -130.10856177858366 L 36.697749670798125 -129.2370043511071 M 36.697749670798125 -129.2370043511071 L 46.09467587865721 -125.8168029178504 M 46.09467587865721 -125.8168029178504 L 56.05662285957467 -126.68836034532698 M 26.73580268988067 -130.10856177858366 L 36.13272889773975 -133.52876321184036 M 36.13272889773975 -133.52876321184036 L 46.094675878657206 -134.40032063931693 M 46.094675878657206 -134.40032063931693 L 54.754929916501595 -139.40032063931693 M 26.73580268988067 -130.10856177858366 L 36.13272889773975 -133.52876321184036 M 36.13272889773975 -133.52876321184036 L 45.529655105598835 -136.94896464509705 M 45.529655105598835 -136.94896464509705 L 52.60072291746431 -144.02003245696253 M 52.60072291746431 -144.02003245696253 L 59.671790729329786 -151.091100268828 M 59.671790729329786 -151.091100268828 L 66.74285854119526 -158.16216808069348 M 66.74285854119526 -158.16216808069348 L 75.40311257903964 -163.16216808069348 M 75.40311257903964 -163.16216808069348 L 81.1388769425501 -171.3536885235834 M 45.529655105598835 -136.94896464509705 L 54.926581313457916 -133.52876321184036 M 54.926581313457916 -133.52876321184036 L 63.11810175634783 -127.7929988483299 M 63.11810175634783 -127.7929988483299 L 72.96617928646991 -126.0565170716606 M 10.352761804100835 -118.63703305156275 L 15.352761804100837 -127.29728708940713 M 15.352761804100837 -127.29728708940713 L 20.352761804100837 -135.95754112725152 M 20.352761804100837 -135.95754112725152 L 29.749688011959922 -139.3777425605082 M 29.749688011959922 -139.3777425605082 L 39.71163499287738 -140.24929998798478 M 39.71163499287738 -140.24929998798478 L 48.37188903072177 -145.24929998798478 M 20.352761804100837 -135.95754112725152 L 27.423829615966312 -143.028608939117 M 27.423829615966312 -143.028608939117 L 36.0840836538107 -148.028608939117 M 36.0840836538107 -148.028608939117 L 41.81984801732116 -156.22012938200692 M 20.352761804100837 -135.95754112725152 L 27.423829615966312 -143.028608939117 M 27.423829615966312 -143.028608939117 L 34.49489742783179 -150.09967675098247 M 34.49489742783179 -150.09967675098247 L 37.915098861088474 -159.49660295884155 M 37.915098861088474 -159.49660295884155 L 41.33530029434516 -168.89352916670063 M 41.33530029434516 -168.89352916670063 L 44.755501727601846 -178.2904553745597 M 44.755501727601846 -178.2904553745597 L 50.49126609111231 -186.48197581744964 M 50.49126609111231 -186.48197581744964 L 52.22774786778161 -196.33005334757172 M 34.49489742783179 -150.09967675098247 L 44.45684440874924 -150.97123417845904 M 44.45684440874924 -150.97123417845904 L 54.30492193887132 -149.23475240178973 M 54.30492193887132 -149.23475240178973 L 63.964180201762 -151.82294285281495 M 10.352761804100835 -118.63703305156275 L 15.352761804100837 -127.29728708940713 M 15.352761804100837 -127.29728708940713 L 20.352761804100837 -135.95754112725152 M 20.352761804100837 -135.95754112725152 L 25.352761804100837 -144.6177951650959 M 25.352761804100837 -144.6177951650959 L 30.352761804100837 -153.2780492029403 M 30.352761804100837 -153.2780492029403 L 31.224319231577418 -163.23999618385776 M 31.224319231577418 -163.23999618385776 L 32.095876659054 -173.2019431647752 M 32.095876659054 -173.2019431647752 L 32.96743408653058 -183.16389014569265 M 32.96743408653058 -183.16389014569265 L 33.83899151400716 -193.1258371266101 M 33.83899151400716 -193.1258371266101 L 34.710548941483744 -203.08778410752754 M 34.710548941483744 -203.08778410752754 L 35.582106368960325 -213.049731088445 M 35.582106368960325 -213.049731088445 L 42.6531741808258 -220.12079890031046 M 42.6531741808258 -220.12079890031046 L 51.31342821867019 -225.12079890031046 M 51.31342821867019 -225.12079890031046 L 57.04919258218065 -233.3123193432004 M 35.582106368960325 -213.049731088445 L 39.00230780221701 -222.44665729630407 M 39.00230780221701 -222.44665729630407 L 44.73807216572747 -230.638177739194 M 44.73807216572747 -230.638177739194 L 46.474553942396774 -240.48625526931608 M 35.582106368960325 -213.049731088445 L 39.00230780221701 -222.44665729630407 M 39.00230780221701 -222.44665729630407 L 42.4225092354737 -231.84358350416315 M 42.4225092354737 -231.84358350416315 L 41.550951807997116 -241.8055304850806 M 41.550951807997116 -241.8055304850806 L 40.679394380520534 -251.76747746599804 M 40.679394380520534 -251.76747746599804 L 39.80783695304395 -261.7294244469155 M 39.80783695304395 -261.7294244469155 L 41.544318729713254 -271.57750197703757 M 41.544318729713254 -271.57750197703757 L 38.95612827868805 -281.23676023992823 M 42.4225092354737 -231.84358350416315 L 51.082763273318086 -236.84358350416315 M 51.082763273318086 -236.84358350416315 L 60.74202153620877 -239.43177395518836 M 60.74202153620877 -239.43177395518836 L 68.40246596739854 -245.85965005205375 M 30.352761804100837 -153.2780492029403 L 39.74968801195992 -156.698250636197 M 39.74968801195992 -156.698250636197 L 49.146614219819 -160.1184520694537 M 49.146614219819 -160.1184520694537 L 58.54354042767808 -156.698250636197 M 58.54354042767808 -156.698250636197 L 66.73506087056799 -150.96248627268653 M 66.73506087056799 -150.96248627268653 L 76.58313840069007 -149.22600449601723 M 49.146614219819 -160.1184520694537 L 59.10856120073645 -160.99000949693027 M 59.10856120073645 -160.99000949693027 L 68.95663873085853 -159.25352772026096 M 68.95663873085853 -159.25352772026096 L 78.61589699374922 -161.84171817128617 M 49.146614219819 -160.1184520694537 L 59.10856120073645 -160.99000949693027 M 59.10856120073645 -160.99000949693027 L 69.0705081816539 -161.86156692440684 M 69.0705081816539 -161.86156692440684 L 77.73076221949829 -166.86156692440684 M 77.73076221949829 -166.86156692440684 L 86.39101625734267 -171.86156692440684 M 86.39101625734267 -171.86156692440684 L 95.05127029518705 -176.86156692440684 M 95.05127029518705 -176.86156692440684 L 104.71052855807774 -179.44975737543206 M 104.71052855807774 -179.44975737543206 L 112.37097298926751 -185.87763347229745 M 69.0705081816539 -161.86156692440684 L 77.26202862454383 -156.12580256089637 M 77.26202862454383 -156.12580256089637 L 83.68990472140922 -148.4653581297066 M 83.68990472140922 -148.4653581297066 L 92.75298259177572 -144.2391755122996 M 4.898587196589413E-15 -80.0 L 2.5881904510252123 -89.65925826289069 M 2.5881904510252123 -89.65925826289069 L 5.17638090205042 -99.31851652578138 M 5.17638090205042 -99.31851652578138 L 7.7645713530756275 -108.97777478867206 M 7.7645713530756275 -108.97777478867206 L 10.352761804100835 -118.63703305156275 M 10.352761804100835 -118.63703305156275 L 12.940952255126042 -128.29629131445344 M 12.940952255126042 -128.29629131445344 L 15.52914270615125 -137.95554957734413 M 15.52914270615125 -137.95554957734413 L 18.117333157176457 -147.61480784023482 M 18.117333157176457 -147.61480784023482 L 20.705523608201666 -157.2740661031255 M 20.705523608201666 -157.2740661031255 L 18.969041831532362 -167.1221436332476 M 18.969041831532362 -167.1221436332476 L 17.232560054863058 -176.97022116336967 M 17.232560054863058 -176.97022116336967 L 15.496078278193755 -186.81829869349176 M 15.496078278193755 -186.81829869349176 L 13.759596501524452 -196.66637622361384 M 13.759596501524452 -196.66637622361384 L 12.02311472485515 -206.51445375373592 M 12.02311472485515 -206.51445375373592 L 10.286632948185847 -216.362531283858 M 10.286632948185847 -216.362531283858 L 8.550151171516545 -226.2106088139801 M 8.550151171516545 -226.2106088139801 L 6.813669394847242 -236.05868634410217 M 6.813669394847242 -236.05868634410217 L 5.077187618177939 -245.90676387422425 M 5.077187618177939 -245.90676387422425 L 3.3407058415086364 -255.75484140434634 M 3.3407058415086364 -255.75484140434634 L 1.6042240648393333 -265.6029189344684 M 1.6042240648393333 -265.6029189344684 L -0.1322577118299697 -275.45099646459045 M -0.1322577118299697 -275.45099646459045 L 4.867742288170032 -284.1112505024348 M 4.867742288170032 -284.1112505024348 L 9.867742288170032 -292.7715045402792 M 9.867742288170032 -292.7715045402792 L 19.264668496029117 -296.1917059735359 M 19.264668496029117 -296.1917059735359 L 29.22661547694657 -297.0632634010125 M 29.22661547694657 -297.0632634010125 L 37.88686951479096 -302.0632634010125 M 9.867742288170032 -292.7715045402792 L 16.938810100035507 -299.84257235214466 M 16.938810100035507 -299.84257235214466 L 25.599064137879893 -304.84257235214466 M 25.599064137879893 -304.84257235214466 L 31.334828501390355 -313.03409279503455 M 9.867742288170032 -292.7715045402792 L 16.938810100035507 -299.84257235214466 M 16.938810100035507 -299.84257235214466 L 24.009877911900983 -306.91364016401013 M 24.009877911900983 -306.91364016401013 L 27.430079345157672 -316.31056637186924 M 27.430079345157672 -316.31056637186924 L 30.850280778414362 -325.70749257972835 M 30.850280778414362 -325.70749257972835 L 34.27048221167105 -335.10441878758746 M 34.27048221167105 -335.10441878758746 L 40.006246575181514 -343.29593923047736 M 40.006246575181514 -343.29593923047736 L 41.742728351850815 -353.1440167605994 M 24.009877911900983 -306.91364016401013 L 33.97182489281844 -307.78519759148674 M 33.97182489281844 -307.78519759148674 L 43.819902422940515 -306.04871581481746 M 43.819902422940515 -306.04871581481746 L 53.4791606858312 -308.63690626584264 M -0.1322577118299697 -275.45099646459045 L 0.7392997156466117 -285.4129434455079 M 0.7392997156466117 -285.4129434455079 L 1.610857143123193 -295.37489042642534 M 1.610857143123193 -295.37489042642534 L 8.681924954988668 -302.4459582382908 M 8.681924954988668 -302.4459582382908 L 17.342178992833055 -307.4459582382908 M 17.342178992833055 -307.4459582382908 L 23.077943356343518 -315.6374786811807 M 1.610857143123193 -295.37489042642534 L 5.031058576379881 -304.77181663428445 M 5.031058576379881 -304.77181663428445 L 10.766822939890343 -312.96333707717434 M 10.766822939890343 -312.96333707717434 L 12.503304716559647 -322.8114146072964 M 1.610857143123193 -295.37489042642534 L 5.031058576379881 -304.77181663428445 M 5.031058576379881 -304.77181663428445 L 8.45126000963657 -314.16874284214356 M 8.45126000963657 -314.16874284214356 L 7.579702582159988 -324.130689823061 M 7.579702582159988 -324.130689823061 L 6.708145154683406 -334.09263680397845 M 6.708145154683406 -334.09263680397845 L 5.836587727206823 -344.0545837848959 M 5.836587727206823 -344.0545837848959 L 7.573069503876128 -353.90266131501795 M 7.573069503876128 -353.90266131501795 L 4.9848790528509195 -363.5619195779086 M 8.45126000963657 -314.16874284214356 L 17.11151404748096 -319.16874284214356 M 17.11151404748096 -319.16874284214356 L 26.77077231037164 -321.75693329316874 M 26.77077231037164 -321.75693329316874 L 34.43121674156142 -328.18480939003416 M -0.1322577118299697 -275.45099646459045 L 0.7392997156466117 -285.4129434455079 M 0.7392997156466117 -285.4129434455079 L 1.610857143123193 -295.37489042642534 M 1.610857143123193 -295.37489042642534 L 2.4824145705997744 -305.3368374073428 M 2.4824145705997744 -305.3368374073428 L 3.353971998076356 -315.29878438826023 M 3.353971998076356 -315.29878438826023 L -0.0662294351803312 -324.69571059611934 M -0.0662294351803312 -324.69571059611934 L -3.486430868437018 -334.09263680397845 M -3.486430868437018 -334.09263680397845 L -6.906632301693705 -343.48956301183756 M -6.906632301693705 -343.48956301183756 L -10.326833734950391 -352.88648921969667 M -10.326833734950391 -352.88648921969667 L -13.747035168207077 -362.2834154275558 M -13.747035168207077 -362.2834154275558 L -17.167236601463763 -371.6803416354149 M -17.167236601463763 -371.6803416354149 L -13.747035168207075 -381.077267843274 M -13.747035168207075 -381.077267843274 L -8.011270804696615 -389.2687882861639 M -8.011270804696615 -389.2687882861639 L -6.27478902802731 -399.11686581628595 M -17.167236601463763 -371.6803416354149 L -18.038794028940345 -381.64228861633234 M -18.038794028940345 -381.64228861633234 L -16.30231225227104 -391.4903661464544 M -16.30231225227104 -391.4903661464544 L -18.89050270329625 -401.14962440934505 M -17.167236601463763 -371.6803416354149 L -18.038794028940345 -381.64228861633234 M -18.038794028940345 -381.64228861633234 L -18.910351456416926 -391.6042355972498 M -18.910351456416926 -391.6042355972498 L -23.910351456416926 -400.26448963509415 M -23.910351456416926 -400.26448963509415 L -28.910351456416926 -408.9247436729385 M -28.910351456416926 -408.9247436729385 L -33.910351456416926 -417.5849977107829 M -33.910351456416926 -417.5849977107829 L -36.49854190744213 -427.24425597367355 M -36.49854190744213 -427.24425597367355 L -42.92641800430752 -434.9047004048633 M -18.910351456416926 -391.6042355972498 L -13.174587092906464 -399.7957560401397 M -13.174587092906464 -399.7957560401397 L -5.514142661716684 -406.2236321370051 M -5.514142661716684 -406.2236321370051 L -1.2879600443096892 -415.2867100073716 M 3.353971998076356 -315.29878438826023 L 10.42503980994183 -322.3698522001257 M 10.42503980994183 -322.3698522001257 L 17.496107621807305 -329.4409200119912 M 17.496107621807305 -329.4409200119912 L 27.458054602724758 -330.3124774394678 M 27.458054602724758 -330.3124774394678 L 37.30613213284684 -328.5759956627985 M 37.30613213284684 -328.5759956627985 L 46.96539039573752 -331.1641861138237 M 17.496107621807305 -329.4409200119912 L 26.156361659651694 -334.4409200119912 M 26.156361659651694 -334.4409200119912 L 35.815619922542375 -337.02911046301637 M 35.815619922542375 -337.02911046301637 L 43.476064353732156 -343.4569865598818 M 17.496107621807305 -329.4409200119912 L 26.156361659651694 -334.4409200119912 M 26.156361659651694 -334.4409200119912 L 34.81661569749608 -339.4409200119912 M 34.81661569749608 -339.4409200119912 L 40.552380061006545 -347.6324404548811 M 40.552380061006545 -347.6324404548811 L 46.28814442451701 -355.823960897771 M 46.28814442451701 -355.823960897771 L 52.02390878802747 -364.01548134066087 M 52.02390878802747 -364.01548134066087 L 59.68435321921725 -370.4433574375263 M 59.68435321921725 -370.4433574375263 L 63.91053583662425 -379.5064353078928 M 34.81661569749608 -339.4409200119912 L 44.66469322761816 -337.7044382353219 M 44.66469322761816 -337.7044382353219 L 53.72777109798466 -333.4782556179149 M 53.72777109798466 -333.4782556179149 L 63.72777109798466 -333.4782556179149 M 20.705523608201666 -157.2740661031255 L 28.897044051091584 -163.00983046663598 M 28.897044051091584 -163.00983046663598 L 37.0885644939815 -168.74559483014644 M 37.0885644939815 -168.74559483014644 L 45.28008493687142 -174.4813591936569 M 45.28008493687142 -174.4813591936569 L 53.471605379761336 -180.21712355716738 M 53.471605379761336 -180.21712355716738 L 63.43355236067879 -179.3455661296908 M 63.43355236067879 -179.3455661296908 L 73.39549934159625 -178.47400870221423 M 73.39549934159625 -178.47400870221423 L 80.46656715346172 -171.40294089034876 M 80.46656715346172 -171.40294089034876 L 85.46656715346172 -162.74268685250436 M 85.46656715346172 -162.74268685250436 L 93.65808759635163 -157.0069224889939 M 73.39549934159625 -178.47400870221423 L 82.79242554945533 -175.05380726895754 M 82.79242554945533 -175.05380726895754 L 90.98394599234524 -169.31804290544707 M 90.98394599234524 -169.31804290544707 L 100.83202352246732 -167.58156112877776 M 73.39549934159625 -178.47400870221423 L 82.79242554945533 -175.05380726895754 M 82.79242554945533 -175.05380726895754 L 92.18935175731441 -171.63360583570085 M 92.18935175731441 -171.63360583570085 L 102.15129873823187 -172.50516326317742 M 102.15129873823187 -172.50516326317742 L 112.11324571914933 -173.376720690654 M 112.11324571914933 -173.376720690654 L 122.0751927000668 -174.24827811813057 M 122.0751927000668 -174.24827811813057 L 131.92327023018888 -172.51179634146126 M 131.92327023018888 -172.51179634146126 L 141.58252849307956 -175.09998679248648 M 92.18935175731441 -171.63360583570085 L 97.18935175731441 -162.97335179785645 M 97.18935175731441 -162.97335179785645 L 99.77754220833963 -153.31409353496576 M 99.77754220833963 -153.31409353496576 L 106.20541830520501 -145.653649103776 M 53.471605379761336 -180.21712355716738 L 62.868531587620424 -183.63732499042408 M 62.868531587620424 -183.63732499042408 L 72.2654577954795 -187.05752642368077 M 72.2654577954795 -187.05752642368077 L 81.66238400333859 -183.63732499042408 M 81.66238400333859 -183.63732499042408 L 89.85390444622851 -177.9015606269136 M 89.85390444622851 -177.9015606269136 L 99.7019819763506 -176.1650788502443 M 72.2654577954795 -187.05752642368077 L 82.22740477639697 -187.92908385115734 M 82.22740477639697 -187.92908385115734 L 92.07548230651905 -186.19260207448804 M 92.07548230651905 -186.19260207448804 L 101.73474056940974 -188.78079252551325 M 72.2654577954795 -187.05752642368077 L 82.22740477639697 -187.92908385115734 M 82.22740477639697 -187.92908385115734 L 92.18935175731443 -188.80064127863392 M 92.18935175731443 -188.80064127863392 L 100.84960579515881 -193.80064127863392 M 100.84960579515881 -193.80064127863392 L 109.50985983300319 -198.80064127863392 M 109.50985983300319 -198.80064127863392 L 118.17011387084757 -203.80064127863392 M 118.17011387084757 -203.80064127863392 L 127.82937213373826 -206.38883172965913 M 127.82937213373826 -206.38883172965913 L 135.48981656492805 -212.81670782652452 M 92.18935175731443 -188.80064127863392 L 100.38087220020435 -183.06487691512345 M 100.38087220020435 -183.06487691512345 L 106.80874829706974 -175.40443248393368 M 106.80874829706974 -175.40443248393368 L 115.87182616743624 -171.17824986652667 M 53.471605379761336 -180.21712355716738 L 62.868531587620424 -183.63732499042408 M 62.868531587620424 -183.63732499042408 L 72.2654577954795 -187.05752642368077 M 72.2654577954795 -187.05752642368077 L 81.66238400333859 -190.47772785693746 M 81.66238400333859 -190.47772785693746 L 91.05931021119767 -193.89792929019416 M 91.05931021119767 -193.89792929019416 L 98.13037802306314 -200.96899710205963 M 98.13037802306314 -200.96899710205963 L 105.20144583492862 -208.0400649139251 M 105.20144583492862 -208.0400649139251 L 112.2725136467941 -215.11113272579058 M 112.2725136467941 -215.11113272579058 L 119.34358145865957 -222.18220053765606 M 119.34358145865957 -222.18220053765606 L 126.41464927052505 -229.25326834952153 M 126.41464927052505 -229.25326834952153 L 133.48571708239052 -236.324336161387 M 133.48571708239052 -236.324336161387 L 143.44766406330797 -237.19589358886358 M 143.44766406330797 -237.19589358886358 L 153.29574159343005 -235.45941181219428 M 153.29574159343005 -235.45941181219428 L 162.95499985632074 -238.0476022632195 M 133.48571708239052 -236.324336161387 L 142.14597112023492 -241.324336161387 M 142.14597112023492 -241.324336161387 L 151.8052293831256 -243.91252661241222 M 151.8052293831256 -243.91252661241222 L 159.46567381431538 -250.3404027092776 M 133.48571708239052 -236.324336161387 L 142.14597112023492 -241.324336161387 M 142.14597112023492 -241.324336161387 L 150.80622515807931 -246.324336161387 M 150.80622515807931 -246.324336161387 L 156.54198952158978 -254.51585660427693 M 156.54198952158978 -254.51585660427693 L 162.27775388510025 -262.70737704716686 M 162.27775388510025 -262.70737704716686 L 168.01351824861072 -270.89889749005675 M 168.01351824861072 -270.89889749005675 L 175.6739626798005 -277.3267735869222 M 175.6739626798005 -277.3267735869222 L 179.9001452972075 -286.38985145728867 M 150.80622515807931 -246.324336161387 L 160.6543026882014 -244.5878543847177 M 160.6543026882014 -244.5878543847177 L 169.7173805585679 -240.3616717673107 M 169.7173805585679 -240.3616717673107 L 179.7173805585679 -240.3616717673107 M 91.05931021119767 -193.89792929019416 L 100.45623641905675 -190.47772785693746 M 100.45623641905675 -190.47772785693746 L 109.85316262691583 -187.05752642368077 M 109.85316262691583 -187.05752642368077 L 114.85316262691583 -178.39727238583637 M 114.85316262691583 -178.39727238583637 L 117.44135307794105 -168.73801412294569 M 117.44135307794105 -168.73801412294569 L 123.86922917480643 -161.0775696917559 M 109.85316262691583 -187.05752642368077 L 118.04468306980576 -181.3217620601703 M 118.04468306980576 -181.3217620601703 L 124.47255916667115 -173.66131762898053 M 124.47255916667115 -173.66131762898053 L 133.53563703703765 -169.43513501157352 M 109.85316262691583 -187.05752642368077 L 118.04468306980576 -181.3217620601703 M 118.04468306980576 -181.3217620601703 L 126.23620351269568 -175.58599769665983 M 126.23620351269568 -175.58599769665983 L 136.08428104281776 -173.84951591999052 M 136.08428104281776 -173.84951591999052 L 145.93235857293985 -172.11303414332122 M 145.93235857293985 -172.11303414332122 L 155.78043610306193 -170.3765523666519 M 155.78043610306193 -170.3765523666519 L 164.84351397342843 -166.1503697492449 M 164.84351397342843 -166.1503697492449 L 174.84351397342843 -166.1503697492449 M 126.23620351269568 -175.58599769665983 L 128.8243939637209 -165.92673943376914 M 128.8243939637209 -165.92673943376914 L 128.8243939637209 -155.92673943376914 M 128.8243939637209 -155.92673943376914 L 133.0505765811279 -146.86366156340264 " fill="none" stroke="black" stroke-width="1" stroke-linecap="round"/>
<rect x="50.0679" y="-113.1147" width="8" height="8" fill="black" transform="rotate(70.0 54.06791348555013 -109.11474127809771)"/><rect x="41.4077" y="-118.1147" width="8" height="8" fill="black" transform="rotate(30.0 45.40765944770574 -114.11474127809771)"/><rect x="51.3696" y="-117.2432" width="8" height="8" fill="black" transform="rotate(45.0 55.36960642862319 -113.24318385062112)"/><rect x="89.5223" y="-126.6322" width="8" height="8" fill="black" transform="rotate(20.0 93.52233203311789 -122.63223072291461)"/><rect x="68.4026" y="-109.3006" width="8" height="8" fill="black" transform="rotate(85.0 72.40262122140612 -105.30055861127906)"/><rect x="21.7115" y="-114.6418" width="8" height="8" fill="black" transform="rotate(-10.0 25.711504387461577 -110.6417777247591)"/><rect x="48.0565" y="-125.2417" width="8" height="8" fill="black" transform="rotate(45.0 52.05649225415887 -121.24174902430342)"/><rect x="38.0945" y="-126.1133" width="8" height="8" fill="black" transform="rotate(5.0 42.094545273241415 -122.11330645178)"/><rect x="47.4915" y="-129.5335" width="8" height="8" fill="black" transform="rotate(20.0 51.491471481100504 -125.5335078850367)"/><rect x="78.1016" y="-154.1669" width="8" height="8" fill="black" transform="rotate(-5.0 82.10160112455601 -150.16691275388982)"/><rect x="66.2853" y="-129.5335" width="8" height="8" fill="black" transform="rotate(60.0 70.28532389681867 -125.5335078850367)"/><rect x="93.8745" y="-192.9666" width="8" height="8" fill="black" transform="rotate(20.0 97.87451236688034 -188.96656083912399)"/><rect x="84.4776" y="-189.5464" width="8" height="8" fill="black" transform="rotate(-20.0 88.47758615902126 -185.5463594058673)"/><rect x="91.5487" y="-196.6174" width="8" height="8" fill="black" transform="rotate(-5.0 95.54865397088673 -192.61742721773277)"/><rect x="108.8803" y="-231.8793" width="8" height="8" fill="black" transform="rotate(-30.0 112.88032608252229 -227.8792736531755)"/><rect x="108.5817" y="-204.5601" width="8" height="8" fill="black" transform="rotate(35.0 112.58166876366967 -200.56005245707482)"/><rect x="81.4725" y="-128.7707" width="8" height="8" fill="black" transform="rotate(85.0 85.47254793272164 -124.77065251198229)"/><rect x="74.4015" y="-135.8417" width="8" height="8" fill="black" transform="rotate(45.0 78.40148012085616 -131.84172032384777)"/><rect x="83.7984" y="-132.4215" width="8" height="8" fill="black" transform="rotate(60.0 87.79840632871525 -128.42151889059107)"/><rect x="123.0812" y="-131.6160" width="8" height="8" fill="black" transform="rotate(35.0 127.08117347932671 -127.61598973976415)"/><rect x="98.1953" y="-120.3411" width="8" height="8" fill="black" transform="rotate(100.0 102.19533253657433 -116.34106341949)"/><rect x="-4.0000" y="-84.0000" width="8" height="8" fill="black" transform="rotate(-50.0 4.898587196589413E-15 -80.0)"/><rect x="32.6977" y="-133.2370" width="8" height="8" fill="black" transform="rotate(45.0 36.697749670798125 -129.2370043511071)"/><rect x="22.7358" y="-134.1086" width="8" height="8" fill="black" transform="rotate(5.0 26.73580268988067 -130.10856177858366)"/><rect x="32.1327" y="-137.5288" width="8" height="8" fill="black" transform="rotate(20.0 36.13272889773975 -133.52876321184036)"/><rect x="62.7429" y="-162.1622" width="8" height="8" fill="black" transform="rotate(-5.0 66.74285854119526 -158.16216808069348)"/><rect x="50.9266" y="-137.5288" width="8" height="8" fill="black" transform="rotate(60.0 54.926581313457916 -133.52876321184036)"/><rect x="6.3528" y="-122.6370" width="8" height="8" fill="black" transform="rotate(-35.0 10.352761804100835 -118.63703305156275)"/><rect x="25.7497" y="-143.3777" width="8" height="8" fill="black" transform="rotate(20.0 29.749688011959922 -139.3777425605082)"/><rect x="16.3528" y="-139.9575" width="8" height="8" fill="black" transform="rotate(-20.0 20.352761804100837 -135.95754112725152)"/><rect x="23.4238" y="-147.0286" width="8" height="8" fill="black" transform="rotate(-5.0 27.423829615966312 -143.028608939117)"/><rect x="40.7555" y="-182.2905" width="8" height="8" fill="black" transform="rotate(-30.0 44.755501727601846 -178.2904553745597)"/><rect x="40.4568" y="-154.9712" width="8" height="8" fill="black" transform="rotate(35.0 44.45684440874924 -150.97123417845904)"/><rect x="38.6532" y="-224.1208" width="8" height="8" fill="black" transform="rotate(-5.0 42.6531741808258 -220.12079890031046)"/><rect x="31.5821" y="-217.0497" width="8" height="8" fill="black" transform="rotate(-45.0 35.582106368960325 -213.049731088445)"/><rect x="35.0023" y="-226.4467" width="8" height="8" fill="black" transform="rotate(-30.0 39.00230780221701 -222.44665729630407)"/><rect x="35.8078" y="-265.7294" width="8" height="8" fill="black" transform="rotate(-55.0 39.80783695304395 -261.7294244469155)"/><rect x="47.0828" y="-240.8436" width="8" height="8" fill="black" transform="rotate(10.0 51.082763273318086 -236.84358350416315)"/><rect x="54.5435" y="-160.6983" width="8" height="8" fill="black" transform="rotate(60.0 58.54354042767808 -156.698250636197)"/><rect x="45.1466" y="-164.1185" width="8" height="8" fill="black" transform="rotate(20.0 49.146614219819 -160.1184520694537)"/><rect x="55.1086" y="-164.9900" width="8" height="8" fill="black" transform="rotate(35.0 59.10856120073645 -160.99000949693027)"/><rect x="91.0513" y="-180.8616" width="8" height="8" fill="black" transform="rotate(10.0 95.05127029518705 -176.86156692440684)"/><rect x="73.2620" y="-160.1258" width="8" height="8" fill="black" transform="rotate(75.0 77.26202862454383 -156.12580256089637)"/><rect x="15.2647" y="-300.1917" width="8" height="8" fill="black" transform="rotate(20.0 19.264668496029117 -296.1917059735359)"/><rect x="5.8677" y="-296.7715" width="8" height="8" fill="black" transform="rotate(-20.0 9.867742288170032 -292.7715045402792)"/><rect x="12.9388" y="-303.8426" width="8" height="8" fill="black" transform="rotate(-5.0 16.938810100035507 -299.84257235214466)"/><rect x="30.2705" y="-339.1044" width="8" height="8" fill="black" transform="rotate(-30.0 34.27048221167105 -335.10441878758746)"/><rect x="29.9718" y="-311.7852" width="8" height="8" fill="black" transform="rotate(35.0 33.97182489281844 -307.78519759148674)"/><rect x="-4.1323" y="-279.4510" width="8" height="8" fill="black" transform="rotate(-60.0 -0.1322577118299697 -275.45099646459045)"/><rect x="4.6819" y="-306.4460" width="8" height="8" fill="black" transform="rotate(-5.0 8.681924954988668 -302.4459582382908)"/><rect x="-2.3891" y="-299.3749" width="8" height="8" fill="black" transform="rotate(-45.0 1.610857143123193 -295.37489042642534)"/><rect x="1.0311" y="-308.7718" width="8" height="8" fill="black" transform="rotate(-30.0 5.031058576379881 -304.77181663428445)"/><rect x="1.8366" y="-348.0546" width="8" height="8" fill="black" transform="rotate(-55.0 5.836587727206823 -344.0545837848959)"/><rect x="13.1115" y="-323.1687" width="8" height="8" fill="black" transform="rotate(10.0 17.11151404748096 -319.16874284214356)"/><rect x="-17.7470" y="-385.0773" width="8" height="8" fill="black" transform="rotate(-30.0 -13.747035168207075 -381.077267843274)"/><rect x="-21.1672" y="-375.6803" width="8" height="8" fill="black" transform="rotate(-70.0 -17.167236601463763 -371.6803416354149)"/><rect x="-22.0388" y="-385.6423" width="8" height="8" fill="black" transform="rotate(-55.0 -18.038794028940345 -381.64228861633234)"/><rect x="-37.9104" y="-421.5850" width="8" height="8" fill="black" transform="rotate(-80.0 -33.910351456416926 -417.5849977107829)"/><rect x="-17.1746" y="-403.7958" width="8" height="8" fill="black" transform="rotate(-15.0 -13.174587092906464 -399.7957560401397)"/><rect x="23.4581" y="-334.3125" width="8" height="8" fill="black" transform="rotate(35.0 27.458054602724758 -330.3124774394678)"/><rect x="13.4961" y="-333.4409" width="8" height="8" fill="black" transform="rotate(-5.0 17.496107621807305 -329.4409200119912)"/><rect x="22.1564" y="-338.4409" width="8" height="8" fill="black" transform="rotate(10.0 26.156361659651694 -334.4409200119912)"/><rect x="48.0239" y="-368.0155" width="8" height="8" fill="black" transform="rotate(-15.0 52.02390878802747 -364.01548134066087)"/><rect x="40.6647" y="-341.7044" width="8" height="8" fill="black" transform="rotate(50.0 44.66469322761816 -337.7044382353219)"/><rect x="76.4666" y="-175.4029" width="8" height="8" fill="black" transform="rotate(85.0 80.46656715346172 -171.40294089034876)"/><rect x="69.3955" y="-182.4740" width="8" height="8" fill="black" transform="rotate(45.0 73.39549934159625 -178.47400870221423)"/><rect x="78.7924" y="-179.0538" width="8" height="8" fill="black" transform="rotate(60.0 82.79242554945533 -175.05380726895754)"/><rect x="118.0752" y="-178.2483" width="8" height="8" fill="black" transform="rotate(35.0 122.0751927000668 -174.24827811813057)"/><rect x="93.1894" y="-166.9734" width="8" height="8" fill="black" transform="rotate(100.0 97.18935175731441 -162.97335179785645)"/><rect x="49.4716" y="-184.2171" width="8" height="8" fill="black" transform="rotate(5.0 53.471605379761336 -180.21712355716738)"/><rect x="77.6624" y="-187.6373" width="8" height="8" fill="black" transform="rotate(60.0 81.66238400333859 -183.63732499042408)"/><rect x="68.2655" y="-191.0575" width="8" height="8" fill="black" transform="rotate(20.0 72.2654577954795 -187.05752642368077)"/><rect x="78.2274" y="-191.9291" width="8" height="8" fill="black" transform="rotate(35.0 82.22740477639697 -187.92908385115734)"/><rect x="114.1701" y="-207.8006" width="8" height="8" fill="black" transform="rotate(10.0 118.17011387084757 -203.80064127863392)"/><rect x="96.3809" y="-187.0649" width="8" height="8" fill="black" transform="rotate(75.0 100.38087220020435 -183.06487691512345)"/><rect x="139.4477" y="-241.1959" width="8" height="8" fill="black" transform="rotate(35.0 143.44766406330797 -237.19589358886358)"/><rect x="129.4857" y="-240.3243" width="8" height="8" fill="black" transform="rotate(-5.0 133.48571708239052 -236.324336161387)"/><rect x="138.1460" y="-245.3243" width="8" height="8" fill="black" transform="rotate(10.0 142.14597112023492 -241.324336161387)"/><rect x="164.0135" y="-274.8989" width="8" height="8" fill="black" transform="rotate(-15.0 168.01351824861072 -270.89889749005675)"/><rect x="156.6543" y="-248.5879" width="8" height="8" fill="black" transform="rotate(50.0 160.6543026882014 -244.5878543847177)"/><rect x="110.8532" y="-182.3973" width="8" height="8" fill="black" transform="rotate(100.0 114.85316262691583 -178.39727238583637)"/><rect x="105.8532" y="-191.0575" width="8" height="8" fill="black" transform="rotate(60.0 109.85316262691583 -187.05752642368077)"/><rect x="114.0447" y="-185.3218" width="8" height="8" fill="black" transform="rotate(75.0 118.04468306980576 -181.3217620601703)"/><rect x="151.7804" y="-174.3766" width="8" height="8" fill="black" transform="rotate(50.0 155.78043610306193 -170.3765523666519)"/><rect x="124.8244" y="-169.9267" width="8" height="8" fill="black" transform="rotate(115.0 128.8243939637209 -165.92673943376914)"/></svg>