<svg viewBox="-101.99999999999994 -68.99999999999997 263.99999999999943 227.99999999999972" xmlns="http://www.w3.org/2000/svg"><path d="M 0.0 0.0 L -4.2862637970157365E-15 -10.0 M -4.2862637970157365E-15 -10.0 L -10.000000000000004 -9.999999999999996 M -10.000000000000004 -9.999999999999996 L -10.0 3.552713678800501E-15 M -20.000000000000004 -9.999999999999993 L -20.000000000000007 -19.999999999999993 M -20.000000000000007 -19.999999999999993 L -30.000000000000007 -19.99999999999999 M -30.000000000000007 -19.99999999999999 L -30.000000000000004 -9.99999999999999 M -40.00000000000001 -19.999999999999986 L -40.000000000000014 -29.999999999999986 M -40.000000000000014 -29.999999999999986 L -50.000000000000014 -29.999999999999982 M -50.000000000000014 -29.999999999999982 L -50.000000000000014 -19.999999999999982 M -40.000000000000014 -29.999999999999986 L -30.000000000000014 -29.99999999999999 M -30.000000000000014 -29.99999999999999 L -30.000000000000018 -39.999999999999986 M -30.000000000000018 -39.999999999999986 L -40.000000000000014 -39.99999999999998 M -30.00000000000002 -49.999999999999986 L -40.00000000000002 -49.99999999999998 M -40.00000000000002 -49.99999999999998 L -40.000000000000014 -39.99999999999998 M -40.000000000000014 -39.99999999999998 L -30.000000000000014 -39.999999999999986 M -40.00000000000001 -29.99999999999998 L -50.00000000000001 -29.99999999999997 M -50.00000000000001 -29.99999999999997 L -50.0 -19.99999999999997 M -50.0 -19.99999999999997 L -40.0 -19.999999999999975 M -49.99999999999999 -9.999999999999972 L -59.99999999999999 -9.999999999999966 M -59.99999999999999 -9.999999999999966 L -59.999999999999986 3.375077994860476E-14 M -59.999999999999986 3.375077994860476E-14 L -49.999999999999986 2.8852192752015347E-14 M -59.99999999999999 -9.999999999999966 L -59.99999999999998 -19.999999999999964 M -59.99999999999998 -19.999999999999964 L -69.99999999999997 -19.999999999999957 M -69.99999999999997 -19.999999999999957 L -69.99999999999997 -9.999999999999957 M -79.99999999999997 -19.99999999999995 L -79.99999999999999 -9.99999999999995 M -79.99999999999999 -9.99999999999995 L -69.99999999999999 -9.999999999999957 M -69.99999999999999 -9.999999999999957 L -69.99999999999997 -19.999999999999957 M -59.999999999999986 -9.999999999999964 L -59.99999999999999 3.552713678800501E-14 M -59.99999999999999 3.552713678800501E-14 L -49.99999999999999 2.817925599312089E-14 M -49.99999999999999 2.817925599312089E-14 L -49.99999999999998 -9.999999999999972 M -39.99999999999999 2.0831375198236773E-14 L -40.0 10.000000000000021 M -40.0 10.000000000000021 L -30.0 10.000000000000014 M -30.0 10.000000000000014 L -29.99999999999999 1.4210854715202004E-14 M -40.0 10.000000000000021 L -50.0 10.00000000000003 M -50.0 10.00000000000003 L -50.00000000000001 20.00000000000003 M -50.00000000000001 20.00000000000003 L -40.00000000000001 20.00000000000002 M -50.0 10.00000000000003 L -50.00000000000001 20.00000000000003 M -50.00000000000001 20.00000000000003 L -40.00000000000001 20.000000000000018 M -40.00000000000001 20.000000000000018 L -40.0 10.000000000000018 M -30.000000000000007 20.000000000000007 L -30.000000000000014 30.000000000000007 M -30.000000000000014 30.000000000000007 L -20.000000000000014 29.999999999999996 M -20.000000000000014 29.999999999999996 L -20.000000000000007 19.999999999999996 M -10.000000000000014 29.999999999999986 L -10.000000000000021 39.999999999999986 M -10.000000000000021 39.999999999999986 L -2.1316282072803006E-14 39.99999999999998 M -2.1316282072803006E-14 39.99999999999998 L -1.273756467240565E-14 29.99999999999998 M -10.000000000000021 39.999999999999986 L -20.00000000000002 40.0 M -20.00000000000002 40.0 L -20.00000000000003 50.0 M -20.00000000000003 50.0 L -10.000000000000028 49.99999999999999 M -20.000000000000036 60.0 L -30.000000000000036 59.99999999999998 M -30.000000000000036 59.99999999999998 L -30.00000000000004 69.99999999999997 M -30.00000000000004 69.99999999999997 L -20.00000000000004 69.99999999999996 M -30.000000000000043 79.99999999999997 L -40.00000000000004 79.99999999999994 M -40.00000000000004 79.99999999999994 L -40.00000000000005 89.99999999999994 M -40.00000000000005 89.99999999999994 L -30.00000000000005 89.99999999999993 M -40.00000000000006 99.99999999999994 L -50.00000000000006 99.99999999999991 M -50.00000000000006 99.99999999999991 L -50.000000000000064 109.99999999999991 M -50.000000000000064 109.99999999999991 L -40.000000000000064 109.9999999999999 M -50.00000000000006 99.99999999999991 L -50.000000000000085 89.99999999999991 M -50.000000000000085 89.99999999999991 L -60.000000000000085 89.99999999999989 M -60.000000000000085 89.99999999999989 L -60.00000000000009 99.99999999999989 M -70.00000000000009 89.99999999999986 L -70.00000000000009 99.99999999999986 M -70.00000000000009 99.99999999999986 L -60.000000000000085 99.99999999999984 M -60.000000000000085 99.99999999999984 L -60.000000000000114 89.99999999999984 M -50.000000000000085 99.99999999999983 L -50.000000000000085 109.99999999999983 M -50.000000000000085 109.99999999999983 L -40.000000000000085 109.99999999999982 M -40.000000000000085 109.99999999999982 L -40.000000000000114 99.99999999999982 M -30.000000000000085 109.9999999999998 L -30.00000000000009 119.9999999999998 M -30.00000000000009 119.9999999999998 L -20.00000000000009 119.99999999999979 M -20.00000000000009 119.99999999999979 L -20.00000000000012 109.99999999999979 M -30.00000000000009 119.9999999999998 L -40.000000000000085 119.99999999999979 M -40.000000000000085 119.99999999999979 L -40.000000000000085 129.99999999999977 M -40.000000000000085 129.99999999999977 L -30.000000000000085 129.99999999999974 M -40.000000000000085 139.99999999999977 L -30.000000000000085 139.99999999999974 M -30.000000000000085 139.99999999999974 L -30.00000000000012 129.99999999999974 M -30.00000000000012 129.99999999999974 L -40.00000000000012 129.99999999999972 M -30.000000000000156 119.99999999999974 L -20.000000000000156 119.99999999999973 M -20.000000000000156 119.99999999999973 L -20.000000000000192 109.99999999999973 M -20.000000000000192 109.99999999999973 L -30.000000000000192 109.99999999999972 M -20.000000000000227 99.99999999999973 L -10.000000000000227 99.99999999999972 M -10.000000000000227 99.99999999999972 L -10.000000000000261 89.99999999999972 M -10.000000000000261 89.99999999999972 L -20.000000000000263 89.9999999999997 M -10.000000000000227 99.99999999999972 L -10.000000000000227 109.99999999999972 M -10.000000000000227 109.99999999999972 L -2.2737367544323206E-13 109.9999999999997 M -2.2737367544323206E-13 109.9999999999997 L -2.6166997562572383E-13 99.9999999999997 M -10.000000000000227 109.99999999999972 L -2.2737367544323206E-13 109.9999999999997 M -2.2737367544323206E-13 109.9999999999997 L -2.6411926922401854E-13 99.9999999999997 M -2.6411926922401854E-13 99.9999999999997 L -10.000000000000265 99.99999999999969 M -3.00864863004805E-13 89.9999999999997 L 9.9999999999997 89.99999999999969 M 9.9999999999997 89.99999999999969 L 9.999999999999662 79.99999999999969 M 9.999999999999662 79.99999999999969 L -3.375077994860476E-13 79.99999999999967 M 9.999999999999625 69.99999999999969 L 19.999999999999623 69.99999999999967 M 19.999999999999623 69.99999999999967 L 19.999999999999588 59.99999999999967 M 19.999999999999588 59.99999999999967 L 9.999999999999588 59.99999999999966 M 19.999999999999623 69.99999999999967 L 19.999999999999627 79.99999999999967 M 19.999999999999627 79.99999999999967 L 29.999999999999627 79.99999999999966 M 29.999999999999627 79.99999999999966 L 29.99999999999959 69.99999999999966 M 39.99999999999963 79.99999999999964 L 39.99999999999964 89.99999999999964 M 39.99999999999964 89.99999999999964 L 49.99999999999964 89.99999999999962 M 49.99999999999964 89.99999999999962 L 49.999999999999595 79.99999999999962 M 59.99999999999964 89.99999999999959 L 59.999999999999645 99.99999999999959 M 59.999999999999645 99.99999999999959 L 69.99999999999964 99.99999999999956 M 69.99999999999964 99.99999999999956 L 69.9999999999996 89.99999999999956 M 79.99999999999964 99.99999999999953 L 79.99999999999964 109.99999999999953 M 79.99999999999964 109.99999999999953 L 89.99999999999964 109.9999999999995 M 89.99999999999964 109.9999999999995 L 89.9999999999996 99.9999999999995 M 79.99999999999964 109.99999999999953 L 69.99999999999964 109.99999999999952 M 69.99999999999964 109.99999999999952 L 69.99999999999964 119.99999999999952 M 69.99999999999964 119.99999999999952 L 79.99999999999964 119.99999999999949 M 69.99999999999964 129.99999999999952 L 79.99999999999964 129.9999999999995 M 79.99999999999964 129.9999999999995 L 79.9999999999996 119.99999999999949 M 79.9999999999996 119.99999999999949 L 69.9999999999996 119.99999999999947 M 79.99999999999956 109.99999999999949 L 89.99999999999956 109.99999999999946 M 89.99999999999956 109.99999999999946 L 89.99999999999952 99.99999999999946 M 89.99999999999952 99.99999999999946 L 79.99999999999952 99.99999999999945 M 89.99999999999947 89.99999999999946 L 99.99999999999947 89.99999999999943 M 99.99999999999947 89.99999999999943 L 99.99999999999943 79.99999999999943 M 99.99999999999943 79.99999999999943 L 89.99999999999943 79.99999999999942 M 99.99999999999947 89.99999999999943 L 99.99999999999956 99.99999999999943 M 99.99999999999956 99.99999999999943 L 109.99999999999956 99.9999999999994 M 109.99999999999956 99.9999999999994 L 109.99999999999952 89.9999999999994 M 119.99999999999956 99.99999999999937 L 119.99999999999952 89.99999999999937 M 119.99999999999952 89.99999999999937 L 109.99999999999952 89.99999999999936 M 109.99999999999952 89.99999999999936 L 109.9999999999996 99.99999999999936 M 99.99999999999952 89.99999999999935 L 99.99999999999947 79.99999999999935 M 99.99999999999947 79.99999999999935 L 89.99999999999947 79.99999999999933 M 89.99999999999947 79.99999999999933 L 89.99999999999956 89.99999999999933 M 79.99999999999947 79.99999999999932 L 79.99999999999943 69.99999999999932 M 79.99999999999943 69.99999999999932 L 69.99999999999943 69.9999999999993 M 69.99999999999943 69.9999999999993 L 69.99999999999952 79.9999999999993 M 79.99999999999943 69.99999999999932 L 89.99999999999943 69.99999999999936 M 89.99999999999943 69.99999999999936 L 89.99999999999939 59.99999999999936 M 89.99999999999939 59.99999999999936 L 79.99999999999939 59.99999999999935 M 89.99999999999943 69.99999999999936 L 89.99999999999946 59.99999999999936 M 89.99999999999946 59.99999999999936 L 79.99999999999946 59.999999999999424 M 79.99999999999946 59.999999999999424 L 79.99999999999947 69.99999999999943 M 69.99999999999946 59.99999999999949 L 69.99999999999949 49.99999999999949 M 69.99999999999949 49.99999999999949 L 59.99999999999949 49.99999999999955 M 59.99999999999949 49.99999999999955 L 59.999999999999496 59.99999999999955 M 49.99999999999949 49.999999999999616 L 49.99999999999951 39.999999999999616 M 49.99999999999951 39.999999999999616 L 39.99999999999951 39.99999999999968 M 39.99999999999951 39.99999999999968 L 39.99999999999952 49.99999999999968 M 49.99999999999951 39.999999999999616 L 59.99999999999951 39.99999999999959 M 59.99999999999951 39.99999999999959 L 59.99999999999953 29.999999999999588 M 59.99999999999953 29.999999999999588 L 49.99999999999953 29.999999999999652 M 59.99999999999951 39.99999999999959 L 59.999999999999524 49.99999999999959 M 59.999999999999524 49.99999999999959 L 69.99999999999952 49.99999999999963 M 69.99999999999952 49.99999999999963 L 69.99999999999947 39.99999999999963 M 79.99999999999952 49.99999999999967 L 79.99999999999953 59.99999999999967 M 79.99999999999953 59.99999999999967 L 89.99999999999953 59.999999999999716 M 89.99999999999953 59.999999999999716 L 89.99999999999949 49.999999999999716 M 99.99999999999953 59.99999999999976 L 99.99999999999955 69.99999999999976 M 99.99999999999955 69.99999999999976 L 109.99999999999955 69.9999999999998 M 109.99999999999955 69.9999999999998 L 109.9999999999995 59.9999999999998 M 99.99999999999955 69.99999999999976 L 89.99999999999955 69.99999999999983 M 89.99999999999955 69.99999999999983 L 89.99999999999956 79.99999999999983 M 89.99999999999956 79.99999999999983 L 99.99999999999956 79.99999999999987 M 89.99999999999957 89.99999999999983 L 99.99999999999957 89.9999999999998 M 99.99999999999957 89.9999999999998 L 99.99999999999959 79.9999999999998 M 99.99999999999959 79.9999999999998 L 89.99999999999959 79.99999999999987 M 99.9999999999996 69.9999999999998 L 109.9999999999996 69.99999999999977 M 109.9999999999996 69.99999999999977 L 109.99999999999962 59.99999999999977 M 109.99999999999962 59.99999999999977 L 99.99999999999962 59.999999999999844 M 109.99999999999963 49.99999999999977 L 119.99999999999963 49.99999999999974 M 119.99999999999963 49.99999999999974 L 119.99999999999964 39.99999999999974 M 119.99999999999964 39.99999999999974 L 109.99999999999964 39.99999999999981 M 119.99999999999963 49.99999999999974 L 119.99999999999957 59.99999999999974 M 119.99999999999957 59.99999999999974 L 129.99999999999957 59.9999999999997 M 129.99999999999957 59.9999999999997 L 129.9999999999996 49.9999999999997 M 139.99999999999957 59.999999999999666 L 139.99999999999952 49.999999999999666 M 139.99999999999952 49.999999999999666 L 129.99999999999952 49.999999999999666 M 129.99999999999952 49.999999999999666 L 129.99999999999946 59.999999999999666 M 119.99999999999952 49.999999999999666 L 119.99999999999946 39.999999999999666 M 119.99999999999946 39.999999999999666 L 109.99999999999946 39.999999999999666 M 109.99999999999946 39.999999999999666 L 109.9999999999994 49.999999999999666 M 99.99999999999946 39.999999999999666 L 99.9999999999994 29.999999999999666 M 99.9999999999994 29.999999999999666 L 89.9999999999994 29.999999999999666 M 89.9999999999994 29.999999999999666 L 89.99999999999935 39.999999999999666 M 99.9999999999994 29.999999999999666 L 109.9999999999994 29.9999999999997 M 109.9999999999994 29.9999999999997 L 109.99999999999935 19.9999999999997 M 109.99999999999935 19.9999999999997 L 99.99999999999935 19.9999999999997 M 109.9999999999994 29.9999999999997 L 109.99999999999942 19.9999999999997 M 109.99999999999942 19.9999999999997 L 99.99999999999942 19.999999999999776 M 99.99999999999942 19.999999999999776 L 99.99999999999943 29.999999999999776 M 89.99999999999942 19.99999999999985 L 89.99999999999943 9.99999999999985 M 89.99999999999943 9.99999999999985 L 79.99999999999943 9.999999999999924 M 79.99999999999943 9.999999999999924 L 79.99999999999945 19.999999999999922 M 69.99999999999943 9.999999999999996 L 69.99999999999945 -3.552713678800501E-15 M 69.99999999999945 -3.552713678800501E-15 L 59.999999999999446 6.993847388277245E-14 M 59.999999999999446 6.993847388277245E-14 L 59.99999999999947 10.00000000000007 M 69.99999999999945 -3.552713678800501E-15 L 79.99999999999945 -4.2741411251515805E-14 M 79.99999999999945 -4.2741411251515805E-14 L 79.99999999999946 -10.000000000000043 M 79.99999999999946 -10.000000000000043 L 69.99999999999946 -9.99999999999997 " fill="none" stroke="blue" stroke-width="1" stroke-linecap="round"/><path d="M -10.000000000000004 -9.999999999999996 L -20.000000000000004 -9.999999999999993 M -30.000000000000007 -19.99999999999999 L -40.00000000000001 -19.999999999999986 M -50.000000000000014 -29.999999999999982 L -60.000000000000014 -29.99999999999998 M -30.000000000000018 -39.999999999999986 L -30.00000000000002 -49.999999999999986 M -40.000000000000014 -39.99999999999998 L -40.00000000000001 -29.99999999999998 M -50.0 -19.99999999999997 L -49.99999999999999 -9.999999999999972 M -59.999999999999986 3.375077994860476E-14 L -59.99999999999998 10.000000000000034 M -69.99999999999997 -19.999999999999957 L -79.99999999999997 -19.99999999999995 M -69.99999999999999 -9.999999999999957 L -59.999999999999986 -9.999999999999964 M -49.99999999999999 2.817925599312089E-14 L -39.99999999999999 2.0831375198236773E-14 M -30.0 10.000000000000014 L -20.0 10.000000000000007 M -50.00000000000001 20.00000000000003 L -50.000000000000014 30.00000000000003 M -40.00000000000001 20.000000000000018 L -30.000000000000007 20.000000000000007 M -20.000000000000014 29.999999999999996 L -10.000000000000014 29.999999999999986 M -2.1316282072803006E-14 39.99999999999998 L 9.999999999999979 39.99999999999997 M -20.00000000000003 50.0 L -20.000000000000036 60.0 M -30.00000000000004 69.99999999999997 L -30.000000000000043 79.99999999999997 M -40.00000000000005 89.99999999999994 L -40.00000000000006 99.99999999999994 M -50.000000000000064 109.99999999999991 L -50.00000000000007 119.99999999999991 M -60.000000000000085 89.99999999999989 L -70.00000000000009 89.99999999999986 M -60.000000000000085 99.99999999999984 L -50.000000000000085 99.99999999999983 M -40.000000000000085 109.99999999999982 L -30.000000000000085 109.9999999999998 M -20.00000000000009 119.99999999999979 L -10.000000000000089 119.99999999999977 M -40.000000000000085 129.99999999999977 L -40.000000000000085 139.99999999999977 M -30.00000000000012 129.99999999999974 L -30.000000000000156 119.99999999999974 M -20.000000000000192 109.99999999999973 L -20.000000000000227 99.99999999999973 M -10.000000000000261 89.99999999999972 L -10.000000000000295 79.99999999999972 M -2.2737367544323206E-13 109.9999999999997 L 9.999999999999773 109.99999999999969 M -2.6411926922401854E-13 99.9999999999997 L -3.00864863004805E-13 89.9999999999997 M 9.999999999999662 79.99999999999969 L 9.999999999999625 69.99999999999969 M 19.999999999999588 59.99999999999967 L 19.999999999999552 49.99999999999967 M 29.999999999999627 79.99999999999966 L 39.99999999999963 79.99999999999964 M 49.99999999999964 89.99999999999962 L 59.99999999999964 89.99999999999959 M 69.99999999999964 99.99999999999956 L 79.99999999999964 99.99999999999953 M 89.99999999999964 109.9999999999995 L 99.99999999999964 109.99999999999947 M 69.99999999999964 119.99999999999952 L 69.99999999999964 129.99999999999952 M 79.9999999999996 119.99999999999949 L 79.99999999999956 109.99999999999949 M 89.99999999999952 99.99999999999946 L 89.99999999999947 89.99999999999946 M 99.99999999999943 79.99999999999943 L 99.99999999999939 69.99999999999943 M 109.99999999999956 99.9999999999994 L 119.99999999999956 99.99999999999937 M 109.99999999999952 89.99999999999936 L 99.99999999999952 89.99999999999935 M 89.99999999999947 79.99999999999933 L 79.99999999999947 79.99999999999932 M 69.99999999999943 69.9999999999993 L 59.99999999999943 69.99999999999929 M 89.99999999999939 59.99999999999936 L 89.99999999999935 49.99999999999936 M 79.99999999999946 59.999999999999424 L 69.99999999999946 59.99999999999949 M 59.99999999999949 49.99999999999955 L 49.99999999999949 49.999999999999616 M 39.99999999999951 39.99999999999968 L 29.99999999999951 39.999999999999744 M 59.99999999999953 29.999999999999588 L 59.99999999999955 19.999999999999588 M 69.99999999999952 49.99999999999963 L 79.99999999999952 49.99999999999967 M 89.99999999999953 59.999999999999716 L 99.99999999999953 59.99999999999976 M 109.99999999999955 69.9999999999998 L 119.99999999999955 69.99999999999984 M 89.99999999999956 79.99999999999983 L 89.99999999999957 89.99999999999983 M 99.99999999999959 79.9999999999998 L 99.9999999999996 69.9999999999998 M 109.99999999999962 59.99999999999977 L 109.99999999999963 49.99999999999977 M 119.99999999999964 39.99999999999974 L 119.99999999999966 29.999999999999737 M 129.99999999999957 59.9999999999997 L 139.99999999999957 59.999999999999666 M 129.99999999999952 49.999999999999666 L 119.99999999999952 49.999999999999666 M 109.99999999999946 39.999999999999666 L 99.99999999999946 39.999999999999666 M 89.9999999999994 29.999999999999666 L 79.9999999999994 29.999999999999666 M 109.99999999999935 19.9999999999997 L 109.99999999999929 9.999999999999702 M 99.99999999999942 19.999999999999776 L 89.99999999999942 19.99999999999985 M 79.99999999999943 9.999999999999924 L 69.99999999999943 9.999999999999996 M 59.999999999999446 6.993847388277245E-14 L 49.999999999999446 1.434296614443454E-13 M 79.99999999999946 -10.000000000000043 L 79.99999999999947 -20.000000000000043 " fill="none" stroke="green" stroke-width="1" stroke-linecap="round"/><circle cx="-10.0000" cy="-10.0000" r="4" fill="blue"/><rect x="-14.0000" y="-4.0000" width="8" height="8" fill="red" transform="rotate(540.0 -10.0 3.552713678800501E-15)"/><circle cx="-10.0000" cy="0.0000" r="4" fill="red"/><rect x="-24.0000" y="-14.0000" width="8" height="8" fill="green" transform="rotate(540.0 -20.000000000000004 -9.999999999999993)"/><circle cx="-30.0000" cy="-20.0000" r="4" fill="blue"/><rect x="-34.0000" y="-14.0000" width="8" height="8" fill="red" transform="rotate(540.0 -30.000000000000004 -9.99999999999999)"/><circle cx="-30.0000" cy="-10.0000" r="4" fill="red"/><rect x="-44.0000" y="-24.0000" width="8" height="8" fill="green" transform="rotate(540.0 -40.00000000000001 -19.999999999999986)"/><circle cx="-40.0000" cy="-20.0000" r="4" fill="green"/><circle cx="-50.0000" cy="-30.0000" r="4" fill="blue"/><rect x="-54.0000" y="-24.0000" width="8" height="8" fill="red" transform="rotate(540.0 -50.000000000000014 -19.999999999999982)"/><circle cx="-50.0000" cy="-20.0000" r="4" fill="red"/><rect x="-64.0000" y="-34.0000" width="8" height="8" fill="green" transform="rotate(540.0 -60.000000000000014 -29.99999999999998)"/><rect x="-64.0000" y="-34.0000" width="8" height="8" fill="red" transform="rotate(630.0 -60.000000000000014 -29.99999999999998)"/><circle cx="-60.0000" cy="-30.0000" r="4" fill="red"/><circle cx="-30.0000" cy="-40.0000" r="4" fill="blue"/><rect x="-44.0000" y="-44.0000" width="8" height="8" fill="red" transform="rotate(630.0 -40.000000000000014 -39.99999999999998)"/><circle cx="-40.0000" cy="-40.0000" r="4" fill="red"/><rect x="-34.0000" y="-54.0000" width="8" height="8" fill="green" transform="rotate(630.0 -30.00000000000002 -49.999999999999986)"/><rect x="-34.0000" y="-54.0000" width="8" height="8" fill="green" transform="rotate(630.0 -30.00000000000002 -49.999999999999986)"/><circle cx="-40.0000" cy="-40.0000" r="4" fill="blue"/><rect x="-34.0000" y="-44.0000" width="8" height="8" fill="red" transform="rotate(810.0 -30.000000000000014 -39.999999999999986)"/><circle cx="-30.0000" cy="-40.0000" r="4" fill="red"/><rect x="-44.0000" y="-34.0000" width="8" height="8" fill="green" transform="rotate(810.0 -40.00000000000001 -29.99999999999998)"/><circle cx="-50.0000" cy="-20.0000" r="4" fill="blue"/><rect x="-44.0000" y="-24.0000" width="8" height="8" fill="red" transform="rotate(810.0 -40.0 -19.999999999999975)"/><circle cx="-40.0000" cy="-20.0000" r="4" fill="red"/><rect x="-54.0000" y="-14.0000" width="8" height="8" fill="green" transform="rotate(810.0 -49.99999999999999 -9.999999999999972)"/><circle cx="-50.0000" cy="-10.0000" r="4" fill="green"/><circle cx="-60.0000" cy="0.0000" r="4" fill="blue"/><rect x="-54.0000" y="-4.0000" width="8" height="8" fill="red" transform="rotate(810.0 -49.999999999999986 2.8852192752015347E-14)"/><circle cx="-50.0000" cy="0.0000" r="4" fill="red"/><rect x="-64.0000" y="6.0000" width="8" height="8" fill="green" transform="rotate(810.0 -59.99999999999998 10.000000000000034)"/><rect x="-64.0000" y="6.0000" width="8" height="8" fill="red" transform="rotate(900.0 -59.99999999999998 10.000000000000034)"/><circle cx="-60.0000" cy="10.0000" r="4" fill="red"/><circle cx="-70.0000" cy="-20.0000" r="4" fill="blue"/><rect x="-74.0000" y="-14.0000" width="8" height="8" fill="red" transform="rotate(900.0 -69.99999999999997 -9.999999999999957)"/><circle cx="-70.0000" cy="-10.0000" r="4" fill="red"/><rect x="-84.0000" y="-24.0000" width="8" height="8" fill="green" transform="rotate(900.0 -79.99999999999997 -19.99999999999995)"/><rect x="-84.0000" y="-24.0000" width="8" height="8" fill="green" transform="rotate(900.0 -79.99999999999997 -19.99999999999995)"/><circle cx="-80.0000" cy="-20.0000" r="4" fill="green"/><circle cx="-70.0000" cy="-10.0000" r="4" fill="blue"/><rect x="-74.0000" y="-24.0000" width="8" height="8" fill="red" transform="rotate(1080.0 -69.99999999999997 -19.999999999999957)"/><circle cx="-70.0000" cy="-20.0000" r="4" fill="red"/><rect x="-64.0000" y="-14.0000" width="8" height="8" fill="green" transform="rotate(1080.0 -59.999999999999986 -9.999999999999964)"/><circle cx="-50.0000" cy="0.0000" r="4" fill="blue"/><rect x="-54.0000" y="-14.0000" width="8" height="8" fill="red" transform="rotate(1080.0 -49.99999999999998 -9.999999999999972)"/><circle cx="-50.0000" cy="-10.0000" r="4" fill="red"/><rect x="-44.0000" y="-4.0000" width="8" height="8" fill="green" transform="rotate(1080.0 -39.99999999999999 2.0831375198236773E-14)"/><circle cx="-40.0000" cy="0.0000" r="4" fill="green"/><circle cx="-30.0000" cy="10.0000" r="4" fill="blue"/><rect x="-34.0000" y="-4.0000" width="8" height="8" fill="red" transform="rotate(1080.0 -29.99999999999999 1.4210854715202004E-14)"/><circle cx="-30.0000" cy="0.0000" r="4" fill="red"/><rect x="-24.0000" y="6.0000" width="8" height="8" fill="green" transform="rotate(1080.0 -20.0 10.000000000000007)"/><rect x="-24.0000" y="6.0000" width="8" height="8" fill="red" transform="rotate(1170.0 -20.0 10.000000000000007)"/><circle cx="-20.0000" cy="10.0000" r="4" fill="red"/><circle cx="-50.0000" cy="20.0000" r="4" fill="blue"/><rect x="-44.0000" y="16.0000" width="8" height="8" fill="red" transform="rotate(1170.0 -40.00000000000001 20.00000000000002)"/><circle cx="-40.0000" cy="20.0000" r="4" fill="red"/><rect x="-54.0000" y="26.0000" width="8" height="8" fill="green" transform="rotate(1170.0 -50.000000000000014 30.00000000000003)"/><rect x="-54.0000" y="26.0000" width="8" height="8" fill="green" transform="rotate(1170.0 -50.000000000000014 30.00000000000003)"/><rect x="-54.0000" y="26.0000" width="8" height="8" fill="red" transform="rotate(1260.0 -50.000000000000014 30.00000000000003)"/><circle cx="-50.0000" cy="30.0000" r="4" fill="red"/><circle cx="-40.0000" cy="20.0000" r="4" fill="blue"/><rect x="-44.0000" y="6.0000" width="8" height="8" fill="red" transform="rotate(1440.0 -40.0 10.000000000000018)"/><circle cx="-40.0000" cy="10.0000" r="4" fill="red"/><rect x="-34.0000" y="16.0000" width="8" height="8" fill="green" transform="rotate(1440.0 -30.000000000000007 20.000000000000007)"/><circle cx="-20.0000" cy="30.0000" r="4" fill="blue"/><rect x="-24.0000" y="16.0000" width="8" height="8" fill="red" transform="rotate(1440.0 -20.000000000000007 19.999999999999996)"/><circle cx="-20.0000" cy="20.0000" r="4" fill="red"/><rect x="-14.0000" y="26.0000" width="8" height="8" fill="green" transform="rotate(1440.0 -10.000000000000014 29.999999999999986)"/><circle cx="-10.0000" cy="30.0000" r="4" fill="green"/><circle cx="-0.0000" cy="40.0000" r="4" fill="blue"/><rect x="-4.0000" y="26.0000" width="8" height="8" fill="red" transform="rotate(1440.0 -1.273756467240565E-14 29.99999999999998)"/><circle cx="-0.0000" cy="30.0000" r="4" fill="red"/><rect x="6.0000" y="36.0000" width="8" height="8" fill="green" transform="rotate(1440.0 9.999999999999979 39.99999999999997)"/><rect x="6.0000" y="36.0000" width="8" height="8" fill="red" transform="rotate(1530.0 9.999999999999979 39.99999999999997)"/><circle cx="10.0000" cy="40.0000" r="4" fill="red"/><circle cx="-20.0000" cy="50.0000" r="4" fill="blue"/><rect x="-14.0000" y="46.0000" width="8" height="8" fill="red" transform="rotate(1530.0 -10.000000000000028 49.99999999999999)"/><circle cx="-10.0000" cy="50.0000" r="4" fill="red"/><rect x="-24.0000" y="56.0000" width="8" height="8" fill="green" transform="rotate(1530.0 -20.000000000000036 60.0)"/><rect x="-24.0000" y="56.0000" width="8" height="8" fill="green" transform="rotate(1530.0 -20.000000000000036 60.0)"/><rect x="-24.0000" y="56.0000" width="8" height="8" fill="green" transform="rotate(1530.0 -20.000000000000036 60.0)"/><circle cx="-30.0000" cy="70.0000" r="4" fill="blue"/><rect x="-24.0000" y="66.0000" width="8" height="8" fill="red" transform="rotate(1890.0 -20.00000000000004 69.99999999999996)"/><circle cx="-20.0000" cy="70.0000" r="4" fill="red"/><rect x="-34.0000" y="76.0000" width="8" height="8" fill="green" transform="rotate(1890.0 -30.000000000000043 79.99999999999997)"/><circle cx="-40.0000" cy="90.0000" r="4" fill="blue"/><rect x="-34.0000" y="86.0000" width="8" height="8" fill="red" transform="rotate(1890.0 -30.00000000000005 89.99999999999993)"/><circle cx="-30.0000" cy="90.0000" r="4" fill="red"/><rect x="-44.0000" y="96.0000" width="8" height="8" fill="green" transform="rotate(1890.0 -40.00000000000006 99.99999999999994)"/><circle cx="-40.0000" cy="100.0000" r="4" fill="green"/><circle cx="-50.0000" cy="110.0000" r="4" fill="blue"/><rect x="-44.0000" y="106.0000" width="8" height="8" fill="red" transform="rotate(1890.0 -40.000000000000064 109.9999999999999)"/><circle cx="-40.0000" cy="110.0000" r="4" fill="red"/><rect x="-54.0000" y="116.0000" width="8" height="8" fill="green" transform="rotate(1890.0 -50.00000000000007 119.99999999999991)"/><rect x="-54.0000" y="116.0000" width="8" height="8" fill="red" transform="rotate(1980.0 -50.00000000000007 119.99999999999991)"/><circle cx="-50.0000" cy="120.0000" r="4" fill="red"/><circle cx="-60.0000" cy="90.0000" r="4" fill="blue"/><rect x="-64.0000" y="96.0000" width="8" height="8" fill="red" transform="rotate(1980.0 -60.00000000000009 99.99999999999989)"/><circle cx="-60.0000" cy="100.0000" r="4" fill="red"/><rect x="-74.0000" y="86.0000" width="8" height="8" fill="green" transform="rotate(1980.0 -70.00000000000009 89.99999999999986)"/><rect x="-74.0000" y="86.0000" width="8" height="8" fill="green" transform="rotate(1980.0 -70.00000000000009 89.99999999999986)"/><circle cx="-60.0000" cy="100.0000" r="4" fill="blue"/><rect x="-64.0000" y="86.0000" width="8" height="8" fill="red" transform="rotate(2160.0 -60.000000000000114 89.99999999999984)"/><circle cx="-60.0000" cy="90.0000" r="4" fill="red"/><rect x="-54.0000" y="96.0000" width="8" height="8" fill="green" transform="rotate(2160.0 -50.000000000000085 99.99999999999983)"/><circle cx="-40.0000" cy="110.0000" r="4" fill="blue"/><rect x="-44.0000" y="96.0000" width="8" height="8" fill="red" transform="rotate(2160.0 -40.000000000000114 99.99999999999982)"/><circle cx="-40.0000" cy="100.0000" r="4" fill="red"/><rect x="-34.0000" y="106.0000" width="8" height="8" fill="green" transform="rotate(2160.0 -30.000000000000085 109.9999999999998)"/><circle cx="-30.0000" cy="110.0000" r="4" fill="green"/><circle cx="-20.0000" cy="120.0000" r="4" fill="blue"/><rect x="-24.0000" y="106.0000" width="8" height="8" fill="red" transform="rotate(2160.0 -20.00000000000012 109.99999999999979)"/><circle cx="-20.0000" cy="110.0000" r="4" fill="red"/><rect x="-14.0000" y="116.0000" width="8" height="8" fill="green" transform="rotate(2160.0 -10.000000000000089 119.99999999999977)"/><rect x="-14.0000" y="116.0000" width="8" height="8" fill="red" transform="rotate(2250.0 -10.000000000000089 119.99999999999977)"/><circle cx="-10.0000" cy="120.0000" r="4" fill="red"/><circle cx="-40.0000" cy="130.0000" r="4" fill="blue"/><rect x="-34.0000" y="126.0000" width="8" height="8" fill="red" transform="rotate(2250.0 -30.000000000000085 129.99999999999974)"/><circle cx="-30.0000" cy="130.0000" r="4" fill="red"/><rect x="-44.0000" y="136.0000" width="8" height="8" fill="green" transform="rotate(2250.0 -40.000000000000085 139.99999999999977)"/><rect x="-44.0000" y="136.0000" width="8" height="8" fill="green" transform="rotate(2250.0 -40.000000000000085 139.99999999999977)"/><circle cx="-40.0000" cy="140.0000" r="4" fill="green"/><circle cx="-30.0000" cy="130.0000" r="4" fill="blue"/><rect x="-44.0000" y="126.0000" width="8" height="8" fill="red" transform="rotate(2430.0 -40.00000000000012 129.99999999999972)"/><circle cx="-40.0000" cy="130.0000" r="4" fill="red"/><rect x="-34.0000" y="116.0000" width="8" height="8" fill="green" transform="rotate(2430.0 -30.000000000000156 119.99999999999974)"/><circle cx="-20.0000" cy="110.0000" r="4" fill="blue"/><rect x="-34.0000" y="106.0000" width="8" height="8" fill="red" transform="rotate(2430.0 -30.000000000000192 109.99999999999972)"/><circle cx="-30.0000" cy="110.0000" r="4" fill="red"/><rect x="-24.0000" y="96.0000" width="8" height="8" fill="green" transform="rotate(2430.0 -20.000000000000227 99.99999999999973)"/><circle cx="-20.0000" cy="100.0000" r="4" fill="green"/><circle cx="-10.0000" cy="90.0000" r="4" fill="blue"/><rect x="-24.0000" y="86.0000" width="8" height="8" fill="red" transform="rotate(2430.0 -20.000000000000263 89.9999999999997)"/><circle cx="-20.0000" cy="90.0000" r="4" fill="red"/><rect x="-14.0000" y="76.0000" width="8" height="8" fill="green" transform="rotate(2430.0 -10.000000000000295 79.99999999999972)"/><rect x="-14.0000" y="76.0000" width="8" height="8" fill="red" transform="rotate(2520.0 -10.000000000000295 79.99999999999972)"/><circle cx="-10.0000" cy="80.0000" r="4" fill="red"/><circle cx="-0.0000" cy="110.0000" r="4" fill="blue"/><rect x="-4.0000" y="96.0000" width="8" height="8" fill="red" transform="rotate(2520.0 -2.6166997562572383E-13 99.9999999999997)"/><circle cx="-0.0000" cy="100.0000" r="4" fill="red"/><rect x="6.0000" y="106.0000" width="8" height="8" fill="green" transform="rotate(2520.0 9.999999999999773 109.99999999999969)"/><rect x="6.0000" y="106.0000" width="8" height="8" fill="green" transform="rotate(2520.0 9.999999999999773 109.99999999999969)"/><rect x="6.0000" y="106.0000" width="8" height="8" fill="red" transform="rotate(2610.0 9.999999999999773 109.99999999999969)"/><circle cx="10.0000" cy="110.0000" r="4" fill="red"/><circle cx="-0.0000" cy="100.0000" r="4" fill="blue"/><rect x="-14.0000" y="96.0000" width="8" height="8" fill="red" transform="rotate(2790.0 -10.000000000000265 99.99999999999969)"/><circle cx="-10.0000" cy="100.0000" r="4" fill="red"/><rect x="-4.0000" y="86.0000" width="8" height="8" fill="green" transform="rotate(2790.0 -3.00864863004805E-13 89.9999999999997)"/><circle cx="10.0000" cy="80.0000" r="4" fill="blue"/><rect x="-4.0000" y="76.0000" width="8" height="8" fill="red" transform="rotate(2790.0 -3.375077994860476E-13 79.99999999999967)"/><circle cx="-0.0000" cy="80.0000" r="4" fill="red"/><rect x="6.0000" y="66.0000" width="8" height="8" fill="green" transform="rotate(2790.0 9.999999999999625 69.99999999999969)"/><circle cx="10.0000" cy="70.0000" r="4" fill="green"/><circle cx="20.0000" cy="60.0000" r="4" fill="blue"/><rect x="6.0000" y="56.0000" width="8" height="8" fill="red" transform="rotate(2790.0 9.999999999999588 59.99999999999966)"/><circle cx="10.0000" cy="60.0000" r="4" fill="red"/><rect x="16.0000" y="46.0000" width="8" height="8" fill="green" transform="rotate(2790.0 19.999999999999552 49.99999999999967)"/><rect x="16.0000" y="46.0000" width="8" height="8" fill="red" transform="rotate(2880.0 19.999999999999552 49.99999999999967)"/><circle cx="20.0000" cy="50.0000" r="4" fill="red"/><circle cx="30.0000" cy="80.0000" r="4" fill="blue"/><rect x="26.0000" y="66.0000" width="8" height="8" fill="red" transform="rotate(2880.0 29.99999999999959 69.99999999999966)"/><circle cx="30.0000" cy="70.0000" r="4" fill="red"/><rect x="36.0000" y="76.0000" width="8" height="8" fill="green" transform="rotate(2880.0 39.99999999999963 79.99999999999964)"/><rect x="36.0000" y="76.0000" width="8" height="8" fill="green" transform="rotate(2880.0 39.99999999999963 79.99999999999964)"/><rect x="36.0000" y="76.0000" width="8" height="8" fill="green" transform="rotate(2880.0 39.99999999999963 79.99999999999964)"/><circle cx="40.0000" cy="80.0000" r="4" fill="green"/><circle cx="50.0000" cy="90.0000" r="4" fill="blue"/><rect x="46.0000" y="76.0000" width="8" height="8" fill="red" transform="rotate(3240.0 49.999999999999595 79.99999999999962)"/><circle cx="50.0000" cy="80.0000" r="4" fill="red"/><rect x="56.0000" y="86.0000" width="8" height="8" fill="green" transform="rotate(3240.0 59.99999999999964 89.99999999999959)"/><circle cx="70.0000" cy="100.0000" r="4" fill="blue"/><rect x="66.0000" y="86.0000" width="8" height="8" fill="red" transform="rotate(3240.0 69.9999999999996 89.99999999999956)"/><circle cx="70.0000" cy="90.0000" r="4" fill="red"/><rect x="76.0000" y="96.0000" width="8" height="8" fill="green" transform="rotate(3240.0 79.99999999999964 99.99999999999953)"/><circle cx="80.0000" cy="100.0000" r="4" fill="green"/><circle cx="90.0000" cy="110.0000" r="4" fill="blue"/><rect x="86.0000" y="96.0000" width="8" height="8" fill="red" transform="rotate(3240.0 89.9999999999996 99.9999999999995)"/><circle cx="90.0000" cy="100.0000" r="4" fill="red"/><rect x="96.0000" y="106.0000" width="8" height="8" fill="green" transform="rotate(3240.0 99.99999999999964 109.99999999999947)"/><rect x="96.0000" y="106.0000" width="8" height="8" fill="red" transform="rotate(3330.0 99.99999999999964 109.99999999999947)"/><circle cx="100.0000" cy="110.0000" r="4" fill="red"/><circle cx="70.0000" cy="120.0000" r="4" fill="blue"/><rect x="76.0000" y="116.0000" width="8" height="8" fill="red" transform="rotate(3330.0 79.99999999999964 119.99999999999949)"/><circle cx="80.0000" cy="120.0000" r="4" fill="red"/><rect x="66.0000" y="126.0000" width="8" height="8" fill="green" transform="rotate(3330.0 69.99999999999964 129.99999999999952)"/><rect x="66.0000" y="126.0000" width="8" height="8" fill="green" transform="rotate(3330.0 69.99999999999964 129.99999999999952)"/><circle cx="80.0000" cy="120.0000" r="4" fill="blue"/><rect x="66.0000" y="116.0000" width="8" height="8" fill="red" transform="rotate(3510.0 69.9999999999996 119.99999999999947)"/><circle cx="70.0000" cy="120.0000" r="4" fill="red"/><rect x="76.0000" y="106.0000" width="8" height="8" fill="green" transform="rotate(3510.0 79.99999999999956 109.99999999999949)"/><circle cx="90.0000" cy="100.0000" r="4" fill="blue"/><rect x="76.0000" y="96.0000" width="8" height="8" fill="red" transform="rotate(3510.0 79.99999999999952 99.99999999999945)"/><circle cx="80.0000" cy="100.0000" r="4" fill="red"/><rect x="86.0000" y="86.0000" width="8" height="8" fill="green" transform="rotate(3510.0 89.99999999999947 89.99999999999946)"/><circle cx="90.0000" cy="90.0000" r="4" fill="green"/><circle cx="100.0000" cy="80.0000" r="4" fill="blue"/><rect x="86.0000" y="76.0000" width="8" height="8" fill="red" transform="rotate(3510.0 89.99999999999943 79.99999999999942)"/><circle cx="90.0000" cy="80.0000" r="4" fill="red"/><rect x="96.0000" y="66.0000" width="8" height="8" fill="green" transform="rotate(3510.0 99.99999999999939 69.99999999999943)"/><rect x="96.0000" y="66.0000" width="8" height="8" fill="red" transform="rotate(3600.0 99.99999999999939 69.99999999999943)"/><circle cx="100.0000" cy="70.0000" r="4" fill="red"/><circle cx="110.0000" cy="100.0000" r="4" fill="blue"/><rect x="106.0000" y="86.0000" width="8" height="8" fill="red" transform="rotate(3600.0 109.99999999999952 89.9999999999994)"/><circle cx="110.0000" cy="90.0000" r="4" fill="red"/><rect x="116.0000" y="96.0000" width="8" height="8" fill="green" transform="rotate(3600.0 119.99999999999956 99.99999999999937)"/><rect x="116.0000" y="96.0000" width="8" height="8" fill="green" transform="rotate(3600.0 119.99999999999956 99.99999999999937)"/><circle cx="120.0000" cy="100.0000" r="4" fill="green"/><circle cx="110.0000" cy="90.0000" r="4" fill="blue"/><rect x="106.0000" y="96.0000" width="8" height="8" fill="red" transform="rotate(3780.0 109.9999999999996 99.99999999999936)"/><circle cx="110.0000" cy="100.0000" r="4" fill="red"/><rect x="96.0000" y="86.0000" width="8" height="8" fill="green" transform="rotate(3780.0 99.99999999999952 89.99999999999935)"/><circle cx="90.0000" cy="80.0000" r="4" fill="blue"/><rect x="86.0000" y="86.0000" width="8" height="8" fill="red" transform="rotate(3780.0 89.99999999999956 89.99999999999933)"/><circle cx="90.0000" cy="90.0000" r="4" fill="red"/><rect x="76.0000" y="76.0000" width="8" height="8" fill="green" transform="rotate(3780.0 79.99999999999947 79.99999999999932)"/><circle cx="80.0000" cy="80.0000" r="4" fill="green"/><circle cx="70.0000" cy="70.0000" r="4" fill="blue"/><rect x="66.0000" y="76.0000" width="8" height="8" fill="red" transform="rotate(3780.0 69.99999999999952 79.9999999999993)"/><circle cx="70.0000" cy="80.0000" r="4" fill="red"/><rect x="56.0000" y="66.0000" width="8" height="8" fill="green" transform="rotate(3780.0 59.99999999999943 69.99999999999929)"/><rect x="56.0000" y="66.0000" width="8" height="8" fill="red" transform="rotate(3870.0 59.99999999999943 69.99999999999929)"/><circle cx="60.0000" cy="70.0000" r="4" fill="red"/><circle cx="90.0000" cy="60.0000" r="4" fill="blue"/><rect x="76.0000" y="56.0000" width="8" height="8" fill="red" transform="rotate(3870.0 79.99999999999939 59.99999999999935)"/><circle cx="80.0000" cy="60.0000" r="4" fill="red"/><rect x="86.0000" y="46.0000" width="8" height="8" fill="green" transform="rotate(3870.0 89.99999999999935 49.99999999999936)"/><rect x="86.0000" y="46.0000" width="8" height="8" fill="green" transform="rotate(3870.0 89.99999999999935 49.99999999999936)"/><rect x="86.0000" y="46.0000" width="8" height="8" fill="red" transform="rotate(3960.0 89.99999999999935 49.99999999999936)"/><circle cx="90.0000" cy="50.0000" r="4" fill="red"/><circle cx="80.0000" cy="60.0000" r="4" fill="blue"/><rect x="76.0000" y="66.0000" width="8" height="8" fill="red" transform="rotate(4140.0 79.99999999999947 69.99999999999943)"/><circle cx="80.0000" cy="70.0000" r="4" fill="red"/><rect x="66.0000" y="56.0000" width="8" height="8" fill="green" transform="rotate(4140.0 69.99999999999946 59.99999999999949)"/><circle cx="60.0000" cy="50.0000" r="4" fill="blue"/><rect x="56.0000" y="56.0000" width="8" height="8" fill="red" transform="rotate(4140.0 59.999999999999496 59.99999999999955)"/><circle cx="60.0000" cy="60.0000" r="4" fill="red"/><rect x="46.0000" y="46.0000" width="8" height="8" fill="green" transform="rotate(4140.0 49.99999999999949 49.999999999999616)"/><circle cx="50.0000" cy="50.0000" r="4" fill="green"/><circle cx="40.0000" cy="40.0000" r="4" fill="blue"/><rect x="36.0000" y="46.0000" width="8" height="8" fill="red" transform="rotate(4140.0 39.99999999999952 49.99999999999968)"/><circle cx="40.0000" cy="50.0000" r="4" fill="red"/><rect x="26.0000" y="36.0000" width="8" height="8" fill="green" transform="rotate(4140.0 29.99999999999951 39.999999999999744)"/><rect x="26.0000" y="36.0000" width="8" height="8" fill="red" transform="rotate(4230.0 29.99999999999951 39.999999999999744)"/><circle cx="30.0000" cy="40.0000" r="4" fill="red"/><circle cx="60.0000" cy="30.0000" r="4" fill="blue"/><rect x="46.0000" y="26.0000" width="8" height="8" fill="red" transform="rotate(4230.0 49.99999999999953 29.999999999999652)"/><circle cx="50.0000" cy="30.0000" r="4" fill="red"/><rect x="56.0000" y="16.0000" width="8" height="8" fill="green" transform="rotate(4230.0 59.99999999999955 19.999999999999588)"/><rect x="56.0000" y="16.0000" width="8" height="8" fill="green" transform="rotate(4230.0 59.99999999999955 19.999999999999588)"/><rect x="56.0000" y="16.0000" width="8" height="8" fill="green" transform="rotate(4230.0 59.99999999999955 19.999999999999588)"/><rect x="56.0000" y="16.0000" width="8" height="8" fill="red" transform="rotate(4320.0 59.99999999999955 19.999999999999588)"/><circle cx="60.0000" cy="20.0000" r="4" fill="red"/><circle cx="70.0000" cy="50.0000" r="4" fill="blue"/><rect x="66.0000" y="36.0000" width="8" height="8" fill="red" transform="rotate(4680.0 69.99999999999947 39.99999999999963)"/><circle cx="70.0000" cy="40.0000" r="4" fill="red"/><rect x="76.0000" y="46.0000" width="8" height="8" fill="green" transform="rotate(4680.0 79.99999999999952 49.99999999999967)"/><circle cx="90.0000" cy="60.0000" r="4" fill="blue"/><rect x="86.0000" y="46.0000" width="8" height="8" fill="red" transform="rotate(4680.0 89.99999999999949 49.999999999999716)"/><circle cx="90.0000" cy="50.0000" r="4" fill="red"/><rect x="96.0000" y="56.0000" width="8" height="8" fill="green" transform="rotate(4680.0 99.99999999999953 59.99999999999976)"/><circle cx="100.0000" cy="60.0000" r="4" fill="green"/><circle cx="110.0000" cy="70.0000" r="4" fill="blue"/><rect x="106.0000" y="56.0000" width="8" height="8" fill="red" transform="rotate(4680.0 109.9999999999995 59.9999999999998)"/><circle cx="110.0000" cy="60.0000" r="4" fill="red"/><rect x="116.0000" y="66.0000" width="8" height="8" fill="green" transform="rotate(4680.0 119.99999999999955 69.99999999999984)"/><rect x="116.0000" y="66.0000" width="8" height="8" fill="red" transform="rotate(4770.0 119.99999999999955 69.99999999999984)"/><circle cx="120.0000" cy="70.0000" r="4" fill="red"/><circle cx="90.0000" cy="80.0000" r="4" fill="blue"/><rect x="96.0000" y="76.0000" width="8" height="8" fill="red" transform="rotate(4770.0 99.99999999999956 79.99999999999987)"/><circle cx="100.0000" cy="80.0000" r="4" fill="red"/><rect x="86.0000" y="86.0000" width="8" height="8" fill="green" transform="rotate(4770.0 89.99999999999957 89.99999999999983)"/><rect x="86.0000" y="86.0000" width="8" height="8" fill="green" transform="rotate(4770.0 89.99999999999957 89.99999999999983)"/><circle cx="100.0000" cy="80.0000" r="4" fill="blue"/><rect x="86.0000" y="76.0000" width="8" height="8" fill="red" transform="rotate(4950.0 89.99999999999959 79.99999999999987)"/><circle cx="90.0000" cy="80.0000" r="4" fill="red"/><rect x="96.0000" y="66.0000" width="8" height="8" fill="green" transform="rotate(4950.0 99.9999999999996 69.9999999999998)"/><circle cx="110.0000" cy="60.0000" r="4" fill="blue"/><rect x="96.0000" y="56.0000" width="8" height="8" fill="red" transform="rotate(4950.0 99.99999999999962 59.999999999999844)"/><circle cx="100.0000" cy="60.0000" r="4" fill="red"/><rect x="106.0000" y="46.0000" width="8" height="8" fill="green" transform="rotate(4950.0 109.99999999999963 49.99999999999977)"/><circle cx="110.0000" cy="50.0000" r="4" fill="green"/><circle cx="120.0000" cy="40.0000" r="4" fill="blue"/><rect x="106.0000" y="36.0000" width="8" height="8" fill="red" transform="rotate(4950.0 109.99999999999964 39.99999999999981)"/><circle cx="110.0000" cy="40.0000" r="4" fill="red"/><rect x="116.0000" y="26.0000" width="8" height="8" fill="green" transform="rotate(4950.0 119.99999999999966 29.999999999999737)"/><rect x="116.0000" y="26.0000" width="8" height="8" fill="red" transform="rotate(5040.0 119.99999999999966 29.999999999999737)"/><circle cx="120.0000" cy="30.0000" r="4" fill="red"/><circle cx="130.0000" cy="60.0000" r="4" fill="blue"/><rect x="126.0000" y="46.0000" width="8" height="8" fill="red" transform="rotate(5040.0 129.9999999999996 49.9999999999997)"/><circle cx="130.0000" cy="50.0000" r="4" fill="red"/><rect x="136.0000" y="56.0000" width="8" height="8" fill="green" transform="rotate(5040.0 139.99999999999957 59.999999999999666)"/><rect x="136.0000" y="56.0000" width="8" height="8" fill="green" transform="rotate(5040.0 139.99999999999957 59.999999999999666)"/><circle cx="140.0000" cy="60.0000" r="4" fill="green"/><circle cx="130.0000" cy="50.0000" r="4" fill="blue"/><rect x="126.0000" y="56.0000" width="8" height="8" fill="red" transform="rotate(5220.0 129.99999999999946 59.999999999999666)"/><circle cx="130.0000" cy="60.0000" r="4" fill="red"/><rect x="116.0000" y="46.0000" width="8" height="8" fill="green" transform="rotate(5220.0 119.99999999999952 49.999999999999666)"/><circle cx="110.0000" cy="40.0000" r="4" fill="blue"/><rect x="106.0000" y="46.0000" width="8" height="8" fill="red" transform="rotate(5220.0 109.9999999999994 49.999999999999666)"/><circle cx="110.0000" cy="50.0000" r="4" fill="red"/><rect x="96.0000" y="36.0000" width="8" height="8" fill="green" transform="rotate(5220.0 99.99999999999946 39.999999999999666)"/><circle cx="100.0000" cy="40.0000" r="4" fill="green"/><circle cx="90.0000" cy="30.0000" r="4" fill="blue"/><rect x="86.0000" y="36.0000" width="8" height="8" fill="red" transform="rotate(5220.0 89.99999999999935 39.999999999999666)"/><circle cx="90.0000" cy="40.0000" r="4" fill="red"/><rect x="76.0000" y="26.0000" width="8" height="8" fill="green" transform="rotate(5220.0 79.9999999999994 29.999999999999666)"/><rect x="76.0000" y="26.0000" width="8" height="8" fill="red" transform="rotate(5310.0 79.9999999999994 29.999999999999666)"/><circle cx="80.0000" cy="30.0000" r="4" fill="red"/><circle cx="110.0000" cy="20.0000" r="4" fill="blue"/><rect x="96.0000" y="16.0000" width="8" height="8" fill="red" transform="rotate(5310.0 99.99999999999935 19.9999999999997)"/><circle cx="100.0000" cy="20.0000" r="4" fill="red"/><rect x="106.0000" y="6.0000" width="8" height="8" fill="green" transform="rotate(5310.0 109.99999999999929 9.999999999999702)"/><rect x="106.0000" y="6.0000" width="8" height="8" fill="green" transform="rotate(5310.0 109.99999999999929 9.999999999999702)"/><rect x="106.0000" y="6.0000" width="8" height="8" fill="red" transform="rotate(5400.0 109.99999999999929 9.999999999999702)"/><circle cx="110.0000" cy="10.0000" r="4" fill="red"/><circle cx="100.0000" cy="20.0000" r="4" fill="blue"/><rect x="96.0000" y="26.0000" width="8" height="8" fill="red" transform="rotate(5580.0 99.99999999999943 29.999999999999776)"/><circle cx="100.0000" cy="30.0000" r="4" fill="red"/><rect x="86.0000" y="16.0000" width="8" height="8" fill="green" transform="rotate(5580.0 89.99999999999942 19.99999999999985)"/><circle cx="80.0000" cy="10.0000" r="4" fill="blue"/><rect x="76.0000" y="16.0000" width="8" height="8" fill="red" transform="rotate(5580.0 79.99999999999945 19.999999999999922)"/><circle cx="80.0000" cy="20.0000" r="4" fill="red"/><rect x="66.0000" y="6.0000" width="8" height="8" fill="green" transform="rotate(5580.0 69.99999999999943 9.999999999999996)"/><circle cx="70.0000" cy="10.0000" r="4" fill="green"/><circle cx="60.0000" cy="0.0000" r="4" fill="blue"/><rect x="56.0000" y="6.0000" width="8" height="8" fill="red" transform="rotate(5580.0 59.99999999999947 10.00000000000007)"/><circle cx="60.0000" cy="10.0000" r="4" fill="red"/><rect x="46.0000" y="-4.0000" width="8" height="8" fill="green" transform="rotate(5580.0 49.999999999999446 1.434296614443454E-13)"/><rect x="46.0000" y="-4.0000" width="8" height="8" fill="red" transform="rotate(5670.0 49.999999999999446 1.434296614443454E-13)"/><circle cx="50.0000" cy="0.0000" r="4" fill="red"/><circle cx="80.0000" cy="-10.0000" r="4" fill="blue"/><rect x="66.0000" y="-14.0000" width="8" height="8" fill="red" transform="rotate(5670.0 69.99999999999946 -9.99999999999997)"/><circle cx="70.0000" cy="-10.0000" r="4" fill="red"/><rect x="76.0000" y="-24.0000" width="8" height="8" fill="green" transform="rotate(5670.0 79.99999999999947 -20.000000000000043)"/><rect x="76.0000" y="-24.0000" width="8" height="8" fill="green" transform="rotate(5670.0 79.99999999999947 -20.000000000000043)"/><rect x="76.0000" y="-24.0000" width="8" height="8" fill="green" transform="rotate(5670.0 79.99999999999947 -20.000000000000043)"/><rect x="76.0000" y="-24.0000" width="8" height="8" fill="green" transform="rotate(5670.0 79.99999999999947 -20.000000000000043)"/></svg>