<svg viewBox="-65.20907433445902 -478.39517044534966 267.391875961818 521.885640485836" xmlns="http://www.w3.org/2000/svg"><path d="M 0.0000 0.0000 L 0.0000 -10.0000 M 0.0000 -10.0000 L 0.0000 -20.0000 M 0.0000 -20.0000 L 0.0000 -30.0000 M 0.0000 -30.0000 L 0.0000 -40.0000 M 0.0000 -40.0000 L 0.0000 -50.0000 M 0.0000 -50.0000 L 0.0000 -60.0000 M 0.0000 -60.0000 L 0.0000 -70.0000 M 0.0000 -70.0000 L 0.0000 -80.0000 M 0.0000 -80.0000 L 6.4279 -87.6604 M 6.4279 -87.6604 L 12.8558 -95.3209 M 12.8558 -95.3209 L 19.2836 -102.9813 M 19.2836 -102.9813 L 25.7115 -110.6418 M 25.7115 -110.6418 L 35.5596 -112.3783 M 35.5596 -112.3783 L 45.4077 -114.1147 M 45.4077 -114.1147 L 54.0679 -109.1147 M 54.0679 -109.1147 L 61.1390 -102.0437 M 61.1390 -102.0437 L 70.5359 -98.6235 M 45.4077 -114.1147 L 55.3696 -113.2432 M 55.3696 -113.2432 L 64.7665 -109.8230 M 64.7665 -109.8230 L 74.7285 -110.6945 M 45.4077 -114.1147 L 55.3696 -113.2432 M 55.3696 -113.2432 L 65.3316 -112.3716 M 65.3316 -112.3716 L 74.7285 -115.7918 M 74.7285 -115.7918 L 84.1254 -119.2120 M 84.1254 -119.2120 L 93.5223 -122.6322 M 93.5223 -122.6322 L 103.4843 -123.5038 M 103.4843 -123.5038 L 112.1445 -128.5038 M 65.3316 -112.3716 L 72.4026 -105.3006 M 72.4026 -105.3006 L 77.4026 -96.6403 M 77.4026 -96.6403 L 85.5941 -90.9045 M 25.7115 -110.6418 L 33.9030 -116.3775 M 33.9030 -116.3775 L 42.0945 -122.1133 M 42.0945 -122.1133 L 52.0565 -121.2417 M 52.0565 -121.2417 L 61.4534 -117.8215 M 61.4534 -117.8215 L 71.4154 -118.6931 M 42.0945 -122.1133 L 51.4915 -125.5335 M 51.4915 -125.5335 L 61.4534 -126.4051 M 61.4534 -126.4051 L 70.1137 -131.4051 M 42.0945 -122.1133 L 51.4915 -125.5335 M 51.4915 -125.5335 L 60.8884 -128.9537 M 60.8884 -128.9537 L 67.9595 -136.0248 M 67.9595 -136.0248 L 75.0305 -143.0958 M 75.0305 -143.0958 L 82.1016 -150.1669 M 82.1016 -150.1669 L 90.7619 -155.1669 M 90.7619 -155.1669 L 96.4976 -163.3584 M 60.8884 -128.9537 L 70.2853 -125.5335 M 70.2853 -125.5335 L 78.4768 -119.7977 M 78.4768 -119.7977 L 88.3249 -118.0613 M 25.7115 -110.6418 L 33.9030 -116.3775 M 33.9030 -116.3775 L 42.0945 -122.1133 M 42.0945 -122.1133 L 50.2861 -127.8491 M 50.2861 -127.8491 L 58.4776 -133.5848 M 58.4776 -133.5848 L 63.4776 -142.2451 M 63.4776 -142.2451 L 68.4776 -150.9053 M 68.4776 -150.9053 L 73.4776 -159.5656 M 73.4776 -159.5656 L 78.4776 -168.2259 M 78.4776 -168.2259 L 83.4776 -176.8861 M 83.4776 -176.8861 L 88.4776 -185.5464 M 88.4776 -185.5464 L 97.8745 -188.9666 M 97.8745 -188.9666 L 107.8365 -189.8381 M 107.8365 -189.8381 L 116.4967 -194.8381 M 88.4776 -185.5464 L 95.5487 -192.6174 M 95.5487 -192.6174 L 104.2089 -197.6174 M 104.2089 -197.6174 L 109.9447 -205.8089 M 88.4776 -185.5464 L 95.5487 -192.6174 M 95.5487 -192.6174 L 102.6197 -199.6885 M 102.6197 -199.6885 L 106.0399 -209.0854 M 106.0399 -209.0854 L 109.4601 -218.4823 M 109.4601 -218.4823 L 112.8803 -227.8793 M 112.8803 -227.8793 L 118.6161 -236.0708 M 118.6161 -236.0708 L 120.3526 -245.9189 M 102.6197 -199.6885 L 112.5817 -200.5601 M 112.5817 -200.5601 L 122.4297 -198.8236 M 122.4297 -198.8236 L 132.0890 -201.4118 M 58.4776 -133.5848 L 68.4395 -132.7133 M 68.4395 -132.7133 L 78.4015 -131.8417 M 78.4015 -131.8417 L 85.4725 -124.7707 M 85.4725 -124.7707 L 90.4725 -116.1104 M 90.4725 -116.1104 L 98.6641 -110.3746 M 78.4015 -131.8417 L 87.7984 -128.4215 M 87.7984 -128.4215 L 95.9899 -122.6858 M 95.9899 -122.6858 L 105.8380 -120.9493 M 78.4015 -131.8417 L 87.7984 -128.4215 M 87.7984 -128.4215 L 97.1953 -125.0013 M 97.1953 -125.0013 L 107.1573 -125.8729 M 107.1573 -125.8729 L 117.1192 -126.7444 M 117.1192 -126.7444 L 127.0812 -127.6160 M 127.0812 -127.6160 L 136.9293 -125.8795 M 136.9293 -125.8795 L 146.5885 -128.4677 M 97.1953 -125.0013 L 102.1953 -116.3411 M 102.1953 -116.3411 L 104.7835 -106.6818 M 104.7835 -106.6818 L 111.2114 -99.0214 M 0.0000 -80.0000 L 2.5882 -89.6593 M 2.5882 -89.6593 L 5.1764 -99.3185 M 5.1764 -99.3185 L 7.7646 -108.9778 M 7.7646 -108.9778 L 10.3528 -118.6370 M 10.3528 -118.6370 L 18.5443 -124.3728 M 18.5443 -124.3728 L 26.7358 -130.1086 M 26.7358 -130.1086 L 36.6977 -129.2370 M 36.6977 -129.2370 L 46.0947 -125.8168 M 46.0947 -125.8168 L 56.0566 -126.6884 M 26.7358 -130.1086 L 36.1327 -133.5288 M 36.1327 -133.5288 L 46.0947 -134.4003 M 46.0947 -134.4003 L 54.7549 -139.4003 M 26.7358 -130.1086 L 36.1327 -133.5288 M 36.1327 -133.5288 L 45.5297 -136.9490 M 45.5297 -136.9490 L 52.6007 -144.0200 M 52.6007 -144.0200 L 59.6718 -151.0911 M 59.6718 -151.0911 L 66.7429 -158.1622 M 66.7429 -158.1622 L 75.4031 -163.1622 M 75.4031 -163.1622 L 81.1389 -171.3537 M 45.5297 -136.9490 L 54.9266 -133.5288 M 54.9266 -133.5288 L 63.1181 -127.7930 M 63.1181 -127.7930 L 72.9662 -126.0565 M 10.3528 -118.6370 L 15.3528 -127.2973 M 15.3528 -127.2973 L 20.3528 -135.9575 M 20.3528 -135.9575 L 29.7497 -139.3777 M 29.7497 -139.3777 L 39.7116 -140.2493 M 39.7116 -140.2493 L 48.3719 -145.2493 M 20.3528 -135.9575 L 27.4238 -143.0286 M 27.4238 -143.0286 L 36.0841 -148.0286 M 36.0841 -148.0286 L 41.8198 -156.2201 M 20.3528 -135.9575 L 27.4238 -143.0286 M 27.4238 -143.0286 L 34.4949 -150.0997 M 34.4949 -150.0997 L 37.9151 -159.4966 M 37.9151 -159.4966 L 41.3353 -168.8935 M 41.3353 -168.8935 L 44.7555 -178.2905 M 44.7555 -178.2905 L 50.4913 -186.4820 M 50.4913 -186.4820 L 52.2277 -196.3301 M 34.4949 -150.0997 L 44.4568 -150.9712 M 44.4568 -150.9712 L 54.3049 -149.2348 M 54.3049 -149.2348 L 63.9642 -151.8229 M 10.3528 -118.6370 L 15.3528 -127.2973 M 15.3528 -127.2973 L 20.3528 -135.9575 M 20.3528 -135.9575 L 25.3528 -144.6178 M 25.3528 -144.6178 L 30.3528 -153.2780 M 30.3528 -153.2780 L 31.2243 -163.2400 M 31.2243 -163.2400 L 32.0959 -173.2019 M 32.0959 -173.2019 L 32.9674 -183.1639 M 32.9674 -183.1639 L 33.8390 -193.1258 M 33.8390 -193.1258 L 34.7105 -203.0878 M 34.7105 -203.0878 L 35.5821 -213.0497 M 35.5821 -213.0497 L 42.6532 -220.1208 M 42.6532 -220.1208 L 51.3134 -225.1208 M 51.3134 -225.1208 L 57.0492 -233.3123 M 35.5821 -213.0497 L 39.0023 -222.4467 M 39.0023 -222.4467 L 44.7381 -230.6382 M 44.7381 -230.6382 L 46.4746 -240.4863 M 35.5821 -213.0497 L 39.0023 -222.4467 M 39.0023 -222.4467 L 42.4225 -231.8436 M 42.4225 -231.8436 L 41.5510 -241.8055 M 41.5510 -241.8055 L 40.6794 -251.7675 M 40.6794 -251.7675 L 39.8078 -261.7294 M 39.8078 -261.7294 L 41.5443 -271.5775 M 41.5443 -271.5775 L 38.9561 -281.2368 M 42.4225 -231.8436 L 51.0828 -236.8436 M 51.0828 -236.8436 L 60.7420 -239.4318 M 60.7420 -239.4318 L 68.4025 -245.8597 M 30.3528 -153.2780 L 39.7497 -156.6983 M 39.7497 -156.6983 L 49.1466 -160.1185 M 49.1466 -160.1185 L 58.5435 -156.6983 M 58.5435 -156.6983 L 66.7351 -150.9625 M 66.7351 -150.9625 L 76.5831 -149.2260 M 49.1466 -160.1185 L 59.1086 -160.9900 M 59.1086 -160.9900 L 68.9566 -159.2535 M 68.9566 -159.2535 L 78.6159 -161.8417 M 49.1466 -160.1185 L 59.1086 -160.9900 M 59.1086 -160.9900 L 69.0705 -161.8616 M 69.0705 -161.8616 L 77.7308 -166.8616 M 77.7308 -166.8616 L 86.3910 -171.8616 M 86.3910 -171.8616 L 95.0513 -176.8616 M 95.0513 -176.8616 L 104.7105 -179.4498 M 104.7105 -179.4498 L 112.3710 -185.8776 M 69.0705 -161.8616 L 77.2620 -156.1258 M 77.2620 -156.1258 L 83.6899 -148.4654 M 83.6899 -148.4654 L 92.7530 -144.2392 M 0.0000 -80.0000 L 2.5882 -89.6593 M 2.5882 -89.6593 L 5.1764 -99.3185 M 5.1764 -99.3185 L 7.7646 -108.9778 M 7.7646 -108.9778 L 10.3528 -118.6370 M 10.3528 -118.6370 L 12.9410 -128.2963 M 12.9410 -128.2963 L 15.5291 -137.9555 M 15.5291 -137.9555 L 18.1173 -147.6148 M 18.1173 -147.6148 L 20.7055 -157.2741 M 20.7055 -157.2741 L 18.9690 -167.1221 M 18.9690 -167.1221 L 17.2326 -176.9702 M 17.2326 -176.9702 L 15.4961 -186.8183 M 15.4961 -186.8183 L 13.7596 -196.6664 M 13.7596 -196.6664 L 12.0231 -206.5145 M 12.0231 -206.5145 L 10.2866 -216.3625 M 10.2866 -216.3625 L 8.5502 -226.2106 M 8.5502 -226.2106 L 6.8137 -236.0587 M 6.8137 -236.0587 L 5.0772 -245.9068 M 5.0772 -245.9068 L 3.3407 -255.7548 M 3.3407 -255.7548 L 1.6042 -265.6029 M 1.6042 -265.6029 L -0.1323 -275.4510 M -0.1323 -275.4510 L 4.8677 -284.1113 M 4.8677 -284.1113 L 9.8677 -292.7715 M 9.8677 -292.7715 L 19.2647 -296.1917 M 19.2647 -296.1917 L 29.2266 -297.0633 M 29.2266 -297.0633 L 37.8869 -302.0633 M 9.8677 -292.7715 L 16.9388 -299.8426 M 16.9388 -299.8426 L 25.5991 -304.8426 M 25.5991 -304.8426 L 31.3348 -313.0341 M 9.8677 -292.7715 L 16.9388 -299.8426 M 16.9388 -299.8426 L 24.0099 -306.9136 M 24.0099 -306.9136 L 27.4301 -316.3106 M 27.4301 -316.3106 L 30.8503 -325.7075 M 30.8503 -325.7075 L 34.2705 -335.1044 M 34.2705 -335.1044 L 40.0062 -343.2959 M 40.0062 -343.2959 L 41.7427 -353.1440 M 24.0099 -306.9136 L 33.9718 -307.7852 M 33.9718 -307.7852 L 43.8199 -306.0487 M 43.8199 -306.0487 L 53.4792 -308.6369 M -0.1323 -275.4510 L 0.7393 -285.4129 M 0.7393 -285.4129 L 1.6109 -295.3749 M 1.6109 -295.3749 L 8.6819 -302.4460 M 8.6819 -302.4460 L 17.3422 -307.4460 M 17.3422 -307.4460 L 23.0779 -315.6375 M 1.6109 -295.3749 L 5.0311 -304.7718 M 5.0311 -304.7718 L 10.7668 -312.9633 M 10.7668 -312.9633 L 12.5033 -322.8114 M 1.6109 -295.3749 L 5.0311 -304.7718 M 5.0311 -304.7718 L 8.4513 -314.1687 M 8.4513 -314.1687 L 7.5797 -324.1307 M 7.5797 -324.1307 L 6.7081 -334.0926 M 6.7081 -334.0926 L 5.8366 -344.0546 M 5.8366 -344.0546 L 7.5731 -353.9027 M 7.5731 -353.9027 L 4.9849 -363.5619 M 8.4513 -314.1687 L 17.1115 -319.1687 M 17.1115 -319.1687 L 26.7708 -321.7569 M 26.7708 -321.7569 L 34.4312 -328.1848 M -0.1323 -275.4510 L 0.7393 -285.4129 M 0.7393 -285.4129 L 1.6109 -295.3749 M 1.6109 -295.3749 L 2.4824 -305.3368 M 2.4824 -305.3368 L 3.3540 -315.2988 M 3.3540 -315.2988 L -0.0662 -324.6957 M -0.0662 -324.6957 L -3.4864 -334.0926 M -3.4864 -334.0926 L -6.9066 -343.4896 M -6.9066 -343.4896 L -10.3268 -352.8865 M -10.3268 -352.8865 L -13.7470 -362.2834 M -13.7470 -362.2834 L -17.1672 -371.6803 M -17.1672 -371.6803 L -13.7470 -381.0773 M -13.7470 -381.0773 L -8.0113 -389.2688 M -8.0113 -389.2688 L -6.2748 -399.1169 M -17.1672 -371.6803 L -18.0388 -381.6423 M -18.0388 -381.6423 L -16.3023 -391.4904 M -16.3023 -391.4904 L -18.8905 -401.1496 M -17.1672 -371.6803 L -18.0388 -381.6423 M -18.0388 -381.6423 L -18.9104 -391.6042 M -18.9104 -391.6042 L -23.9104 -400.2645 M -23.9104 -400.2645 L -28.9104 -408.9247 M -28.9104 -408.9247 L -33.9104 -417.5850 M -33.9104 -417.5850 L -36.4985 -427.2443 M -36.4985 -427.2443 L -42.9264 -434.9047 M -18.9104 -391.6042 L -13.1746 -399.7958 M -13.1746 -399.7958 L -5.5141 -406.2236 M -5.5141 -406.2236 L -1.2880 -415.2867 M 3.3540 -315.2988 L 10.4250 -322.3699 M 10.4250 -322.3699 L 17.4961 -329.4409 M 17.4961 -329.4409 L 27.4581 -330.3125 M 27.4581 -330.3125 L 37.3061 -328.5760 M 37.3061 -328.5760 L 46.9654 -331.1642 M 17.4961 -329.4409 L 26.1564 -334.4409 M 26.1564 -334.4409 L 35.8156 -337.0291 M 35.8156 -337.0291 L 43.4761 -343.4570 M 17.4961 -329.4409 L 26.1564 -334.4409 M 26.1564 -334.4409 L 34.8166 -339.4409 M 34.8166 -339.4409 L 40.5524 -347.6324 M 40.5524 -347.6324 L 46.2881 -355.8240 M 46.2881 -355.8240 L 52.0239 -364.0155 M 52.0239 -364.0155 L 59.6844 -370.4434 M 59.6844 -370.4434 L 63.9105 -379.5064 M 34.8166 -339.4409 L 44.6647 -337.7044 M 44.6647 -337.7044 L 53.7278 -333.4783 M 53.7278 -333.4783 L 63.7278 -333.4783 M 20.7055 -157.2741 L 28.8970 -163.0098 M 28.8970 -163.0098 L 37.0886 -168.7456 M 37.0886 -168.7456 L 45.2801 -174.4814 M 45.2801 -174.4814 L 53.4716 -180.2171 M 53.4716 -180.2171 L 63.4336 -179.3456 M 63.4336 -179.3456 L 73.3955 -178.4740 M 73.3955 -178.4740 L 80.4666 -171.4029 M 80.4666 -171.4029 L 85.4666 -162.7427 M 85.4666 -162.7427 L 93.6581 -157.0069 M 73.3955 -178.4740 L 82.7924 -175.0538 M 82.7924 -175.0538 L 90.9839 -169.3180 M 90.9839 -169.3180 L 100.8320 -167.5816 M 73.3955 -178.4740 L 82.7924 -175.0538 M 82.7924 -175.0538 L 92.1894 -171.6336 M 92.1894 -171.6336 L 102.1513 -172.5052 M 102.1513 -172.5052 L 112.1132 -173.3767 M 112.1132 -173.3767 L 122.0752 -174.2483 M 122.0752 -174.2483 L 131.9233 -172.5118 M 131.9233 -172.5118 L 141.5825 -175.1000 M 92.1894 -171.6336 L 97.1894 -162.9734 M 97.1894 -162.9734 L 99.7775 -153.3141 M 99.7775 -153.3141 L 106.2054 -145.6536 M 53.4716 -180.2171 L 62.8685 -183.6373 M 62.8685 -183.6373 L 72.2655 -187.0575 M 72.2655 -187.0575 L 81.6624 -183.6373 M 81.6624 -183.6373 L 89.8539 -177.9016 M 89.8539 -177.9016 L 99.7020 -176.1651 M 72.2655 -187.0575 L 82.2274 -187.9291 M 82.2274 -187.9291 L 92.0755 -186.1926 M 92.0755 -186.1926 L 101.7347 -188.7808 M 72.2655 -187.0575 L 82.2274 -187.9291 M 82.2274 -187.9291 L 92.1894 -188.8006 M 92.1894 -188.8006 L 100.8496 -193.8006 M 100.8496 -193.8006 L 109.5099 -198.8006 M 109.5099 -198.8006 L 118.1701 -203.8006 M 118.1701 -203.8006 L 127.8294 -206.3888 M 127.8294 -206.3888 L 135.4898 -212.8167 M 92.1894 -188.8006 L 100.3809 -183.0649 M 100.3809 -183.0649 L 106.8087 -175.4044 M 106.8087 -175.4044 L 115.8718 -171.1782 M 53.4716 -180.2171 L 62.8685 -183.6373 M 62.8685 -183.6373 L 72.2655 -187.0575 M 72.2655 -187.0575 L 81.6624 -190.4777 M 81.6624 -190.4777 L 91.0593 -193.8979 M 91.0593 -193.8979 L 98.1304 -200.9690 M 98.1304 -200.9690 L 105.2014 -208.0401 M 105.2014 -208.0401 L 112.2725 -215.1111 M 112.2725 -215.1111 L 119.3436 -222.1822 M 119.3436 -222.1822 L 126.4146 -229.2533 M 126.4146 -229.2533 L 133.4857 -236.3243 M 133.4857 -236.3243 L 143.4477 -237.1959 M 143.4477 -237.1959 L 153.2957 -235.4594 M 153.2957 -235.4594 L 162.9550 -238.0476 M 133.4857 -236.3243 L 142.1460 -241.3243 M 142.1460 -241.3243 L 151.8052 -243.9125 M 151.8052 -243.9125 L 159.4657 -250.3404 M 133.4857 -236.3243 L 142.1460 -241.3243 M 142.1460 -241.3243 L 150.8062 -246.3243 M 150.8062 -246.3243 L 156.5420 -254.5159 M 156.5420 -254.5159 L 162.2778 -262.7074 M 162.2778 -262.7074 L 168.0135 -270.8989 M 168.0135 -270.8989 L 175.6740 -277.3268 M 175.6740 -277.3268 L 179.9001 -286.3899 M 150.8062 -246.3243 L 160.6543 -244.5879 M 160.6543 -244.5879 L 169.7174 -240.3617 M 169.7174 -240.3617 L 179.7174 -240.3617 M 91.0593 -193.8979 L 100.4562 -190.4777 M 100.4562 -190.4777 L 109.8532 -187.0575 M 109.8532 -187.0575 L 114.8532 -178.3973 M 114.8532 -178.3973 L 117.4414 -168.7380 M 117.4414 -168.7380 L 123.8692 -161.0776 M 109.8532 -187.0575 L 118.0447 -181.3218 M 118.0447 -181.3218 L 124.4726 -173.6613 M 124.4726 -173.6613 L 133.5356 -169.4351 M 109.8532 -187.0575 L 118.0447 -181.3218 M 118.0447 -181.3218 L 126.2362 -175.5860 M 126.2362 -175.5860 L 136.0843 -173.8495 M 136.0843 -173.8495 L 145.9324 -172.1130 M 145.9324 -172.1130 L 155.7804 -170.3766 M 155.7804 -170.3766 L 164.8435 -166.1504 M 164.8435 -166.1504 L 174.8435 -166.1504 M 126.2362 -175.5860 L 128.8244 -165.9267 M 128.8244 -165.9267 L 128.8244 -155.9267 M 128.8244 -155.9267 L 133.0506 -146.8637 " stroke-width="1" stroke="black" fill="none"/><rect x="50.0679" y="-113.1147" width="8" height="8" fill="black" transform="rotate(70.0 54.06791348555013 -109.11474127809771)"/><rect x="41.4077" y="-118.1147" width="8" height="8" fill="black" transform="rotate(30.0 45.40765944770574 -114.11474127809771)"/><rect x="51.3696" y="-117.2432" width="8" height="8" fill="black" transform="rotate(45.0 55.36960642862319 -113.24318385062112)"/><rect x="89.5223" y="-126.6322" width="8" height="8" fill="black" transform="rotate(20.0 93.52233203311789 -122.63223072291461)"/><rect x="68.4026" y="-109.3006" width="8" height="8" fill="black" transform="rotate(85.0 72.40262122140612 -105.30055861127906)"/><rect x="21.7115" y="-114.6418" width="8" height="8" fill="black" transform="rotate(-10.0 25.711504387461577 -110.6417777247591)"/><rect x="48.0565" y="-125.2417" width="8" height="8" fill="black" transform="rotate(45.0 52.05649225415887 -121.24174902430342)"/><rect x="38.0945" y="-126.1133" width="8" height="8" fill="black" transform="rotate(5.0 42.094545273241415 -122.11330645178)"/><rect x="47.4915" y="-129.5335" width="8" height="8" fill="black" transform="rotate(20.0 51.491471481100504 -125.5335078850367)"/><rect x="78.1016" y="-154.1669" width="8" height="8" fill="black" transform="rotate(-5.0 82.10160112455601 -150.16691275388982)"/><rect x="66.2853" y="-129.5335" width="8" height="8" fill="black" transform="rotate(60.0 70.28532389681867 -125.5335078850367)"/><rect x="93.8745" y="-192.9666" width="8" height="8" fill="black" transform="rotate(20.0 97.87451236688034 -188.96656083912399)"/><rect x="84.4776" y="-189.5464" width="8" height="8" fill="black" transform="rotate(-20.0 88.47758615902126 -185.5463594058673)"/><rect x="91.5487" y="-196.6174" width="8" height="8" fill="black" transform="rotate(-5.0 95.54865397088673 -192.61742721773277)"/><rect x="108.8803" y="-231.8793" width="8" height="8" fill="black" transform="rotate(-30.0 112.88032608252229 -227.8792736531755)"/><rect x="108.5817" y="-204.5601" width="8" height="8" fill="black" transform="rotate(35.0 112.58166876366967 -200.56005245707482)"/><rect x="81.4725" y="-128.7707" width="8" height="8" fill="black" transform="rotate(85.0 85.47254793272164 -124.77065251198229)"/><rect x="74.4015" y="-135.8417" width="8" height="8" fill="black" transform="rotate(45.0 78.40148012085616 -131.84172032384777)"/><rect x="83.7984" y="-132.4215" width="8" height="8" fill="black" transform="rotate(60.0 87.79840632871525 -128.42151889059107)"/><rect x="123.0812" y="-131.6160" width="8" height="8" fill="black" transform="rotate(35.0 127.08117347932671 -127.61598973976415)"/><rect x="98.1953" y="-120.3411" width="8" height="8" fill="black" transform="rotate(100.0 102.19533253657433 -116.34106341949)"/><rect x="-4.0000" y="-84.0000" width="8" height="8" fill="black" transform="rotate(-50.0 4.898587196589413E-15 -80.0)"/><rect x="32.6977" y="-133.2370" width="8" height="8" fill="black" transform="rotate(45.0 36.697749670798125 -129.2370043511071)"/><rect x="22.7358" y="-134.1086" width="8" height="8" fill="black" transform="rotate(5.0 26.73580268988067 -130.10856177858366)"/><rect x="32.1327" y="-137.5288" width="8" height="8" fill="black" transform="rotate(20.0 36.13272889773975 -133.52876321184036)"/><rect x="62.7429" y="-162.1622" width="8" height="8" fill="black" transform="rotate(-5.0 66.74285854119526 -158.16216808069348)"/><rect x="50.9266" y="-137.5288" width="8" height="8" fill="black" transform="rotate(60.0 54.926581313457916 -133.52876321184036)"/><rect x="6.3528" y="-122.6370" width="8" height="8" fill="black" transform="rotate(-35.0 10.352761804100835 -118.63703305156275)"/><rect x="25.7497" y="-143.3777" width="8" height="8" fill="black" transform="rotate(20.0 29.749688011959922 -139.3777425605082)"/><rect x="16.3528" y="-139.9575" width="8" height="8" fill="black" transform="rotate(-20.0 20.352761804100837 -135.95754112725152)"/><rect x="23.4238" y="-147.0286" width="8" height="8" fill="black" transform="rotate(-5.0 27.423829615966312 -143.028608939117)"/><rect x="40.7555" y="-182.2905" width="8" height="8" fill="black" transform="rotate(-30.0 44.755501727601846 -178.2904553745597)"/><rect x="40.4568" y="-154.9712" width="8" height="8" fill="black" transform="rotate(35.0 44.45684440874924 -150.97123417845904)"/><rect x="38.6532" y="-224.1208" width="8" height="8" fill="black" transform="rotate(-5.0 42.6531741808258 -220.12079890031046)"/><rect x="31.5821" y="-217.0497" width="8" height="8" fill="black" transform="rotate(-45.0 35.582106368960325 -213.049731088445)"/><rect x="35.0023" y="-226.4467" width="8" height="8" fill="black" transform="rotate(-30.0 39.00230780221701 -222.44665729630407)"/><rect x="35.8078" y="-265.7294" width="8" height="8" fill="black" transform="rotate(-55.0 39.80783695304395 -261.7294244469155)"/><rect x="47.0828" y="-240.8436" width="8" height="8" fill="black" transform="rotate(10.0 51.082763273318086 -236.84358350416315)"/><rect x="54.5435" y="-160.6983" width="8" height="8" fill="black" transform="rotate(60.0 58.54354042767808 -156.698250636197)"/><rect x="45.1466" y="-164.1185" width="8" height="8" fill="black" transform="rotate(20.0 49.146614219819 -160.1184520694537)"/><rect x="55.1086" y="-164.9900" width="8" height="8" fill="black" transform="rotate(35.0 59.10856120073645 -160.99000949693027)"/><rect x="91.0513" y="-180.8616" width="8" height="8" fill="black" transform="rotate(10.0 95.05127029518705 -176.86156692440684)"/><rect x="73.2620" y="-160.1258" width="8" height="8" fill="black" transform="rotate(75.0 77.26202862454383 -156.12580256089637)"/><rect x="15.2647" y="-300.1917" width="8" height="8" fill="black" transform="rotate(20.0 19.264668496029117 -296.1917059735359)"/><rect x="5.8677" y="-296.7715" width="8" height="8" fill="black" transform="rotate(-20.0 9.867742288170032 -292.7715045402792)"/><rect x="12.9388" y="-303.8426" width="8" height="8" fill="black" transform="rotate(-5.0 16.938810100035507 -299.84257235214466)"/><rect x="30.2705" y="-339.1044" width="8" height="8" fill="black" transform="rotate(-30.0 34.27048221167105 -335.10441878758746)"/><rect x="29.9718" y="-311.7852" width="8" height="8" fill="black" transform="rotate(35.0 33.97182489281844 -307.78519759148674)"/><rect x="-4.1323" y="-279.4510" width="8" height="8" fill="black" transform="rotate(-60.0 -0.1322577118299697 -275.45099646459045)"/><rect x="4.6819" y="-306.4460" width="8" height="8" fill="black" transform="rotate(-5.0 8.681924954988668 -302.4459582382908)"/><rect x="-2.3891" y="-299.3749" width="8" height="8" fill="black" transform="rotate(-45.0 1.610857143123193 -295.37489042642534)"/><rect x="1.0311" y="-308.7718" width="8" height="8" fill="black" transform="rotate(-30.0 5.031058576379881 -304.77181663428445)"/><rect x="1.8366" y="-348.0546" width="8" height="8" fill="black" transform="rotate(-55.0 5.836587727206823 -344.0545837848959)"/><rect x="13.1115" y="-323.1687" width="8" height="8" fill="black" transform="rotate(10.0 17.11151404748096 -319.16874284214356)"/><rect x="-17.7470" y="-385.0773" width="8" height="8" fill="black" transform="rotate(-30.0 -13.747035168207075 -381.077267843274)"/><rect x="-21.1672" y="-375.6803" width="8" height="8" fill="black" transform="rotate(-70.0 -17.167236601463763 -371.6803416354149)"/><rect x="-22.0388" y="-385.6423" width="8" height="8" fill="black" transform="rotate(-55.0 -18.038794028940345 -381.64228861633234)"/><rect x="-37.9104" y="-421.5850" width="8" height="8" fill="black" transform="rotate(-80.0 -33.910351456416926 -417.5849977107829)"/><rect x="-17.1746" y="-403.7958" width="8" height="8" fill="black" transform="rotate(-15.0 -13.174587092906464 -399.7957560401397)"/><rect x="23.4581" y="-334.3125" width="8" height="8" fill="black" transform="rotate(35.0 27.458054602724758 -330.3124774394678)"/><rect x="13.4961" y="-333.4409" width="8" height="8" fill="black" transform="rotate(-5.0 17.496107621807305 -329.4409200119912)"/><rect x="22.1564" y="-338.4409" width="8" height="8" fill="black" transform="rotate(10.0 26.156361659651694 -334.4409200119912)"/><rect x="48.0239" y="-368.0155" width="8" height="8" fill="black" transform="rotate(-15.0 52.02390878802747 -364.01548134066087)"/><rect x="40.6647" y="-341.7044" width="8" height="8" fill="black" transform="rotate(50.0 44.66469322761816 -337.7044382353219)"/><rect x="76.4666" y="-175.4029" width="8" height="8" fill="black" transform="rotate(85.0 80.46656715346172 -171.40294089034876)"/><rect x="69.3955" y="-182.4740" width="8" height="8" fill="black" transform="rotate(45.0 73.39549934159625 -178.47400870221423)"/><rect x="78.7924" y="-179.0538" width="8" height="8" fill="black" transform="rotate(60.0 82.79242554945533 -175.05380726895754)"/><rect x="118.0752" y="-178.2483" width="8" height="8" fill="black" transform="rotate(35.0 122.0751927000668 -174.24827811813057)"/><rect x="93.1894" y="-166.9734" width="8" height="8" fill="black" transform="rotate(100.0 97.18935175731441 -162.97335179785645)"/><rect x="49.4716" y="-184.2171" width="8" height="8" fill="black" transform="rotate(5.0 53.471605379761336 -180.21712355716738)"/><rect x="77.6624" y="-187.6373" width="8" height="8" fill="black" transform="rotate(60.0 81.66238400333859 -183.63732499042408)"/><rect x="68.2655" y="-191.0575" width="8" height="8" fill="black" transform="rotate(20.0 72.2654577954795 -187.05752642368077)"/><rect x="78.2274" y="-191.9291" width="8" height="8" fill="black" transform="rotate(35.0 82.22740477639697 -187.92908385115734)"/><rect x="114.1701" y="-207.8006" width="8" height="8" fill="black" transform="rotate(10.0 118.17011387084757 -203.80064127863392)"/><rect x="96.3809" y="-187.0649" width="8" height="8" fill="black" transform="rotate(75.0 100.38087220020435 -183.06487691512345)"/><rect x="139.4477" y="-241.1959" width="8" height="8" fill="black" transform="rotate(35.0 143.44766406330797 -237.19589358886358)"/><rect x="129.4857" y="-240.3243" width="8" height="8" fill="black" transform="rotate(-5.0 133.48571708239052 -236.324336161387)"/><rect x="138.1460" y="-245.3243" width="8" height="8" fill="black" transform="rotate(10.0 142.14597112023492 -241.324336161387)"/><rect x="164.0135" y="-274.8989" width="8" height="8" fill="black" transform="rotate(-15.0 168.01351824861072 -270.89889749005675)"/><rect x="156.6543" y="-248.5879" width="8" height="8" fill="black" transform="rotate(50.0 160.6543026882014 -244.5878543847177)"/><rect x="110.8532" y="-182.3973" width="8" height="8" fill="black" transform="rotate(100.0 114.85316262691583 -178.39727238583637)"/><rect x="105.8532" y="-191.0575" width="8" height="8" fill="black" transform="rotate(60.0 109.85316262691583 -187.05752642368077)"/><rect x="114.0447" y="-185.3218" width="8" height="8" fill="black" transform="rotate(75.0 118.04468306980576 -181.3217620601703)"/><rect x="151.7804" y="-174.3766" width="8" height="8" fill="black" transform="rotate(50.0 155.78043610306193 -170.3765523666519)"/><rect x="124.8244" y="-169.9267" width="8" height="8" fill="black" transform="rotate(115.0 128.8243939637209 -165.92673943376914)"/></svg>