<svg viewBox="-21.0 -882.0 252.0 984.0" xmlns="http://www.w3.org/2000/svg"><path d="M 20.0 -30.0 L 20.0 -20.0 M 30.0 -120.0 L 30.0 -110.0 M 40.0 -210.0 L 40.0 -200.0 M 60.0 -250.0 L 50.0 -250.0 M 150.0 -240.0 L 140.0 -240.0 M 190.0 -220.0 L 190.0 -230.0 M 180.0 -130.0 L 180.0 -140.0 M 170.0 -40.0 L 170.0 -50.0 M 60.0 -250.0 L 50.0 -250.0 M 140.0 -290.0 L 140.0 -280.0 M 150.0 -380.0 L 150.0 -370.0 M 160.0 -470.0 L 160.0 -460.0 M 170.0 -560.0 L 170.0 -550.0 M 180.0 -650.0 L 180.0 -640.0 M 190.0 -740.0 L 190.0 -730.0 " fill="none" stroke="brown" stroke-width="1" stroke-linecap="round"/><path d="M 10.000000000000002 -30.0 L 20.0 -30.0 M 20.0 -120.0 L 30.0 -120.0 M 30.0 -210.0 L 40.0 -210.0 M 60.0 -260.0 L 60.0 -250.0 M 150.0 -250.0 L 150.0 -240.0 M 200.0 -220.0 L 190.0 -220.0 M 190.0 -130.0 L 180.0 -130.0 M 180.0 -40.0 L 170.0 -40.0 M 60.0 -260.0 L 60.0 -250.0 M 130.0 -290.0 L 140.0 -290.0 M 140.0 -380.0 L 150.0 -380.0 M 150.0 -470.0 L 160.0 -470.0 M 160.0 -560.0 L 170.0 -560.0 M 170.0 -650.0 L 180.0 -650.0 M 180.0 -740.0 L 190.0 -740.0 " fill="none" stroke="purple" stroke-width="1" stroke-linecap="round"/><path d="M 20.0 -10.0 L 20.0 0.0 M 30.0 -100.0 L 30.0 -90.0 M 40.0 -190.0 L 40.0 -180.0 M 40.0 -250.0 L 30.0 -250.0 M 130.0 -240.0 L 120.0 -240.0 M 190.0 -240.0 L 190.0 -250.0 M 180.0 -150.0 L 180.0 -160.0 M 170.0 -60.0 L 170.0 -70.0 M 40.0 -250.0 L 30.0 -250.0 M 140.0 -270.0 L 140.0 -260.0 M 150.0 -360.0 L 150.0 -350.0 M 160.0 -450.0 L 160.0 -440.0 M 170.0 -540.0 L 170.0 -530.0 M 180.0 -630.0 L 180.0 -620.0 M 190.0 -720.0 L 190.0 -710.0 " fill="none" stroke="magenta" stroke-width="1" stroke-linecap="round"/><path d="M 10.000000000000002 -80.0 L 10.000000000000002 -90.0 M 20.0 -170.0 L 20.0 -180.0 M 30.0 -260.0 L 30.0 -270.0 M 110.0 -260.0 L 120.0 -260.0 M 200.0 -250.0 L 210.0 -250.0 M 200.0 -170.0 L 200.0 -160.0 M 190.0 -80.0 L 190.0 -70.0 M 180.0 10.0 L 180.0 20.0 M 110.0 -260.0 L 120.0 -260.0 M 130.0 -340.0 L 130.0 -350.0 M 140.0 -430.0 L 140.0 -440.0 M 150.0 -520.0 L 150.0 -530.0 M 160.0 -610.0 L 160.0 -620.0 M 170.0 -700.0 L 170.0 -710.0 M 180.0 -790.0 L 180.0 -800.0 " fill="none" stroke="orange" stroke-width="1" stroke-linecap="round"/><path d="M 10.000000000000002 -40.0 L 10.000000000000002 -50.0 M 20.0 -130.0 L 20.0 -140.0 M 30.0 -220.0 L 30.0 -230.0 M 70.0 -260.0 L 80.0 -260.0 M 160.0 -250.0 L 170.0 -250.0 M 200.0 -210.0 L 200.0 -200.0 M 190.0 -120.0 L 190.0 -110.0 M 180.0 -30.0 L 180.0 -20.0 M 70.0 -260.0 L 80.0 -260.0 M 130.0 -300.0 L 130.0 -310.0 M 140.0 -390.0 L 140.0 -400.0 M 150.0 -480.0 L 150.0 -490.0 M 160.0 -570.0 L 160.0 -580.0 M 170.0 -660.0 L 170.0 -670.0 M 180.0 -750.0 L 180.0 -760.0 " fill="none" stroke="lime" stroke-width="1" stroke-linecap="round"/><path d="M 6.123233995736766E-16 -10.0 L 1.2246467991473533E-15 -20.0 M 10.000000000000002 -100.0 L 10.000000000000002 -110.0 M 20.0 -190.0 L 20.0 -200.0 M 40.0 -270.0 L 50.0 -270.0 M 130.0 -260.0 L 140.0 -260.0 M 210.0 -240.0 L 210.0 -230.0 M 200.0 -150.0 L 200.0 -140.0 M 190.0 -60.0 L 190.0 -50.0 M 40.0 -270.0 L 50.0 -270.0 M 120.0 -270.0 L 120.0 -280.0 M 130.0 -360.0 L 130.0 -370.0 M 140.0 -450.0 L 140.0 -460.0 M 150.0 -540.0 L 150.0 -550.0 M 160.0 -630.0 L 160.0 -640.0 M 170.0 -720.0 L 170.0 -730.0 " fill="none" stroke="red" stroke-width="1" stroke-linecap="round"/><path d="M 10.000000000000002 -30.0 L 10.000000000000002 -40.0 M 20.0 -120.0 L 20.0 -130.0 M 30.0 -210.0 L 30.0 -220.0 M 60.0 -260.0 L 70.0 -260.0 M 150.0 -250.0 L 160.0 -250.0 M 200.0 -220.0 L 200.0 -210.0 M 190.0 -130.0 L 190.0 -120.0 M 180.0 -40.0 L 180.0 -30.0 M 60.0 -260.0 L 70.0 -260.0 M 130.0 -290.0 L 130.0 -300.0 M 140.0 -380.0 L 140.0 -390.0 M 150.0 -470.0 L 150.0 -480.0 M 160.0 -560.0 L 160.0 -570.0 M 170.0 -650.0 L 170.0 -660.0 M 180.0 -740.0 L 180.0 -750.0 " fill="none" stroke="gray" stroke-width="1" stroke-linecap="round"/><path d="M 10.000000000000002 -70.0 L 10.000000000000002 -80.0 M 20.0 -160.0 L 20.0 -170.0 M 30.0 -250.0 L 30.0 -260.0 M 100.0 -260.0 L 110.0 -260.0 M 190.0 -250.0 L 200.0 -250.0 M 200.0 -180.0 L 200.0 -170.0 M 190.0 -90.0 L 190.0 -80.0 M 180.0 0.0 L 180.0 10.0 M 100.0 -260.0 L 110.0 -260.0 M 130.0 -330.0 L 130.0 -340.0 M 140.0 -420.0 L 140.0 -430.0 M 150.0 -510.0 L 150.0 -520.0 M 160.0 -600.0 L 160.0 -610.0 M 170.0 -690.0 L 170.0 -700.0 M 180.0 -780.0 L 180.0 -790.0 " fill="none" stroke="pink" stroke-width="1" stroke-linecap="round"/><path d="M 10.000000000000002 -50.0 L 10.000000000000002 -60.0 M 20.0 -140.0 L 20.0 -150.0 M 30.0 -230.0 L 30.0 -240.0 M 80.0 -260.0 L 90.0 -260.0 M 170.0 -250.0 L 180.0 -250.0 M 200.0 -200.0 L 200.0 -190.0 M 190.0 -110.0 L 190.0 -100.0 M 180.0 -20.0 L 180.0 -10.0 M 80.0 -260.0 L 90.0 -260.0 M 130.0 -310.0 L 130.0 -320.0 M 140.0 -400.0 L 140.0 -410.0 M 150.0 -490.0 L 150.0 -500.0 M 160.0 -580.0 L 160.0 -590.0 M 170.0 -670.0 L 170.0 -680.0 M 180.0 -760.0 L 180.0 -770.0 " fill="none" stroke="navy" stroke-width="1" stroke-linecap="round"/><path d="M 1.2246467991473533E-15 -20.0 L 1.83697019872103E-15 -30.0 M 1.83697019872103E-15 -30.0 L 10.000000000000002 -30.0 M 10.000000000000002 -110.0 L 10.000000000000002 -120.0 M 10.000000000000002 -120.0 L 20.0 -120.0 M 20.0 -200.0 L 20.0 -210.0 M 20.0 -210.0 L 30.0 -210.0 M 50.0 -270.0 L 60.0 -270.0 M 60.0 -270.0 L 60.0 -260.0 M 140.0 -260.0 L 150.0 -260.0 M 150.0 -260.0 L 150.0 -250.0 M 210.0 -230.0 L 210.0 -220.0 M 210.0 -220.0 L 200.0 -220.0 M 200.0 -140.0 L 200.0 -130.0 M 200.0 -130.0 L 190.0 -130.0 M 190.0 -50.0 L 190.0 -40.0 M 190.0 -40.0 L 180.0 -40.0 M 50.0 -270.0 L 60.0 -270.0 M 60.0 -270.0 L 60.0 -260.0 M 120.0 -280.0 L 120.0 -290.0 M 120.0 -290.0 L 130.0 -290.0 M 130.0 -370.0 L 130.0 -380.0 M 130.0 -380.0 L 140.0 -380.0 M 140.0 -460.0 L 140.0 -470.0 M 140.0 -470.0 L 150.0 -470.0 M 150.0 -550.0 L 150.0 -560.0 M 150.0 -560.0 L 160.0 -560.0 M 160.0 -640.0 L 160.0 -650.0 M 160.0 -650.0 L 170.0 -650.0 M 170.0 -730.0 L 170.0 -740.0 M 170.0 -740.0 L 180.0 -740.0 " fill="none" stroke="green" stroke-width="1" stroke-linecap="round"/><path d="M 0.0 0.0 L 6.123233995736766E-16 -10.0 M 10.000000000000002 -90.0 L 10.000000000000002 -100.0 M 20.0 -180.0 L 20.0 -190.0 M 30.0 -270.0 L 40.0 -270.0 M 120.0 -260.0 L 130.0 -260.0 M 210.0 -250.0 L 210.0 -240.0 M 200.0 -160.0 L 200.0 -150.0 M 190.0 -70.0 L 190.0 -60.0 M 30.0 -270.0 L 40.0 -270.0 M 120.0 -260.0 L 120.0 -270.0 M 130.0 -350.0 L 130.0 -360.0 M 140.0 -440.0 L 140.0 -450.0 M 150.0 -530.0 L 150.0 -540.0 M 160.0 -620.0 L 160.0 -630.0 M 170.0 -710.0 L 170.0 -720.0 " fill="none" stroke="blue" stroke-width="1" stroke-linecap="round"/><path d="M 20.0 -20.0 L 20.0 -10.0 M 30.0 -110.0 L 30.0 -100.0 M 40.0 -200.0 L 40.0 -190.0 M 50.0 -250.0 L 40.0 -250.0 M 140.0 -240.0 L 130.0 -240.0 M 190.0 -230.0 L 190.0 -240.0 M 180.0 -140.0 L 180.0 -150.0 M 170.0 -50.0 L 170.0 -60.0 M 50.0 -250.0 L 40.0 -250.0 M 140.0 -280.0 L 140.0 -270.0 M 150.0 -370.0 L 150.0 -360.0 M 160.0 -460.0 L 160.0 -450.0 M 170.0 -550.0 L 170.0 -540.0 M 180.0 -640.0 L 180.0 -630.0 M 190.0 -730.0 L 190.0 -720.0 " fill="none" stroke="cyan" stroke-width="1" stroke-linecap="round"/><path d="M 10.000000000000002 -60.0 L 10.000000000000002 -70.0 M 20.0 -150.0 L 20.0 -160.0 M 30.0 -240.0 L 30.0 -250.0 M 90.0 -260.0 L 100.0 -260.0 M 180.0 -250.0 L 190.0 -250.0 M 200.0 -190.0 L 200.0 -180.0 M 190.0 -100.0 L 190.0 -90.0 M 180.0 -10.0 L 180.0 0.0 M 90.0 -260.0 L 100.0 -260.0 M 130.0 -320.0 L 130.0 -330.0 M 140.0 -410.0 L 140.0 -420.0 M 150.0 -500.0 L 150.0 -510.0 M 160.0 -590.0 L 160.0 -600.0 M 170.0 -680.0 L 170.0 -690.0 M 180.0 -770.0 L 180.0 -780.0 " fill="none" stroke="olive" stroke-width="1" stroke-linecap="round"/><path d="M 1.83697019872103E-15 -30.0 L 10.000000000000002 -30.0 M 10.000000000000002 -120.0 L 20.0 -120.0 M 20.0 -210.0 L 30.0 -210.0 M 60.0 -270.0 L 60.0 -260.0 M 150.0 -260.0 L 150.0 -250.0 M 210.0 -220.0 L 200.0 -220.0 M 200.0 -130.0 L 190.0 -130.0 M 190.0 -40.0 L 180.0 -40.0 M 60.0 -270.0 L 60.0 -260.0 M 120.0 -290.0 L 130.0 -290.0 M 130.0 -380.0 L 140.0 -380.0 M 140.0 -470.0 L 150.0 -470.0 M 150.0 -560.0 L 160.0 -560.0 M 160.0 -650.0 L 170.0 -650.0 M 170.0 -740.0 L 180.0 -740.0 " fill="none" stroke="yellow" stroke-width="1" stroke-linecap="round"/></svg>