<svg viewBox="-8.0 -176.0 96.0 192.0" xmlns="http://www.w3.org/2000/svg"><path d="M 0.0 0.0 L 6.123233995736766E-16 -10.0 M 6.123233995736766E-16 -10.0 L 1.2246467991473533E-15 -20.0 M 1.2246467991473533E-15 -20.0 L 1.83697019872103E-15 -30.0 M 1.83697019872103E-15 -30.0 L 2.4492935982947065E-15 -40.0 M 2.4492935982947065E-15 -40.0 L 3.061616997868383E-15 -50.0 M 3.061616997868383E-15 -50.0 L 3.67394039744206E-15 -60.0 M 3.67394039744206E-15 -60.0 L 4.2862637970157365E-15 -70.0 M 4.2862637970157365E-15 -70.0 L 4.898587196589413E-15 -80.0 " fill="none" stroke="blue" stroke-width="1" stroke-linecap="round"/>
<path d="M 4.898587196589413E-15 -80.0 L 10.000000000000005 -80.0 M 10.000000000000005 -80.0 L 20.000000000000007 -80.0 M 20.000000000000007 -80.0 L 30.000000000000007 -80.0 M 30.000000000000007 -80.0 L 40.00000000000001 -80.0 M 40.00000000000001 -80.0 L 50.00000000000001 -80.0 M 50.00000000000001 -80.0 L 60.00000000000001 -80.0 M 60.00000000000001 -80.0 L 70.0 -80.0 M 70.0 -80.0 L 80.0 -80.0 " fill="none" stroke="red" stroke-width="2" stroke-linecap="round"/>
<path d="M 80.0 -80.0 L 80.0 -90.0 M 80.0 -90.0 L 80.0 -100.0 M 80.0 -100.0 L 80.0 -110.0 M 80.0 -110.0 L 80.0 -120.0 M 80.0 -120.0 L 80.0 -130.0 M 80.0 -130.0 L 80.0 -140.0 M 80.0 -140.0 L 80.0 -150.0 M 80.0 -150.0 L 80.0 -160.0 " fill="none" stroke="red" stroke-width="3" stroke-linecap="round"/>
</svg>