<svg viewBox="-51.48015670294305 -159.9607960911064 115.14334929653802 174.50268664484335" xmlns="http://www.w3.org/2000/svg"><path d="M 0.0 0.0 L 6.123233995736766E-16 -10.0 M 6.123233995736766E-16 -10.0 L 1.2246467991473533E-15 -20.0 M 1.2246467991473533E-15 -20.0 L 1.83697019872103E-15 -30.0 M 1.83697019872103E-15 -30.0 L 2.4492935982947065E-15 -40.0 M 2.4492935982947065E-15 -40.0 L 3.061616997868383E-15 -50.0 M 3.061616997868383E-15 -50.0 L 3.67394039744206E-15 -60.0 M 3.67394039744206E-15 -60.0 L 4.2862637970157365E-15 -70.0 M 4.2862637970157365E-15 -70.0 L 4.898587196589413E-15 -80.0 M 4.898587196589413E-15 -80.0 L 6.427876096865399 -87.66044443118977 M 6.427876096865399 -87.66044443118977 L 12.855752193730792 -95.32088886237955 M 12.855752193730792 -95.32088886237955 L 19.283628290596184 -102.98133329356932 M 19.283628290596184 -102.98133329356932 L 25.711504387461577 -110.6417777247591 M 25.711504387461577 -110.6417777247591 L 35.55958191758366 -112.3782595014284 M 35.55958191758366 -112.3782595014284 L 45.40765944770574 -114.11474127809771 M 45.40765944770574 -114.11474127809771 L 54.06791348555013 -109.11474127809771 M 45.40765944770574 -114.11474127809771 L 53.59917989059566 -119.85050564160817 M 25.711504387461577 -110.6417777247591 L 28.299694838486786 -120.30103598764978 M 28.299694838486786 -120.30103598764978 L 30.887885289511992 -129.96029425054047 M 30.887885289511992 -129.96029425054047 L 39.07940573240191 -135.69605861405094 M 30.887885289511992 -129.96029425054047 L 29.151403512842688 -139.80837178066255 M 4.898587196589413E-15 -80.0 L -4.226182617406988 -89.0630778703665 M -4.226182617406988 -89.0630778703665 L -8.452365234813982 -98.126155740733 M -8.452365234813982 -98.126155740733 L -12.678547852220976 -107.1892336110995 M -12.678547852220976 -107.1892336110995 L -16.90473046962797 -116.252311481466 M -16.90473046962797 -116.252311481466 L -14.316540018602764 -125.91156974435668 M -14.316540018602764 -125.91156974435668 L -11.728349567577556 -135.57082800724737 M -11.728349567577556 -135.57082800724737 L -3.536829124687639 -141.30659237075784 M -11.728349567577556 -135.57082800724737 L -13.464831344246859 -145.41890553736945 M -16.90473046962797 -116.252311481466 L -24.565174900817752 -122.68018757833138 M -24.565174900817752 -122.68018757833138 L -32.22561933200753 -129.10806367519677 M -32.22561933200753 -129.10806367519677 L -33.96210110867683 -138.95614120531886 M -32.22561933200753 -129.10806367519677 L -41.884877594898214 -131.696254126222 " fill="none" stroke="blue" stroke-width="1" stroke-linecap="round"/>
<circle cx="54.0679" cy="-109.1147" r="4" fill="blue"/><rect x="50.0679" y="-113.1147" width="8" height="8" fill="blue" transform="rotate(70.0 54.06791348555013 -109.11474127809771)"/><circle cx="54.0679" cy="-109.1147" r="4" fill="blue"/><rect x="50.0679" y="-113.1147" width="8" height="8" fill="blue" transform="rotate(5.0 54.06791348555013 -109.11474127809771)"/><circle cx="53.5992" cy="-119.8505" r="4" fill="blue"/><rect x="49.5992" y="-123.8505" width="8" height="8" fill="blue" transform="rotate(5.0 53.59917989059566 -119.85050564160817)"/><circle cx="53.5992" cy="-119.8505" r="4" fill="blue"/><rect x="49.5992" y="-123.8505" width="8" height="8" fill="blue" transform="rotate(-60.0 53.59917989059566 -119.85050564160817)"/><circle cx="39.0794" cy="-135.6961" r="4" fill="blue"/><rect x="35.0794" y="-139.6961" width="8" height="8" fill="blue" transform="rotate(5.0 39.07940573240191 -135.69605861405094)"/><circle cx="39.0794" cy="-135.6961" r="4" fill="blue"/><rect x="35.0794" y="-139.6961" width="8" height="8" fill="blue" transform="rotate(-60.0 39.07940573240191 -135.69605861405094)"/><circle cx="29.1514" cy="-139.8084" r="4" fill="blue"/><rect x="25.1514" y="-143.8084" width="8" height="8" fill="blue" transform="rotate(-60.0 29.151403512842688 -139.80837178066255)"/><circle cx="29.1514" cy="-139.8084" r="4" fill="blue"/><rect x="25.1514" y="-143.8084" width="8" height="8" fill="blue" transform="rotate(-125.0 29.151403512842688 -139.80837178066255)"/><circle cx="-3.5368" cy="-141.3066" r="4" fill="blue"/><rect x="-7.5368" y="-145.3066" width="8" height="8" fill="blue" transform="rotate(5.0 -3.536829124687639 -141.30659237075784)"/><circle cx="-3.5368" cy="-141.3066" r="4" fill="blue"/><rect x="-7.5368" y="-145.3066" width="8" height="8" fill="blue" transform="rotate(-60.0 -3.536829124687639 -141.30659237075784)"/><circle cx="-13.4648" cy="-145.4189" r="4" fill="blue"/><rect x="-17.4648" y="-149.4189" width="8" height="8" fill="blue" transform="rotate(-60.0 -13.464831344246859 -145.41890553736945)"/><circle cx="-13.4648" cy="-145.4189" r="4" fill="blue"/><rect x="-17.4648" y="-149.4189" width="8" height="8" fill="blue" transform="rotate(-125.0 -13.464831344246859 -145.41890553736945)"/><circle cx="-33.9621" cy="-138.9561" r="4" fill="blue"/><rect x="-37.9621" y="-142.9561" width="8" height="8" fill="blue" transform="rotate(-60.0 -33.96210110867683 -138.95614120531886)"/><circle cx="-33.9621" cy="-138.9561" r="4" fill="blue"/><rect x="-37.9621" y="-142.9561" width="8" height="8" fill="blue" transform="rotate(-125.0 -33.96210110867683 -138.95614120531886)"/><circle cx="-41.8849" cy="-131.6963" r="4" fill="blue"/><rect x="-45.8849" y="-135.6963" width="8" height="8" fill="blue" transform="rotate(-125.0 -41.884877594898214 -131.696254126222)"/></svg>