<svg viewBox="-8.0 -176.0 96.0 192.0" xmlns="http://www.w3.org/2000/svg"><path d="M 0.0000 0.0000 L 0.0000 -10.0000 M 0.0000 -10.0000 L 0.0000 -20.0000 M 0.0000 -20.0000 L 0.0000 -30.0000 M 0.0000 -30.0000 L 0.0000 -40.0000 M 0.0000 -40.0000 L 0.0000 -50.0000 M 0.0000 -50.0000 L 0.0000 -60.0000 M 0.0000 -60.0000 L 0.0000 -70.0000 M 0.0000 -70.0000 L 0.0000 -80.0000 M 0.0000 -80.0000 L 10.0000 -80.0000 M 10.0000 -80.0000 L 20.0000 -80.0000 M 20.0000 -80.0000 L 30.0000 -80.0000 M 30.0000 -80.0000 L 40.0000 -80.0000 M 40.0000 -80.0000 L 50.0000 -80.0000 M 50.0000 -80.0000 L 60.0000 -80.0000 M 60.0000 -80.0000 L 70.0000 -80.0000 M 70.0000 -80.0000 L 80.0000 -80.0000 M 80.0000 -80.0000 L 80.0000 -90.0000 M 80.0000 -90.0000 L 80.0000 -100.0000 M 80.0000 -100.0000 L 80.0000 -110.0000 M 80.0000 -110.0000 L 80.0000 -120.0000 M 80.0000 -120.0000 L 80.0000 -130.0000 M 80.0000 -130.0000 L 80.0000 -140.0000 M 80.0000 -140.0000 L 80.0000 -150.0000 M 80.0000 -150.0000 L 80.0000 -160.0000 " stroke-width="1" stroke="black" fill="none"/><circle cx="0.0000" cy="-80.0000" r="4" fill="black"/><rect x="76.0000" y="-84.0000" width="8" height="8" fill="black" transform="rotate(-90.0 80.0 -80.0)"/></svg>