<?xml version="1.0" encoding="UTF-8"?>
<svg xmlns="http://www.w3.org/2000/svg"
     width="79.15861926850276" height="58.50703220443232"
     viewBox="0.0 -38.266285132256414 79.15861926850276 58.50703220443232">
<path d="M 0.0 0.0 L 1.0 0.0 L 2.0 0.0 L 3.0 0.0 L 4.0 0.0 L 5.0 0.0 L 6.0 0.0 L 7.0 0.0 L 8.0 0.0 L 9.0 0.0 L 10.0 0.0 L 11.0 0.0 L 12.0 0.0 L 13.0 0.0 L 14.0 0.0 L 15.0 0.0 L 16.0 0.0 L 16.90630778703665 0.42261826174069944 L 17.8126155740733 0.8452365234813989 L 18.718923361109947 1.2678547852220983 L 19.625231148146597 1.6904730469627978 L 20.531538935183246 2.1130913087034973 L 21.437846722219895 2.5357095704441965 L 22.344154509256544 2.958327832184896 L 23.250462296293193 3.380946093925595 L 23.893249905979733 4.146990537044573 L 24.536037515666273 4.913034980163551 L 25.178825125352812 5.679079423282529 L 25.821612735039352 6.445123866401507 L 26.080431780141872 7.411049692690575 L 26.33925082524439 8.376975518979643 L 26.16560264757746 9.36178327199185 L 25.99195446991053 10.346591025004058 L 26.33925082524439 8.376975518979643 L 26.59806987034691 9.34290134526871 L 26.85688891544943 10.308827171557779 L 26.33925082524439 8.376975518979643 L 26.59806987034691 9.34290134526871 L 26.85688891544943 10.308827171557779 L 27.49967652513597 11.074871614676757 L 28.14246413482251 11.840916057795736 L 28.78525174450905 12.606960500914715 L 29.42803935419559 13.373004944033694 L 26.85688891544943 10.308827171557779 L 26.6832407377825 11.293634924569986 L 26.50959256011557 12.278442677582193 L 25.821612735039352 6.445123866401507 L 26.46440034472589 7.211168309520485 L 27.10718795441243 7.9772127526394625 L 27.36600699951495 8.943138578928531 L 27.62482604461747 9.909064405217599 L 27.10718795441243 7.9772127526394625 L 27.74997556409897 8.74325719575844 L 28.39276317378551 9.50930163887742 L 27.10718795441243 7.9772127526394625 L 27.74997556409897 8.74325719575844 L 28.39276317378551 9.50930163887742 L 29.29907096082216 9.93191990061812 L 30.20537874785881 10.35453816235882 L 31.11168653489546 10.77715642409952 L 32.01799432193211 11.19977468584022 L 28.39276317378551 9.50930163887742 L 28.65158221888803 10.475227465166487 L 28.91040126399055 11.441153291455555 L 25.821612735039352 6.445123866401507 L 26.46440034472589 7.211168309520485 L 27.10718795441243 7.9772127526394625 L 27.74997556409897 8.74325719575844 L 28.39276317378551 9.50930163887742 L 29.29907096082216 9.93191990061812 L 30.20537874785881 10.35453816235882 L 31.11168653489546 10.77715642409952 L 32.01799432193211 11.19977468584022 L 32.92430210896876 11.62239294758092 L 33.83060989600541 12.04501120932162 L 34.47339750569195 12.811055652440599 L 35.116185115378485 13.577100095559578 L 33.83060989600541 12.04501120932162 L 34.736917683042066 12.46762947106232 L 35.64322547007872 12.89024773280302 L 33.83060989600541 12.04501120932162 L 34.736917683042066 12.46762947106232 L 35.64322547007872 12.89024773280302 L 36.64322547007872 12.89024773280302 L 37.64322547007872 12.89024773280302 L 38.64322547007872 12.89024773280302 L 39.64322547007872 12.89024773280302 L 35.64322547007872 12.89024773280302 L 36.286013079765254 13.656292175922 L 36.92880068945179 14.422336619040978 L 28.39276317378551 9.50930163887742 L 28.65158221888803 10.475227465166487 L 28.91040126399055 11.441153291455555 L 28.73675308632362 12.425961044467762 L 28.56310490865669 13.41076879747997 L 28.91040126399055 11.441153291455555 L 29.16922030909307 12.407079117744622 L 29.42803935419559 13.37300494403369 L 28.91040126399055 11.441153291455555 L 29.16922030909307 12.407079117744622 L 29.42803935419559 13.37300494403369 L 30.07082696388213 14.139049387152669 L 30.71361457356867 14.905093830271648 L 31.35640218325521 15.671138273390627 L 31.99918979294175 16.437182716509604 L 29.42803935419559 13.37300494403369 L 29.25439117652866 14.357812697045897 L 29.08074299886173 15.342620450058105 L 23.250462296293193 3.380946093925595 L 24.156770083329842 3.8035643556662944 L 25.06307787036649 4.226182617406994 L 25.96938565740314 4.648800879147693 L 26.87569344443979 5.071419140888392 L 27.51848105412633 5.83746358400737 L 28.16126866381287 6.603508027126348 L 28.42008770891539 7.569433853415417 L 28.67890675401791 8.535359679704484 L 28.16126866381287 6.603508027126348 L 28.80405627349941 7.369552470245326 L 29.44684388318595 8.135596913364305 L 28.16126866381287 6.603508027126348 L 28.80405627349941 7.369552470245326 L 29.44684388318595 8.135596913364305 L 30.353151670222598 8.558215175105005 L 31.259459457259247 8.980833436845705 L 32.1657672442959 9.403451698586405 L 33.07207503133255 9.826069960327105 L 29.44684388318595 8.135596913364305 L 29.70566292828847 9.101522739653372 L 29.96448197339099 10.06744856594244 L 26.87569344443979 5.071419140888392 L 27.78200123147644 5.4940374026290915 L 28.68830901851309 5.916655664369791 L 29.331096628199628 6.682700107488769 L 29.973884237886168 7.4487445506077465 L 28.68830901851309 5.916655664369791 L 29.594616805549737 6.33927392611049 L 30.500924592586387 6.761892187851189 L 28.68830901851309 5.916655664369791 L 29.594616805549737 6.33927392611049 L 30.500924592586387 6.761892187851189 L 31.500924592586387 6.761892187851189 L 32.50092459258639 6.761892187851189 L 33.50092459258639 6.761892187851189 L 34.50092459258639 6.761892187851189 L 30.500924592586387 6.761892187851189 L 31.143712202272926 7.527936630970167 L 31.786499811959466 8.293981074089146 L 26.87569344443979 5.071419140888392 L 27.78200123147644 5.4940374026290915 L 28.68830901851309 5.916655664369791 L 29.594616805549737 6.33927392611049 L 30.500924592586387 6.761892187851189 L 31.500924592586387 6.761892187851189 L 32.50092459258639 6.761892187851189 L 33.50092459258639 6.761892187851189 L 34.50092459258639 6.761892187851189 L 35.50092459258639 6.761892187851189 L 36.50092459258639 6.761892187851189 L 37.40723237962304 7.184510449591889 L 38.31354016665969 7.607128711332588 L 36.50092459258639 6.761892187851189 L 37.50092459258639 6.761892187851189 L 38.50092459258639 6.761892187851189 L 36.50092459258639 6.761892187851189 L 37.50092459258639 6.761892187851189 L 38.50092459258639 6.761892187851189 L 39.40723237962304 6.33927392611049 L 40.31354016665969 5.916655664369791 L 41.219847953696345 5.4940374026290915 L 42.126155740733 5.071419140888392 L 38.50092459258639 6.761892187851189 L 39.40723237962304 7.184510449591889 L 40.31354016665969 7.607128711332588 L 30.500924592586387 6.761892187851189 L 31.143712202272926 7.527936630970167 L 31.786499811959466 8.293981074089146 L 32.045318857061986 9.259906900378214 L 32.304137902164506 10.225832726667281 L 31.786499811959466 8.293981074089146 L 32.429287421646 9.060025517208125 L 33.07207503133254 9.826069960327104 L 31.786499811959466 8.293981074089146 L 32.429287421646 9.060025517208125 L 33.07207503133254 9.826069960327104 L 33.97838281836919 10.248688222067804 L 34.884690605405844 10.671306483808504 L 35.790998392442496 11.093924745549204 L 36.69730617947915 11.516543007289904 L 33.07207503133254 9.826069960327104 L 33.33089407643506 10.791995786616171 L 33.58971312153758 11.757921612905239 L 23.250462296293193 3.380946093925595 L 24.156770083329842 3.8035643556662944 L 25.06307787036649 4.226182617406994 L 25.96938565740314 4.648800879147693 L 26.87569344443979 5.071419140888392 L 27.78200123147644 5.4940374026290915 L 28.68830901851309 5.916655664369791 L 29.594616805549737 6.33927392611049 L 30.500924592586387 6.761892187851189 L 31.500924592586387 6.761892187851189 L 32.50092459258639 6.761892187851189 L 33.50092459258639 6.761892187851189 L 34.50092459258639 6.761892187851189 L 35.50092459258639 6.761892187851189 L 36.50092459258639 6.761892187851189 L 37.50092459258639 6.761892187851189 L 38.50092459258639 6.761892187851189 L 39.50092459258639 6.761892187851189 L 40.50092459258639 6.761892187851189 L 41.50092459258639 6.761892187851189 L 42.50092459258639 6.761892187851189 L 43.40723237962304 7.184510449591889 L 44.31354016665969 7.607128711332588 L 44.95632777634623 8.373173154451566 L 45.599115386032764 9.139217597570545 L 44.31354016665969 7.607128711332588 L 45.219847953696345 8.029746973073287 L 46.126155740733 8.452365234813987 L 44.31354016665969 7.607128711332588 L 45.219847953696345 8.029746973073287 L 46.126155740733 8.452365234813987 L 47.126155740733 8.452365234813987 L 48.126155740733 8.452365234813987 L 49.126155740733 8.452365234813987 L 50.126155740733 8.452365234813987 L 46.126155740733 8.452365234813987 L 46.76894335041953 9.218409677932966 L 47.41173096010607 9.984454121051945 L 42.50092459258639 6.761892187851189 L 43.50092459258639 6.761892187851189 L 44.50092459258639 6.761892187851189 L 45.40723237962304 7.184510449591889 L 46.31354016665969 7.607128711332588 L 44.50092459258639 6.761892187851189 L 45.50092459258639 6.761892187851189 L 46.50092459258639 6.761892187851189 L 44.50092459258639 6.761892187851189 L 45.50092459258639 6.761892187851189 L 46.50092459258639 6.761892187851189 L 47.40723237962304 6.33927392611049 L 48.31354016665969 5.916655664369791 L 49.219847953696345 5.4940374026290915 L 50.126155740733 5.071419140888392 L 46.50092459258639 6.761892187851189 L 47.40723237962304 7.184510449591889 L 48.31354016665969 7.607128711332588 L 42.50092459258639 6.761892187851189 L 43.50092459258639 6.761892187851189 L 44.50092459258639 6.761892187851189 L 45.50092459258639 6.761892187851189 L 46.50092459258639 6.761892187851189 L 47.40723237962304 6.33927392611049 L 48.31354016665969 5.916655664369791 L 49.219847953696345 5.4940374026290915 L 50.126155740733 5.071419140888392 L 51.03246352776965 4.648800879147693 L 51.9387713148063 4.226182617406994 L 52.9387713148063 4.226182617406994 L 53.9387713148063 4.226182617406994 L 51.9387713148063 4.226182617406994 L 52.845079101842956 3.8035643556662944 L 53.75138688887961 3.380946093925595 L 51.9387713148063 4.226182617406994 L 52.845079101842956 3.8035643556662944 L 53.75138688887961 3.380946093925595 L 54.394174498566144 2.614901650806617 L 55.03696210825268 1.8488572076876393 L 55.67974971793922 1.0828127645686614 L 56.32253732762575 0.31676832144968337 L 53.75138688887961 3.380946093925595 L 54.75138688887961 3.380946093925595 L 55.75138688887961 3.380946093925595 L 46.50092459258639 6.761892187851189 L 47.40723237962304 7.184510449591889 L 48.31354016665969 7.607128711332588 L 48.95632777634623 8.373173154451566 L 49.599115386032764 9.139217597570545 L 48.31354016665969 7.607128711332588 L 49.219847953696345 8.029746973073287 L 50.126155740733 8.452365234813987 L 48.31354016665969 7.607128711332588 L 49.219847953696345 8.029746973073287 L 50.126155740733 8.452365234813987 L 51.126155740733 8.452365234813987 L 52.126155740733 8.452365234813987 L 53.126155740733 8.452365234813987 L 54.126155740733 8.452365234813987 L 50.126155740733 8.452365234813987 L 50.76894335041953 9.218409677932966 L 51.41173096010607 9.984454121051945 L 30.500924592586387 6.761892187851189 L 31.143712202272926 7.527936630970167 L 31.786499811959466 8.293981074089146 L 32.429287421646 9.060025517208125 L 33.07207503133254 9.826069960327104 L 33.33089407643506 10.791995786616171 L 33.58971312153758 11.757921612905239 L 33.416064943870644 12.742729365917446 L 33.24241676620371 13.727537118929654 L 33.58971312153758 11.757921612905239 L 33.8485321666401 12.723847439194307 L 34.10735121174262 13.689773265483375 L 33.58971312153758 11.757921612905239 L 33.8485321666401 12.723847439194307 L 34.10735121174262 13.689773265483375 L 34.750138821429154 14.455817708602353 L 35.39292643111569 15.221862151721332 L 36.035714040802226 15.987906594840311 L 36.67850165048876 16.75395103795929 L 34.10735121174262 13.689773265483375 L 33.933703034075684 14.674581018495582 L 33.76005485640875 15.659388771507789 L 33.07207503133254 9.826069960327104 L 33.714862641019074 10.592114403446082 L 34.35765025070561 11.358158846565061 L 34.61646929580813 12.324084672854129 L 34.87528834091065 13.290010499143197 L 34.35765025070561 11.358158846565061 L 35.00043786039215 12.12420328968404 L 35.64322547007868 12.890247732803019 L 34.35765025070561 11.358158846565061 L 35.00043786039215 12.12420328968404 L 35.64322547007868 12.890247732803019 L 36.549533257115336 13.312865994543719 L 37.45584104415199 13.735484256284419 L 38.36214883118864 14.15810251802512 L 39.268456618225294 14.58072077976582 L 35.64322547007868 12.890247732803019 L 35.9020445151812 13.856173559092086 L 36.16086356028372 14.822099385381154 L 33.07207503133254 9.826069960327104 L 33.714862641019074 10.592114403446082 L 34.35765025070561 11.358158846565061 L 35.00043786039215 12.12420328968404 L 35.64322547007868 12.890247732803019 L 36.549533257115336 13.312865994543719 L 37.45584104415199 13.735484256284419 L 38.36214883118864 14.15810251802512 L 39.268456618225294 14.58072077976582 L 40.174764405261946 15.00333904150652 L 41.0810721922986 15.42595730324722 L 41.723859801985135 16.1920017463662 L 42.36664741167167 16.958046189485177 L 41.0810721922986 15.42595730324722 L 41.98737997933525 15.84857556498792 L 42.893687766371905 16.27119382672862 L 41.0810721922986 15.42595730324722 L 41.98737997933525 15.84857556498792 L 42.893687766371905 16.27119382672862 L 43.893687766371905 16.27119382672862 L 44.893687766371905 16.27119382672862 L 45.893687766371905 16.27119382672862 L 46.893687766371905 16.27119382672862 L 42.893687766371905 16.27119382672862 L 43.53647537605844 17.0372382698476 L 44.17926298574498 17.803282712966578 L 35.64322547007868 12.890247732803019 L 35.9020445151812 13.856173559092086 L 36.16086356028372 14.822099385381154 L 35.98721538261679 15.806907138393361 L 35.813567204949855 16.79171489140557 L 36.16086356028372 14.822099385381154 L 36.41968260538624 15.788025211670222 L 36.67850165048876 16.75395103795929 L 36.16086356028372 14.822099385381154 L 36.41968260538624 15.788025211670222 L 36.67850165048876 16.75395103795929 L 37.3212892601753 17.51999548107827 L 37.964076869861834 18.286039924197247 L 38.60686447954837 19.052084367316226 L 39.24965208923491 19.818128810435205 L 36.67850165048876 16.75395103795929 L 36.50485347282183 17.7387587909715 L 36.331205295154895 18.723566543983708 L 16.0 0.0 L 17.0 0.0 L 18.0 0.0 L 19.0 0.0 L 20.0 0.0 L 21.0 0.0 L 22.0 0.0 L 23.0 0.0 L 24.0 0.0 L 24.90630778703665 0.42261826174069944 L 25.8126155740733 0.8452365234813989 L 26.718923361109947 1.2678547852220983 L 27.625231148146597 1.6904730469627978 L 28.268018757833136 2.456517490081776 L 28.910806367519676 3.222561933200754 L 29.169625412622196 4.188487759489822 L 29.428444457724716 5.154413585778891 L 28.910806367519676 3.222561933200754 L 29.553593977206216 3.9886063763197317 L 30.196381586892755 4.75465081943871 L 28.910806367519676 3.222561933200754 L 29.553593977206216 3.9886063763197317 L 30.196381586892755 4.75465081943871 L 31.102689373929405 5.177269081179409 L 32.008997160966054 5.599887342920108 L 32.91530494800271 6.022505604660807 L 33.82161273503936 6.445123866401507 L 30.196381586892755 4.75465081943871 L 30.455200631995275 5.720576645727778 L 30.714019677097795 6.686502472016847 L 27.625231148146597 1.6904730469627978 L 28.531538935183246 2.1130913087034973 L 29.437846722219895 2.5357095704441965 L 30.080634331906435 3.3017540135631744 L 30.723421941592974 4.067798456682152 L 29.437846722219895 2.5357095704441965 L 30.344154509256544 2.958327832184896 L 31.250462296293193 3.380946093925595 L 29.437846722219895 2.5357095704441965 L 30.344154509256544 2.958327832184896 L 31.250462296293193 3.380946093925595 L 32.25046229629319 3.380946093925595 L 33.25046229629319 3.380946093925595 L 34.25046229629319 3.380946093925595 L 35.25046229629319 3.380946093925595 L 31.250462296293193 3.380946093925595 L 31.893249905979733 4.146990537044573 L 32.53603751566627 4.913034980163551 L 27.625231148146597 1.6904730469627978 L 28.531538935183246 2.1130913087034973 L 29.437846722219895 2.5357095704441965 L 30.344154509256544 2.958327832184896 L 31.250462296293193 3.380946093925595 L 32.25046229629319 3.380946093925595 L 33.25046229629319 3.380946093925595 L 34.25046229629319 3.380946093925595 L 35.25046229629319 3.380946093925595 L 36.25046229629319 3.380946093925595 L 37.25046229629319 3.380946093925595 L 38.156770083329846 3.8035643556662944 L 39.0630778703665 4.226182617406994 L 37.25046229629319 3.380946093925595 L 38.25046229629319 3.380946093925595 L 39.25046229629319 3.380946093925595 L 37.25046229629319 3.380946093925595 L 38.25046229629319 3.380946093925595 L 39.25046229629319 3.380946093925595 L 40.156770083329846 2.958327832184896 L 41.0630778703665 2.5357095704441965 L 41.96938565740315 2.1130913087034973 L 42.875693444439804 1.6904730469627978 L 39.25046229629319 3.380946093925595 L 40.156770083329846 3.8035643556662944 L 41.0630778703665 4.226182617406994 L 31.250462296293193 3.380946093925595 L 31.893249905979733 4.146990537044573 L 32.53603751566627 4.913034980163551 L 32.79485656076879 5.8789608064526195 L 33.05367560587131 6.844886632741688 L 32.53603751566627 4.913034980163551 L 33.17882512535281 5.679079423282529 L 33.821612735039345 6.445123866401507 L 32.53603751566627 4.913034980163551 L 33.17882512535281 5.679079423282529 L 33.821612735039345 6.445123866401507 L 34.727920522076 6.867742128142206 L 35.63422830911265 7.290360389882905 L 36.5405360961493 7.7129786516236045 L 37.446843883185956 8.135596913364305 L 33.821612735039345 6.445123866401507 L 34.080431780141865 7.411049692690575 L 34.339250825244385 8.376975518979643 L 24.0 0.0 L 25.0 0.0 L 26.0 0.0 L 27.0 0.0 L 28.0 0.0 L 28.90630778703665 0.42261826174069944 L 29.8126155740733 0.8452365234813989 L 30.455403183759838 1.611280966600377 L 31.098190793446378 2.377325409719355 L 29.8126155740733 0.8452365234813989 L 30.718923361109947 1.2678547852220983 L 31.625231148146597 1.6904730469627978 L 29.8126155740733 0.8452365234813989 L 30.718923361109947 1.2678547852220983 L 31.625231148146597 1.6904730469627978 L 32.6252311481466 1.6904730469627978 L 33.6252311481466 1.6904730469627978 L 34.6252311481466 1.6904730469627978 L 35.6252311481466 1.6904730469627978 L 31.625231148146597 1.6904730469627978 L 32.26801875783313 2.456517490081776 L 32.91080636751967 3.222561933200754 L 28.0 0.0 L 29.0 0.0 L 30.0 0.0 L 30.90630778703665 0.42261826174069944 L 31.8126155740733 0.8452365234813989 L 30.0 0.0 L 31.0 0.0 L 32.0 0.0 L 30.0 0.0 L 31.0 0.0 L 32.0 0.0 L 32.90630778703665 -0.42261826174069944 L 33.812615574073305 -0.8452365234813989 L 34.71892336110996 -1.2678547852220983 L 35.62523114814661 -1.6904730469627978 L 32.0 0.0 L 32.90630778703665 0.42261826174069944 L 33.812615574073305 0.8452365234813989 L 28.0 0.0 L 29.0 0.0 L 30.0 0.0 L 31.0 0.0 L 32.0 0.0 L 32.90630778703665 -0.42261826174069944 L 33.812615574073305 -0.8452365234813989 L 34.71892336110996 -1.2678547852220983 L 35.62523114814661 -1.6904730469627978 L 36.531538935183264 -2.1130913087034973 L 37.437846722219916 -2.5357095704441965 L 38.437846722219916 -2.5357095704441965 L 39.437846722219916 -2.5357095704441965 L 37.437846722219916 -2.5357095704441965 L 38.34415450925657 -2.958327832184896 L 39.25046229629322 -3.380946093925595 L 37.437846722219916 -2.5357095704441965 L 38.34415450925657 -2.958327832184896 L 39.25046229629322 -3.380946093925595 L 39.89324990597976 -4.146990537044573 L 40.536037515666294 -4.913034980163551 L 41.17882512535283 -5.679079423282529 L 41.821612735039366 -6.445123866401507 L 39.25046229629322 -3.380946093925595 L 40.25046229629322 -3.380946093925595 L 41.25046229629322 -3.380946093925595 L 32.0 0.0 L 32.90630778703665 0.42261826174069944 L 33.812615574073305 0.8452365234813989 L 34.45540318375984 1.611280966600377 L 35.09819079344638 2.377325409719355 L 33.812615574073305 0.8452365234813989 L 34.71892336110996 1.2678547852220983 L 35.62523114814661 1.6904730469627978 L 33.812615574073305 0.8452365234813989 L 34.71892336110996 1.2678547852220983 L 35.62523114814661 1.6904730469627978 L 36.62523114814661 1.6904730469627978 L 37.62523114814661 1.6904730469627978 L 38.62523114814661 1.6904730469627978 L 39.62523114814661 1.6904730469627978 L 35.62523114814661 1.6904730469627978 L 36.26801875783315 2.456517490081776 L 36.91080636751968 3.222561933200754 L 24.0 0.0 L 25.0 0.0 L 26.0 0.0 L 27.0 0.0 L 28.0 0.0 L 29.0 0.0 L 30.0 0.0 L 31.0 0.0 L 32.0 0.0 L 32.90630778703665 -0.42261826174069944 L 33.812615574073305 -0.8452365234813989 L 34.71892336110996 -1.2678547852220983 L 35.62523114814661 -1.6904730469627978 L 36.531538935183264 -2.1130913087034973 L 37.437846722219916 -2.5357095704441965 L 38.34415450925657 -2.958327832184896 L 39.25046229629322 -3.380946093925595 L 40.156770083329874 -3.8035643556662944 L 41.06307787036653 -4.226182617406994 L 41.96938565740318 -4.648800879147693 L 42.87569344443983 -5.071419140888392 L 43.87569344443983 -5.071419140888392 L 44.87569344443983 -5.071419140888392 L 45.782001231476485 -4.648800879147693 L 46.68830901851314 -4.226182617406994 L 44.87569344443983 -5.071419140888392 L 45.87569344443983 -5.071419140888392 L 46.87569344443983 -5.071419140888392 L 44.87569344443983 -5.071419140888392 L 45.87569344443983 -5.071419140888392 L 46.87569344443983 -5.071419140888392 L 47.782001231476485 -5.4940374026290915 L 48.68830901851314 -5.916655664369791 L 49.59461680554979 -6.33927392611049 L 50.50092459258644 -6.761892187851189 L 46.87569344443983 -5.071419140888392 L 47.782001231476485 -4.648800879147693 L 48.68830901851314 -4.226182617406994 L 42.87569344443983 -5.071419140888392 L 43.782001231476485 -5.4940374026290915 L 44.68830901851314 -5.916655664369791 L 45.68830901851314 -5.916655664369791 L 46.68830901851314 -5.916655664369791 L 44.68830901851314 -5.916655664369791 L 45.59461680554979 -6.33927392611049 L 46.50092459258644 -6.761892187851189 L 44.68830901851314 -5.916655664369791 L 45.59461680554979 -6.33927392611049 L 46.50092459258644 -6.761892187851189 L 47.14371220227298 -7.527936630970167 L 47.786499811959516 -8.293981074089146 L 48.42928742164605 -9.060025517208125 L 49.07207503133259 -9.826069960327104 L 46.50092459258644 -6.761892187851189 L 47.50092459258644 -6.761892187851189 L 48.50092459258644 -6.761892187851189 L 42.87569344443983 -5.071419140888392 L 43.782001231476485 -5.4940374026290915 L 44.68830901851314 -5.916655664369791 L 45.59461680554979 -6.33927392611049 L 46.50092459258644 -6.761892187851189 L 47.14371220227298 -7.527936630970167 L 47.786499811959516 -8.293981074089146 L 48.42928742164605 -9.060025517208125 L 49.07207503133259 -9.826069960327104 L 49.714862641019124 -10.592114403446082 L 50.35765025070566 -11.358158846565061 L 51.26395803774231 -11.780777108305761 L 52.170265824778966 -12.203395370046461 L 50.35765025070566 -11.358158846565061 L 51.000437860392196 -12.12420328968404 L 51.64322547007873 -12.890247732803019 L 50.35765025070566 -11.358158846565061 L 51.000437860392196 -12.12420328968404 L 51.64322547007873 -12.890247732803019 L 51.90204451518125 -13.856173559092086 L 52.16086356028377 -14.822099385381154 L 52.41968260538629 -15.788025211670222 L 52.67850165048881 -16.75395103795929 L 51.64322547007873 -12.890247732803019 L 52.549533257115385 -13.312865994543719 L 53.45584104415204 -13.735484256284419 L 46.50092459258644 -6.761892187851189 L 47.50092459258644 -6.761892187851189 L 48.50092459258644 -6.761892187851189 L 49.407232379623096 -6.33927392611049 L 50.31354016665975 -5.916655664369791 L 48.50092459258644 -6.761892187851189 L 49.50092459258644 -6.761892187851189 L 50.50092459258644 -6.761892187851189 L 48.50092459258644 -6.761892187851189 L 49.50092459258644 -6.761892187851189 L 50.50092459258644 -6.761892187851189 L 51.407232379623096 -7.184510449591889 L 52.31354016665975 -7.607128711332588 L 53.2198479536964 -8.029746973073287 L 54.126155740733054 -8.452365234813987 L 50.50092459258644 -6.761892187851189 L 51.407232379623096 -6.33927392611049 L 52.31354016665975 -5.916655664369791 L 32.0 0.0 L 32.90630778703665 0.42261826174069944 L 33.812615574073305 0.8452365234813989 L 34.71892336110996 1.2678547852220983 L 35.62523114814661 1.6904730469627978 L 36.26801875783315 2.456517490081776 L 36.91080636751968 3.222561933200754 L 37.1696254126222 4.188487759489822 L 37.42844445772472 5.154413585778891 L 36.91080636751968 3.222561933200754 L 37.55359397720622 3.9886063763197317 L 38.196381586892755 4.75465081943871 L 36.91080636751968 3.222561933200754 L 37.55359397720622 3.9886063763197317 L 38.196381586892755 4.75465081943871 L 39.10268937392941 5.177269081179409 L 40.00899716096606 5.599887342920108 L 40.915304948002714 6.022505604660807 L 41.821612735039366 6.445123866401507 L 38.196381586892755 4.75465081943871 L 38.455200631995275 5.720576645727778 L 38.714019677097795 6.686502472016847 L 35.62523114814661 1.6904730469627978 L 36.531538935183264 2.1130913087034973 L 37.437846722219916 2.5357095704441965 L 38.08063433190645 3.3017540135631744 L 38.72342194159299 4.067798456682152 L 37.437846722219916 2.5357095704441965 L 38.34415450925657 2.958327832184896 L 39.25046229629322 3.380946093925595 L 37.437846722219916 2.5357095704441965 L 38.34415450925657 2.958327832184896 L 39.25046229629322 3.380946093925595 L 40.25046229629322 3.380946093925595 L 41.25046229629322 3.380946093925595 L 42.25046229629322 3.380946093925595 L 43.25046229629322 3.380946093925595 L 39.25046229629322 3.380946093925595 L 39.89324990597976 4.146990537044573 L 40.536037515666294 4.913034980163551 L 35.62523114814661 1.6904730469627978 L 36.531538935183264 2.1130913087034973 L 37.437846722219916 2.5357095704441965 L 38.34415450925657 2.958327832184896 L 39.25046229629322 3.380946093925595 L 40.25046229629322 3.380946093925595 L 41.25046229629322 3.380946093925595 L 42.25046229629322 3.380946093925595 L 43.25046229629322 3.380946093925595 L 44.25046229629322 3.380946093925595 L 45.25046229629322 3.380946093925595 L 46.156770083329874 3.8035643556662944 L 47.06307787036653 4.226182617406994 L 45.25046229629322 3.380946093925595 L 46.25046229629322 3.380946093925595 L 47.25046229629322 3.380946093925595 L 45.25046229629322 3.380946093925595 L 46.25046229629322 3.380946093925595 L 47.25046229629322 3.380946093925595 L 48.156770083329874 2.958327832184896 L 49.06307787036653 2.5357095704441965 L 49.96938565740318 2.1130913087034973 L 50.87569344443983 1.6904730469627978 L 47.25046229629322 3.380946093925595 L 48.156770083329874 3.8035643556662944 L 49.06307787036653 4.226182617406994 L 39.25046229629322 3.380946093925595 L 39.89324990597976 4.146990537044573 L 40.536037515666294 4.913034980163551 L 40.794856560768814 5.8789608064526195 L 41.053675605871334 6.844886632741688 L 40.536037515666294 4.913034980163551 L 41.17882512535283 5.679079423282529 L 41.821612735039366 6.445123866401507 L 40.536037515666294 4.913034980163551 L 41.17882512535283 5.679079423282529 L 41.821612735039366 6.445123866401507 L 42.72792052207602 6.867742128142206 L 43.63422830911267 7.290360389882905 L 44.540536096149324 7.7129786516236045 L 45.44684388318598 8.135596913364305 L 41.821612735039366 6.445123866401507 L 42.080431780141886 7.411049692690575 L 42.339250825244406 8.376975518979643 L 16.0 0.0 L 17.0 0.0 L 18.0 0.0 L 19.0 0.0 L 20.0 0.0 L 21.0 0.0 L 22.0 0.0 L 23.0 0.0 L 24.0 0.0 L 25.0 0.0 L 26.0 0.0 L 27.0 0.0 L 28.0 0.0 L 29.0 0.0 L 30.0 0.0 L 31.0 0.0 L 32.0 0.0 L 32.90630778703665 -0.42261826174069944 L 33.812615574073305 -0.8452365234813989 L 34.71892336110996 -1.2678547852220983 L 35.62523114814661 -1.6904730469627978 L 36.531538935183264 -2.1130913087034973 L 37.437846722219916 -2.5357095704441965 L 38.34415450925657 -2.958327832184896 L 39.25046229629322 -3.380946093925595 L 40.156770083329874 -3.8035643556662944 L 41.06307787036653 -4.226182617406994 L 41.96938565740318 -4.648800879147693 L 42.87569344443983 -5.071419140888392 L 43.782001231476485 -5.4940374026290915 L 44.68830901851314 -5.916655664369791 L 45.59461680554979 -6.33927392611049 L 46.50092459258644 -6.761892187851189 L 47.407232379623096 -7.184510449591889 L 48.31354016665975 -7.607128711332588 L 49.2198479536964 -8.029746973073287 L 50.126155740733054 -8.452365234813987 L 51.03246352776971 -8.874983496554687 L 51.93877131480636 -9.297601758295388 L 52.84507910184301 -9.720220020036088 L 53.751386888879665 -10.142838281776788 L 54.751386888879665 -10.142838281776788 L 55.751386888879665 -10.142838281776788 L 56.751386888879665 -10.142838281776788 L 57.751386888879665 -10.142838281776788 L 58.65769467591632 -9.720220020036088 L 59.56400246295297 -9.297601758295388 L 60.20679007263951 -8.531557315176409 L 60.84957768232604 -7.765512872057431 L 59.56400246295297 -9.297601758295388 L 60.47031024998962 -8.874983496554687 L 61.376618037026276 -8.452365234813987 L 59.56400246295297 -9.297601758295388 L 60.47031024998962 -8.874983496554687 L 61.376618037026276 -8.452365234813987 L 62.376618037026276 -8.452365234813987 L 63.376618037026276 -8.452365234813987 L 64.37661803702628 -8.452365234813987 L 65.37661803702628 -8.452365234813987 L 61.376618037026276 -8.452365234813987 L 62.01940564671281 -7.686320791695009 L 62.66219325639935 -6.9202763485760315 L 57.751386888879665 -10.142838281776788 L 58.751386888879665 -10.142838281776788 L 59.751386888879665 -10.142838281776788 L 60.65769467591632 -9.720220020036088 L 61.56400246295297 -9.297601758295388 L 59.751386888879665 -10.142838281776788 L 60.751386888879665 -10.142838281776788 L 61.751386888879665 -10.142838281776788 L 59.751386888879665 -10.142838281776788 L 60.751386888879665 -10.142838281776788 L 61.751386888879665 -10.142838281776788 L 62.65769467591632 -10.565456543517488 L 63.56400246295297 -10.988074805258188 L 64.47031024998962 -11.410693066998888 L 65.37661803702628 -11.833311328739589 L 61.751386888879665 -10.142838281776788 L 62.65769467591632 -9.720220020036088 L 63.56400246295297 -9.297601758295388 L 57.751386888879665 -10.142838281776788 L 58.751386888879665 -10.142838281776788 L 59.751386888879665 -10.142838281776788 L 60.751386888879665 -10.142838281776788 L 61.751386888879665 -10.142838281776788 L 62.65769467591632 -10.565456543517488 L 63.56400246295297 -10.988074805258188 L 64.47031024998962 -11.410693066998888 L 65.37661803702628 -11.833311328739589 L 66.28292582406293 -12.255929590480289 L 67.18923361109958 -12.678547852220989 L 68.18923361109958 -12.678547852220989 L 69.18923361109958 -12.678547852220989 L 67.18923361109958 -12.678547852220989 L 68.09554139813623 -13.101166113961689 L 69.00184918517289 -13.52378437570239 L 67.18923361109958 -12.678547852220989 L 68.09554139813623 -13.101166113961689 L 69.00184918517289 -13.52378437570239 L 69.64463679485942 -14.289828818821368 L 70.28742440454596 -15.055873261940347 L 70.9302120142325 -15.821917705059326 L 71.57299962391903 -16.587962148178303 L 69.00184918517289 -13.52378437570239 L 70.00184918517289 -13.52378437570239 L 71.00184918517289 -13.52378437570239 L 61.751386888879665 -10.142838281776788 L 62.65769467591632 -9.720220020036088 L 63.56400246295297 -9.297601758295388 L 64.2067900726395 -8.531557315176409 L 64.84957768232604 -7.765512872057431 L 63.56400246295297 -9.297601758295388 L 64.47031024998962 -8.874983496554687 L 65.37661803702628 -8.452365234813987 L 63.56400246295297 -9.297601758295388 L 64.47031024998962 -8.874983496554687 L 65.37661803702628 -8.452365234813987 L 66.37661803702628 -8.452365234813987 L 67.37661803702628 -8.452365234813987 L 68.37661803702628 -8.452365234813987 L 69.37661803702628 -8.452365234813987 L 65.37661803702628 -8.452365234813987 L 66.01940564671281 -7.686320791695009 L 66.66219325639935 -6.9202763485760315 L 53.751386888879665 -10.142838281776788 L 54.65769467591632 -10.565456543517488 L 55.56400246295297 -10.988074805258188 L 56.47031024998962 -11.410693066998888 L 57.376618037026276 -11.833311328739589 L 58.376618037026276 -11.833311328739589 L 59.376618037026276 -11.833311328739589 L 60.28292582406293 -11.410693066998888 L 61.18923361109958 -10.988074805258188 L 59.376618037026276 -11.833311328739589 L 60.376618037026276 -11.833311328739589 L 61.376618037026276 -11.833311328739589 L 59.376618037026276 -11.833311328739589 L 60.376618037026276 -11.833311328739589 L 61.376618037026276 -11.833311328739589 L 62.28292582406293 -12.255929590480289 L 63.18923361109958 -12.678547852220989 L 64.09554139813623 -13.101166113961689 L 65.00184918517289 -13.52378437570239 L 61.376618037026276 -11.833311328739589 L 62.28292582406293 -11.410693066998888 L 63.18923361109958 -10.988074805258188 L 57.376618037026276 -11.833311328739589 L 58.28292582406293 -12.255929590480289 L 59.18923361109958 -12.678547852220989 L 60.18923361109958 -12.678547852220989 L 61.18923361109958 -12.678547852220989 L 59.18923361109958 -12.678547852220989 L 60.095541398136234 -13.101166113961689 L 61.00184918517289 -13.52378437570239 L 59.18923361109958 -12.678547852220989 L 60.095541398136234 -13.101166113961689 L 61.00184918517289 -13.52378437570239 L 61.64463679485942 -14.289828818821368 L 62.28742440454596 -15.055873261940347 L 62.930212014232495 -15.821917705059326 L 63.57299962391903 -16.587962148178303 L 61.00184918517289 -13.52378437570239 L 62.00184918517289 -13.52378437570239 L 63.00184918517289 -13.52378437570239 L 57.376618037026276 -11.833311328739589 L 58.28292582406293 -12.255929590480289 L 59.18923361109958 -12.678547852220989 L 60.095541398136234 -13.101166113961689 L 61.00184918517289 -13.52378437570239 L 61.64463679485942 -14.289828818821368 L 62.28742440454596 -15.055873261940347 L 62.930212014232495 -15.821917705059326 L 63.57299962391903 -16.587962148178303 L 64.21578723360557 -17.35400659129728 L 64.8585748432921 -18.12005103441626 L 65.76488263032876 -18.54266929615696 L 66.67119041736541 -18.965287557897657 L 64.8585748432921 -18.12005103441626 L 65.50136245297864 -18.88609547753524 L 66.14415006266518 -19.652139920654218 L 64.8585748432921 -18.12005103441626 L 65.50136245297864 -18.88609547753524 L 66.14415006266518 -19.652139920654218 L 66.4029691077677 -20.618065746943287 L 66.66178815287023 -21.583991573232357 L 66.92060719797276 -22.549917399521426 L 67.17942624307528 -23.515843225810496 L 66.14415006266518 -19.652139920654218 L 67.05045784970183 -20.074758182394916 L 67.95676563673848 -20.497376444135615 L 61.00184918517289 -13.52378437570239 L 62.00184918517289 -13.52378437570239 L 63.00184918517289 -13.52378437570239 L 63.90815697220954 -13.101166113961689 L 64.81446475924619 -12.678547852220989 L 63.00184918517289 -13.52378437570239 L 64.00184918517289 -13.52378437570239 L 65.00184918517289 -13.52378437570239 L 63.00184918517289 -13.52378437570239 L 64.00184918517289 -13.52378437570239 L 65.00184918517289 -13.52378437570239 L 65.90815697220954 -13.94640263744309 L 66.81446475924619 -14.36902089918379 L 67.72077254628284 -14.79163916092449 L 68.6270803333195 -15.21425742266519 L 65.00184918517289 -13.52378437570239 L 65.90815697220954 -13.101166113961689 L 66.81446475924619 -12.678547852220989 L 53.751386888879665 -10.142838281776788 L 54.65769467591632 -10.565456543517488 L 55.56400246295297 -10.988074805258188 L 56.47031024998962 -11.410693066998888 L 57.376618037026276 -11.833311328739589 L 58.28292582406293 -12.255929590480289 L 59.18923361109958 -12.678547852220989 L 60.095541398136234 -13.101166113961689 L 61.00184918517289 -13.52378437570239 L 61.64463679485942 -14.289828818821368 L 62.28742440454596 -15.055873261940347 L 62.930212014232495 -15.821917705059326 L 63.57299962391903 -16.587962148178303 L 64.21578723360557 -17.35400659129728 L 64.8585748432921 -18.12005103441626 L 65.50136245297864 -18.88609547753524 L 66.14415006266518 -19.652139920654218 L 66.78693767235171 -20.418184363773197 L 67.42972528203825 -21.184228806892175 L 68.07251289172478 -21.950273250011154 L 68.71530050141132 -22.716317693130133 L 69.62160828844797 -23.13893595487083 L 70.52791607548463 -23.56155421661153 L 71.52791607548463 -23.56155421661153 L 72.52791607548463 -23.56155421661153 L 70.52791607548463 -23.56155421661153 L 71.43422386252128 -23.984172478352228 L 72.34053164955793 -24.406790740092926 L 70.52791607548463 -23.56155421661153 L 71.43422386252128 -23.984172478352228 L 72.34053164955793 -24.406790740092926 L 72.98331925924447 -25.172835183211905 L 73.626106868931 -25.938879626330884 L 74.26889447861754 -26.704924069449863 L 74.91168208830408 -27.47096851256884 L 72.34053164955793 -24.406790740092926 L 73.34053164955793 -24.406790740092926 L 74.34053164955793 -24.406790740092926 L 68.71530050141132 -22.716317693130133 L 69.35808811109786 -23.48236213624911 L 70.00087572078439 -24.24840657936809 L 70.90718350782105 -24.67102484110879 L 71.8134912948577 -25.093643102849487 L 70.00087572078439 -24.24840657936809 L 70.64366333047093 -25.01445102248707 L 71.28645094015747 -25.780495465606048 L 70.00087572078439 -24.24840657936809 L 70.64366333047093 -25.01445102248707 L 71.28645094015747 -25.780495465606048 L 71.54526998525999 -26.746421291895118 L 71.80408903036252 -27.712347118184187 L 72.06290807546505 -28.678272944473257 L 72.32172712056757 -29.644198770762326 L 71.28645094015747 -25.780495465606048 L 72.19275872719412 -26.203113727346746 L 73.09906651423077 -26.625731989087445 L 68.71530050141132 -22.716317693130133 L 69.35808811109786 -23.48236213624911 L 70.00087572078439 -24.24840657936809 L 70.64366333047093 -25.01445102248707 L 71.28645094015747 -25.780495465606048 L 71.54526998525999 -26.746421291895118 L 71.80408903036252 -27.712347118184187 L 72.06290807546505 -28.678272944473257 L 72.32172712056757 -29.644198770762326 L 72.5805461656701 -30.610124597051396 L 72.83936521077263 -31.576050423340465 L 73.48215282045916 -32.34209486645944 L 74.1249404301457 -33.10813930957842 L 72.83936521077263 -31.576050423340465 L 73.09818425587515 -32.541976249629535 L 73.35700330097768 -33.5079020759186 L 72.83936521077263 -31.576050423340465 L 73.09818425587515 -32.541976249629535 L 73.35700330097768 -33.5079020759186 L 73.18335512331075 -34.492709828930806 L 73.00970694564381 -35.47751758194301 L 72.83605876797688 -36.46232533495522 L 72.66241059030995 -37.44713308796742 L 73.35700330097768 -33.5079020759186 L 73.99979091066422 -34.27394651903758 L 74.64257852035075 -35.03999096215656 L 71.28645094015747 -25.780495465606048 L 72.19275872719412 -26.203113727346746 L 73.09906651423077 -26.625731989087445 L 74.09906651423077 -26.625731989087445 L 75.09906651423077 -26.625731989087445 L 73.09906651423077 -26.625731989087445 L 74.00537430126742 -27.048350250828143 L 74.91168208830408 -27.47096851256884 L 73.09906651423077 -26.625731989087445 L 74.00537430126742 -27.048350250828143 L 74.91168208830408 -27.47096851256884 L 75.55446969799061 -28.23701295568782 L 76.19725730767715 -29.0030573988068 L 76.84004491736368 -29.769101841925778 L 77.48283252705022 -30.535146285044757 L 74.91168208830408 -27.47096851256884 L 75.91168208830408 -27.47096851256884 L 76.91168208830408 -27.47096851256884 L 61.00184918517289 -13.52378437570239 L 62.00184918517289 -13.52378437570239 L 63.00184918517289 -13.52378437570239 L 64.00184918517289 -13.52378437570239 L 65.00184918517289 -13.52378437570239 L 65.90815697220954 -13.101166113961689 L 66.81446475924619 -12.678547852220989 L 67.45725236893273 -11.91250340910201 L 68.10003997861926 -11.146458965983031 L 66.81446475924619 -12.678547852220989 L 67.72077254628284 -12.255929590480289 L 68.6270803333195 -11.833311328739589 L 66.81446475924619 -12.678547852220989 L 67.72077254628284 -12.255929590480289 L 68.6270803333195 -11.833311328739589 L 69.6270803333195 -11.833311328739589 L 70.6270803333195 -11.833311328739589 L 71.6270803333195 -11.833311328739589 L 72.6270803333195 -11.833311328739589 L 68.6270803333195 -11.833311328739589 L 69.26986794300603 -11.06726688562061 L 69.91265555269257 -10.301222442501631 L 65.00184918517289 -13.52378437570239 L 66.00184918517289 -13.52378437570239 L 67.00184918517289 -13.52378437570239 L 67.90815697220954 -13.101166113961689 L 68.81446475924619 -12.678547852220989 L 67.00184918517289 -13.52378437570239 L 68.00184918517289 -13.52378437570239 L 69.00184918517289 -13.52378437570239 L 67.00184918517289 -13.52378437570239 L 68.00184918517289 -13.52378437570239 L 69.00184918517289 -13.52378437570239 L 69.90815697220954 -13.94640263744309 L 70.81446475924619 -14.36902089918379 L 71.72077254628284 -14.79163916092449 L 72.6270803333195 -15.21425742266519 L 69.00184918517289 -13.52378437570239 L 69.90815697220954 -13.101166113961689 L 70.81446475924619 -12.678547852220989 L 65.00184918517289 -13.52378437570239 L 66.00184918517289 -13.52378437570239 L 67.00184918517289 -13.52378437570239 L 68.00184918517289 -13.52378437570239 L 69.00184918517289 -13.52378437570239 L 69.90815697220954 -13.94640263744309 L 70.81446475924619 -14.36902089918379 L 71.72077254628284 -14.79163916092449 L 72.6270803333195 -15.21425742266519 L 73.53338812035615 -15.63687568440589 L 74.4396959073928 -16.05949394614659 L 75.4396959073928 -16.05949394614659 L 76.4396959073928 -16.05949394614659 L 74.4396959073928 -16.05949394614659 L 75.34600369442946 -16.482112207887287 L 76.25231148146611 -16.904730469627985 L 74.4396959073928 -16.05949394614659 L 75.34600369442946 -16.482112207887287 L 76.25231148146611 -16.904730469627985 L 76.89509909115264 -17.670774912746964 L 77.53788670083918 -18.436819355865943 L 78.18067431052572 -19.20286379898492 L 78.82346192021225 -19.9689082421039 L 76.25231148146611 -16.904730469627985 L 77.25231148146611 -16.904730469627985 L 78.25231148146611 -16.904730469627985 L 69.00184918517289 -13.52378437570239 L 69.90815697220954 -13.101166113961689 L 70.81446475924619 -12.678547852220989 L 71.45725236893273 -11.91250340910201 L 72.10003997861926 -11.146458965983031 L 70.81446475924619 -12.678547852220989 L 71.72077254628284 -12.255929590480289 L 72.6270803333195 -11.833311328739589 L 70.81446475924619 -12.678547852220989 L 71.72077254628284 -12.255929590480289 L 72.6270803333195 -11.833311328739589 L 73.6270803333195 -11.833311328739589 L 74.6270803333195 -11.833311328739589 L 75.6270803333195 -11.833311328739589 L 76.6270803333195 -11.833311328739589 L 72.6270803333195 -11.833311328739589 L 73.26986794300603 -11.06726688562061 L 73.91265555269257 -10.301222442501631 L 32.0 0.0 L 32.90630778703665 0.42261826174069944 L 33.812615574073305 0.8452365234813989 L 34.71892336110996 1.2678547852220983 L 35.62523114814661 1.6904730469627978 L 36.531538935183264 2.1130913087034973 L 37.437846722219916 2.5357095704441965 L 38.34415450925657 2.958327832184896 L 39.25046229629322 3.380946093925595 L 39.89324990597976 4.146990537044573 L 40.536037515666294 4.913034980163551 L 41.17882512535283 5.679079423282529 L 41.821612735039366 6.445123866401507 L 42.080431780141886 7.411049692690575 L 42.339250825244406 8.376975518979643 L 42.16560264757747 9.36178327199185 L 41.99195446991054 10.346591025004058 L 42.339250825244406 8.376975518979643 L 42.598069870346926 9.34290134526871 L 42.856888915449446 10.308827171557779 L 42.339250825244406 8.376975518979643 L 42.598069870346926 9.34290134526871 L 42.856888915449446 10.308827171557779 L 43.49967652513598 11.074871614676757 L 44.14246413482252 11.840916057795736 L 44.785251744509054 12.606960500914715 L 45.42803935419559 13.373004944033694 L 42.856888915449446 10.308827171557779 L 42.68324073778251 11.293634924569986 L 42.50959256011558 12.278442677582193 L 41.821612735039366 6.445123866401507 L 42.4644003447259 7.211168309520485 L 43.10718795441244 7.9772127526394625 L 43.36600699951496 8.943138578928531 L 43.62482604461748 9.909064405217599 L 43.10718795441244 7.9772127526394625 L 43.749975564098975 8.74325719575844 L 44.39276317378551 9.50930163887742 L 43.10718795441244 7.9772127526394625 L 43.749975564098975 8.74325719575844 L 44.39276317378551 9.50930163887742 L 45.299070960822164 9.93191990061812 L 46.205378747858816 10.35453816235882 L 47.11168653489547 10.77715642409952 L 48.01799432193212 11.19977468584022 L 44.39276317378551 9.50930163887742 L 44.65158221888803 10.475227465166487 L 44.91040126399055 11.441153291455555 L 41.821612735039366 6.445123866401507 L 42.4644003447259 7.211168309520485 L 43.10718795441244 7.9772127526394625 L 43.749975564098975 8.74325719575844 L 44.39276317378551 9.50930163887742 L 45.299070960822164 9.93191990061812 L 46.205378747858816 10.35453816235882 L 47.11168653489547 10.77715642409952 L 48.01799432193212 11.19977468584022 L 48.924302108968774 11.62239294758092 L 49.83060989600543 12.04501120932162 L 50.47339750569196 12.811055652440599 L 51.1161851153785 13.577100095559578 L 49.83060989600543 12.04501120932162 L 50.73691768304208 12.46762947106232 L 51.64322547007873 12.89024773280302 L 49.83060989600543 12.04501120932162 L 50.73691768304208 12.46762947106232 L 51.64322547007873 12.89024773280302 L 52.64322547007873 12.89024773280302 L 53.64322547007873 12.89024773280302 L 54.64322547007873 12.89024773280302 L 55.64322547007873 12.89024773280302 L 51.64322547007873 12.89024773280302 L 52.28601307976527 13.656292175922 L 52.928800689451805 14.422336619040978 L 44.39276317378551 9.50930163887742 L 44.65158221888803 10.475227465166487 L 44.91040126399055 11.441153291455555 L 44.73675308632362 12.425961044467762 L 44.56310490865668 13.41076879747997 L 44.91040126399055 11.441153291455555 L 45.16922030909307 12.407079117744622 L 45.42803935419559 13.37300494403369 L 44.91040126399055 11.441153291455555 L 45.16922030909307 12.407079117744622 L 45.42803935419559 13.37300494403369 L 46.070826963882126 14.139049387152669 L 46.71361457356866 14.905093830271648 L 47.3564021832552 15.671138273390627 L 47.999189792941735 16.437182716509604 L 45.42803935419559 13.37300494403369 L 45.25439117652866 14.357812697045897 L 45.08074299886172 15.342620450058105 L 39.25046229629322 3.380946093925595 L 40.156770083329874 3.8035643556662944 L 41.06307787036653 4.226182617406994 L 41.96938565740318 4.648800879147693 L 42.87569344443983 5.071419140888392 L 43.51848105412637 5.83746358400737 L 44.161268663812905 6.603508027126348 L 44.420087708915425 7.569433853415417 L 44.678906754017945 8.535359679704484 L 44.161268663812905 6.603508027126348 L 44.80405627349944 7.369552470245326 L 45.44684388318598 8.135596913364305 L 44.161268663812905 6.603508027126348 L 44.80405627349944 7.369552470245326 L 45.44684388318598 8.135596913364305 L 46.35315167022263 8.558215175105005 L 47.25945945725928 8.980833436845705 L 48.165767244295935 9.403451698586405 L 49.07207503133259 9.826069960327105 L 45.44684388318598 8.135596913364305 L 45.7056629282885 9.101522739653372 L 45.96448197339102 10.06744856594244 L 42.87569344443983 5.071419140888392 L 43.782001231476485 5.4940374026290915 L 44.68830901851314 5.916655664369791 L 45.331096628199674 6.682700107488769 L 45.97388423788621 7.4487445506077465 L 44.68830901851314 5.916655664369791 L 45.59461680554979 6.33927392611049 L 46.50092459258644 6.761892187851189 L 44.68830901851314 5.916655664369791 L 45.59461680554979 6.33927392611049 L 46.50092459258644 6.761892187851189 L 47.50092459258644 6.761892187851189 L 48.50092459258644 6.761892187851189 L 49.50092459258644 6.761892187851189 L 50.50092459258644 6.761892187851189 L 46.50092459258644 6.761892187851189 L 47.14371220227298 7.527936630970167 L 47.786499811959516 8.293981074089146 L 42.87569344443983 5.071419140888392 L 43.782001231476485 5.4940374026290915 L 44.68830901851314 5.916655664369791 L 45.59461680554979 6.33927392611049 L 46.50092459258644 6.761892187851189 L 47.50092459258644 6.761892187851189 L 48.50092459258644 6.761892187851189 L 49.50092459258644 6.761892187851189 L 50.50092459258644 6.761892187851189 L 51.50092459258644 6.761892187851189 L 52.50092459258644 6.761892187851189 L 53.407232379623096 7.184510449591889 L 54.31354016665975 7.607128711332588 L 52.50092459258644 6.761892187851189 L 53.50092459258644 6.761892187851189 L 54.50092459258644 6.761892187851189 L 52.50092459258644 6.761892187851189 L 53.50092459258644 6.761892187851189 L 54.50092459258644 6.761892187851189 L 55.407232379623096 6.33927392611049 L 56.31354016665975 5.916655664369791 L 57.2198479536964 5.4940374026290915 L 58.126155740733054 5.071419140888392 L 54.50092459258644 6.761892187851189 L 55.407232379623096 7.184510449591889 L 56.31354016665975 7.607128711332588 L 46.50092459258644 6.761892187851189 L 47.14371220227298 7.527936630970167 L 47.786499811959516 8.293981074089146 L 48.045318857062036 9.259906900378214 L 48.304137902164555 10.225832726667281 L 47.786499811959516 8.293981074089146 L 48.42928742164605 9.060025517208125 L 49.07207503133259 9.826069960327104 L 47.786499811959516 8.293981074089146 L 48.42928742164605 9.060025517208125 L 49.07207503133259 9.826069960327104 L 49.97838281836924 10.248688222067804 L 50.88469060540589 10.671306483808504 L 51.790998392442546 11.093924745549204 L 52.6973061794792 11.516543007289904 L 49.07207503133259 9.826069960327104 L 49.33089407643511 10.791995786616171 L 49.58971312153763 11.757921612905239 L 39.25046229629322 3.380946093925595 L 40.156770083329874 3.8035643556662944 L 41.06307787036653 4.226182617406994 L 41.96938565740318 4.648800879147693 L 42.87569344443983 5.071419140888392 L 43.782001231476485 5.4940374026290915 L 44.68830901851314 5.916655664369791 L 45.59461680554979 6.33927392611049 L 46.50092459258644 6.761892187851189 L 47.50092459258644 6.761892187851189 L 48.50092459258644 6.761892187851189 L 49.50092459258644 6.761892187851189 L 50.50092459258644 6.761892187851189 L 51.50092459258644 6.761892187851189 L 52.50092459258644 6.761892187851189 L 53.50092459258644 6.761892187851189 L 54.50092459258644 6.761892187851189 L 55.50092459258644 6.761892187851189 L 56.50092459258644 6.761892187851189 L 57.50092459258644 6.761892187851189 L 58.50092459258644 6.761892187851189 L 59.407232379623096 7.184510449591889 L 60.31354016665975 7.607128711332588 L 60.956327776346285 8.373173154451566 L 61.59911538603282 9.139217597570545 L 60.31354016665975 7.607128711332588 L 61.2198479536964 8.029746973073287 L 62.126155740733054 8.452365234813987 L 60.31354016665975 7.607128711332588 L 61.2198479536964 8.029746973073287 L 62.126155740733054 8.452365234813987 L 63.126155740733054 8.452365234813987 L 64.12615574073305 8.452365234813987 L 65.12615574073305 8.452365234813987 L 66.12615574073305 8.452365234813987 L 62.126155740733054 8.452365234813987 L 62.76894335041959 9.218409677932966 L 63.41173096010613 9.984454121051945 L 58.50092459258644 6.761892187851189 L 59.50092459258644 6.761892187851189 L 60.50092459258644 6.761892187851189 L 61.407232379623096 7.184510449591889 L 62.31354016665975 7.607128711332588 L 60.50092459258644 6.761892187851189 L 61.50092459258644 6.761892187851189 L 62.50092459258644 6.761892187851189 L 60.50092459258644 6.761892187851189 L 61.50092459258644 6.761892187851189 L 62.50092459258644 6.761892187851189 L 63.407232379623096 6.33927392611049 L 64.31354016665975 5.916655664369791 L 65.2198479536964 5.4940374026290915 L 66.12615574073305 5.071419140888392 L 62.50092459258644 6.761892187851189 L 63.407232379623096 7.184510449591889 L 64.31354016665975 7.607128711332588 L 58.50092459258644 6.761892187851189 L 59.50092459258644 6.761892187851189 L 60.50092459258644 6.761892187851189 L 61.50092459258644 6.761892187851189 L 62.50092459258644 6.761892187851189 L 63.407232379623096 6.33927392611049 L 64.31354016665975 5.916655664369791 L 65.2198479536964 5.4940374026290915 L 66.12615574073305 5.071419140888392 L 67.0324635277697 4.648800879147693 L 67.93877131480636 4.226182617406994 L 68.93877131480636 4.226182617406994 L 69.93877131480636 4.226182617406994 L 67.93877131480636 4.226182617406994 L 68.84507910184301 3.8035643556662944 L 69.75138688887967 3.380946093925595 L 67.93877131480636 4.226182617406994 L 68.84507910184301 3.8035643556662944 L 69.75138688887967 3.380946093925595 L 70.3941744985662 2.614901650806617 L 71.03696210825274 1.8488572076876393 L 71.67974971793927 1.0828127645686614 L 72.32253732762581 0.31676832144968337 L 69.75138688887967 3.380946093925595 L 70.75138688887967 3.380946093925595 L 71.75138688887967 3.380946093925595 L 62.50092459258644 6.761892187851189 L 63.407232379623096 7.184510449591889 L 64.31354016665975 7.607128711332588 L 64.95632777634628 8.373173154451566 L 65.59911538603282 9.139217597570545 L 64.31354016665975 7.607128711332588 L 65.2198479536964 8.029746973073287 L 66.12615574073305 8.452365234813987 L 64.31354016665975 7.607128711332588 L 65.2198479536964 8.029746973073287 L 66.12615574073305 8.452365234813987 L 67.12615574073305 8.452365234813987 L 68.12615574073305 8.452365234813987 L 69.12615574073305 8.452365234813987 L 70.12615574073305 8.452365234813987 L 66.12615574073305 8.452365234813987 L 66.76894335041959 9.218409677932966 L 67.41173096010613 9.984454121051945 L 46.50092459258644 6.761892187851189 L 47.14371220227298 7.527936630970167 L 47.786499811959516 8.293981074089146 L 48.42928742164605 9.060025517208125 L 49.07207503133259 9.826069960327104 L 49.33089407643511 10.791995786616171 L 49.58971312153763 11.757921612905239 L 49.416064943870694 12.742729365917446 L 49.24241676620376 13.727537118929654 L 49.58971312153763 11.757921612905239 L 49.84853216664015 12.723847439194307 L 50.10735121174267 13.689773265483375 L 49.58971312153763 11.757921612905239 L 49.84853216664015 12.723847439194307 L 50.10735121174267 13.689773265483375 L 50.7501388214292 14.455817708602353 L 51.39292643111574 15.221862151721332 L 52.035714040802276 15.987906594840311 L 52.67850165048881 16.75395103795929 L 50.10735121174267 13.689773265483375 L 49.933703034075734 14.674581018495582 L 49.7600548564088 15.659388771507789 L 49.07207503133259 9.826069960327104 L 49.714862641019124 10.592114403446082 L 50.35765025070566 11.358158846565061 L 50.61646929580818 12.324084672854129 L 50.8752883409107 13.290010499143197 L 50.35765025070566 11.358158846565061 L 51.000437860392196 12.12420328968404 L 51.64322547007873 12.890247732803019 L 50.35765025070566 11.358158846565061 L 51.000437860392196 12.12420328968404 L 51.64322547007873 12.890247732803019 L 52.549533257115385 13.312865994543719 L 53.45584104415204 13.735484256284419 L 54.36214883118869 14.15810251802512 L 55.26845661822534 14.58072077976582 L 51.64322547007873 12.890247732803019 L 51.90204451518125 13.856173559092086 L 52.16086356028377 14.822099385381154 L 49.07207503133259 9.826069960327104 L 49.714862641019124 10.592114403446082 L 50.35765025070566 11.358158846565061 L 51.000437860392196 12.12420328968404 L 51.64322547007873 12.890247732803019 L 52.549533257115385 13.312865994543719 L 53.45584104415204 13.735484256284419 L 54.36214883118869 14.15810251802512 L 55.26845661822534 14.58072077976582 L 56.174764405261996 15.00333904150652 L 57.08107219229865 15.42595730324722 L 57.723859801985185 16.1920017463662 L 58.36664741167172 16.958046189485177 L 57.08107219229865 15.42595730324722 L 57.9873799793353 15.84857556498792 L 58.893687766371954 16.27119382672862 L 57.08107219229865 15.42595730324722 L 57.9873799793353 15.84857556498792 L 58.893687766371954 16.27119382672862 L 59.893687766371954 16.27119382672862 L 60.893687766371954 16.27119382672862 L 61.893687766371954 16.27119382672862 L 62.893687766371954 16.27119382672862 L 58.893687766371954 16.27119382672862 L 59.53647537605849 17.0372382698476 L 60.17926298574503 17.803282712966578 L 51.64322547007873 12.890247732803019 L 51.90204451518125 13.856173559092086 L 52.16086356028377 14.822099385381154 L 51.98721538261684 15.806907138393361 L 51.813567204949905 16.79171489140557 L 52.16086356028377 14.822099385381154 L 52.41968260538629 15.788025211670222 L 52.67850165048881 16.75395103795929 L 52.16086356028377 14.822099385381154 L 52.41968260538629 15.788025211670222 L 52.67850165048881 16.75395103795929 L 53.32128926017535 17.51999548107827 L 53.964076869861884 18.286039924197247 L 54.60686447954842 19.052084367316226 L 55.24965208923496 19.818128810435205 L 52.67850165048881 16.75395103795929 L 52.50485347282188 17.7387587909715 L 52.331205295154945 18.723566543983708" style="stroke:black;stroke-width:1;fill:none;"/>
</svg>