<?xml version="1.0" encoding="UTF-8"?>
<svg xmlns="http://www.w3.org/2000/svg"
     width="26.88177875307012" height="38.76894335041953"
     viewBox="-17.738758790971495 -38.76894335041953 26.88177875307012 38.76894335041953">
<line x1="0.0" y1="0.0" x2="6.123233995736766E-17" y2="-1.0" stroke="black" stroke-width="0.1" stroke-linecap="round" />
<line x1="6.123233995736766E-17" y1="-1.0" x2="1.2246467991473532E-16" y2="-2.0" stroke="black" stroke-width="0.1" stroke-linecap="round" />
<line x1="1.2246467991473532E-16" y1="-2.0" x2="1.8369701987210297E-16" y2="-3.0" stroke="black" stroke-width="0.1" stroke-linecap="round" />
<line x1="1.8369701987210297E-16" y1="-3.0" x2="2.4492935982947064E-16" y2="-4.0" stroke="black" stroke-width="0.1" stroke-linecap="round" />
<line x1="2.4492935982947064E-16" y1="-4.0" x2="3.061616997868383E-16" y2="-5.0" stroke="black" stroke-width="0.1" stroke-linecap="round" />
<line x1="3.061616997868383E-16" y1="-5.0" x2="3.67394039744206E-16" y2="-6.0" stroke="black" stroke-width="0.1" stroke-linecap="round" />
<line x1="3.67394039744206E-16" y1="-6.0" x2="4.2862637970157366E-16" y2="-7.0" stroke="black" stroke-width="0.1" stroke-linecap="round" />
<line x1="4.2862637970157366E-16" y1="-7.0" x2="4.898587196589413E-16" y2="-8.0" stroke="black" stroke-width="0.1" stroke-linecap="round" />
<line x1="4.898587196589413E-16" y1="-8.0" x2="0.42261826174069994" y2="-8.90630778703665" stroke="black" stroke-width="0.1" stroke-linecap="round" />
<line x1="0.42261826174069994" y1="-8.90630778703665" x2="0.8452365234813994" y2="-9.812615574073298" stroke="black" stroke-width="0.1" stroke-linecap="round" />
<line x1="0.8452365234813994" y1="-9.812615574073298" x2="1.267854785222099" y2="-10.718923361109947" stroke="black" stroke-width="0.1" stroke-linecap="round" />
<line x1="1.267854785222099" y1="-10.718923361109947" x2="1.6904730469627984" y2="-11.625231148146597" stroke="black" stroke-width="0.1" stroke-linecap="round" />
<line x1="1.6904730469627984" y1="-11.625231148146597" x2="2.4565174900817763" y2="-12.268018757833136" stroke="black" stroke-width="0.1" stroke-linecap="round" />
<line x1="2.4565174900817763" y1="-12.268018757833136" x2="3.2225619332007542" y2="-12.910806367519676" stroke="black" stroke-width="0.1" stroke-linecap="round" />
<line x1="3.2225619332007542" y1="-12.910806367519676" x2="4.188487759489822" y2="-13.169625412622196" stroke="black" stroke-width="0.1" stroke-linecap="round" />
<line x1="4.188487759489822" y1="-13.169625412622196" x2="5.154413585778891" y2="-13.428444457724716" stroke="black" stroke-width="0.1" stroke-linecap="round" />
<line x1="5.154413585778891" y1="-13.428444457724716" x2="5.920458028897869" y2="-14.071232067411255" stroke="black" stroke-width="0.1" stroke-linecap="round" />
<line x1="3.2225619332007542" y1="-12.910806367519676" x2="3.988606376319732" y2="-13.553593977206216" stroke="black" stroke-width="0.1" stroke-linecap="round" />
<line x1="3.988606376319732" y1="-13.553593977206216" x2="4.7546508194387105" y2="-14.196381586892755" stroke="black" stroke-width="0.1" stroke-linecap="round" />
<line x1="4.7546508194387105" y1="-14.196381586892755" x2="5.17726908117941" y2="-15.102689373929405" stroke="black" stroke-width="0.1" stroke-linecap="round" />
<line x1="3.2225619332007542" y1="-12.910806367519676" x2="3.988606376319732" y2="-13.553593977206216" stroke="black" stroke-width="0.1" stroke-linecap="round" />
<line x1="3.988606376319732" y1="-13.553593977206216" x2="4.7546508194387105" y2="-14.196381586892755" stroke="black" stroke-width="0.1" stroke-linecap="round" />
<line x1="4.7546508194387105" y1="-14.196381586892755" x2="5.17726908117941" y2="-15.102689373929405" stroke="black" stroke-width="0.1" stroke-linecap="round" />
<line x1="5.17726908117941" y1="-15.102689373929405" x2="5.599887342920109" y2="-16.008997160966054" stroke="black" stroke-width="0.1" stroke-linecap="round" />
<line x1="5.599887342920109" y1="-16.008997160966054" x2="6.022505604660808" y2="-16.915304948002703" stroke="black" stroke-width="0.1" stroke-linecap="round" />
<line x1="6.022505604660808" y1="-16.915304948002703" x2="6.445123866401508" y2="-17.821612735039352" stroke="black" stroke-width="0.1" stroke-linecap="round" />
<line x1="6.445123866401508" y1="-17.821612735039352" x2="6.445123866401508" y2="-18.821612735039352" stroke="black" stroke-width="0.1" stroke-linecap="round" />
<line x1="4.7546508194387105" y1="-14.196381586892755" x2="5.720576645727779" y2="-14.455200631995275" stroke="black" stroke-width="0.1" stroke-linecap="round" />
<line x1="5.720576645727779" y1="-14.455200631995275" x2="6.686502472016848" y2="-14.714019677097795" stroke="black" stroke-width="0.1" stroke-linecap="round" />
<line x1="6.686502472016848" y1="-14.714019677097795" x2="7.452546915135826" y2="-15.356807286784335" stroke="black" stroke-width="0.1" stroke-linecap="round" />
<line x1="1.6904730469627984" y1="-11.625231148146597" x2="2.1130913087034977" y2="-12.531538935183246" stroke="black" stroke-width="0.1" stroke-linecap="round" />
<line x1="2.1130913087034977" y1="-12.531538935183246" x2="2.535709570444197" y2="-13.437846722219895" stroke="black" stroke-width="0.1" stroke-linecap="round" />
<line x1="2.535709570444197" y1="-13.437846722219895" x2="3.301754013563175" y2="-14.080634331906435" stroke="black" stroke-width="0.1" stroke-linecap="round" />
<line x1="3.301754013563175" y1="-14.080634331906435" x2="4.067798456682153" y2="-14.723421941592974" stroke="black" stroke-width="0.1" stroke-linecap="round" />
<line x1="4.067798456682153" y1="-14.723421941592974" x2="4.4904167184228525" y2="-15.629729728629624" stroke="black" stroke-width="0.1" stroke-linecap="round" />
<line x1="2.535709570444197" y1="-13.437846722219895" x2="2.9583278321848963" y2="-14.344154509256544" stroke="black" stroke-width="0.1" stroke-linecap="round" />
<line x1="2.9583278321848963" y1="-14.344154509256544" x2="3.3809460939255955" y2="-15.250462296293193" stroke="black" stroke-width="0.1" stroke-linecap="round" />
<line x1="3.3809460939255955" y1="-15.250462296293193" x2="3.3809460939255955" y2="-16.250462296293193" stroke="black" stroke-width="0.1" stroke-linecap="round" />
<line x1="2.535709570444197" y1="-13.437846722219895" x2="2.9583278321848963" y2="-14.344154509256544" stroke="black" stroke-width="0.1" stroke-linecap="round" />
<line x1="2.9583278321848963" y1="-14.344154509256544" x2="3.3809460939255955" y2="-15.250462296293193" stroke="black" stroke-width="0.1" stroke-linecap="round" />
<line x1="3.3809460939255955" y1="-15.250462296293193" x2="3.3809460939255955" y2="-16.250462296293193" stroke="black" stroke-width="0.1" stroke-linecap="round" />
<line x1="3.3809460939255955" y1="-16.250462296293193" x2="3.3809460939255955" y2="-17.250462296293193" stroke="black" stroke-width="0.1" stroke-linecap="round" />
<line x1="3.3809460939255955" y1="-17.250462296293193" x2="3.3809460939255955" y2="-18.250462296293193" stroke="black" stroke-width="0.1" stroke-linecap="round" />
<line x1="3.3809460939255955" y1="-18.250462296293193" x2="3.3809460939255955" y2="-19.250462296293193" stroke="black" stroke-width="0.1" stroke-linecap="round" />
<line x1="3.3809460939255955" y1="-19.250462296293193" x2="2.9583278321848963" y2="-20.156770083329842" stroke="black" stroke-width="0.1" stroke-linecap="round" />
<line x1="3.3809460939255955" y1="-15.250462296293193" x2="4.146990537044574" y2="-15.893249905979733" stroke="black" stroke-width="0.1" stroke-linecap="round" />
<line x1="4.146990537044574" y1="-15.893249905979733" x2="4.913034980163552" y2="-16.536037515666273" stroke="black" stroke-width="0.1" stroke-linecap="round" />
<line x1="4.913034980163552" y1="-16.536037515666273" x2="5.335653241904251" y2="-17.442345302702922" stroke="black" stroke-width="0.1" stroke-linecap="round" />
<line x1="1.6904730469627984" y1="-11.625231148146597" x2="2.1130913087034977" y2="-12.531538935183246" stroke="black" stroke-width="0.1" stroke-linecap="round" />
<line x1="2.1130913087034977" y1="-12.531538935183246" x2="2.535709570444197" y2="-13.437846722219895" stroke="black" stroke-width="0.1" stroke-linecap="round" />
<line x1="2.535709570444197" y1="-13.437846722219895" x2="2.9583278321848963" y2="-14.344154509256544" stroke="black" stroke-width="0.1" stroke-linecap="round" />
<line x1="2.9583278321848963" y1="-14.344154509256544" x2="3.3809460939255955" y2="-15.250462296293193" stroke="black" stroke-width="0.1" stroke-linecap="round" />
<line x1="3.3809460939255955" y1="-15.250462296293193" x2="3.3809460939255955" y2="-16.250462296293193" stroke="black" stroke-width="0.1" stroke-linecap="round" />
<line x1="3.3809460939255955" y1="-16.250462296293193" x2="3.3809460939255955" y2="-17.250462296293193" stroke="black" stroke-width="0.1" stroke-linecap="round" />
<line x1="3.3809460939255955" y1="-17.250462296293193" x2="3.3809460939255955" y2="-18.250462296293193" stroke="black" stroke-width="0.1" stroke-linecap="round" />
<line x1="3.3809460939255955" y1="-18.250462296293193" x2="3.3809460939255955" y2="-19.250462296293193" stroke="black" stroke-width="0.1" stroke-linecap="round" />
<line x1="3.3809460939255955" y1="-19.250462296293193" x2="3.3809460939255955" y2="-20.250462296293193" stroke="black" stroke-width="0.1" stroke-linecap="round" />
<line x1="3.3809460939255955" y1="-20.250462296293193" x2="3.3809460939255955" y2="-21.250462296293193" stroke="black" stroke-width="0.1" stroke-linecap="round" />
<line x1="3.3809460939255955" y1="-21.250462296293193" x2="3.803564355666295" y2="-22.156770083329842" stroke="black" stroke-width="0.1" stroke-linecap="round" />
<line x1="3.803564355666295" y1="-22.156770083329842" x2="4.2261826174069945" y2="-23.06307787036649" stroke="black" stroke-width="0.1" stroke-linecap="round" />
<line x1="4.2261826174069945" y1="-23.06307787036649" x2="4.2261826174069945" y2="-24.06307787036649" stroke="black" stroke-width="0.1" stroke-linecap="round" />
<line x1="3.3809460939255955" y1="-21.250462296293193" x2="3.3809460939255955" y2="-22.250462296293193" stroke="black" stroke-width="0.1" stroke-linecap="round" />
<line x1="3.3809460939255955" y1="-22.250462296293193" x2="3.3809460939255955" y2="-23.250462296293193" stroke="black" stroke-width="0.1" stroke-linecap="round" />
<line x1="3.3809460939255955" y1="-23.250462296293193" x2="2.9583278321848963" y2="-24.156770083329842" stroke="black" stroke-width="0.1" stroke-linecap="round" />
<line x1="3.3809460939255955" y1="-21.250462296293193" x2="3.3809460939255955" y2="-22.250462296293193" stroke="black" stroke-width="0.1" stroke-linecap="round" />
<line x1="3.3809460939255955" y1="-22.250462296293193" x2="3.3809460939255955" y2="-23.250462296293193" stroke="black" stroke-width="0.1" stroke-linecap="round" />
<line x1="3.3809460939255955" y1="-23.250462296293193" x2="2.9583278321848963" y2="-24.156770083329842" stroke="black" stroke-width="0.1" stroke-linecap="round" />
<line x1="2.9583278321848963" y1="-24.156770083329842" x2="2.535709570444197" y2="-25.06307787036649" stroke="black" stroke-width="0.1" stroke-linecap="round" />
<line x1="2.535709570444197" y1="-25.06307787036649" x2="2.1130913087034977" y2="-25.96938565740314" stroke="black" stroke-width="0.1" stroke-linecap="round" />
<line x1="2.1130913087034977" y1="-25.96938565740314" x2="1.6904730469627984" y2="-26.87569344443979" stroke="black" stroke-width="0.1" stroke-linecap="round" />
<line x1="1.6904730469627984" y1="-26.87569344443979" x2="0.9244286038438205" y2="-27.51848105412633" stroke="black" stroke-width="0.1" stroke-linecap="round" />
<line x1="3.3809460939255955" y1="-23.250462296293193" x2="3.803564355666295" y2="-24.156770083329842" stroke="black" stroke-width="0.1" stroke-linecap="round" />
<line x1="3.803564355666295" y1="-24.156770083329842" x2="4.2261826174069945" y2="-25.06307787036649" stroke="black" stroke-width="0.1" stroke-linecap="round" />
<line x1="4.2261826174069945" y1="-25.06307787036649" x2="4.2261826174069945" y2="-26.06307787036649" stroke="black" stroke-width="0.1" stroke-linecap="round" />
<line x1="3.3809460939255955" y1="-15.250462296293193" x2="4.146990537044574" y2="-15.893249905979733" stroke="black" stroke-width="0.1" stroke-linecap="round" />
<line x1="4.146990537044574" y1="-15.893249905979733" x2="4.913034980163552" y2="-16.536037515666273" stroke="black" stroke-width="0.1" stroke-linecap="round" />
<line x1="4.913034980163552" y1="-16.536037515666273" x2="5.87896080645262" y2="-16.794856560768793" stroke="black" stroke-width="0.1" stroke-linecap="round" />
<line x1="5.87896080645262" y1="-16.794856560768793" x2="6.844886632741689" y2="-17.053675605871312" stroke="black" stroke-width="0.1" stroke-linecap="round" />
<line x1="6.844886632741689" y1="-17.053675605871312" x2="7.610931075860667" y2="-17.696463215557852" stroke="black" stroke-width="0.1" stroke-linecap="round" />
<line x1="4.913034980163552" y1="-16.536037515666273" x2="5.67907942328253" y2="-17.178825125352812" stroke="black" stroke-width="0.1" stroke-linecap="round" />
<line x1="5.67907942328253" y1="-17.178825125352812" x2="6.445123866401508" y2="-17.821612735039352" stroke="black" stroke-width="0.1" stroke-linecap="round" />
<line x1="6.445123866401508" y1="-17.821612735039352" x2="6.867742128142207" y2="-18.727920522076" stroke="black" stroke-width="0.1" stroke-linecap="round" />
<line x1="4.913034980163552" y1="-16.536037515666273" x2="5.67907942328253" y2="-17.178825125352812" stroke="black" stroke-width="0.1" stroke-linecap="round" />
<line x1="5.67907942328253" y1="-17.178825125352812" x2="6.445123866401508" y2="-17.821612735039352" stroke="black" stroke-width="0.1" stroke-linecap="round" />
<line x1="6.445123866401508" y1="-17.821612735039352" x2="6.867742128142207" y2="-18.727920522076" stroke="black" stroke-width="0.1" stroke-linecap="round" />
<line x1="6.867742128142207" y1="-18.727920522076" x2="7.290360389882906" y2="-19.63422830911265" stroke="black" stroke-width="0.1" stroke-linecap="round" />
<line x1="7.290360389882906" y1="-19.63422830911265" x2="7.712978651623605" y2="-20.5405360961493" stroke="black" stroke-width="0.1" stroke-linecap="round" />
<line x1="7.712978651623605" y1="-20.5405360961493" x2="8.135596913364305" y2="-21.44684388318595" stroke="black" stroke-width="0.1" stroke-linecap="round" />
<line x1="8.135596913364305" y1="-21.44684388318595" x2="8.135596913364305" y2="-22.44684388318595" stroke="black" stroke-width="0.1" stroke-linecap="round" />
<line x1="6.445123866401508" y1="-17.821612735039352" x2="7.411049692690576" y2="-18.080431780141872" stroke="black" stroke-width="0.1" stroke-linecap="round" />
<line x1="7.411049692690576" y1="-18.080431780141872" x2="8.376975518979645" y2="-18.33925082524439" stroke="black" stroke-width="0.1" stroke-linecap="round" />
<line x1="8.376975518979645" y1="-18.33925082524439" x2="9.143019962098624" y2="-18.98203843493093" stroke="black" stroke-width="0.1" stroke-linecap="round" />
<line x1="4.898587196589413E-16" y1="-8.0" x2="5.51091059616309E-16" y2="-9.0" stroke="black" stroke-width="0.1" stroke-linecap="round" />
<line x1="5.51091059616309E-16" y1="-9.0" x2="6.123233995736766E-16" y2="-10.0" stroke="black" stroke-width="0.1" stroke-linecap="round" />
<line x1="6.123233995736766E-16" y1="-10.0" x2="6.735557395310443E-16" y2="-11.0" stroke="black" stroke-width="0.1" stroke-linecap="round" />
<line x1="6.735557395310443E-16" y1="-11.0" x2="7.34788079488412E-16" y2="-12.0" stroke="black" stroke-width="0.1" stroke-linecap="round" />
<line x1="7.34788079488412E-16" y1="-12.0" x2="0.42261826174070016" y2="-12.90630778703665" stroke="black" stroke-width="0.1" stroke-linecap="round" />
<line x1="0.42261826174070016" y1="-12.90630778703665" x2="0.8452365234813997" y2="-13.812615574073298" stroke="black" stroke-width="0.1" stroke-linecap="round" />
<line x1="0.8452365234813997" y1="-13.812615574073298" x2="1.6112809666003778" y2="-14.455403183759838" stroke="black" stroke-width="0.1" stroke-linecap="round" />
<line x1="1.6112809666003778" y1="-14.455403183759838" x2="2.3773254097193557" y2="-15.098190793446378" stroke="black" stroke-width="0.1" stroke-linecap="round" />
<line x1="2.3773254097193557" y1="-15.098190793446378" x2="2.799943671460055" y2="-16.004498580483027" stroke="black" stroke-width="0.1" stroke-linecap="round" />
<line x1="0.8452365234813997" y1="-13.812615574073298" x2="1.2678547852220992" y2="-14.718923361109947" stroke="black" stroke-width="0.1" stroke-linecap="round" />
<line x1="1.2678547852220992" y1="-14.718923361109947" x2="1.6904730469627987" y2="-15.625231148146597" stroke="black" stroke-width="0.1" stroke-linecap="round" />
<line x1="1.6904730469627987" y1="-15.625231148146597" x2="1.6904730469627987" y2="-16.625231148146597" stroke="black" stroke-width="0.1" stroke-linecap="round" />
<line x1="0.8452365234813997" y1="-13.812615574073298" x2="1.2678547852220992" y2="-14.718923361109947" stroke="black" stroke-width="0.1" stroke-linecap="round" />
<line x1="1.2678547852220992" y1="-14.718923361109947" x2="1.6904730469627987" y2="-15.625231148146597" stroke="black" stroke-width="0.1" stroke-linecap="round" />
<line x1="1.6904730469627987" y1="-15.625231148146597" x2="1.6904730469627987" y2="-16.625231148146597" stroke="black" stroke-width="0.1" stroke-linecap="round" />
<line x1="1.6904730469627987" y1="-16.625231148146597" x2="1.6904730469627987" y2="-17.625231148146597" stroke="black" stroke-width="0.1" stroke-linecap="round" />
<line x1="1.6904730469627987" y1="-17.625231148146597" x2="1.6904730469627987" y2="-18.625231148146597" stroke="black" stroke-width="0.1" stroke-linecap="round" />
<line x1="1.6904730469627987" y1="-18.625231148146597" x2="1.6904730469627987" y2="-19.625231148146597" stroke="black" stroke-width="0.1" stroke-linecap="round" />
<line x1="1.6904730469627987" y1="-19.625231148146597" x2="1.2678547852220994" y2="-20.531538935183246" stroke="black" stroke-width="0.1" stroke-linecap="round" />
<line x1="1.6904730469627987" y1="-15.625231148146597" x2="2.4565174900817768" y2="-16.268018757833136" stroke="black" stroke-width="0.1" stroke-linecap="round" />
<line x1="2.4565174900817768" y1="-16.268018757833136" x2="3.2225619332007547" y2="-16.910806367519676" stroke="black" stroke-width="0.1" stroke-linecap="round" />
<line x1="3.2225619332007547" y1="-16.910806367519676" x2="3.645180194941454" y2="-17.817114154556325" stroke="black" stroke-width="0.1" stroke-linecap="round" />
<line x1="7.34788079488412E-16" y1="-12.0" x2="7.960204194457796E-16" y2="-13.0" stroke="black" stroke-width="0.1" stroke-linecap="round" />
<line x1="7.960204194457796E-16" y1="-13.0" x2="8.572527594031473E-16" y2="-14.0" stroke="black" stroke-width="0.1" stroke-linecap="round" />
<line x1="8.572527594031473E-16" y1="-14.0" x2="0.4226182617407003" y2="-14.90630778703665" stroke="black" stroke-width="0.1" stroke-linecap="round" />
<line x1="0.4226182617407003" y1="-14.90630778703665" x2="0.8452365234813997" y2="-15.812615574073298" stroke="black" stroke-width="0.1" stroke-linecap="round" />
<line x1="0.8452365234813997" y1="-15.812615574073298" x2="0.8452365234813998" y2="-16.8126155740733" stroke="black" stroke-width="0.1" stroke-linecap="round" />
<line x1="8.572527594031473E-16" y1="-14.0" x2="9.18485099360515E-16" y2="-15.0" stroke="black" stroke-width="0.1" stroke-linecap="round" />
<line x1="9.18485099360515E-16" y1="-15.0" x2="9.797174393178826E-16" y2="-16.0" stroke="black" stroke-width="0.1" stroke-linecap="round" />
<line x1="9.797174393178826E-16" y1="-16.0" x2="-0.42261826174069833" y2="-16.90630778703665" stroke="black" stroke-width="0.1" stroke-linecap="round" />
<line x1="8.572527594031473E-16" y1="-14.0" x2="9.18485099360515E-16" y2="-15.0" stroke="black" stroke-width="0.1" stroke-linecap="round" />
<line x1="9.18485099360515E-16" y1="-15.0" x2="9.797174393178826E-16" y2="-16.0" stroke="black" stroke-width="0.1" stroke-linecap="round" />
<line x1="9.797174393178826E-16" y1="-16.0" x2="-0.42261826174069833" y2="-16.90630778703665" stroke="black" stroke-width="0.1" stroke-linecap="round" />
<line x1="-0.42261826174069833" y1="-16.90630778703665" x2="-0.8452365234813977" y2="-17.8126155740733" stroke="black" stroke-width="0.1" stroke-linecap="round" />
<line x1="-0.8452365234813977" y1="-17.8126155740733" x2="-1.267854785222097" y2="-18.718923361109947" stroke="black" stroke-width="0.1" stroke-linecap="round" />
<line x1="-1.267854785222097" y1="-18.718923361109947" x2="-1.6904730469627962" y2="-19.625231148146597" stroke="black" stroke-width="0.1" stroke-linecap="round" />
<line x1="-1.6904730469627962" y1="-19.625231148146597" x2="-2.456517490081774" y2="-20.268018757833136" stroke="black" stroke-width="0.1" stroke-linecap="round" />
<line x1="9.797174393178826E-16" y1="-16.0" x2="0.42261826174070044" y2="-16.90630778703665" stroke="black" stroke-width="0.1" stroke-linecap="round" />
<line x1="0.42261826174070044" y1="-16.90630778703665" x2="0.8452365234813999" y2="-17.8126155740733" stroke="black" stroke-width="0.1" stroke-linecap="round" />
<line x1="0.8452365234813999" y1="-17.8126155740733" x2="0.8452365234814" y2="-18.8126155740733" stroke="black" stroke-width="0.1" stroke-linecap="round" />
<line x1="7.34788079488412E-16" y1="-12.0" x2="7.960204194457796E-16" y2="-13.0" stroke="black" stroke-width="0.1" stroke-linecap="round" />
<line x1="7.960204194457796E-16" y1="-13.0" x2="8.572527594031473E-16" y2="-14.0" stroke="black" stroke-width="0.1" stroke-linecap="round" />
<line x1="8.572527594031473E-16" y1="-14.0" x2="9.18485099360515E-16" y2="-15.0" stroke="black" stroke-width="0.1" stroke-linecap="round" />
<line x1="9.18485099360515E-16" y1="-15.0" x2="9.797174393178826E-16" y2="-16.0" stroke="black" stroke-width="0.1" stroke-linecap="round" />
<line x1="9.797174393178826E-16" y1="-16.0" x2="-0.42261826174069833" y2="-16.90630778703665" stroke="black" stroke-width="0.1" stroke-linecap="round" />
<line x1="-0.42261826174069833" y1="-16.90630778703665" x2="-0.8452365234813977" y2="-17.8126155740733" stroke="black" stroke-width="0.1" stroke-linecap="round" />
<line x1="-0.8452365234813977" y1="-17.8126155740733" x2="-1.267854785222097" y2="-18.718923361109947" stroke="black" stroke-width="0.1" stroke-linecap="round" />
<line x1="-1.267854785222097" y1="-18.718923361109947" x2="-1.6904730469627962" y2="-19.625231148146597" stroke="black" stroke-width="0.1" stroke-linecap="round" />
<line x1="-1.6904730469627962" y1="-19.625231148146597" x2="-2.1130913087034955" y2="-20.531538935183246" stroke="black" stroke-width="0.1" stroke-linecap="round" />
<line x1="-2.1130913087034955" y1="-20.531538935183246" x2="-2.5357095704441948" y2="-21.437846722219895" stroke="black" stroke-width="0.1" stroke-linecap="round" />
<line x1="-2.5357095704441948" y1="-21.437846722219895" x2="-2.5357095704441948" y2="-22.437846722219895" stroke="black" stroke-width="0.1" stroke-linecap="round" />
<line x1="-2.5357095704441948" y1="-22.437846722219895" x2="-2.5357095704441948" y2="-23.437846722219895" stroke="black" stroke-width="0.1" stroke-linecap="round" />
<line x1="-2.5357095704441948" y1="-23.437846722219895" x2="-2.958327832184894" y2="-24.344154509256544" stroke="black" stroke-width="0.1" stroke-linecap="round" />
<line x1="-2.5357095704441948" y1="-21.437846722219895" x2="-2.958327832184894" y2="-22.344154509256544" stroke="black" stroke-width="0.1" stroke-linecap="round" />
<line x1="-2.958327832184894" y1="-22.344154509256544" x2="-3.3809460939255933" y2="-23.250462296293193" stroke="black" stroke-width="0.1" stroke-linecap="round" />
<line x1="-3.3809460939255933" y1="-23.250462296293193" x2="-4.146990537044571" y2="-23.893249905979733" stroke="black" stroke-width="0.1" stroke-linecap="round" />
<line x1="-2.5357095704441948" y1="-21.437846722219895" x2="-2.958327832184894" y2="-22.344154509256544" stroke="black" stroke-width="0.1" stroke-linecap="round" />
<line x1="-2.958327832184894" y1="-22.344154509256544" x2="-3.3809460939255933" y2="-23.250462296293193" stroke="black" stroke-width="0.1" stroke-linecap="round" />
<line x1="-3.3809460939255933" y1="-23.250462296293193" x2="-4.146990537044571" y2="-23.893249905979733" stroke="black" stroke-width="0.1" stroke-linecap="round" />
<line x1="-4.146990537044571" y1="-23.893249905979733" x2="-4.913034980163549" y2="-24.536037515666273" stroke="black" stroke-width="0.1" stroke-linecap="round" />
<line x1="-4.913034980163549" y1="-24.536037515666273" x2="-5.679079423282527" y2="-25.178825125352812" stroke="black" stroke-width="0.1" stroke-linecap="round" />
<line x1="-5.679079423282527" y1="-25.178825125352812" x2="-6.445123866401505" y2="-25.821612735039352" stroke="black" stroke-width="0.1" stroke-linecap="round" />
<line x1="-6.445123866401505" y1="-25.821612735039352" x2="-7.411049692690574" y2="-26.080431780141872" stroke="black" stroke-width="0.1" stroke-linecap="round" />
<line x1="-3.3809460939255933" y1="-23.250462296293193" x2="-3.3809460939255933" y2="-24.250462296293193" stroke="black" stroke-width="0.1" stroke-linecap="round" />
<line x1="-3.3809460939255933" y1="-24.250462296293193" x2="-3.3809460939255933" y2="-25.250462296293193" stroke="black" stroke-width="0.1" stroke-linecap="round" />
<line x1="-3.3809460939255933" y1="-25.250462296293193" x2="-3.8035643556662926" y2="-26.156770083329842" stroke="black" stroke-width="0.1" stroke-linecap="round" />
<line x1="9.797174393178826E-16" y1="-16.0" x2="0.42261826174070044" y2="-16.90630778703665" stroke="black" stroke-width="0.1" stroke-linecap="round" />
<line x1="0.42261826174070044" y1="-16.90630778703665" x2="0.8452365234813999" y2="-17.8126155740733" stroke="black" stroke-width="0.1" stroke-linecap="round" />
<line x1="0.8452365234813999" y1="-17.8126155740733" x2="1.6112809666003778" y2="-18.455403183759838" stroke="black" stroke-width="0.1" stroke-linecap="round" />
<line x1="1.6112809666003778" y1="-18.455403183759838" x2="2.3773254097193557" y2="-19.098190793446378" stroke="black" stroke-width="0.1" stroke-linecap="round" />
<line x1="2.3773254097193557" y1="-19.098190793446378" x2="2.799943671460055" y2="-20.004498580483027" stroke="black" stroke-width="0.1" stroke-linecap="round" />
<line x1="0.8452365234813999" y1="-17.8126155740733" x2="1.2678547852220994" y2="-18.718923361109947" stroke="black" stroke-width="0.1" stroke-linecap="round" />
<line x1="1.2678547852220994" y1="-18.718923361109947" x2="1.6904730469627989" y2="-19.625231148146597" stroke="black" stroke-width="0.1" stroke-linecap="round" />
<line x1="1.6904730469627989" y1="-19.625231148146597" x2="1.6904730469627989" y2="-20.625231148146597" stroke="black" stroke-width="0.1" stroke-linecap="round" />
<line x1="0.8452365234813999" y1="-17.8126155740733" x2="1.2678547852220994" y2="-18.718923361109947" stroke="black" stroke-width="0.1" stroke-linecap="round" />
<line x1="1.2678547852220994" y1="-18.718923361109947" x2="1.6904730469627989" y2="-19.625231148146597" stroke="black" stroke-width="0.1" stroke-linecap="round" />
<line x1="1.6904730469627989" y1="-19.625231148146597" x2="1.6904730469627989" y2="-20.625231148146597" stroke="black" stroke-width="0.1" stroke-linecap="round" />
<line x1="1.6904730469627989" y1="-20.625231148146597" x2="1.6904730469627989" y2="-21.625231148146597" stroke="black" stroke-width="0.1" stroke-linecap="round" />
<line x1="1.6904730469627989" y1="-21.625231148146597" x2="1.6904730469627989" y2="-22.625231148146597" stroke="black" stroke-width="0.1" stroke-linecap="round" />
<line x1="1.6904730469627989" y1="-22.625231148146597" x2="1.6904730469627989" y2="-23.625231148146597" stroke="black" stroke-width="0.1" stroke-linecap="round" />
<line x1="1.6904730469627989" y1="-23.625231148146597" x2="1.2678547852220996" y2="-24.531538935183246" stroke="black" stroke-width="0.1" stroke-linecap="round" />
<line x1="1.6904730469627989" y1="-19.625231148146597" x2="2.4565174900817768" y2="-20.268018757833136" stroke="black" stroke-width="0.1" stroke-linecap="round" />
<line x1="2.4565174900817768" y1="-20.268018757833136" x2="3.2225619332007547" y2="-20.910806367519676" stroke="black" stroke-width="0.1" stroke-linecap="round" />
<line x1="3.2225619332007547" y1="-20.910806367519676" x2="3.645180194941454" y2="-21.817114154556325" stroke="black" stroke-width="0.1" stroke-linecap="round" />
<line x1="4.898587196589413E-16" y1="-8.0" x2="5.51091059616309E-16" y2="-9.0" stroke="black" stroke-width="0.1" stroke-linecap="round" />
<line x1="5.51091059616309E-16" y1="-9.0" x2="6.123233995736766E-16" y2="-10.0" stroke="black" stroke-width="0.1" stroke-linecap="round" />
<line x1="6.123233995736766E-16" y1="-10.0" x2="6.735557395310443E-16" y2="-11.0" stroke="black" stroke-width="0.1" stroke-linecap="round" />
<line x1="6.735557395310443E-16" y1="-11.0" x2="7.34788079488412E-16" y2="-12.0" stroke="black" stroke-width="0.1" stroke-linecap="round" />
<line x1="7.34788079488412E-16" y1="-12.0" x2="7.960204194457796E-16" y2="-13.0" stroke="black" stroke-width="0.1" stroke-linecap="round" />
<line x1="7.960204194457796E-16" y1="-13.0" x2="8.572527594031473E-16" y2="-14.0" stroke="black" stroke-width="0.1" stroke-linecap="round" />
<line x1="8.572527594031473E-16" y1="-14.0" x2="9.18485099360515E-16" y2="-15.0" stroke="black" stroke-width="0.1" stroke-linecap="round" />
<line x1="9.18485099360515E-16" y1="-15.0" x2="9.797174393178826E-16" y2="-16.0" stroke="black" stroke-width="0.1" stroke-linecap="round" />
<line x1="9.797174393178826E-16" y1="-16.0" x2="-0.42261826174069833" y2="-16.90630778703665" stroke="black" stroke-width="0.1" stroke-linecap="round" />
<line x1="-0.42261826174069833" y1="-16.90630778703665" x2="-0.8452365234813977" y2="-17.8126155740733" stroke="black" stroke-width="0.1" stroke-linecap="round" />
<line x1="-0.8452365234813977" y1="-17.8126155740733" x2="-1.267854785222097" y2="-18.718923361109947" stroke="black" stroke-width="0.1" stroke-linecap="round" />
<line x1="-1.267854785222097" y1="-18.718923361109947" x2="-1.6904730469627962" y2="-19.625231148146597" stroke="black" stroke-width="0.1" stroke-linecap="round" />
<line x1="-1.6904730469627962" y1="-19.625231148146597" x2="-2.1130913087034955" y2="-20.531538935183246" stroke="black" stroke-width="0.1" stroke-linecap="round" />
<line x1="-2.1130913087034955" y1="-20.531538935183246" x2="-2.5357095704441948" y2="-21.437846722219895" stroke="black" stroke-width="0.1" stroke-linecap="round" />
<line x1="-2.5357095704441948" y1="-21.437846722219895" x2="-2.958327832184894" y2="-22.344154509256544" stroke="black" stroke-width="0.1" stroke-linecap="round" />
<line x1="-2.958327832184894" y1="-22.344154509256544" x2="-3.3809460939255933" y2="-23.250462296293193" stroke="black" stroke-width="0.1" stroke-linecap="round" />
<line x1="-3.3809460939255933" y1="-23.250462296293193" x2="-3.8035643556662926" y2="-24.156770083329842" stroke="black" stroke-width="0.1" stroke-linecap="round" />
<line x1="-3.8035643556662926" y1="-24.156770083329842" x2="-4.226182617406992" y2="-25.06307787036649" stroke="black" stroke-width="0.1" stroke-linecap="round" />
<line x1="-4.226182617406992" y1="-25.06307787036649" x2="-4.648800879147691" y2="-25.96938565740314" stroke="black" stroke-width="0.1" stroke-linecap="round" />
<line x1="-4.648800879147691" y1="-25.96938565740314" x2="-5.07141914088839" y2="-26.87569344443979" stroke="black" stroke-width="0.1" stroke-linecap="round" />
<line x1="-5.07141914088839" y1="-26.87569344443979" x2="-5.07141914088839" y2="-27.87569344443979" stroke="black" stroke-width="0.1" stroke-linecap="round" />
<line x1="-5.07141914088839" y1="-27.87569344443979" x2="-5.07141914088839" y2="-28.87569344443979" stroke="black" stroke-width="0.1" stroke-linecap="round" />
<line x1="-5.07141914088839" y1="-28.87569344443979" x2="-4.648800879147691" y2="-29.78200123147644" stroke="black" stroke-width="0.1" stroke-linecap="round" />
<line x1="-4.648800879147691" y1="-29.78200123147644" x2="-4.226182617406992" y2="-30.68830901851309" stroke="black" stroke-width="0.1" stroke-linecap="round" />
<line x1="-4.226182617406992" y1="-30.68830901851309" x2="-4.226182617406992" y2="-31.68830901851309" stroke="black" stroke-width="0.1" stroke-linecap="round" />
<line x1="-5.07141914088839" y1="-28.87569344443979" x2="-5.07141914088839" y2="-29.87569344443979" stroke="black" stroke-width="0.1" stroke-linecap="round" />
<line x1="-5.07141914088839" y1="-29.87569344443979" x2="-5.07141914088839" y2="-30.87569344443979" stroke="black" stroke-width="0.1" stroke-linecap="round" />
<line x1="-5.07141914088839" y1="-30.87569344443979" x2="-5.49403740262909" y2="-31.78200123147644" stroke="black" stroke-width="0.1" stroke-linecap="round" />
<line x1="-5.07141914088839" y1="-28.87569344443979" x2="-5.07141914088839" y2="-29.87569344443979" stroke="black" stroke-width="0.1" stroke-linecap="round" />
<line x1="-5.07141914088839" y1="-29.87569344443979" x2="-5.07141914088839" y2="-30.87569344443979" stroke="black" stroke-width="0.1" stroke-linecap="round" />
<line x1="-5.07141914088839" y1="-30.87569344443979" x2="-5.49403740262909" y2="-31.78200123147644" stroke="black" stroke-width="0.1" stroke-linecap="round" />
<line x1="-5.49403740262909" y1="-31.78200123147644" x2="-5.916655664369789" y2="-32.68830901851309" stroke="black" stroke-width="0.1" stroke-linecap="round" />
<line x1="-5.916655664369789" y1="-32.68830901851309" x2="-6.339273926110488" y2="-33.59461680554974" stroke="black" stroke-width="0.1" stroke-linecap="round" />
<line x1="-6.339273926110488" y1="-33.59461680554974" x2="-6.7618921878511875" y2="-34.500924592586394" stroke="black" stroke-width="0.1" stroke-linecap="round" />
<line x1="-6.7618921878511875" y1="-34.500924592586394" x2="-7.527936630970165" y2="-35.14371220227293" stroke="black" stroke-width="0.1" stroke-linecap="round" />
<line x1="-5.07141914088839" y1="-30.87569344443979" x2="-4.648800879147691" y2="-31.78200123147644" stroke="black" stroke-width="0.1" stroke-linecap="round" />
<line x1="-4.648800879147691" y1="-31.78200123147644" x2="-4.226182617406992" y2="-32.68830901851309" stroke="black" stroke-width="0.1" stroke-linecap="round" />
<line x1="-4.226182617406992" y1="-32.68830901851309" x2="-4.226182617406992" y2="-33.68830901851309" stroke="black" stroke-width="0.1" stroke-linecap="round" />
<line x1="-5.07141914088839" y1="-26.87569344443979" x2="-5.49403740262909" y2="-27.78200123147644" stroke="black" stroke-width="0.1" stroke-linecap="round" />
<line x1="-5.49403740262909" y1="-27.78200123147644" x2="-5.916655664369789" y2="-28.68830901851309" stroke="black" stroke-width="0.1" stroke-linecap="round" />
<line x1="-5.916655664369789" y1="-28.68830901851309" x2="-5.916655664369789" y2="-29.68830901851309" stroke="black" stroke-width="0.1" stroke-linecap="round" />
<line x1="-5.916655664369789" y1="-29.68830901851309" x2="-5.916655664369789" y2="-30.68830901851309" stroke="black" stroke-width="0.1" stroke-linecap="round" />
<line x1="-5.916655664369789" y1="-30.68830901851309" x2="-6.339273926110488" y2="-31.594616805549737" stroke="black" stroke-width="0.1" stroke-linecap="round" />
<line x1="-5.916655664369789" y1="-28.68830901851309" x2="-6.339273926110488" y2="-29.594616805549737" stroke="black" stroke-width="0.1" stroke-linecap="round" />
<line x1="-6.339273926110488" y1="-29.594616805549737" x2="-6.7618921878511875" y2="-30.500924592586387" stroke="black" stroke-width="0.1" stroke-linecap="round" />
<line x1="-6.7618921878511875" y1="-30.500924592586387" x2="-7.527936630970165" y2="-31.143712202272926" stroke="black" stroke-width="0.1" stroke-linecap="round" />
<line x1="-5.916655664369789" y1="-28.68830901851309" x2="-6.339273926110488" y2="-29.594616805549737" stroke="black" stroke-width="0.1" stroke-linecap="round" />
<line x1="-6.339273926110488" y1="-29.594616805549737" x2="-6.7618921878511875" y2="-30.500924592586387" stroke="black" stroke-width="0.1" stroke-linecap="round" />
<line x1="-6.7618921878511875" y1="-30.500924592586387" x2="-7.527936630970165" y2="-31.143712202272926" stroke="black" stroke-width="0.1" stroke-linecap="round" />
<line x1="-7.527936630970165" y1="-31.143712202272926" x2="-8.293981074089142" y2="-31.786499811959466" stroke="black" stroke-width="0.1" stroke-linecap="round" />
<line x1="-8.293981074089142" y1="-31.786499811959466" x2="-9.060025517208121" y2="-32.429287421646" stroke="black" stroke-width="0.1" stroke-linecap="round" />
<line x1="-9.060025517208121" y1="-32.429287421646" x2="-9.8260699603271" y2="-33.07207503133254" stroke="black" stroke-width="0.1" stroke-linecap="round" />
<line x1="-9.8260699603271" y1="-33.07207503133254" x2="-10.791995786616168" y2="-33.33089407643506" stroke="black" stroke-width="0.1" stroke-linecap="round" />
<line x1="-6.7618921878511875" y1="-30.500924592586387" x2="-6.7618921878511875" y2="-31.500924592586387" stroke="black" stroke-width="0.1" stroke-linecap="round" />
<line x1="-6.7618921878511875" y1="-31.500924592586387" x2="-6.7618921878511875" y2="-32.50092459258639" stroke="black" stroke-width="0.1" stroke-linecap="round" />
<line x1="-6.7618921878511875" y1="-32.50092459258639" x2="-7.184510449591887" y2="-33.40723237962304" stroke="black" stroke-width="0.1" stroke-linecap="round" />
<line x1="-5.07141914088839" y1="-26.87569344443979" x2="-5.49403740262909" y2="-27.78200123147644" stroke="black" stroke-width="0.1" stroke-linecap="round" />
<line x1="-5.49403740262909" y1="-27.78200123147644" x2="-5.916655664369789" y2="-28.68830901851309" stroke="black" stroke-width="0.1" stroke-linecap="round" />
<line x1="-5.916655664369789" y1="-28.68830901851309" x2="-6.339273926110488" y2="-29.594616805549737" stroke="black" stroke-width="0.1" stroke-linecap="round" />
<line x1="-6.339273926110488" y1="-29.594616805549737" x2="-6.7618921878511875" y2="-30.500924592586387" stroke="black" stroke-width="0.1" stroke-linecap="round" />
<line x1="-6.7618921878511875" y1="-30.500924592586387" x2="-7.527936630970165" y2="-31.143712202272926" stroke="black" stroke-width="0.1" stroke-linecap="round" />
<line x1="-7.527936630970165" y1="-31.143712202272926" x2="-8.293981074089142" y2="-31.786499811959466" stroke="black" stroke-width="0.1" stroke-linecap="round" />
<line x1="-8.293981074089142" y1="-31.786499811959466" x2="-9.060025517208121" y2="-32.429287421646" stroke="black" stroke-width="0.1" stroke-linecap="round" />
<line x1="-9.060025517208121" y1="-32.429287421646" x2="-9.8260699603271" y2="-33.07207503133254" stroke="black" stroke-width="0.1" stroke-linecap="round" />
<line x1="-9.8260699603271" y1="-33.07207503133254" x2="-10.592114403446079" y2="-33.714862641019074" stroke="black" stroke-width="0.1" stroke-linecap="round" />
<line x1="-10.592114403446079" y1="-33.714862641019074" x2="-11.358158846565058" y2="-34.35765025070561" stroke="black" stroke-width="0.1" stroke-linecap="round" />
<line x1="-11.358158846565058" y1="-34.35765025070561" x2="-11.780777108305758" y2="-35.26395803774226" stroke="black" stroke-width="0.1" stroke-linecap="round" />
<line x1="-11.780777108305758" y1="-35.26395803774226" x2="-12.203395370046458" y2="-36.170265824778916" stroke="black" stroke-width="0.1" stroke-linecap="round" />
<line x1="-12.203395370046458" y1="-36.170265824778916" x2="-12.969439813165437" y2="-36.81305343446545" stroke="black" stroke-width="0.1" stroke-linecap="round" />
<line x1="-11.358158846565058" y1="-34.35765025070561" x2="-12.124203289684036" y2="-35.00043786039215" stroke="black" stroke-width="0.1" stroke-linecap="round" />
<line x1="-12.124203289684036" y1="-35.00043786039215" x2="-12.890247732803015" y2="-35.64322547007868" stroke="black" stroke-width="0.1" stroke-linecap="round" />
<line x1="-12.890247732803015" y1="-35.64322547007868" x2="-13.856173559092083" y2="-35.9020445151812" stroke="black" stroke-width="0.1" stroke-linecap="round" />
<line x1="-11.358158846565058" y1="-34.35765025070561" x2="-12.124203289684036" y2="-35.00043786039215" stroke="black" stroke-width="0.1" stroke-linecap="round" />
<line x1="-12.124203289684036" y1="-35.00043786039215" x2="-12.890247732803015" y2="-35.64322547007868" stroke="black" stroke-width="0.1" stroke-linecap="round" />
<line x1="-12.890247732803015" y1="-35.64322547007868" x2="-13.856173559092083" y2="-35.9020445151812" stroke="black" stroke-width="0.1" stroke-linecap="round" />
<line x1="-13.856173559092083" y1="-35.9020445151812" x2="-14.82209938538115" y2="-36.16086356028372" stroke="black" stroke-width="0.1" stroke-linecap="round" />
<line x1="-14.82209938538115" y1="-36.16086356028372" x2="-15.788025211670218" y2="-36.41968260538624" stroke="black" stroke-width="0.1" stroke-linecap="round" />
<line x1="-15.788025211670218" y1="-36.41968260538624" x2="-16.753951037959286" y2="-36.67850165048876" stroke="black" stroke-width="0.1" stroke-linecap="round" />
<line x1="-16.753951037959286" y1="-36.67850165048876" x2="-17.738758790971495" y2="-36.50485347282183" stroke="black" stroke-width="0.1" stroke-linecap="round" />
<line x1="-12.890247732803015" y1="-35.64322547007868" x2="-13.312865994543715" y2="-36.549533257115336" stroke="black" stroke-width="0.1" stroke-linecap="round" />
<line x1="-13.312865994543715" y1="-36.549533257115336" x2="-13.735484256284415" y2="-37.45584104415199" stroke="black" stroke-width="0.1" stroke-linecap="round" />
<line x1="-13.735484256284415" y1="-37.45584104415199" x2="-14.501528699403394" y2="-38.098628653838524" stroke="black" stroke-width="0.1" stroke-linecap="round" />
<line x1="-6.7618921878511875" y1="-30.500924592586387" x2="-6.7618921878511875" y2="-31.500924592586387" stroke="black" stroke-width="0.1" stroke-linecap="round" />
<line x1="-6.7618921878511875" y1="-31.500924592586387" x2="-6.7618921878511875" y2="-32.50092459258639" stroke="black" stroke-width="0.1" stroke-linecap="round" />
<line x1="-6.7618921878511875" y1="-32.50092459258639" x2="-6.339273926110488" y2="-33.40723237962304" stroke="black" stroke-width="0.1" stroke-linecap="round" />
<line x1="-6.339273926110488" y1="-33.40723237962304" x2="-5.916655664369789" y2="-34.31354016665969" stroke="black" stroke-width="0.1" stroke-linecap="round" />
<line x1="-5.916655664369789" y1="-34.31354016665969" x2="-5.916655664369789" y2="-35.31354016665969" stroke="black" stroke-width="0.1" stroke-linecap="round" />
<line x1="-6.7618921878511875" y1="-32.50092459258639" x2="-6.7618921878511875" y2="-33.50092459258639" stroke="black" stroke-width="0.1" stroke-linecap="round" />
<line x1="-6.7618921878511875" y1="-33.50092459258639" x2="-6.7618921878511875" y2="-34.50092459258639" stroke="black" stroke-width="0.1" stroke-linecap="round" />
<line x1="-6.7618921878511875" y1="-34.50092459258639" x2="-7.184510449591887" y2="-35.40723237962304" stroke="black" stroke-width="0.1" stroke-linecap="round" />
<line x1="-6.7618921878511875" y1="-32.50092459258639" x2="-6.7618921878511875" y2="-33.50092459258639" stroke="black" stroke-width="0.1" stroke-linecap="round" />
<line x1="-6.7618921878511875" y1="-33.50092459258639" x2="-6.7618921878511875" y2="-34.50092459258639" stroke="black" stroke-width="0.1" stroke-linecap="round" />
<line x1="-6.7618921878511875" y1="-34.50092459258639" x2="-7.184510449591887" y2="-35.40723237962304" stroke="black" stroke-width="0.1" stroke-linecap="round" />
<line x1="-7.184510449591887" y1="-35.40723237962304" x2="-7.607128711332586" y2="-36.31354016665969" stroke="black" stroke-width="0.1" stroke-linecap="round" />
<line x1="-7.607128711332586" y1="-36.31354016665969" x2="-8.029746973073285" y2="-37.219847953696345" stroke="black" stroke-width="0.1" stroke-linecap="round" />
<line x1="-8.029746973073285" y1="-37.219847953696345" x2="-8.452365234813985" y2="-38.126155740733" stroke="black" stroke-width="0.1" stroke-linecap="round" />
<line x1="-8.452365234813985" y1="-38.126155740733" x2="-9.218409677932964" y2="-38.76894335041953" stroke="black" stroke-width="0.1" stroke-linecap="round" />
<line x1="-6.7618921878511875" y1="-34.50092459258639" x2="-6.339273926110488" y2="-35.40723237962304" stroke="black" stroke-width="0.1" stroke-linecap="round" />
<line x1="-6.339273926110488" y1="-35.40723237962304" x2="-5.916655664369789" y2="-36.31354016665969" stroke="black" stroke-width="0.1" stroke-linecap="round" />
<line x1="-5.916655664369789" y1="-36.31354016665969" x2="-5.916655664369789" y2="-37.31354016665969" stroke="black" stroke-width="0.1" stroke-linecap="round" />
<line x1="9.797174393178826E-16" y1="-16.0" x2="0.42261826174070044" y2="-16.90630778703665" stroke="black" stroke-width="0.1" stroke-linecap="round" />
<line x1="0.42261826174070044" y1="-16.90630778703665" x2="0.8452365234813999" y2="-17.8126155740733" stroke="black" stroke-width="0.1" stroke-linecap="round" />
<line x1="0.8452365234813999" y1="-17.8126155740733" x2="1.2678547852220994" y2="-18.718923361109947" stroke="black" stroke-width="0.1" stroke-linecap="round" />
<line x1="1.2678547852220994" y1="-18.718923361109947" x2="1.6904730469627989" y2="-19.625231148146597" stroke="black" stroke-width="0.1" stroke-linecap="round" />
<line x1="1.6904730469627989" y1="-19.625231148146597" x2="2.4565174900817768" y2="-20.268018757833136" stroke="black" stroke-width="0.1" stroke-linecap="round" />
<line x1="2.4565174900817768" y1="-20.268018757833136" x2="3.2225619332007547" y2="-20.910806367519676" stroke="black" stroke-width="0.1" stroke-linecap="round" />
<line x1="3.2225619332007547" y1="-20.910806367519676" x2="4.188487759489823" y2="-21.169625412622196" stroke="black" stroke-width="0.1" stroke-linecap="round" />
<line x1="4.188487759489823" y1="-21.169625412622196" x2="5.154413585778892" y2="-21.428444457724716" stroke="black" stroke-width="0.1" stroke-linecap="round" />
<line x1="5.154413585778892" y1="-21.428444457724716" x2="5.92045802889787" y2="-22.071232067411255" stroke="black" stroke-width="0.1" stroke-linecap="round" />
<line x1="3.2225619332007547" y1="-20.910806367519676" x2="3.9886063763197326" y2="-21.553593977206216" stroke="black" stroke-width="0.1" stroke-linecap="round" />
<line x1="3.9886063763197326" y1="-21.553593977206216" x2="4.7546508194387105" y2="-22.196381586892755" stroke="black" stroke-width="0.1" stroke-linecap="round" />
<line x1="4.7546508194387105" y1="-22.196381586892755" x2="5.17726908117941" y2="-23.102689373929405" stroke="black" stroke-width="0.1" stroke-linecap="round" />
<line x1="3.2225619332007547" y1="-20.910806367519676" x2="3.9886063763197326" y2="-21.553593977206216" stroke="black" stroke-width="0.1" stroke-linecap="round" />
<line x1="3.9886063763197326" y1="-21.553593977206216" x2="4.7546508194387105" y2="-22.196381586892755" stroke="black" stroke-width="0.1" stroke-linecap="round" />
<line x1="4.7546508194387105" y1="-22.196381586892755" x2="5.17726908117941" y2="-23.102689373929405" stroke="black" stroke-width="0.1" stroke-linecap="round" />
<line x1="5.17726908117941" y1="-23.102689373929405" x2="5.599887342920109" y2="-24.008997160966054" stroke="black" stroke-width="0.1" stroke-linecap="round" />
<line x1="5.599887342920109" y1="-24.008997160966054" x2="6.022505604660808" y2="-24.915304948002703" stroke="black" stroke-width="0.1" stroke-linecap="round" />
<line x1="6.022505604660808" y1="-24.915304948002703" x2="6.445123866401508" y2="-25.821612735039352" stroke="black" stroke-width="0.1" stroke-linecap="round" />
<line x1="6.445123866401508" y1="-25.821612735039352" x2="6.445123866401508" y2="-26.821612735039352" stroke="black" stroke-width="0.1" stroke-linecap="round" />
<line x1="4.7546508194387105" y1="-22.196381586892755" x2="5.720576645727779" y2="-22.455200631995275" stroke="black" stroke-width="0.1" stroke-linecap="round" />
<line x1="5.720576645727779" y1="-22.455200631995275" x2="6.686502472016848" y2="-22.714019677097795" stroke="black" stroke-width="0.1" stroke-linecap="round" />
<line x1="6.686502472016848" y1="-22.714019677097795" x2="7.452546915135826" y2="-23.356807286784335" stroke="black" stroke-width="0.1" stroke-linecap="round" />
<line x1="1.6904730469627989" y1="-19.625231148146597" x2="2.113091308703498" y2="-20.531538935183246" stroke="black" stroke-width="0.1" stroke-linecap="round" />
<line x1="2.113091308703498" y1="-20.531538935183246" x2="2.5357095704441974" y2="-21.437846722219895" stroke="black" stroke-width="0.1" stroke-linecap="round" />
<line x1="2.5357095704441974" y1="-21.437846722219895" x2="3.3017540135631753" y2="-22.080634331906435" stroke="black" stroke-width="0.1" stroke-linecap="round" />
<line x1="3.3017540135631753" y1="-22.080634331906435" x2="4.067798456682153" y2="-22.723421941592974" stroke="black" stroke-width="0.1" stroke-linecap="round" />
<line x1="4.067798456682153" y1="-22.723421941592974" x2="4.4904167184228525" y2="-23.629729728629624" stroke="black" stroke-width="0.1" stroke-linecap="round" />
<line x1="2.5357095704441974" y1="-21.437846722219895" x2="2.9583278321848967" y2="-22.344154509256544" stroke="black" stroke-width="0.1" stroke-linecap="round" />
<line x1="2.9583278321848967" y1="-22.344154509256544" x2="3.380946093925596" y2="-23.250462296293193" stroke="black" stroke-width="0.1" stroke-linecap="round" />
<line x1="3.380946093925596" y1="-23.250462296293193" x2="3.380946093925596" y2="-24.250462296293193" stroke="black" stroke-width="0.1" stroke-linecap="round" />
<line x1="2.5357095704441974" y1="-21.437846722219895" x2="2.9583278321848967" y2="-22.344154509256544" stroke="black" stroke-width="0.1" stroke-linecap="round" />
<line x1="2.9583278321848967" y1="-22.344154509256544" x2="3.380946093925596" y2="-23.250462296293193" stroke="black" stroke-width="0.1" stroke-linecap="round" />
<line x1="3.380946093925596" y1="-23.250462296293193" x2="3.380946093925596" y2="-24.250462296293193" stroke="black" stroke-width="0.1" stroke-linecap="round" />
<line x1="3.380946093925596" y1="-24.250462296293193" x2="3.380946093925596" y2="-25.250462296293193" stroke="black" stroke-width="0.1" stroke-linecap="round" />
<line x1="3.380946093925596" y1="-25.250462296293193" x2="3.380946093925596" y2="-26.250462296293193" stroke="black" stroke-width="0.1" stroke-linecap="round" />
<line x1="3.380946093925596" y1="-26.250462296293193" x2="3.380946093925596" y2="-27.250462296293193" stroke="black" stroke-width="0.1" stroke-linecap="round" />
<line x1="3.380946093925596" y1="-27.250462296293193" x2="2.9583278321848967" y2="-28.156770083329842" stroke="black" stroke-width="0.1" stroke-linecap="round" />
<line x1="3.380946093925596" y1="-23.250462296293193" x2="4.146990537044574" y2="-23.893249905979733" stroke="black" stroke-width="0.1" stroke-linecap="round" />
<line x1="4.146990537044574" y1="-23.893249905979733" x2="4.913034980163552" y2="-24.536037515666273" stroke="black" stroke-width="0.1" stroke-linecap="round" />
<line x1="4.913034980163552" y1="-24.536037515666273" x2="5.335653241904251" y2="-25.442345302702922" stroke="black" stroke-width="0.1" stroke-linecap="round" />
<line x1="1.6904730469627989" y1="-19.625231148146597" x2="2.113091308703498" y2="-20.531538935183246" stroke="black" stroke-width="0.1" stroke-linecap="round" />
<line x1="2.113091308703498" y1="-20.531538935183246" x2="2.5357095704441974" y2="-21.437846722219895" stroke="black" stroke-width="0.1" stroke-linecap="round" />
<line x1="2.5357095704441974" y1="-21.437846722219895" x2="2.9583278321848967" y2="-22.344154509256544" stroke="black" stroke-width="0.1" stroke-linecap="round" />
<line x1="2.9583278321848967" y1="-22.344154509256544" x2="3.380946093925596" y2="-23.250462296293193" stroke="black" stroke-width="0.1" stroke-linecap="round" />
<line x1="3.380946093925596" y1="-23.250462296293193" x2="3.380946093925596" y2="-24.250462296293193" stroke="black" stroke-width="0.1" stroke-linecap="round" />
<line x1="3.380946093925596" y1="-24.250462296293193" x2="3.380946093925596" y2="-25.250462296293193" stroke="black" stroke-width="0.1" stroke-linecap="round" />
<line x1="3.380946093925596" y1="-25.250462296293193" x2="3.380946093925596" y2="-26.250462296293193" stroke="black" stroke-width="0.1" stroke-linecap="round" />
<line x1="3.380946093925596" y1="-26.250462296293193" x2="3.380946093925596" y2="-27.250462296293193" stroke="black" stroke-width="0.1" stroke-linecap="round" />
<line x1="3.380946093925596" y1="-27.250462296293193" x2="3.380946093925596" y2="-28.250462296293193" stroke="black" stroke-width="0.1" stroke-linecap="round" />
<line x1="3.380946093925596" y1="-28.250462296293193" x2="3.380946093925596" y2="-29.250462296293193" stroke="black" stroke-width="0.1" stroke-linecap="round" />
<line x1="3.380946093925596" y1="-29.250462296293193" x2="3.8035643556662952" y2="-30.156770083329842" stroke="black" stroke-width="0.1" stroke-linecap="round" />
<line x1="3.8035643556662952" y1="-30.156770083329842" x2="4.2261826174069945" y2="-31.06307787036649" stroke="black" stroke-width="0.1" stroke-linecap="round" />
<line x1="4.2261826174069945" y1="-31.06307787036649" x2="4.2261826174069945" y2="-32.06307787036649" stroke="black" stroke-width="0.1" stroke-linecap="round" />
<line x1="3.380946093925596" y1="-29.250462296293193" x2="3.380946093925596" y2="-30.250462296293193" stroke="black" stroke-width="0.1" stroke-linecap="round" />
<line x1="3.380946093925596" y1="-30.250462296293193" x2="3.380946093925596" y2="-31.250462296293193" stroke="black" stroke-width="0.1" stroke-linecap="round" />
<line x1="3.380946093925596" y1="-31.250462296293193" x2="2.9583278321848967" y2="-32.156770083329846" stroke="black" stroke-width="0.1" stroke-linecap="round" />
<line x1="3.380946093925596" y1="-29.250462296293193" x2="3.380946093925596" y2="-30.250462296293193" stroke="black" stroke-width="0.1" stroke-linecap="round" />
<line x1="3.380946093925596" y1="-30.250462296293193" x2="3.380946093925596" y2="-31.250462296293193" stroke="black" stroke-width="0.1" stroke-linecap="round" />
<line x1="3.380946093925596" y1="-31.250462296293193" x2="2.9583278321848967" y2="-32.156770083329846" stroke="black" stroke-width="0.1" stroke-linecap="round" />
<line x1="2.9583278321848967" y1="-32.156770083329846" x2="2.5357095704441974" y2="-33.0630778703665" stroke="black" stroke-width="0.1" stroke-linecap="round" />
<line x1="2.5357095704441974" y1="-33.0630778703665" x2="2.113091308703498" y2="-33.96938565740315" stroke="black" stroke-width="0.1" stroke-linecap="round" />
<line x1="2.113091308703498" y1="-33.96938565740315" x2="1.6904730469627989" y2="-34.875693444439804" stroke="black" stroke-width="0.1" stroke-linecap="round" />
<line x1="1.6904730469627989" y1="-34.875693444439804" x2="0.924428603843821" y2="-35.51848105412634" stroke="black" stroke-width="0.1" stroke-linecap="round" />
<line x1="3.380946093925596" y1="-31.250462296293193" x2="3.8035643556662952" y2="-32.156770083329846" stroke="black" stroke-width="0.1" stroke-linecap="round" />
<line x1="3.8035643556662952" y1="-32.156770083329846" x2="4.2261826174069945" y2="-33.0630778703665" stroke="black" stroke-width="0.1" stroke-linecap="round" />
<line x1="4.2261826174069945" y1="-33.0630778703665" x2="4.2261826174069945" y2="-34.0630778703665" stroke="black" stroke-width="0.1" stroke-linecap="round" />
<line x1="3.380946093925596" y1="-23.250462296293193" x2="4.146990537044574" y2="-23.893249905979733" stroke="black" stroke-width="0.1" stroke-linecap="round" />
<line x1="4.146990537044574" y1="-23.893249905979733" x2="4.913034980163552" y2="-24.536037515666273" stroke="black" stroke-width="0.1" stroke-linecap="round" />
<line x1="4.913034980163552" y1="-24.536037515666273" x2="5.87896080645262" y2="-24.794856560768793" stroke="black" stroke-width="0.1" stroke-linecap="round" />
<line x1="5.87896080645262" y1="-24.794856560768793" x2="6.844886632741689" y2="-25.053675605871312" stroke="black" stroke-width="0.1" stroke-linecap="round" />
<line x1="6.844886632741689" y1="-25.053675605871312" x2="7.610931075860667" y2="-25.696463215557852" stroke="black" stroke-width="0.1" stroke-linecap="round" />
<line x1="4.913034980163552" y1="-24.536037515666273" x2="5.67907942328253" y2="-25.178825125352812" stroke="black" stroke-width="0.1" stroke-linecap="round" />
<line x1="5.67907942328253" y1="-25.178825125352812" x2="6.445123866401508" y2="-25.821612735039352" stroke="black" stroke-width="0.1" stroke-linecap="round" />
<line x1="6.445123866401508" y1="-25.821612735039352" x2="6.867742128142207" y2="-26.727920522076" stroke="black" stroke-width="0.1" stroke-linecap="round" />
<line x1="4.913034980163552" y1="-24.536037515666273" x2="5.67907942328253" y2="-25.178825125352812" stroke="black" stroke-width="0.1" stroke-linecap="round" />
<line x1="5.67907942328253" y1="-25.178825125352812" x2="6.445123866401508" y2="-25.821612735039352" stroke="black" stroke-width="0.1" stroke-linecap="round" />
<line x1="6.445123866401508" y1="-25.821612735039352" x2="6.867742128142207" y2="-26.727920522076" stroke="black" stroke-width="0.1" stroke-linecap="round" />
<line x1="6.867742128142207" y1="-26.727920522076" x2="7.290360389882906" y2="-27.63422830911265" stroke="black" stroke-width="0.1" stroke-linecap="round" />
<line x1="7.290360389882906" y1="-27.63422830911265" x2="7.712978651623605" y2="-28.5405360961493" stroke="black" stroke-width="0.1" stroke-linecap="round" />
<line x1="7.712978651623605" y1="-28.5405360961493" x2="8.135596913364305" y2="-29.44684388318595" stroke="black" stroke-width="0.1" stroke-linecap="round" />
<line x1="8.135596913364305" y1="-29.44684388318595" x2="8.135596913364305" y2="-30.44684388318595" stroke="black" stroke-width="0.1" stroke-linecap="round" />
<line x1="6.445123866401508" y1="-25.821612735039352" x2="7.411049692690576" y2="-26.080431780141872" stroke="black" stroke-width="0.1" stroke-linecap="round" />
<line x1="7.411049692690576" y1="-26.080431780141872" x2="8.376975518979645" y2="-26.33925082524439" stroke="black" stroke-width="0.1" stroke-linecap="round" />
<line x1="8.376975518979645" y1="-26.33925082524439" x2="9.143019962098624" y2="-26.98203843493093" stroke="black" stroke-width="0.1" stroke-linecap="round" />
</svg>